<?xml version="1.0" encoding="UTF-8" standalone="no"?><svg xmlns="http://www.w3.org/2000/svg" xmlns:xlink="http://www.w3.org/1999/xlink" contentScriptType="application/ecmascript" contentStyleType="text/css" height="864px" preserveAspectRatio="none" style="width:902px;height:864px;" version="1.1" viewBox="0 0 902 864" width="902px" zoomAndPan="magnify"><defs><filter height="300%" id="f16r04uc6fgsdw" width="300%" x="-1" y="-1"><feGaussianBlur result="blurOut" stdDeviation="2.0"/><feColorMatrix in="blurOut" result="blurOut2" type="matrix" values="0 0 0 0 0 0 0 0 0 0 0 0 0 0 0 0 0 0 .4 0"/><feOffset dx="4.0" dy="4.0" in="blurOut2" result="blurOut3"/><feBlend in="SourceGraphic" in2="blurOut3" mode="normal"/></filter></defs><g><!--class Website--><rect fill="#FEFECE" filter="url(#f16r04uc6fgsdw)" height="65.6094" id="Website" style="stroke: #A80036; stroke-width: 1.5;" width="127" x="48.5" y="290.5"/><ellipse cx="83.75" cy="306.5" fill="#ADD1B2" rx="11" ry="11" style="stroke: #A80036; stroke-width: 1.0;"/><path d="M86.7188,312.1406 Q86.1406,312.4375 85.5,312.5781 Q84.8594,312.7344 84.1563,312.7344 Q81.6563,312.7344 80.3281,311.0938 Q79.0156,309.4375 79.0156,306.3125 Q79.0156,303.1875 80.3281,301.5313 Q81.6563,299.875 84.1563,299.875 Q84.8594,299.875 85.5,300.0313 Q86.1563,300.1875 86.7188,300.4844 L86.7188,303.2031 Q86.0938,302.625 85.5,302.3594 Q84.9063,302.0781 84.2813,302.0781 Q82.9375,302.0781 82.25,303.1563 Q81.5625,304.2188 81.5625,306.3125 Q81.5625,308.4063 82.25,309.4844 Q82.9375,310.5469 84.2813,310.5469 Q84.9063,310.5469 85.5,310.2813 Q86.0938,310 86.7188,309.4219 L86.7188,312.1406 Z "/><text fill="#000000" font-family="sans-serif" font-size="12" lengthAdjust="spacingAndGlyphs" textLength="50" x="102.25" y="310.6543">Website</text><line style="stroke: #A80036; stroke-width: 1.5;" x1="49.5" x2="174.5" y1="322.5" y2="322.5"/><text fill="#000000" font-family="sans-serif" font-size="11" lengthAdjust="spacingAndGlyphs" textLength="115" x="54.5" y="336.7104">local_directory: Path</text><text fill="#000000" font-family="sans-serif" font-size="11" lengthAdjust="spacingAndGlyphs" textLength="51" x="54.5" y="349.5151">urls: URL</text><!--class HTMLDocument--><rect fill="#FEFECE" filter="url(#f16r04uc6fgsdw)" height="91.2188" id="HTMLDocument" style="stroke: #A80036; stroke-width: 1.5;" width="220" x="94" y="491"/><ellipse cx="151.75" cy="507" fill="#ADD1B2" rx="11" ry="11" style="stroke: #A80036; stroke-width: 1.0;"/><path d="M154.7188,512.6406 Q154.1406,512.9375 153.5,513.0781 Q152.8594,513.2344 152.1563,513.2344 Q149.6563,513.2344 148.3281,511.5938 Q147.0156,509.9375 147.0156,506.8125 Q147.0156,503.6875 148.3281,502.0313 Q149.6563,500.375 152.1563,500.375 Q152.8594,500.375 153.5,500.5313 Q154.1563,500.6875 154.7188,500.9844 L154.7188,503.7031 Q154.0938,503.125 153.5,502.8594 Q152.9063,502.5781 152.2813,502.5781 Q150.9375,502.5781 150.25,503.6563 Q149.5625,504.7188 149.5625,506.8125 Q149.5625,508.9063 150.25,509.9844 Q150.9375,511.0469 152.2813,511.0469 Q152.9063,511.0469 153.5,510.7813 Q154.0938,510.5 154.7188,509.9219 L154.7188,512.6406 Z "/><text fill="#000000" font-family="sans-serif" font-size="12" lengthAdjust="spacingAndGlyphs" textLength="96" x="172.25" y="511.1543">HTMLDocument</text><line style="stroke: #A80036; stroke-width: 1.5;" x1="95" x2="313" y1="523" y2="523"/><text fill="#000000" font-family="sans-serif" font-size="11" lengthAdjust="spacingAndGlyphs" textLength="153" x="100" y="537.2104">scripts: Collection&lt;Script&gt;</text><text fill="#000000" font-family="sans-serif" font-size="11" lengthAdjust="spacingAndGlyphs" textLength="208" x="100" y="550.0151">stylesheets: Collection&lt;StyleSheet&gt;</text><text fill="#000000" font-family="sans-serif" font-size="11" lengthAdjust="spacingAndGlyphs" textLength="158" x="100" y="562.8198">images: Collection&lt;Image&gt;</text><text fill="#000000" font-family="sans-serif" font-size="11" lengthAdjust="spacingAndGlyphs" textLength="166" x="100" y="575.6245">anchors: Collection&lt;Anchor&gt;</text><!--class Resource--><rect fill="#FEFECE" filter="url(#f16r04uc6fgsdw)" height="116.8281" id="Resource" style="stroke: #A80036; stroke-width: 1.5;" width="228" x="90" y="643"/><ellipse cx="170.25" cy="659" fill="#ADD1B2" rx="11" ry="11" style="stroke: #A80036; stroke-width: 1.0;"/><path d="M173.2188,664.6406 Q172.6406,664.9375 172,665.0781 Q171.3594,665.2344 170.6563,665.2344 Q168.1563,665.2344 166.8281,663.5938 Q165.5156,661.9375 165.5156,658.8125 Q165.5156,655.6875 166.8281,654.0313 Q168.1563,652.375 170.6563,652.375 Q171.3594,652.375 172,652.5313 Q172.6563,652.6875 173.2188,652.9844 L173.2188,655.7031 Q172.5938,655.125 172,654.8594 Q171.4063,654.5781 170.7813,654.5781 Q169.4375,654.5781 168.75,655.6563 Q168.0625,656.7188 168.0625,658.8125 Q168.0625,660.9063 168.75,661.9844 Q169.4375,663.0469 170.7813,663.0469 Q171.4063,663.0469 172,662.7813 Q172.5938,662.5 173.2188,661.9219 L173.2188,664.6406 Z "/><text fill="#000000" font-family="sans-serif" font-size="12" lengthAdjust="spacingAndGlyphs" textLength="59" x="190.75" y="663.1543">Resource</text><line style="stroke: #A80036; stroke-width: 1.5;" x1="91" x2="317" y1="675" y2="675"/><text fill="#000000" font-family="sans-serif" font-size="11" lengthAdjust="spacingAndGlyphs" textLength="58" x="96" y="689.2104">path: Path</text><text fill="#000000" font-family="sans-serif" font-size="11" lengthAdjust="spacingAndGlyphs" textLength="44" x="96" y="702.0151">url: URL</text><text fill="#000000" font-family="sans-serif" font-size="11" lengthAdjust="spacingAndGlyphs" textLength="216" x="96" y="714.8198">foundOn: Collection&lt;HTMLDocument&gt;</text><text fill="#000000" font-family="sans-serif" font-size="11" lengthAdjust="spacingAndGlyphs" textLength="94" x="96" y="727.6245">location: Locality</text><text fill="#000000" font-family="sans-serif" font-size="11" lengthAdjust="spacingAndGlyphs" textLength="175" x="96" y="740.4292">typeOfResource: ResourceKind</text><text fill="#000000" font-family="sans-serif" font-size="11" lengthAdjust="spacingAndGlyphs" textLength="86" x="96" y="753.2339">sizeOfFile: long</text><!--class Anchor--><rect fill="#FEFECE" filter="url(#f16r04uc6fgsdw)" height="32" id="Anchor" style="stroke: #A80036; stroke-width: 1.5;" width="76" x="6" y="821"/><ellipse cx="21" cy="837" fill="#ADD1B2" rx="11" ry="11" style="stroke: #A80036; stroke-width: 1.0;"/><path d="M23.9688,842.6406 Q23.3906,842.9375 22.75,843.0781 Q22.1094,843.2344 21.4063,843.2344 Q18.9063,843.2344 17.5781,841.5938 Q16.2656,839.9375 16.2656,836.8125 Q16.2656,833.6875 17.5781,832.0313 Q18.9063,830.375 21.4063,830.375 Q22.1094,830.375 22.75,830.5313 Q23.4063,830.6875 23.9688,830.9844 L23.9688,833.7031 Q23.3438,833.125 22.75,832.8594 Q22.1563,832.5781 21.5313,832.5781 Q20.1875,832.5781 19.5,833.6563 Q18.8125,834.7188 18.8125,836.8125 Q18.8125,838.9063 19.5,839.9844 Q20.1875,841.0469 21.5313,841.0469 Q22.1563,841.0469 22.75,840.7813 Q23.3438,840.5 23.9688,839.9219 L23.9688,842.6406 Z "/><text fill="#000000" font-family="sans-serif" font-size="12" lengthAdjust="spacingAndGlyphs" textLength="44" x="35" y="841.1543">Anchor</text><!--class Image--><rect fill="#FEFECE" filter="url(#f16r04uc6fgsdw)" height="32" id="Image" style="stroke: #A80036; stroke-width: 1.5;" width="70" x="117" y="821"/><ellipse cx="132" cy="837" fill="#ADD1B2" rx="11" ry="11" style="stroke: #A80036; stroke-width: 1.0;"/><path d="M134.9688,842.6406 Q134.3906,842.9375 133.75,843.0781 Q133.1094,843.2344 132.4063,843.2344 Q129.9063,843.2344 128.5781,841.5938 Q127.2656,839.9375 127.2656,836.8125 Q127.2656,833.6875 128.5781,832.0313 Q129.9063,830.375 132.4063,830.375 Q133.1094,830.375 133.75,830.5313 Q134.4063,830.6875 134.9688,830.9844 L134.9688,833.7031 Q134.3438,833.125 133.75,832.8594 Q133.1563,832.5781 132.5313,832.5781 Q131.1875,832.5781 130.5,833.6563 Q129.8125,834.7188 129.8125,836.8125 Q129.8125,838.9063 130.5,839.9844 Q131.1875,841.0469 132.5313,841.0469 Q133.1563,841.0469 133.75,840.7813 Q134.3438,840.5 134.9688,839.9219 L134.9688,842.6406 Z "/><text fill="#000000" font-family="sans-serif" font-size="12" lengthAdjust="spacingAndGlyphs" textLength="38" x="146" y="841.1543">Image</text><!--class Script--><rect fill="#FEFECE" filter="url(#f16r04uc6fgsdw)" height="32" id="Script" style="stroke: #A80036; stroke-width: 1.5;" width="68" x="222" y="821"/><ellipse cx="237" cy="837" fill="#ADD1B2" rx="11" ry="11" style="stroke: #A80036; stroke-width: 1.0;"/><path d="M239.9688,842.6406 Q239.3906,842.9375 238.75,843.0781 Q238.1094,843.2344 237.4063,843.2344 Q234.9063,843.2344 233.5781,841.5938 Q232.2656,839.9375 232.2656,836.8125 Q232.2656,833.6875 233.5781,832.0313 Q234.9063,830.375 237.4063,830.375 Q238.1094,830.375 238.75,830.5313 Q239.4063,830.6875 239.9688,830.9844 L239.9688,833.7031 Q239.3438,833.125 238.75,832.8594 Q238.1563,832.5781 237.5313,832.5781 Q236.1875,832.5781 235.5,833.6563 Q234.8125,834.7188 234.8125,836.8125 Q234.8125,838.9063 235.5,839.9844 Q236.1875,841.0469 237.5313,841.0469 Q238.1563,841.0469 238.75,840.7813 Q239.3438,840.5 239.9688,839.9219 L239.9688,842.6406 Z "/><text fill="#000000" font-family="sans-serif" font-size="12" lengthAdjust="spacingAndGlyphs" textLength="36" x="251" y="841.1543">Script</text><!--class StyleSheet--><rect fill="#FEFECE" filter="url(#f16r04uc6fgsdw)" height="32" id="StyleSheet" style="stroke: #A80036; stroke-width: 1.5;" width="99" x="325.5" y="821"/><ellipse cx="340.5" cy="837" fill="#ADD1B2" rx="11" ry="11" style="stroke: #A80036; stroke-width: 1.0;"/><path d="M343.4688,842.6406 Q342.8906,842.9375 342.25,843.0781 Q341.6094,843.2344 340.9063,843.2344 Q338.4063,843.2344 337.0781,841.5938 Q335.7656,839.9375 335.7656,836.8125 Q335.7656,833.6875 337.0781,832.0313 Q338.4063,830.375 340.9063,830.375 Q341.6094,830.375 342.25,830.5313 Q342.9063,830.6875 343.4688,830.9844 L343.4688,833.7031 Q342.8438,833.125 342.25,832.8594 Q341.6563,832.5781 341.0313,832.5781 Q339.6875,832.5781 339,833.6563 Q338.3125,834.7188 338.3125,836.8125 Q338.3125,838.9063 339,839.9844 Q339.6875,841.0469 341.0313,841.0469 Q341.6563,841.0469 342.25,840.7813 Q342.8438,840.5 343.4688,839.9219 L343.4688,842.6406 Z "/><text fill="#000000" font-family="sans-serif" font-size="12" lengthAdjust="spacingAndGlyphs" textLength="67" x="354.5" y="841.1543">StyleSheet</text><!--class Locality--><rect fill="#FEFECE" filter="url(#f16r04uc6fgsdw)" height="84.3516" id="Locality" style="stroke: #A80036; stroke-width: 1.5;" width="78" x="255" y="40"/><ellipse cx="270" cy="58.9688" fill="#EB937F" rx="11" ry="11" style="stroke: #A80036; stroke-width: 1.0;"/><path d="M274.1094,64.9688 L266.3906,64.9688 L266.3906,52.5781 L274.1094,52.5781 L274.1094,54.7344 L268.8438,54.7344 L268.8438,57.4063 L273.6094,57.4063 L273.6094,59.5625 L268.8438,59.5625 L268.8438,62.8125 L274.1094,62.8125 L274.1094,64.9688 Z "/><text fill="#000000" font-family="sans-serif" font-size="12" font-style="italic" lengthAdjust="spacingAndGlyphs" textLength="49" x="282.5" y="56.1387">«Enum»</text><text fill="#000000" font-family="sans-serif" font-size="12" lengthAdjust="spacingAndGlyphs" textLength="46" x="284" y="70.1074">Locality</text><line style="stroke: #A80036; stroke-width: 1.5;" x1="256" x2="332" y1="77.9375" y2="77.9375"/><text fill="#000000" font-family="sans-serif" font-size="11" lengthAdjust="spacingAndGlyphs" textLength="53" x="261" y="92.1479">INTERNAL</text><text fill="#000000" font-family="sans-serif" font-size="11" lengthAdjust="spacingAndGlyphs" textLength="62" x="261" y="104.9526">INTRAPAGE</text><text fill="#000000" font-family="sans-serif" font-size="11" lengthAdjust="spacingAndGlyphs" textLength="56" x="261" y="117.7573">EXTERNAL</text><!--class ResourceKind--><rect fill="#FEFECE" filter="url(#f16r04uc6fgsdw)" height="148.375" id="ResourceKind" style="stroke: #A80036; stroke-width: 1.5;" width="117" x="369.5" y="8"/><ellipse cx="384.5" cy="26.9688" fill="#EB937F" rx="11" ry="11" style="stroke: #A80036; stroke-width: 1.0;"/><path d="M388.6094,32.9688 L380.8906,32.9688 L380.8906,20.5781 L388.6094,20.5781 L388.6094,22.7344 L383.3438,22.7344 L383.3438,25.4063 L388.1094,25.4063 L388.1094,27.5625 L383.3438,27.5625 L383.3438,30.8125 L388.6094,30.8125 L388.6094,32.9688 Z "/><text fill="#000000" font-family="sans-serif" font-size="12" font-style="italic" lengthAdjust="spacingAndGlyphs" textLength="49" x="416.5" y="24.1387">«Enum»</text><text fill="#000000" font-family="sans-serif" font-size="12" lengthAdjust="spacingAndGlyphs" textLength="85" x="398.5" y="38.1074">ResourceKind</text><line style="stroke: #A80036; stroke-width: 1.5;" x1="370.5" x2="485.5" y1="45.9375" y2="45.9375"/><text fill="#000000" font-family="sans-serif" font-size="11" lengthAdjust="spacingAndGlyphs" textLength="35" x="375.5" y="60.1479">IMAGE</text><text fill="#000000" font-family="sans-serif" font-size="11" lengthAdjust="spacingAndGlyphs" textLength="72" x="375.5" y="72.9526">STYLESHEET</text><text fill="#000000" font-family="sans-serif" font-size="11" lengthAdjust="spacingAndGlyphs" textLength="40" x="375.5" y="85.7573">SCRIPT</text><text fill="#000000" font-family="sans-serif" font-size="11" lengthAdjust="spacingAndGlyphs" textLength="47" x="375.5" y="98.562">ANCHOR</text><text fill="#000000" font-family="sans-serif" font-size="11" lengthAdjust="spacingAndGlyphs" textLength="34" x="375.5" y="111.3667">VIDEO</text><text fill="#000000" font-family="sans-serif" font-size="11" lengthAdjust="spacingAndGlyphs" textLength="35" x="375.5" y="124.1714">AUDIO</text><text fill="#000000" font-family="sans-serif" font-size="11" lengthAdjust="spacingAndGlyphs" textLength="47" x="375.5" y="136.9761">ARCHIVE</text><text fill="#000000" font-family="sans-serif" font-size="11" lengthAdjust="spacingAndGlyphs" textLength="38" x="375.5" y="149.7808">OTHER</text><!--class ReportManager--><rect fill="#FEFECE" filter="url(#f16r04uc6fgsdw)" height="104.0234" id="ReportManager" style="stroke: #A80036; stroke-width: 1.5;" width="240" x="523" y="30"/><ellipse cx="590.25" cy="46" fill="#ADD1B2" rx="11" ry="11" style="stroke: #A80036; stroke-width: 1.0;"/><path d="M593.2188,51.6406 Q592.6406,51.9375 592,52.0781 Q591.3594,52.2344 590.6563,52.2344 Q588.1563,52.2344 586.8281,50.5938 Q585.5156,48.9375 585.5156,45.8125 Q585.5156,42.6875 586.8281,41.0313 Q588.1563,39.375 590.6563,39.375 Q591.3594,39.375 592,39.5313 Q592.6563,39.6875 593.2188,39.9844 L593.2188,42.7031 Q592.5938,42.125 592,41.8594 Q591.4063,41.5781 590.7813,41.5781 Q589.4375,41.5781 588.75,42.6563 Q588.0625,43.7188 588.0625,45.8125 Q588.0625,47.9063 588.75,48.9844 Q589.4375,50.0469 590.7813,50.0469 Q591.4063,50.0469 592,49.7813 Q592.5938,49.5 593.2188,48.9219 L593.2188,51.6406 Z "/><text fill="#000000" font-family="sans-serif" font-size="12" lengthAdjust="spacingAndGlyphs" textLength="97" x="610.75" y="50.1543">ReportManager</text><line style="stroke: #A80036; stroke-width: 1.5;" x1="524" x2="762" y1="62" y2="62"/><text fill="#000000" font-family="sans-serif" font-size="11" lengthAdjust="spacingAndGlyphs" textLength="165" x="529" y="76.2104">setSourceData(site: Website)</text><text fill="#000000" font-family="sans-serif" font-size="11" lengthAdjust="spacingAndGlyphs" textLength="146" x="529" y="89.0151">determineBaseFilename()</text><text fill="#000000" font-family="sans-serif" font-size="11" lengthAdjust="spacingAndGlyphs" textLength="228" x="529" y="101.8198">writeReportNames(outs: BufferedWriter)</text><text fill="#000000" font-family="sans-serif" font-size="11" lengthAdjust="spacingAndGlyphs" textLength="0" x="533" y="114.6245"/><text fill="#000000" font-family="sans-serif" font-size="11" lengthAdjust="spacingAndGlyphs" textLength="49" x="529" y="127.4292">writeAll()</text><!--class ReportWriter--><rect fill="#FEFECE" filter="url(#f16r04uc6fgsdw)" height="112.0234" id="ReportWriter" style="stroke: #A80036; stroke-width: 1.5;" width="222" x="532" y="267.5"/><ellipse cx="599.25" cy="283.5" fill="#ADD1B2" rx="11" ry="11" style="stroke: #A80036; stroke-width: 1.0;"/><path d="M602.2188,289.1406 Q601.6406,289.4375 601,289.5781 Q600.3594,289.7344 599.6563,289.7344 Q597.1563,289.7344 595.8281,288.0938 Q594.5156,286.4375 594.5156,283.3125 Q594.5156,280.1875 595.8281,278.5313 Q597.1563,276.875 599.6563,276.875 Q600.3594,276.875 601,277.0313 Q601.6563,277.1875 602.2188,277.4844 L602.2188,280.2031 Q601.5938,279.625 601,279.3594 Q600.4063,279.0781 599.7813,279.0781 Q598.4375,279.0781 597.75,280.1563 Q597.0625,281.2188 597.0625,283.3125 Q597.0625,285.4063 597.75,286.4844 Q598.4375,287.5469 599.7813,287.5469 Q600.4063,287.5469 601,287.2813 Q601.5938,287 602.2188,286.4219 L602.2188,289.1406 Z "/><text fill="#000000" font-family="sans-serif" font-size="12" lengthAdjust="spacingAndGlyphs" textLength="79" x="619.75" y="287.6543">ReportWriter</text><line style="stroke: #A80036; stroke-width: 1.5;" x1="533" x2="753" y1="299.5" y2="299.5"/><text fill="#000000" font-family="sans-serif" font-size="11" lengthAdjust="spacingAndGlyphs" textLength="96" x="538" y="313.7104">website: Website</text><line style="stroke: #A80036; stroke-width: 1.5;" x1="533" x2="753" y1="320.3047" y2="320.3047"/><text fill="#000000" font-family="sans-serif" font-size="11" lengthAdjust="spacingAndGlyphs" textLength="165" x="538" y="334.5151">setSourceData(site: Website)</text><text fill="#000000" font-family="sans-serif" font-size="11" lengthAdjust="spacingAndGlyphs" textLength="210" x="538" y="347.3198">setBaseName(baseFileName: String)</text><text fill="#000000" font-family="sans-serif" font-size="11" lengthAdjust="spacingAndGlyphs" textLength="0" x="542" y="360.1245"/><text fill="#000000" font-family="sans-serif" font-size="11" lengthAdjust="spacingAndGlyphs" textLength="36" x="538" y="372.9292">write()</text><!--class TextReportWriter--><rect fill="#FEFECE" filter="url(#f16r04uc6fgsdw)" height="32" id="TextReportWriter" style="stroke: #A80036; stroke-width: 1.5;" width="137" x="400.5" y="520.5"/><ellipse cx="415.5" cy="536.5" fill="#ADD1B2" rx="11" ry="11" style="stroke: #A80036; stroke-width: 1.0;"/><path d="M418.4688,542.1406 Q417.8906,542.4375 417.25,542.5781 Q416.6094,542.7344 415.9063,542.7344 Q413.4063,542.7344 412.0781,541.0938 Q410.7656,539.4375 410.7656,536.3125 Q410.7656,533.1875 412.0781,531.5313 Q413.4063,529.875 415.9063,529.875 Q416.6094,529.875 417.25,530.0313 Q417.9063,530.1875 418.4688,530.4844 L418.4688,533.2031 Q417.8438,532.625 417.25,532.3594 Q416.6563,532.0781 416.0313,532.0781 Q414.6875,532.0781 414,533.1563 Q413.3125,534.2188 413.3125,536.3125 Q413.3125,538.4063 414,539.4844 Q414.6875,540.5469 416.0313,540.5469 Q416.6563,540.5469 417.25,540.2813 Q417.8438,540 418.4688,539.4219 L418.4688,542.1406 Z "/><text fill="#000000" font-family="sans-serif" font-size="12" lengthAdjust="spacingAndGlyphs" textLength="105" x="429.5" y="540.6543">TextReportWriter</text><!--class JSONReportWriter--><rect fill="#FEFECE" filter="url(#f16r04uc6fgsdw)" height="32" id="JSONReportWriter" style="stroke: #A80036; stroke-width: 1.5;" width="140" x="573" y="520.5"/><ellipse cx="588" cy="536.5" fill="#ADD1B2" rx="11" ry="11" style="stroke: #A80036; stroke-width: 1.0;"/><path d="M590.9688,542.1406 Q590.3906,542.4375 589.75,542.5781 Q589.1094,542.7344 588.4063,542.7344 Q585.9063,542.7344 584.5781,541.0938 Q583.2656,539.4375 583.2656,536.3125 Q583.2656,533.1875 584.5781,531.5313 Q585.9063,529.875 588.4063,529.875 Q589.1094,529.875 589.75,530.0313 Q590.4063,530.1875 590.9688,530.4844 L590.9688,533.2031 Q590.3438,532.625 589.75,532.3594 Q589.1563,532.0781 588.5313,532.0781 Q587.1875,532.0781 586.5,533.1563 Q585.8125,534.2188 585.8125,536.3125 Q585.8125,538.4063 586.5,539.4844 Q587.1875,540.5469 588.5313,540.5469 Q589.1563,540.5469 589.75,540.2813 Q590.3438,540 590.9688,539.4219 L590.9688,542.1406 Z "/><text fill="#000000" font-family="sans-serif" font-size="12" lengthAdjust="spacingAndGlyphs" textLength="108" x="602" y="540.6543">JSONReportWriter</text><!--class ExcelReportWriter--><rect fill="#FEFECE" filter="url(#f16r04uc6fgsdw)" height="32" id="ExcelReportWriter" style="stroke: #A80036; stroke-width: 1.5;" width="143" x="748.5" y="520.5"/><ellipse cx="763.5" cy="536.5" fill="#ADD1B2" rx="11" ry="11" style="stroke: #A80036; stroke-width: 1.0;"/><path d="M766.4688,542.1406 Q765.8906,542.4375 765.25,542.5781 Q764.6094,542.7344 763.9063,542.7344 Q761.4063,542.7344 760.0781,541.0938 Q758.7656,539.4375 758.7656,536.3125 Q758.7656,533.1875 760.0781,531.5313 Q761.4063,529.875 763.9063,529.875 Q764.6094,529.875 765.25,530.0313 Q765.9063,530.1875 766.4688,530.4844 L766.4688,533.2031 Q765.8438,532.625 765.25,532.3594 Q764.6563,532.0781 764.0313,532.0781 Q762.6875,532.0781 762,533.1563 Q761.3125,534.2188 761.3125,536.3125 Q761.3125,538.4063 762,539.4844 Q762.6875,540.5469 764.0313,540.5469 Q764.6563,540.5469 765.25,540.2813 Q765.8438,540 766.4688,539.4219 L766.4688,542.1406 Z "/><text fill="#000000" font-family="sans-serif" font-size="12" lengthAdjust="spacingAndGlyphs" textLength="111" x="777.5" y="540.6543">ExcelReportWriter</text><!--class WebsiteBuilder--><rect fill="#FEFECE" filter="url(#f16r04uc6fgsdw)" height="104.0234" id="WebsiteBuilder" style="stroke: #A80036; stroke-width: 1.5;" width="195" x="21.5" y="30"/><ellipse cx="68.25" cy="46" fill="#ADD1B2" rx="11" ry="11" style="stroke: #A80036; stroke-width: 1.0;"/><path d="M71.2188,51.6406 Q70.6406,51.9375 70,52.0781 Q69.3594,52.2344 68.6563,52.2344 Q66.1563,52.2344 64.8281,50.5938 Q63.5156,48.9375 63.5156,45.8125 Q63.5156,42.6875 64.8281,41.0313 Q66.1563,39.375 68.6563,39.375 Q69.3594,39.375 70,39.5313 Q70.6563,39.6875 71.2188,39.9844 L71.2188,42.7031 Q70.5938,42.125 70,41.8594 Q69.4063,41.5781 68.7813,41.5781 Q67.4375,41.5781 66.75,42.6563 Q66.0625,43.7188 66.0625,45.8125 Q66.0625,47.9063 66.75,48.9844 Q67.4375,50.0469 68.7813,50.0469 Q69.4063,50.0469 70,49.7813 Q70.5938,49.5 71.2188,48.9219 L71.2188,51.6406 Z "/><text fill="#000000" font-family="sans-serif" font-size="12" lengthAdjust="spacingAndGlyphs" textLength="93" x="88.75" y="50.1543">WebsiteBuilder</text><line style="stroke: #A80036; stroke-width: 1.5;" x1="22.5" x2="215.5" y1="62" y2="62"/><text fill="#000000" font-family="sans-serif" font-size="11" lengthAdjust="spacingAndGlyphs" textLength="114" x="27.5" y="76.2104">withPath(path: Path)</text><text fill="#000000" font-family="sans-serif" font-size="11" lengthAdjust="spacingAndGlyphs" textLength="96" x="27.5" y="89.0151">withURL(url: URL)</text><text fill="#000000" font-family="sans-serif" font-size="11" lengthAdjust="spacingAndGlyphs" textLength="183" x="27.5" y="101.8198">withURLs(urls: Collection&lt;URL&gt;)</text><text fill="#000000" font-family="sans-serif" font-size="11" lengthAdjust="spacingAndGlyphs" textLength="0" x="31.5" y="114.6245"/><text fill="#000000" font-family="sans-serif" font-size="11" lengthAdjust="spacingAndGlyphs" textLength="100" x="27.5" y="127.4292">build() -&gt; Website</text><!--class HTMLDocumentBuilder--><rect fill="#FEFECE" filter="url(#f16r04uc6fgsdw)" height="180.8516" id="HTMLDocumentBuilder" style="stroke: #A80036; stroke-width: 1.5;" width="274" x="211" y="233"/><ellipse cx="274.25" cy="249" fill="#ADD1B2" rx="11" ry="11" style="stroke: #A80036; stroke-width: 1.0;"/><path d="M277.2188,254.6406 Q276.6406,254.9375 276,255.0781 Q275.3594,255.2344 274.6563,255.2344 Q272.1563,255.2344 270.8281,253.5938 Q269.5156,251.9375 269.5156,248.8125 Q269.5156,245.6875 270.8281,244.0313 Q272.1563,242.375 274.6563,242.375 Q275.3594,242.375 276,242.5313 Q276.6563,242.6875 277.2188,242.9844 L277.2188,245.7031 Q276.5938,245.125 276,244.8594 Q275.4063,244.5781 274.7813,244.5781 Q273.4375,244.5781 272.75,245.6563 Q272.0625,246.7188 272.0625,248.8125 Q272.0625,250.9063 272.75,251.9844 Q273.4375,253.0469 274.7813,253.0469 Q275.4063,253.0469 276,252.7813 Q276.5938,252.5 277.2188,251.9219 L277.2188,254.6406 Z "/><text fill="#000000" font-family="sans-serif" font-size="12" lengthAdjust="spacingAndGlyphs" textLength="139" x="294.75" y="253.1543">HTMLDocumentBuilder</text><line style="stroke: #A80036; stroke-width: 1.5;" x1="212" x2="484" y1="265" y2="265"/><text fill="#000000" font-family="sans-serif" font-size="11" lengthAdjust="spacingAndGlyphs" textLength="239" x="217" y="279.2104">withContentFrom(reader: BufferedReader)</text><text fill="#000000" font-family="sans-serif" font-size="11" lengthAdjust="spacingAndGlyphs" textLength="148" x="217" y="292.0151">withContentFrom(file: File)</text><text fill="#000000" font-family="sans-serif" font-size="11" lengthAdjust="spacingAndGlyphs" textLength="190" x="217" y="304.8198">withBaseDirectory(siteRoot: Path)</text><text fill="#000000" font-family="sans-serif" font-size="11" lengthAdjust="spacingAndGlyphs" textLength="212" x="217" y="317.6245">withBaseURLs(urls: Collection&lt;URL&gt;)</text><text fill="#000000" font-family="sans-serif" font-size="11" lengthAdjust="spacingAndGlyphs" textLength="0" x="221" y="330.4292"/><text fill="#000000" font-family="sans-serif" font-size="11" lengthAdjust="spacingAndGlyphs" textLength="240" x="217" y="343.2339">extractAnchors() -&gt; Collection&lt;Resource&gt;</text><text fill="#000000" font-family="sans-serif" font-size="11" lengthAdjust="spacingAndGlyphs" textLength="236" x="217" y="356.0386">extractImages() -&gt; Collection&lt;Resource&gt;</text><text fill="#000000" font-family="sans-serif" font-size="11" lengthAdjust="spacingAndGlyphs" textLength="234" x="217" y="368.8433">extractScripts() -&gt; Collection&lt;Resource&gt;</text><text fill="#000000" font-family="sans-serif" font-size="11" lengthAdjust="spacingAndGlyphs" textLength="262" x="217" y="381.6479">extractStyleSheets() -&gt; Collection&lt;Resource&gt;</text><text fill="#000000" font-family="sans-serif" font-size="11" lengthAdjust="spacingAndGlyphs" textLength="0" x="221" y="394.4526"/><text fill="#000000" font-family="sans-serif" font-size="11" lengthAdjust="spacingAndGlyphs" textLength="143" x="217" y="407.2573">build() -&gt; HTMLDocument</text><!--reverse link Resource to Image--><path d="M174.139,779.1633 C167.916,795.1395 161.995,810.3408 157.844,820.9958 " fill="none" id="Resource&lt;-Image" style="stroke: #A80036; stroke-width: 1.0;"/><polygon fill="none" points="167.713,776.3741,181.494,760.2786,180.758,781.4554,167.713,776.3741" style="stroke: #A80036; stroke-width: 1.0;"/><!--reverse link Resource to Script--><path d="M233.861,779.1633 C240.084,795.1395 246.005,810.3408 250.156,820.9958 " fill="none" id="Resource&lt;-Script" style="stroke: #A80036; stroke-width: 1.0;"/><polygon fill="none" points="227.242,781.4554,226.506,760.2786,240.287,776.3741,227.242,781.4554" style="stroke: #A80036; stroke-width: 1.0;"/><!--reverse link Resource to StyleSheet--><path d="M293.814,772.6178 C317.263,790.9248 340.279,808.8931 355.781,820.9958 " fill="none" id="Resource&lt;-StyleSheet" style="stroke: #A80036; stroke-width: 1.0;"/><polygon fill="none" points="289.466,778.1038,278.009,760.2786,298.081,767.0685,289.466,778.1038" style="stroke: #A80036; stroke-width: 1.0;"/><!--reverse link Resource to Anchor--><path d="M119.334,773.1432 C97.6112,791.2681 76.3489,809.0089 61.9825,820.9958 " fill="none" id="Resource&lt;-Anchor" style="stroke: #A80036; stroke-width: 1.0;"/><polygon fill="none" points="114.911,767.717,134.752,760.2786,123.88,778.4666,114.911,767.717" style="stroke: #A80036; stroke-width: 1.0;"/><!--reverse link Website to HTMLDocument--><path d="M131.225,368.593 C146.883,404.502 168.888,454.971 184.594,490.992 " fill="none" id="Website&lt;-HTMLDocument" style="stroke: #A80036; stroke-width: 1.0;"/><polygon fill="#FFFFFF" points="125.973,356.546,124.7046,363.6447,130.7693,367.5458,132.0378,360.4471,125.973,356.546" style="stroke: #A80036; stroke-width: 1.0;"/><!--reverse link HTMLDocument to Resource--><path d="M204,595.237 C204,610.692 204,627.396 204,642.846 " fill="none" id="HTMLDocument&lt;-Resource" style="stroke: #A80036; stroke-width: 1.0;"/><polygon fill="#FFFFFF" points="204,582.04,200,588.04,204,594.04,208,588.04,204,582.04" style="stroke: #A80036; stroke-width: 1.0;"/><!--reverse link ReportWriter to TextReportWriter--><path d="M584.783,395.097 C547.727,440.033 502.82,494.489 481.456,520.395 " fill="none" id="ReportWriter&lt;-TextReportWriter" style="stroke: #A80036; stroke-width: 1.0;"/><polygon fill="none" points="579.386,390.639,597.511,379.662,590.187,399.546,579.386,390.639" style="stroke: #A80036; stroke-width: 1.0;"/><!--reverse link ReportWriter to JSONReportWriter--><path d="M643,399.84 C643,443.802 643,495.394 643,520.395 " fill="none" id="ReportWriter&lt;-JSONReportWriter" style="stroke: #A80036; stroke-width: 1.0;"/><polygon fill="none" points="636,399.662,643,379.662,650,399.662,636,399.662" style="stroke: #A80036; stroke-width: 1.0;"/><!--reverse link ReportWriter to ExcelReportWriter--><path d="M702.221,395.097 C739.916,440.033 785.597,494.489 807.329,520.395 " fill="none" id="ReportWriter&lt;-ExcelReportWriter" style="stroke: #A80036; stroke-width: 1.0;"/><polygon fill="none" points="696.764,399.484,689.273,379.662,707.49,390.486,696.764,399.484" style="stroke: #A80036; stroke-width: 1.0;"/><!--link ReportManager to ReportWriter--><path d="M643,134.085 C643,171.556 643,222.575 643,262.073 " fill="none" id="ReportManager-&gt;ReportWriter" style="stroke: #A80036; stroke-width: 1.0;"/><polygon fill="#A80036" points="643,267.321,647,258.321,643,262.321,639,258.321,643,267.321" style="stroke: #A80036; stroke-width: 1.0;"/><text fill="#000000" font-family="sans-serif" font-size="13" lengthAdjust="spacingAndGlyphs" textLength="140" x="644" y="199.0669">creates and manages</text><text fill="#000000" font-family="sans-serif" font-size="13" lengthAdjust="spacingAndGlyphs" textLength="8" x="634.4875" y="256.236">3</text><!--link WebsiteBuilder to Website--><path d="M117.507,134.085 C116.185,179.313 114.286,244.279 113.099,284.899 " fill="none" id="WebsiteBuilder-&gt;Website" style="stroke: #A80036; stroke-width: 1.0;"/><polygon fill="#A80036" points="112.943,290.219,117.2061,281.3406,113.0901,285.2212,109.2096,281.1052,112.943,290.219" style="stroke: #A80036; stroke-width: 1.0;"/><text fill="#000000" font-family="sans-serif" font-size="13" lengthAdjust="spacingAndGlyphs" textLength="67" x="117" y="199.0669">constructs</text><!--link WebsiteBuilder to HTMLDocumentBuilder--><path d="M167.845,134.085 C194.227,161.676 227.631,196.612 258.49,228.885 " fill="none" id="WebsiteBuilder-&gt;HTMLDocumentBuilder" style="stroke: #A80036; stroke-width: 1.0; stroke-dasharray: 7.0,7.0;"/><polygon fill="#A80036" points="262.24,232.807,258.9115,223.5376,258.7846,229.1931,253.1292,229.0662,262.24,232.807" style="stroke: #A80036; stroke-width: 1.0;"/><!--link HTMLDocumentBuilder to HTMLDocument--><path d="M286.722,414.289 C269.786,439.106 252.04,465.109 237.346,486.639 " fill="none" id="HTMLDocumentBuilder-&gt;HTMLDocument" style="stroke: #A80036; stroke-width: 1.0;"/><polygon fill="#A80036" points="234.449,490.883,242.8262,485.704,237.2675,486.7531,236.2184,481.1944,234.449,490.883" style="stroke: #A80036; stroke-width: 1.0;"/><text fill="#000000" font-family="sans-serif" font-size="13" lengthAdjust="spacingAndGlyphs" textLength="67" x="265" y="457.0669">constructs</text><!--
@startuml analysis_07.svg
hide empty members

class Website {
    local_directory: Path
    urls: URL
}

class HTMLDocument {
    scripts: Collection<Script>
    stylesheets: Collection<StyleSheet>
    images: Collection<Image>
    anchors: Collection<Anchor>
}

class Resource {
    path: Path
    url: URL
    foundOn: Collection<HTMLDocument>
    location: Locality
    typeOfResource: ResourceKind
    sizeOfFile: long
}

class Anchor {

}

class Image {
}

class Script {
}

class StyleSheet {
}

enum Locality <<Enum>> {
    INTERNAL
    INTRAPAGE
    EXTERNAL
}

enum ResourceKind <<Enum>> {
    IMAGE
    STYLESHEET
    SCRIPT
    ANCHOR
    VIDEO
    AUDIO
    ARCHIVE
    OTHER
}

class ReportManager {
    setSourceData(site: Website)
    determineBaseFilename()
    writeReportNames(outs: BufferedWriter)

    writeAll()
}

class ReportWriter {
    website: Website

    setSourceData(site: Website)
    setBaseName(baseFileName: String)

    write()
}

class TextReportWriter {

}

class JSONReportWriter {

}

class ExcelReportWriter {

}

class WebsiteBuilder {
    withPath(path: Path)
    withURL(url: URL)
    withURLs(urls: Collection<URL>)
    
    build() -> Website
}

class HTMLDocumentBuilder {
    withContentFrom(reader: BufferedReader)
    withContentFrom(file: File)
    withBaseDirectory(siteRoot: Path)
    withBaseURLs(urls: Collection<URL>)

    extractAnchors() -> Collection<Resource>
    extractImages() -> Collection<Resource>
    extractScripts() -> Collection<Resource>
    extractStyleSheets() -> Collection<Resource>

    build() -> HTMLDocument
}

Resource <|- - Image
Resource <|- - Script
Resource <|- - StyleSheet
Resource <|- - Anchor

Website o- - HTMLDocument
HTMLDocument o- - Resource

ReportWriter <|- - TextReportWriter
ReportWriter <|- - JSONReportWriter
ReportWriter <|- - ExcelReportWriter

ReportManager - -> "3" ReportWriter: "creates and manages"

WebsiteBuilder - -> Website: "constructs"
WebsiteBuilder ..> HTMLDocumentBuilder
HTMLDocumentBuilder - -> HTMLDocument: "constructs"

@enduml

PlantUML version 1.2019.09(Mon Aug 26 12:19:51 EDT 2019)
(GPL source distribution)
Java Runtime: OpenJDK Runtime Environment
JVM: OpenJDK 64-Bit Server VM
Java Version: 11.0.14+9-Ubuntu-0ubuntu2.16.04
Operating System: Linux
OS Version: 4.4.0-241-generic
Default Encoding: UTF-8
Language: en
Country: US
--></g></svg>