<?xml version="1.0" encoding="UTF-8" standalone="no"?><svg xmlns="http://www.w3.org/2000/svg" xmlns:xlink="http://www.w3.org/1999/xlink" contentScriptType="application/ecmascript" contentStyleType="text/css" height="627px" preserveAspectRatio="none" style="width:1134px;height:627px;" version="1.1" viewBox="0 0 1134 627" width="1134px" zoomAndPan="magnify"><defs><filter height="300%" id="f1lc9znu2f217p" width="300%" x="-1" y="-1"><feGaussianBlur result="blurOut" stdDeviation="2.0"/><feColorMatrix in="blurOut" result="blurOut2" type="matrix" values="0 0 0 0 0 0 0 0 0 0 0 0 0 0 0 0 0 0 .4 0"/><feOffset dx="4.0" dy="4.0" in="blurOut2" result="blurOut3"/><feBlend in="SourceGraphic" in2="blurOut3" mode="normal"/></filter></defs><g><!--class Website--><rect fill="#FEFECE" filter="url(#f1lc9znu2f217p)" height="65.6094" id="Website" style="stroke: #A80036; stroke-width: 1.5;" width="136" x="414.5" y="49"/><ellipse cx="453.8" cy="65" fill="#ADD1B2" rx="11" ry="11" style="stroke: #A80036; stroke-width: 1.0;"/><path d="M456.7688,70.6406 Q456.1906,70.9375 455.55,71.0781 Q454.9094,71.2344 454.2063,71.2344 Q451.7063,71.2344 450.3781,69.5938 Q449.0656,67.9375 449.0656,64.8125 Q449.0656,61.6875 450.3781,60.0313 Q451.7063,58.375 454.2063,58.375 Q454.9094,58.375 455.55,58.5313 Q456.2063,58.6875 456.7688,58.9844 L456.7688,61.7031 Q456.1438,61.125 455.55,60.8594 Q454.9563,60.5781 454.3313,60.5781 Q452.9875,60.5781 452.3,61.6563 Q451.6125,62.7188 451.6125,64.8125 Q451.6125,66.9063 452.3,67.9844 Q452.9875,69.0469 454.3313,69.0469 Q454.9563,69.0469 455.55,68.7813 Q456.1438,68.5 456.7688,67.9219 L456.7688,70.6406 Z "/><text fill="#000000" font-family="sans-serif" font-size="12" lengthAdjust="spacingAndGlyphs" textLength="50" x="473.2" y="69.1543">Website</text><line style="stroke: #A80036; stroke-width: 1.5;" x1="415.5" x2="549.5" y1="81" y2="81"/><text fill="#000000" font-family="sans-serif" font-size="11" lengthAdjust="spacingAndGlyphs" textLength="110" x="420.5" y="95.2104">localDirectory: Path</text><text fill="#000000" font-family="sans-serif" font-size="11" lengthAdjust="spacingAndGlyphs" textLength="124" x="420.5" y="108.0151">urls: Collection&lt;URL&gt;</text><!--class HTMLDocument--><rect fill="#FEFECE" filter="url(#f1lc9znu2f217p)" height="91.2188" id="HTMLDocument" style="stroke: #A80036; stroke-width: 1.5;" width="220" x="372.5" y="243.5"/><ellipse cx="430.25" cy="259.5" fill="#ADD1B2" rx="11" ry="11" style="stroke: #A80036; stroke-width: 1.0;"/><path d="M433.2188,265.1406 Q432.6406,265.4375 432,265.5781 Q431.3594,265.7344 430.6563,265.7344 Q428.1563,265.7344 426.8281,264.0938 Q425.5156,262.4375 425.5156,259.3125 Q425.5156,256.1875 426.8281,254.5313 Q428.1563,252.875 430.6563,252.875 Q431.3594,252.875 432,253.0313 Q432.6563,253.1875 433.2188,253.4844 L433.2188,256.2031 Q432.5938,255.625 432,255.3594 Q431.4063,255.0781 430.7813,255.0781 Q429.4375,255.0781 428.75,256.1563 Q428.0625,257.2188 428.0625,259.3125 Q428.0625,261.4063 428.75,262.4844 Q429.4375,263.5469 430.7813,263.5469 Q431.4063,263.5469 432,263.2813 Q432.5938,263 433.2188,262.4219 L433.2188,265.1406 Z "/><text fill="#000000" font-family="sans-serif" font-size="12" lengthAdjust="spacingAndGlyphs" textLength="96" x="450.75" y="263.6543">HTMLDocument</text><line style="stroke: #A80036; stroke-width: 1.5;" x1="373.5" x2="591.5" y1="275.5" y2="275.5"/><text fill="#000000" font-family="sans-serif" font-size="11" lengthAdjust="spacingAndGlyphs" textLength="153" x="378.5" y="289.7104">scripts: Collection&lt;Script&gt;</text><text fill="#000000" font-family="sans-serif" font-size="11" lengthAdjust="spacingAndGlyphs" textLength="208" x="378.5" y="302.5151">stylesheets: Collection&lt;StyleSheet&gt;</text><text fill="#000000" font-family="sans-serif" font-size="11" lengthAdjust="spacingAndGlyphs" textLength="158" x="378.5" y="315.3198">images: Collection&lt;Image&gt;</text><text fill="#000000" font-family="sans-serif" font-size="11" lengthAdjust="spacingAndGlyphs" textLength="166" x="378.5" y="328.1245">anchors: Collection&lt;Anchor&gt;</text><!--class Resource--><rect fill="#FEFECE" filter="url(#f1lc9znu2f217p)" height="116.8281" id="Resource" style="stroke: #A80036; stroke-width: 1.5;" width="228" x="368.5" y="406"/><ellipse cx="448.75" cy="422" fill="#ADD1B2" rx="11" ry="11" style="stroke: #A80036; stroke-width: 1.0;"/><path d="M451.7188,427.6406 Q451.1406,427.9375 450.5,428.0781 Q449.8594,428.2344 449.1563,428.2344 Q446.6563,428.2344 445.3281,426.5938 Q444.0156,424.9375 444.0156,421.8125 Q444.0156,418.6875 445.3281,417.0313 Q446.6563,415.375 449.1563,415.375 Q449.8594,415.375 450.5,415.5313 Q451.1563,415.6875 451.7188,415.9844 L451.7188,418.7031 Q451.0938,418.125 450.5,417.8594 Q449.9063,417.5781 449.2813,417.5781 Q447.9375,417.5781 447.25,418.6563 Q446.5625,419.7188 446.5625,421.8125 Q446.5625,423.9063 447.25,424.9844 Q447.9375,426.0469 449.2813,426.0469 Q449.9063,426.0469 450.5,425.7813 Q451.0938,425.5 451.7188,424.9219 L451.7188,427.6406 Z "/><text fill="#000000" font-family="sans-serif" font-size="12" lengthAdjust="spacingAndGlyphs" textLength="59" x="469.25" y="426.1543">Resource</text><line style="stroke: #A80036; stroke-width: 1.5;" x1="369.5" x2="595.5" y1="438" y2="438"/><text fill="#000000" font-family="sans-serif" font-size="11" lengthAdjust="spacingAndGlyphs" textLength="58" x="374.5" y="452.2104">path: Path</text><text fill="#000000" font-family="sans-serif" font-size="11" lengthAdjust="spacingAndGlyphs" textLength="44" x="374.5" y="465.0151">url: URL</text><text fill="#000000" font-family="sans-serif" font-size="11" lengthAdjust="spacingAndGlyphs" textLength="216" x="374.5" y="477.8198">foundOn: Collection&lt;HTMLDocument&gt;</text><text fill="#000000" font-family="sans-serif" font-size="11" lengthAdjust="spacingAndGlyphs" textLength="94" x="374.5" y="490.6245">location: Locality</text><text fill="#000000" font-family="sans-serif" font-size="11" lengthAdjust="spacingAndGlyphs" textLength="175" x="374.5" y="503.4292">typeOfResource: ResourceKind</text><text fill="#000000" font-family="sans-serif" font-size="11" lengthAdjust="spacingAndGlyphs" textLength="86" x="374.5" y="516.2339">sizeOfFile: long</text><!--class Anchor--><rect fill="#FEFECE" filter="url(#f1lc9znu2f217p)" height="32" id="Anchor" style="stroke: #A80036; stroke-width: 1.5;" width="76" x="284.5" y="584"/><ellipse cx="299.5" cy="600" fill="#ADD1B2" rx="11" ry="11" style="stroke: #A80036; stroke-width: 1.0;"/><path d="M302.4688,605.6406 Q301.8906,605.9375 301.25,606.0781 Q300.6094,606.2344 299.9063,606.2344 Q297.4063,606.2344 296.0781,604.5938 Q294.7656,602.9375 294.7656,599.8125 Q294.7656,596.6875 296.0781,595.0313 Q297.4063,593.375 299.9063,593.375 Q300.6094,593.375 301.25,593.5313 Q301.9063,593.6875 302.4688,593.9844 L302.4688,596.7031 Q301.8438,596.125 301.25,595.8594 Q300.6563,595.5781 300.0313,595.5781 Q298.6875,595.5781 298,596.6563 Q297.3125,597.7188 297.3125,599.8125 Q297.3125,601.9063 298,602.9844 Q298.6875,604.0469 300.0313,604.0469 Q300.6563,604.0469 301.25,603.7813 Q301.8438,603.5 302.4688,602.9219 L302.4688,605.6406 Z "/><text fill="#000000" font-family="sans-serif" font-size="12" lengthAdjust="spacingAndGlyphs" textLength="44" x="313.5" y="604.1543">Anchor</text><!--class Image--><rect fill="#FEFECE" filter="url(#f1lc9znu2f217p)" height="32" id="Image" style="stroke: #A80036; stroke-width: 1.5;" width="70" x="395.5" y="584"/><ellipse cx="410.5" cy="600" fill="#ADD1B2" rx="11" ry="11" style="stroke: #A80036; stroke-width: 1.0;"/><path d="M413.4688,605.6406 Q412.8906,605.9375 412.25,606.0781 Q411.6094,606.2344 410.9063,606.2344 Q408.4063,606.2344 407.0781,604.5938 Q405.7656,602.9375 405.7656,599.8125 Q405.7656,596.6875 407.0781,595.0313 Q408.4063,593.375 410.9063,593.375 Q411.6094,593.375 412.25,593.5313 Q412.9063,593.6875 413.4688,593.9844 L413.4688,596.7031 Q412.8438,596.125 412.25,595.8594 Q411.6563,595.5781 411.0313,595.5781 Q409.6875,595.5781 409,596.6563 Q408.3125,597.7188 408.3125,599.8125 Q408.3125,601.9063 409,602.9844 Q409.6875,604.0469 411.0313,604.0469 Q411.6563,604.0469 412.25,603.7813 Q412.8438,603.5 413.4688,602.9219 L413.4688,605.6406 Z "/><text fill="#000000" font-family="sans-serif" font-size="12" lengthAdjust="spacingAndGlyphs" textLength="38" x="424.5" y="604.1543">Image</text><!--class Script--><rect fill="#FEFECE" filter="url(#f1lc9znu2f217p)" height="32" id="Script" style="stroke: #A80036; stroke-width: 1.5;" width="68" x="500.5" y="584"/><ellipse cx="515.5" cy="600" fill="#ADD1B2" rx="11" ry="11" style="stroke: #A80036; stroke-width: 1.0;"/><path d="M518.4688,605.6406 Q517.8906,605.9375 517.25,606.0781 Q516.6094,606.2344 515.9063,606.2344 Q513.4063,606.2344 512.0781,604.5938 Q510.7656,602.9375 510.7656,599.8125 Q510.7656,596.6875 512.0781,595.0313 Q513.4063,593.375 515.9063,593.375 Q516.6094,593.375 517.25,593.5313 Q517.9063,593.6875 518.4688,593.9844 L518.4688,596.7031 Q517.8438,596.125 517.25,595.8594 Q516.6563,595.5781 516.0313,595.5781 Q514.6875,595.5781 514,596.6563 Q513.3125,597.7188 513.3125,599.8125 Q513.3125,601.9063 514,602.9844 Q514.6875,604.0469 516.0313,604.0469 Q516.6563,604.0469 517.25,603.7813 Q517.8438,603.5 518.4688,602.9219 L518.4688,605.6406 Z "/><text fill="#000000" font-family="sans-serif" font-size="12" lengthAdjust="spacingAndGlyphs" textLength="36" x="529.5" y="604.1543">Script</text><!--class StyleSheet--><rect fill="#FEFECE" filter="url(#f1lc9znu2f217p)" height="32" id="StyleSheet" style="stroke: #A80036; stroke-width: 1.5;" width="99" x="604" y="584"/><ellipse cx="619" cy="600" fill="#ADD1B2" rx="11" ry="11" style="stroke: #A80036; stroke-width: 1.0;"/><path d="M621.9688,605.6406 Q621.3906,605.9375 620.75,606.0781 Q620.1094,606.2344 619.4063,606.2344 Q616.9063,606.2344 615.5781,604.5938 Q614.2656,602.9375 614.2656,599.8125 Q614.2656,596.6875 615.5781,595.0313 Q616.9063,593.375 619.4063,593.375 Q620.1094,593.375 620.75,593.5313 Q621.4063,593.6875 621.9688,593.9844 L621.9688,596.7031 Q621.3438,596.125 620.75,595.8594 Q620.1563,595.5781 619.5313,595.5781 Q618.1875,595.5781 617.5,596.6563 Q616.8125,597.7188 616.8125,599.8125 Q616.8125,601.9063 617.5,602.9844 Q618.1875,604.0469 619.5313,604.0469 Q620.1563,604.0469 620.75,603.7813 Q621.3438,603.5 621.9688,602.9219 L621.9688,605.6406 Z "/><text fill="#000000" font-family="sans-serif" font-size="12" lengthAdjust="spacingAndGlyphs" textLength="67" x="633" y="604.1543">StyleSheet</text><!--class Locality--><rect fill="#FEFECE" filter="url(#f1lc9znu2f217p)" height="84.3516" id="Locality" style="stroke: #A80036; stroke-width: 1.5;" width="78" x="29.5" y="40"/><ellipse cx="44.5" cy="58.9688" fill="#EB937F" rx="11" ry="11" style="stroke: #A80036; stroke-width: 1.0;"/><path d="M48.6094,64.9688 L40.8906,64.9688 L40.8906,52.5781 L48.6094,52.5781 L48.6094,54.7344 L43.3438,54.7344 L43.3438,57.4063 L48.1094,57.4063 L48.1094,59.5625 L43.3438,59.5625 L43.3438,62.8125 L48.6094,62.8125 L48.6094,64.9688 Z "/><text fill="#000000" font-family="sans-serif" font-size="12" font-style="italic" lengthAdjust="spacingAndGlyphs" textLength="49" x="57" y="56.1387">«Enum»</text><text fill="#000000" font-family="sans-serif" font-size="12" lengthAdjust="spacingAndGlyphs" textLength="46" x="58.5" y="70.1074">Locality</text><line style="stroke: #A80036; stroke-width: 1.5;" x1="30.5" x2="106.5" y1="77.9375" y2="77.9375"/><text fill="#000000" font-family="sans-serif" font-size="11" lengthAdjust="spacingAndGlyphs" textLength="53" x="35.5" y="92.1479">INTERNAL</text><text fill="#000000" font-family="sans-serif" font-size="11" lengthAdjust="spacingAndGlyphs" textLength="62" x="35.5" y="104.9526">INTRAPAGE</text><text fill="#000000" font-family="sans-serif" font-size="11" lengthAdjust="spacingAndGlyphs" textLength="56" x="35.5" y="117.7573">EXTERNAL</text><!--class ResourceKind--><rect fill="#FEFECE" filter="url(#f1lc9znu2f217p)" height="148.375" id="ResourceKind" style="stroke: #A80036; stroke-width: 1.5;" width="117" x="143" y="8"/><ellipse cx="158" cy="26.9688" fill="#EB937F" rx="11" ry="11" style="stroke: #A80036; stroke-width: 1.0;"/><path d="M162.1094,32.9688 L154.3906,32.9688 L154.3906,20.5781 L162.1094,20.5781 L162.1094,22.7344 L156.8438,22.7344 L156.8438,25.4063 L161.6094,25.4063 L161.6094,27.5625 L156.8438,27.5625 L156.8438,30.8125 L162.1094,30.8125 L162.1094,32.9688 Z "/><text fill="#000000" font-family="sans-serif" font-size="12" font-style="italic" lengthAdjust="spacingAndGlyphs" textLength="49" x="190" y="24.1387">«Enum»</text><text fill="#000000" font-family="sans-serif" font-size="12" lengthAdjust="spacingAndGlyphs" textLength="85" x="172" y="38.1074">ResourceKind</text><line style="stroke: #A80036; stroke-width: 1.5;" x1="144" x2="259" y1="45.9375" y2="45.9375"/><text fill="#000000" font-family="sans-serif" font-size="11" lengthAdjust="spacingAndGlyphs" textLength="35" x="149" y="60.1479">IMAGE</text><text fill="#000000" font-family="sans-serif" font-size="11" lengthAdjust="spacingAndGlyphs" textLength="72" x="149" y="72.9526">STYLESHEET</text><text fill="#000000" font-family="sans-serif" font-size="11" lengthAdjust="spacingAndGlyphs" textLength="40" x="149" y="85.7573">SCRIPT</text><text fill="#000000" font-family="sans-serif" font-size="11" lengthAdjust="spacingAndGlyphs" textLength="47" x="149" y="98.562">ANCHOR</text><text fill="#000000" font-family="sans-serif" font-size="11" lengthAdjust="spacingAndGlyphs" textLength="34" x="149" y="111.3667">VIDEO</text><text fill="#000000" font-family="sans-serif" font-size="11" lengthAdjust="spacingAndGlyphs" textLength="35" x="149" y="124.1714">AUDIO</text><text fill="#000000" font-family="sans-serif" font-size="11" lengthAdjust="spacingAndGlyphs" textLength="47" x="149" y="136.9761">ARCHIVE</text><text fill="#000000" font-family="sans-serif" font-size="11" lengthAdjust="spacingAndGlyphs" textLength="38" x="149" y="149.7808">OTHER</text><!--class ReportManager--><rect fill="#FEFECE" filter="url(#f1lc9znu2f217p)" height="104.0234" id="ReportManager" style="stroke: #A80036; stroke-width: 1.5;" width="240" x="754.5" y="30"/><ellipse cx="821.75" cy="46" fill="#ADD1B2" rx="11" ry="11" style="stroke: #A80036; stroke-width: 1.0;"/><path d="M824.7188,51.6406 Q824.1406,51.9375 823.5,52.0781 Q822.8594,52.2344 822.1563,52.2344 Q819.6563,52.2344 818.3281,50.5938 Q817.0156,48.9375 817.0156,45.8125 Q817.0156,42.6875 818.3281,41.0313 Q819.6563,39.375 822.1563,39.375 Q822.8594,39.375 823.5,39.5313 Q824.1563,39.6875 824.7188,39.9844 L824.7188,42.7031 Q824.0938,42.125 823.5,41.8594 Q822.9063,41.5781 822.2813,41.5781 Q820.9375,41.5781 820.25,42.6563 Q819.5625,43.7188 819.5625,45.8125 Q819.5625,47.9063 820.25,48.9844 Q820.9375,50.0469 822.2813,50.0469 Q822.9063,50.0469 823.5,49.7813 Q824.0938,49.5 824.7188,48.9219 L824.7188,51.6406 Z "/><text fill="#000000" font-family="sans-serif" font-size="12" lengthAdjust="spacingAndGlyphs" textLength="97" x="842.25" y="50.1543">ReportManager</text><line style="stroke: #A80036; stroke-width: 1.5;" x1="755.5" x2="993.5" y1="62" y2="62"/><text fill="#000000" font-family="sans-serif" font-size="11" lengthAdjust="spacingAndGlyphs" textLength="165" x="760.5" y="76.2104">setSourceData(site: Website)</text><text fill="#000000" font-family="sans-serif" font-size="11" lengthAdjust="spacingAndGlyphs" textLength="146" x="760.5" y="89.0151">determineBaseFilename()</text><text fill="#000000" font-family="sans-serif" font-size="11" lengthAdjust="spacingAndGlyphs" textLength="228" x="760.5" y="101.8198">writeReportNames(outs: BufferedWriter)</text><text fill="#000000" font-family="sans-serif" font-size="11" lengthAdjust="spacingAndGlyphs" textLength="0" x="764.5" y="114.6245"/><text fill="#000000" font-family="sans-serif" font-size="11" lengthAdjust="spacingAndGlyphs" textLength="49" x="760.5" y="127.4292">writeAll()</text><!--class ReportWriter--><rect fill="#FEFECE" filter="url(#f1lc9znu2f217p)" height="112.0234" id="ReportWriter" style="stroke: #A80036; stroke-width: 1.5;" width="222" x="763.5" y="233"/><ellipse cx="830.75" cy="249" fill="#ADD1B2" rx="11" ry="11" style="stroke: #A80036; stroke-width: 1.0;"/><path d="M833.7188,254.6406 Q833.1406,254.9375 832.5,255.0781 Q831.8594,255.2344 831.1563,255.2344 Q828.6563,255.2344 827.3281,253.5938 Q826.0156,251.9375 826.0156,248.8125 Q826.0156,245.6875 827.3281,244.0313 Q828.6563,242.375 831.1563,242.375 Q831.8594,242.375 832.5,242.5313 Q833.1563,242.6875 833.7188,242.9844 L833.7188,245.7031 Q833.0938,245.125 832.5,244.8594 Q831.9063,244.5781 831.2813,244.5781 Q829.9375,244.5781 829.25,245.6563 Q828.5625,246.7188 828.5625,248.8125 Q828.5625,250.9063 829.25,251.9844 Q829.9375,253.0469 831.2813,253.0469 Q831.9063,253.0469 832.5,252.7813 Q833.0938,252.5 833.7188,251.9219 L833.7188,254.6406 Z "/><text fill="#000000" font-family="sans-serif" font-size="12" lengthAdjust="spacingAndGlyphs" textLength="79" x="851.25" y="253.1543">ReportWriter</text><line style="stroke: #A80036; stroke-width: 1.5;" x1="764.5" x2="984.5" y1="265" y2="265"/><text fill="#000000" font-family="sans-serif" font-size="11" lengthAdjust="spacingAndGlyphs" textLength="96" x="769.5" y="279.2104">website: Website</text><line style="stroke: #A80036; stroke-width: 1.5;" x1="764.5" x2="984.5" y1="285.8047" y2="285.8047"/><text fill="#000000" font-family="sans-serif" font-size="11" lengthAdjust="spacingAndGlyphs" textLength="165" x="769.5" y="300.0151">setSourceData(site: Website)</text><text fill="#000000" font-family="sans-serif" font-size="11" lengthAdjust="spacingAndGlyphs" textLength="210" x="769.5" y="312.8198">setBaseName(baseFileName: String)</text><text fill="#000000" font-family="sans-serif" font-size="11" lengthAdjust="spacingAndGlyphs" textLength="0" x="773.5" y="325.6245"/><text fill="#000000" font-family="sans-serif" font-size="11" lengthAdjust="spacingAndGlyphs" textLength="36" x="769.5" y="338.4292">write()</text><!--class TextReportWriter--><rect fill="#FEFECE" filter="url(#f1lc9znu2f217p)" height="32" id="TextReportWriter" style="stroke: #A80036; stroke-width: 1.5;" width="137" x="632" y="448.5"/><ellipse cx="647" cy="464.5" fill="#ADD1B2" rx="11" ry="11" style="stroke: #A80036; stroke-width: 1.0;"/><path d="M649.9688,470.1406 Q649.3906,470.4375 648.75,470.5781 Q648.1094,470.7344 647.4063,470.7344 Q644.9063,470.7344 643.5781,469.0938 Q642.2656,467.4375 642.2656,464.3125 Q642.2656,461.1875 643.5781,459.5313 Q644.9063,457.875 647.4063,457.875 Q648.1094,457.875 648.75,458.0313 Q649.4063,458.1875 649.9688,458.4844 L649.9688,461.2031 Q649.3438,460.625 648.75,460.3594 Q648.1563,460.0781 647.5313,460.0781 Q646.1875,460.0781 645.5,461.1563 Q644.8125,462.2188 644.8125,464.3125 Q644.8125,466.4063 645.5,467.4844 Q646.1875,468.5469 647.5313,468.5469 Q648.1563,468.5469 648.75,468.2813 Q649.3438,468 649.9688,467.4219 L649.9688,470.1406 Z "/><text fill="#000000" font-family="sans-serif" font-size="12" lengthAdjust="spacingAndGlyphs" textLength="105" x="661" y="468.6543">TextReportWriter</text><!--class JSONReportWriter--><rect fill="#FEFECE" filter="url(#f1lc9znu2f217p)" height="32" id="JSONReportWriter" style="stroke: #A80036; stroke-width: 1.5;" width="140" x="804.5" y="448.5"/><ellipse cx="819.5" cy="464.5" fill="#ADD1B2" rx="11" ry="11" style="stroke: #A80036; stroke-width: 1.0;"/><path d="M822.4688,470.1406 Q821.8906,470.4375 821.25,470.5781 Q820.6094,470.7344 819.9063,470.7344 Q817.4063,470.7344 816.0781,469.0938 Q814.7656,467.4375 814.7656,464.3125 Q814.7656,461.1875 816.0781,459.5313 Q817.4063,457.875 819.9063,457.875 Q820.6094,457.875 821.25,458.0313 Q821.9063,458.1875 822.4688,458.4844 L822.4688,461.2031 Q821.8438,460.625 821.25,460.3594 Q820.6563,460.0781 820.0313,460.0781 Q818.6875,460.0781 818,461.1563 Q817.3125,462.2188 817.3125,464.3125 Q817.3125,466.4063 818,467.4844 Q818.6875,468.5469 820.0313,468.5469 Q820.6563,468.5469 821.25,468.2813 Q821.8438,468 822.4688,467.4219 L822.4688,470.1406 Z "/><text fill="#000000" font-family="sans-serif" font-size="12" lengthAdjust="spacingAndGlyphs" textLength="108" x="833.5" y="468.6543">JSONReportWriter</text><!--class ExcelReportWriter--><rect fill="#FEFECE" filter="url(#f1lc9znu2f217p)" height="32" id="ExcelReportWriter" style="stroke: #A80036; stroke-width: 1.5;" width="143" x="980" y="448.5"/><ellipse cx="995" cy="464.5" fill="#ADD1B2" rx="11" ry="11" style="stroke: #A80036; stroke-width: 1.0;"/><path d="M997.9688,470.1406 Q997.3906,470.4375 996.75,470.5781 Q996.1094,470.7344 995.4063,470.7344 Q992.9063,470.7344 991.5781,469.0938 Q990.2656,467.4375 990.2656,464.3125 Q990.2656,461.1875 991.5781,459.5313 Q992.9063,457.875 995.4063,457.875 Q996.1094,457.875 996.75,458.0313 Q997.4063,458.1875 997.9688,458.4844 L997.9688,461.2031 Q997.3438,460.625 996.75,460.3594 Q996.1563,460.0781 995.5313,460.0781 Q994.1875,460.0781 993.5,461.1563 Q992.8125,462.2188 992.8125,464.3125 Q992.8125,466.4063 993.5,467.4844 Q994.1875,468.5469 995.5313,468.5469 Q996.1563,468.5469 996.75,468.2813 Q997.3438,468 997.9688,467.4219 L997.9688,470.1406 Z "/><text fill="#000000" font-family="sans-serif" font-size="12" lengthAdjust="spacingAndGlyphs" textLength="111" x="1009" y="468.6543">ExcelReportWriter</text><!--class WebsiteBuilder--><rect fill="#FEFECE" filter="url(#f1lc9znu2f217p)" height="32" id="WebsiteBuilder" style="stroke: #A80036; stroke-width: 1.5;" width="125" x="6" y="273"/><ellipse cx="21" cy="289" fill="#ADD1B2" rx="11" ry="11" style="stroke: #A80036; stroke-width: 1.0;"/><path d="M23.9688,294.6406 Q23.3906,294.9375 22.75,295.0781 Q22.1094,295.2344 21.4063,295.2344 Q18.9063,295.2344 17.5781,293.5938 Q16.2656,291.9375 16.2656,288.8125 Q16.2656,285.6875 17.5781,284.0313 Q18.9063,282.375 21.4063,282.375 Q22.1094,282.375 22.75,282.5313 Q23.4063,282.6875 23.9688,282.9844 L23.9688,285.7031 Q23.3438,285.125 22.75,284.8594 Q22.1563,284.5781 21.5313,284.5781 Q20.1875,284.5781 19.5,285.6563 Q18.8125,286.7188 18.8125,288.8125 Q18.8125,290.9063 19.5,291.9844 Q20.1875,293.0469 21.5313,293.0469 Q22.1563,293.0469 22.75,292.7813 Q23.3438,292.5 23.9688,291.9219 L23.9688,294.6406 Z "/><text fill="#000000" font-family="sans-serif" font-size="12" lengthAdjust="spacingAndGlyphs" textLength="93" x="35" y="293.1543">WebsiteBuilder</text><!--class HTMLDocumentBuilder--><rect fill="#FEFECE" filter="url(#f1lc9znu2f217p)" height="32" id="HTMLDocumentBuilder" style="stroke: #A80036; stroke-width: 1.5;" width="171" x="166" y="273"/><ellipse cx="181" cy="289" fill="#ADD1B2" rx="11" ry="11" style="stroke: #A80036; stroke-width: 1.0;"/><path d="M183.9688,294.6406 Q183.3906,294.9375 182.75,295.0781 Q182.1094,295.2344 181.4063,295.2344 Q178.9063,295.2344 177.5781,293.5938 Q176.2656,291.9375 176.2656,288.8125 Q176.2656,285.6875 177.5781,284.0313 Q178.9063,282.375 181.4063,282.375 Q182.1094,282.375 182.75,282.5313 Q183.4063,282.6875 183.9688,282.9844 L183.9688,285.7031 Q183.3438,285.125 182.75,284.8594 Q182.1563,284.5781 181.5313,284.5781 Q180.1875,284.5781 179.5,285.6563 Q178.8125,286.7188 178.8125,288.8125 Q178.8125,290.9063 179.5,291.9844 Q180.1875,293.0469 181.5313,293.0469 Q182.1563,293.0469 182.75,292.7813 Q183.3438,292.5 183.9688,291.9219 L183.9688,294.6406 Z "/><text fill="#000000" font-family="sans-serif" font-size="12" lengthAdjust="spacingAndGlyphs" textLength="139" x="195" y="293.1543">HTMLDocumentBuilder</text><!--reverse link Resource to Image--><path d="M452.639,542.1633 C446.416,558.1395 440.495,573.3408 436.344,583.9958 " fill="none" id="Resource&lt;-Image" style="stroke: #A80036; stroke-width: 1.0;"/><polygon fill="none" points="446.213,539.3741,459.994,523.2786,459.258,544.4554,446.213,539.3741" style="stroke: #A80036; stroke-width: 1.0;"/><!--reverse link Resource to Script--><path d="M512.361,542.1633 C518.584,558.1395 524.505,573.3408 528.656,583.9958 " fill="none" id="Resource&lt;-Script" style="stroke: #A80036; stroke-width: 1.0;"/><polygon fill="none" points="505.742,544.4554,505.006,523.2786,518.787,539.3741,505.742,544.4554" style="stroke: #A80036; stroke-width: 1.0;"/><!--reverse link Resource to StyleSheet--><path d="M572.314,535.6178 C595.763,553.9248 618.779,571.8931 634.281,583.9958 " fill="none" id="Resource&lt;-StyleSheet" style="stroke: #A80036; stroke-width: 1.0;"/><polygon fill="none" points="567.966,541.1038,556.509,523.2786,576.581,530.0685,567.966,541.1038" style="stroke: #A80036; stroke-width: 1.0;"/><!--reverse link Resource to Anchor--><path d="M397.834,536.1432 C376.111,554.2681 354.849,572.0089 340.483,583.9958 " fill="none" id="Resource&lt;-Anchor" style="stroke: #A80036; stroke-width: 1.0;"/><polygon fill="none" points="393.411,530.717,413.252,523.2786,402.38,541.4666,393.411,530.717" style="stroke: #A80036; stroke-width: 1.0;"/><!--reverse link Website to HTMLDocument--><path d="M482.5,128.39 C482.5,162.584 482.5,209.232 482.5,243.265 " fill="none" id="Website&lt;-HTMLDocument" style="stroke: #A80036; stroke-width: 1.0;"/><polygon fill="#FFFFFF" points="482.5,115.031,478.5,121.031,482.5,127.031,486.5,121.031,482.5,115.031" style="stroke: #A80036; stroke-width: 1.0;"/><!--reverse link HTMLDocument to Resource--><path d="M482.5,347.86 C482.5,366.528 482.5,387.211 482.5,405.863 " fill="none" id="HTMLDocument&lt;-Resource" style="stroke: #A80036; stroke-width: 1.0;"/><polygon fill="#FFFFFF" points="482.5,334.681,478.5,340.681,482.5,346.681,486.5,340.681,482.5,334.681" style="stroke: #A80036; stroke-width: 1.0;"/><!--reverse link ReportWriter to TextReportWriter--><path d="M804.693,359.606 C771.895,392.31 735.702,428.4 715.776,448.268 " fill="none" id="ReportWriter&lt;-TextReportWriter" style="stroke: #A80036; stroke-width: 1.0;"/><polygon fill="none" points="799.862,354.538,818.967,345.374,809.747,364.452,799.862,354.538" style="stroke: #A80036; stroke-width: 1.0;"/><!--reverse link ReportWriter to JSONReportWriter--><path d="M874.5,365.801 C874.5,396.778 874.5,429.647 874.5,448.268 " fill="none" id="ReportWriter&lt;-JSONReportWriter" style="stroke: #A80036; stroke-width: 1.0;"/><polygon fill="none" points="867.5,365.374,874.5,345.374,881.5,365.373,867.5,365.374" style="stroke: #A80036; stroke-width: 1.0;"/><!--reverse link ReportWriter to ExcelReportWriter--><path d="M945.51,359.606 C978.874,392.31 1015.69,428.4 1035.96,448.268 " fill="none" id="ReportWriter&lt;-ExcelReportWriter" style="stroke: #A80036; stroke-width: 1.0;"/><polygon fill="none" points="940.373,364.373,930.991,345.374,950.173,354.375,940.373,364.373" style="stroke: #A80036; stroke-width: 1.0;"/><!--link ReportManager to ReportWriter--><path d="M874.5,134.201 C874.5,162.565 874.5,197.988 874.5,227.688 " fill="none" id="ReportManager-&gt;ReportWriter" style="stroke: #A80036; stroke-width: 1.0;"/><polygon fill="#A80036" points="874.5,232.782,878.5,223.782,874.5,227.782,870.5,223.782,874.5,232.782" style="stroke: #A80036; stroke-width: 1.0;"/><text fill="#000000" font-family="sans-serif" font-size="13" lengthAdjust="spacingAndGlyphs" textLength="140" x="875.5" y="199.0669">creates and manages</text><text fill="#000000" font-family="sans-serif" font-size="13" lengthAdjust="spacingAndGlyphs" textLength="8" x="866.0125" y="222.0899">3</text><!--link Locality to ResourceKind--><!--link Locality to WebsiteBuilder--><!--link WebsiteBuilder to HTMLDocumentBuilder--><!--
@startuml analysis_05.svg
hide empty members

class Website {
    localDirectory: Path
    urls: Collection<URL>
}

class HTMLDocument {
    scripts: Collection<Script>
    stylesheets: Collection<StyleSheet>
    images: Collection<Image>
    anchors: Collection<Anchor>
}

class Resource {
    path: Path
    url: URL
    foundOn: Collection<HTMLDocument>
    location: Locality
    typeOfResource: ResourceKind
    sizeOfFile: long
}

class Anchor {

}

class Image {
}

class Script {
}

class StyleSheet {
}

enum Locality <<Enum>> {
    INTERNAL
    INTRAPAGE
    EXTERNAL
}

enum ResourceKind <<Enum>> {
    IMAGE
    STYLESHEET
    SCRIPT
    ANCHOR
    VIDEO
    AUDIO
    ARCHIVE
    OTHER
}

class ReportManager {
    setSourceData(site: Website)
    determineBaseFilename()
    writeReportNames(outs: BufferedWriter)

    writeAll()
}

class ReportWriter {
    website: Website

    setSourceData(site: Website)
    setBaseName(baseFileName: String)

    write()
}

class TextReportWriter {

}

class JSONReportWriter {

}

class ExcelReportWriter {

}

class WebsiteBuilder {

}

class HTMLDocumentBuilder {

}

Resource <|- - Image
Resource <|- - Script
Resource <|- - StyleSheet
Resource <|- - Anchor

Website o- - HTMLDocument
HTMLDocument o- - Resource

ReportWriter <|- - TextReportWriter
ReportWriter <|- - JSONReportWriter
ReportWriter <|- - ExcelReportWriter

ReportManager - -> "3" ReportWriter: "creates and manages"

@enduml

PlantUML version 1.2019.09(Mon Aug 26 12:19:51 EDT 2019)
(GPL source distribution)
Java Runtime: OpenJDK Runtime Environment
JVM: OpenJDK 64-Bit Server VM
Java Version: 11.0.14+9-Ubuntu-0ubuntu2.16.04
Operating System: Linux
OS Version: 4.4.0-241-generic
Default Encoding: UTF-8
Language: en
Country: US
--></g></svg>