<?xml version="1.0" encoding="UTF-8" standalone="no"?><svg xmlns="http://www.w3.org/2000/svg" xmlns:xlink="http://www.w3.org/1999/xlink" contentScriptType="application/ecmascript" contentStyleType="text/css" height="587px" preserveAspectRatio="none" style="width:1127px;height:587px;" version="1.1" viewBox="0 0 1127 587" width="1127px" zoomAndPan="magnify"><defs><filter height="300%" id="fufpnfjus61hc" width="300%" x="-1" y="-1"><feGaussianBlur result="blurOut" stdDeviation="2.0"/><feColorMatrix in="blurOut" result="blurOut2" type="matrix" values="0 0 0 0 0 0 0 0 0 0 0 0 0 0 0 0 0 0 .4 0"/><feOffset dx="4.0" dy="4.0" in="blurOut2" result="blurOut3"/><feBlend in="SourceGraphic" in2="blurOut3" mode="normal"/></filter></defs><g><!--class Website--><rect fill="#FEFECE" filter="url(#fufpnfjus61hc)" height="65.6094" id="Website" style="stroke: #A80036; stroke-width: 1.5;" width="136" x="136" y="49"/><ellipse cx="175.3" cy="65" fill="#ADD1B2" rx="11" ry="11" style="stroke: #A80036; stroke-width: 1.0;"/><path d="M178.2688,70.6406 Q177.6906,70.9375 177.05,71.0781 Q176.4094,71.2344 175.7063,71.2344 Q173.2063,71.2344 171.8781,69.5938 Q170.5656,67.9375 170.5656,64.8125 Q170.5656,61.6875 171.8781,60.0313 Q173.2063,58.375 175.7063,58.375 Q176.4094,58.375 177.05,58.5313 Q177.7063,58.6875 178.2688,58.9844 L178.2688,61.7031 Q177.6438,61.125 177.05,60.8594 Q176.4563,60.5781 175.8313,60.5781 Q174.4875,60.5781 173.8,61.6563 Q173.1125,62.7188 173.1125,64.8125 Q173.1125,66.9063 173.8,67.9844 Q174.4875,69.0469 175.8313,69.0469 Q176.4563,69.0469 177.05,68.7813 Q177.6438,68.5 178.2688,67.9219 L178.2688,70.6406 Z "/><text fill="#000000" font-family="sans-serif" font-size="12" lengthAdjust="spacingAndGlyphs" textLength="50" x="194.7" y="69.1543">Website</text><line style="stroke: #A80036; stroke-width: 1.5;" x1="137" x2="271" y1="81" y2="81"/><text fill="#000000" font-family="sans-serif" font-size="11" lengthAdjust="spacingAndGlyphs" textLength="110" x="142" y="95.2104">localDirectory: Path</text><text fill="#000000" font-family="sans-serif" font-size="11" lengthAdjust="spacingAndGlyphs" textLength="124" x="142" y="108.0151">urls: Collection&lt;URL&gt;</text><!--class HTMLDocument--><rect fill="#FEFECE" filter="url(#fufpnfjus61hc)" height="91.2188" id="HTMLDocument" style="stroke: #A80036; stroke-width: 1.5;" width="220" x="94" y="216"/><ellipse cx="151.75" cy="232" fill="#ADD1B2" rx="11" ry="11" style="stroke: #A80036; stroke-width: 1.0;"/><path d="M154.7188,237.6406 Q154.1406,237.9375 153.5,238.0781 Q152.8594,238.2344 152.1563,238.2344 Q149.6563,238.2344 148.3281,236.5938 Q147.0156,234.9375 147.0156,231.8125 Q147.0156,228.6875 148.3281,227.0313 Q149.6563,225.375 152.1563,225.375 Q152.8594,225.375 153.5,225.5313 Q154.1563,225.6875 154.7188,225.9844 L154.7188,228.7031 Q154.0938,228.125 153.5,227.8594 Q152.9063,227.5781 152.2813,227.5781 Q150.9375,227.5781 150.25,228.6563 Q149.5625,229.7188 149.5625,231.8125 Q149.5625,233.9063 150.25,234.9844 Q150.9375,236.0469 152.2813,236.0469 Q152.9063,236.0469 153.5,235.7813 Q154.0938,235.5 154.7188,234.9219 L154.7188,237.6406 Z "/><text fill="#000000" font-family="sans-serif" font-size="12" lengthAdjust="spacingAndGlyphs" textLength="96" x="172.25" y="236.1543">HTMLDocument</text><line style="stroke: #A80036; stroke-width: 1.5;" x1="95" x2="313" y1="248" y2="248"/><text fill="#000000" font-family="sans-serif" font-size="11" lengthAdjust="spacingAndGlyphs" textLength="153" x="100" y="262.2104">scripts: Collection&lt;Script&gt;</text><text fill="#000000" font-family="sans-serif" font-size="11" lengthAdjust="spacingAndGlyphs" textLength="208" x="100" y="275.0151">stylesheets: Collection&lt;StyleSheet&gt;</text><text fill="#000000" font-family="sans-serif" font-size="11" lengthAdjust="spacingAndGlyphs" textLength="158" x="100" y="287.8198">images: Collection&lt;Image&gt;</text><text fill="#000000" font-family="sans-serif" font-size="11" lengthAdjust="spacingAndGlyphs" textLength="166" x="100" y="300.6245">anchors: Collection&lt;Anchor&gt;</text><!--class Resource--><rect fill="#FEFECE" filter="url(#fufpnfjus61hc)" height="116.8281" id="Resource" style="stroke: #A80036; stroke-width: 1.5;" width="228" x="90" y="367"/><ellipse cx="170.25" cy="383" fill="#ADD1B2" rx="11" ry="11" style="stroke: #A80036; stroke-width: 1.0;"/><path d="M173.2188,388.6406 Q172.6406,388.9375 172,389.0781 Q171.3594,389.2344 170.6563,389.2344 Q168.1563,389.2344 166.8281,387.5938 Q165.5156,385.9375 165.5156,382.8125 Q165.5156,379.6875 166.8281,378.0313 Q168.1563,376.375 170.6563,376.375 Q171.3594,376.375 172,376.5313 Q172.6563,376.6875 173.2188,376.9844 L173.2188,379.7031 Q172.5938,379.125 172,378.8594 Q171.4063,378.5781 170.7813,378.5781 Q169.4375,378.5781 168.75,379.6563 Q168.0625,380.7188 168.0625,382.8125 Q168.0625,384.9063 168.75,385.9844 Q169.4375,387.0469 170.7813,387.0469 Q171.4063,387.0469 172,386.7813 Q172.5938,386.5 173.2188,385.9219 L173.2188,388.6406 Z "/><text fill="#000000" font-family="sans-serif" font-size="12" lengthAdjust="spacingAndGlyphs" textLength="59" x="190.75" y="387.1543">Resource</text><line style="stroke: #A80036; stroke-width: 1.5;" x1="91" x2="317" y1="399" y2="399"/><text fill="#000000" font-family="sans-serif" font-size="11" lengthAdjust="spacingAndGlyphs" textLength="58" x="96" y="413.2104">path: Path</text><text fill="#000000" font-family="sans-serif" font-size="11" lengthAdjust="spacingAndGlyphs" textLength="44" x="96" y="426.0151">url: URL</text><text fill="#000000" font-family="sans-serif" font-size="11" lengthAdjust="spacingAndGlyphs" textLength="216" x="96" y="438.8198">foundOn: Collection&lt;HTMLDocument&gt;</text><text fill="#000000" font-family="sans-serif" font-size="11" lengthAdjust="spacingAndGlyphs" textLength="94" x="96" y="451.6245">location: Locality</text><text fill="#000000" font-family="sans-serif" font-size="11" lengthAdjust="spacingAndGlyphs" textLength="175" x="96" y="464.4292">typeOfResource: ResourceKind</text><text fill="#000000" font-family="sans-serif" font-size="11" lengthAdjust="spacingAndGlyphs" textLength="86" x="96" y="477.2339">sizeOfFile: long</text><!--class Anchor--><rect fill="#FEFECE" filter="url(#fufpnfjus61hc)" height="32" id="Anchor" style="stroke: #A80036; stroke-width: 1.5;" width="76" x="6" y="544"/><ellipse cx="21" cy="560" fill="#ADD1B2" rx="11" ry="11" style="stroke: #A80036; stroke-width: 1.0;"/><path d="M23.9688,565.6406 Q23.3906,565.9375 22.75,566.0781 Q22.1094,566.2344 21.4063,566.2344 Q18.9063,566.2344 17.5781,564.5938 Q16.2656,562.9375 16.2656,559.8125 Q16.2656,556.6875 17.5781,555.0313 Q18.9063,553.375 21.4063,553.375 Q22.1094,553.375 22.75,553.5313 Q23.4063,553.6875 23.9688,553.9844 L23.9688,556.7031 Q23.3438,556.125 22.75,555.8594 Q22.1563,555.5781 21.5313,555.5781 Q20.1875,555.5781 19.5,556.6563 Q18.8125,557.7188 18.8125,559.8125 Q18.8125,561.9063 19.5,562.9844 Q20.1875,564.0469 21.5313,564.0469 Q22.1563,564.0469 22.75,563.7813 Q23.3438,563.5 23.9688,562.9219 L23.9688,565.6406 Z "/><text fill="#000000" font-family="sans-serif" font-size="12" lengthAdjust="spacingAndGlyphs" textLength="44" x="35" y="564.1543">Anchor</text><!--class Image--><rect fill="#FEFECE" filter="url(#fufpnfjus61hc)" height="32" id="Image" style="stroke: #A80036; stroke-width: 1.5;" width="70" x="117" y="544"/><ellipse cx="132" cy="560" fill="#ADD1B2" rx="11" ry="11" style="stroke: #A80036; stroke-width: 1.0;"/><path d="M134.9688,565.6406 Q134.3906,565.9375 133.75,566.0781 Q133.1094,566.2344 132.4063,566.2344 Q129.9063,566.2344 128.5781,564.5938 Q127.2656,562.9375 127.2656,559.8125 Q127.2656,556.6875 128.5781,555.0313 Q129.9063,553.375 132.4063,553.375 Q133.1094,553.375 133.75,553.5313 Q134.4063,553.6875 134.9688,553.9844 L134.9688,556.7031 Q134.3438,556.125 133.75,555.8594 Q133.1563,555.5781 132.5313,555.5781 Q131.1875,555.5781 130.5,556.6563 Q129.8125,557.7188 129.8125,559.8125 Q129.8125,561.9063 130.5,562.9844 Q131.1875,564.0469 132.5313,564.0469 Q133.1563,564.0469 133.75,563.7813 Q134.3438,563.5 134.9688,562.9219 L134.9688,565.6406 Z "/><text fill="#000000" font-family="sans-serif" font-size="12" lengthAdjust="spacingAndGlyphs" textLength="38" x="146" y="564.1543">Image</text><!--class Script--><rect fill="#FEFECE" filter="url(#fufpnfjus61hc)" height="32" id="Script" style="stroke: #A80036; stroke-width: 1.5;" width="68" x="222" y="544"/><ellipse cx="237" cy="560" fill="#ADD1B2" rx="11" ry="11" style="stroke: #A80036; stroke-width: 1.0;"/><path d="M239.9688,565.6406 Q239.3906,565.9375 238.75,566.0781 Q238.1094,566.2344 237.4063,566.2344 Q234.9063,566.2344 233.5781,564.5938 Q232.2656,562.9375 232.2656,559.8125 Q232.2656,556.6875 233.5781,555.0313 Q234.9063,553.375 237.4063,553.375 Q238.1094,553.375 238.75,553.5313 Q239.4063,553.6875 239.9688,553.9844 L239.9688,556.7031 Q239.3438,556.125 238.75,555.8594 Q238.1563,555.5781 237.5313,555.5781 Q236.1875,555.5781 235.5,556.6563 Q234.8125,557.7188 234.8125,559.8125 Q234.8125,561.9063 235.5,562.9844 Q236.1875,564.0469 237.5313,564.0469 Q238.1563,564.0469 238.75,563.7813 Q239.3438,563.5 239.9688,562.9219 L239.9688,565.6406 Z "/><text fill="#000000" font-family="sans-serif" font-size="12" lengthAdjust="spacingAndGlyphs" textLength="36" x="251" y="564.1543">Script</text><!--class StyleSheet--><rect fill="#FEFECE" filter="url(#fufpnfjus61hc)" height="32" id="StyleSheet" style="stroke: #A80036; stroke-width: 1.5;" width="99" x="325.5" y="544"/><ellipse cx="340.5" cy="560" fill="#ADD1B2" rx="11" ry="11" style="stroke: #A80036; stroke-width: 1.0;"/><path d="M343.4688,565.6406 Q342.8906,565.9375 342.25,566.0781 Q341.6094,566.2344 340.9063,566.2344 Q338.4063,566.2344 337.0781,564.5938 Q335.7656,562.9375 335.7656,559.8125 Q335.7656,556.6875 337.0781,555.0313 Q338.4063,553.375 340.9063,553.375 Q341.6094,553.375 342.25,553.5313 Q342.9063,553.6875 343.4688,553.9844 L343.4688,556.7031 Q342.8438,556.125 342.25,555.8594 Q341.6563,555.5781 341.0313,555.5781 Q339.6875,555.5781 339,556.6563 Q338.3125,557.7188 338.3125,559.8125 Q338.3125,561.9063 339,562.9844 Q339.6875,564.0469 341.0313,564.0469 Q341.6563,564.0469 342.25,563.7813 Q342.8438,563.5 343.4688,562.9219 L343.4688,565.6406 Z "/><text fill="#000000" font-family="sans-serif" font-size="12" lengthAdjust="spacingAndGlyphs" textLength="67" x="354.5" y="564.1543">StyleSheet</text><!--class Locality--><rect fill="#FEFECE" filter="url(#fufpnfjus61hc)" height="84.3516" id="Locality" style="stroke: #A80036; stroke-width: 1.5;" width="78" x="320" y="40"/><ellipse cx="335" cy="58.9688" fill="#EB937F" rx="11" ry="11" style="stroke: #A80036; stroke-width: 1.0;"/><path d="M339.1094,64.9688 L331.3906,64.9688 L331.3906,52.5781 L339.1094,52.5781 L339.1094,54.7344 L333.8438,54.7344 L333.8438,57.4063 L338.6094,57.4063 L338.6094,59.5625 L333.8438,59.5625 L333.8438,62.8125 L339.1094,62.8125 L339.1094,64.9688 Z "/><text fill="#000000" font-family="sans-serif" font-size="12" font-style="italic" lengthAdjust="spacingAndGlyphs" textLength="49" x="347.5" y="56.1387">«Enum»</text><text fill="#000000" font-family="sans-serif" font-size="12" lengthAdjust="spacingAndGlyphs" textLength="46" x="349" y="70.1074">Locality</text><line style="stroke: #A80036; stroke-width: 1.5;" x1="321" x2="397" y1="77.9375" y2="77.9375"/><text fill="#000000" font-family="sans-serif" font-size="11" lengthAdjust="spacingAndGlyphs" textLength="53" x="326" y="92.1479">INTERNAL</text><text fill="#000000" font-family="sans-serif" font-size="11" lengthAdjust="spacingAndGlyphs" textLength="62" x="326" y="104.9526">INTRAPAGE</text><text fill="#000000" font-family="sans-serif" font-size="11" lengthAdjust="spacingAndGlyphs" textLength="56" x="326" y="117.7573">EXTERNAL</text><!--class ResourceKind--><rect fill="#FEFECE" filter="url(#fufpnfjus61hc)" height="148.375" id="ResourceKind" style="stroke: #A80036; stroke-width: 1.5;" width="117" x="459.5" y="8"/><ellipse cx="474.5" cy="26.9688" fill="#EB937F" rx="11" ry="11" style="stroke: #A80036; stroke-width: 1.0;"/><path d="M478.6094,32.9688 L470.8906,32.9688 L470.8906,20.5781 L478.6094,20.5781 L478.6094,22.7344 L473.3438,22.7344 L473.3438,25.4063 L478.1094,25.4063 L478.1094,27.5625 L473.3438,27.5625 L473.3438,30.8125 L478.6094,30.8125 L478.6094,32.9688 Z "/><text fill="#000000" font-family="sans-serif" font-size="12" font-style="italic" lengthAdjust="spacingAndGlyphs" textLength="49" x="506.5" y="24.1387">«Enum»</text><text fill="#000000" font-family="sans-serif" font-size="12" lengthAdjust="spacingAndGlyphs" textLength="85" x="488.5" y="38.1074">ResourceKind</text><line style="stroke: #A80036; stroke-width: 1.5;" x1="460.5" x2="575.5" y1="45.9375" y2="45.9375"/><text fill="#000000" font-family="sans-serif" font-size="11" lengthAdjust="spacingAndGlyphs" textLength="35" x="465.5" y="60.1479">IMAGE</text><text fill="#000000" font-family="sans-serif" font-size="11" lengthAdjust="spacingAndGlyphs" textLength="72" x="465.5" y="72.9526">STYLESHEET</text><text fill="#000000" font-family="sans-serif" font-size="11" lengthAdjust="spacingAndGlyphs" textLength="40" x="465.5" y="85.7573">SCRIPT</text><text fill="#000000" font-family="sans-serif" font-size="11" lengthAdjust="spacingAndGlyphs" textLength="47" x="465.5" y="98.562">ANCHOR</text><text fill="#000000" font-family="sans-serif" font-size="11" lengthAdjust="spacingAndGlyphs" textLength="34" x="465.5" y="111.3667">VIDEO</text><text fill="#000000" font-family="sans-serif" font-size="11" lengthAdjust="spacingAndGlyphs" textLength="35" x="465.5" y="124.1714">AUDIO</text><text fill="#000000" font-family="sans-serif" font-size="11" lengthAdjust="spacingAndGlyphs" textLength="47" x="465.5" y="136.9761">ARCHIVE</text><text fill="#000000" font-family="sans-serif" font-size="11" lengthAdjust="spacingAndGlyphs" textLength="38" x="465.5" y="149.7808">OTHER</text><!--class ReportWriter--><rect fill="#FEFECE" filter="url(#fufpnfjus61hc)" height="112.0234" id="ReportWriter" style="stroke: #A80036; stroke-width: 1.5;" width="222" x="664" y="26"/><ellipse cx="731.25" cy="42" fill="#ADD1B2" rx="11" ry="11" style="stroke: #A80036; stroke-width: 1.0;"/><path d="M734.2188,47.6406 Q733.6406,47.9375 733,48.0781 Q732.3594,48.2344 731.6563,48.2344 Q729.1563,48.2344 727.8281,46.5938 Q726.5156,44.9375 726.5156,41.8125 Q726.5156,38.6875 727.8281,37.0313 Q729.1563,35.375 731.6563,35.375 Q732.3594,35.375 733,35.5313 Q733.6563,35.6875 734.2188,35.9844 L734.2188,38.7031 Q733.5938,38.125 733,37.8594 Q732.4063,37.5781 731.7813,37.5781 Q730.4375,37.5781 729.75,38.6563 Q729.0625,39.7188 729.0625,41.8125 Q729.0625,43.9063 729.75,44.9844 Q730.4375,46.0469 731.7813,46.0469 Q732.4063,46.0469 733,45.7813 Q733.5938,45.5 734.2188,44.9219 L734.2188,47.6406 Z "/><text fill="#000000" font-family="sans-serif" font-size="12" lengthAdjust="spacingAndGlyphs" textLength="79" x="751.75" y="46.1543">ReportWriter</text><line style="stroke: #A80036; stroke-width: 1.5;" x1="665" x2="885" y1="58" y2="58"/><text fill="#000000" font-family="sans-serif" font-size="11" lengthAdjust="spacingAndGlyphs" textLength="96" x="670" y="72.2104">website: Website</text><line style="stroke: #A80036; stroke-width: 1.5;" x1="665" x2="885" y1="78.8047" y2="78.8047"/><text fill="#000000" font-family="sans-serif" font-size="11" lengthAdjust="spacingAndGlyphs" textLength="165" x="670" y="93.0151">setSourceData(site: Website)</text><text fill="#000000" font-family="sans-serif" font-size="11" lengthAdjust="spacingAndGlyphs" textLength="210" x="670" y="105.8198">setBaseName(baseFileName: String)</text><text fill="#000000" font-family="sans-serif" font-size="11" lengthAdjust="spacingAndGlyphs" textLength="0" x="674" y="118.6245"/><text fill="#000000" font-family="sans-serif" font-size="11" lengthAdjust="spacingAndGlyphs" textLength="36" x="670" y="131.4292">write()</text><!--class ConsoleReportWriter--><rect fill="#FEFECE" filter="url(#fufpnfjus61hc)" height="32" id="ConsoleReportWriter" style="stroke: #A80036; stroke-width: 1.5;" width="161" x="429.5" y="245.5"/><ellipse cx="444.5" cy="261.5" fill="#ADD1B2" rx="11" ry="11" style="stroke: #A80036; stroke-width: 1.0;"/><path d="M447.4688,267.1406 Q446.8906,267.4375 446.25,267.5781 Q445.6094,267.7344 444.9063,267.7344 Q442.4063,267.7344 441.0781,266.0938 Q439.7656,264.4375 439.7656,261.3125 Q439.7656,258.1875 441.0781,256.5313 Q442.4063,254.875 444.9063,254.875 Q445.6094,254.875 446.25,255.0313 Q446.9063,255.1875 447.4688,255.4844 L447.4688,258.2031 Q446.8438,257.625 446.25,257.3594 Q445.6563,257.0781 445.0313,257.0781 Q443.6875,257.0781 443,258.1563 Q442.3125,259.2188 442.3125,261.3125 Q442.3125,263.4063 443,264.4844 Q443.6875,265.5469 445.0313,265.5469 Q445.6563,265.5469 446.25,265.2813 Q446.8438,265 447.4688,264.4219 L447.4688,267.1406 Z "/><text fill="#000000" font-family="sans-serif" font-size="12" lengthAdjust="spacingAndGlyphs" textLength="129" x="458.5" y="265.6543">ConsoleReportWriter</text><!--class TextReportWriter--><rect fill="#FEFECE" filter="url(#fufpnfjus61hc)" height="32" id="TextReportWriter" style="stroke: #A80036; stroke-width: 1.5;" width="137" x="625.5" y="245.5"/><ellipse cx="640.5" cy="261.5" fill="#ADD1B2" rx="11" ry="11" style="stroke: #A80036; stroke-width: 1.0;"/><path d="M643.4688,267.1406 Q642.8906,267.4375 642.25,267.5781 Q641.6094,267.7344 640.9063,267.7344 Q638.4063,267.7344 637.0781,266.0938 Q635.7656,264.4375 635.7656,261.3125 Q635.7656,258.1875 637.0781,256.5313 Q638.4063,254.875 640.9063,254.875 Q641.6094,254.875 642.25,255.0313 Q642.9063,255.1875 643.4688,255.4844 L643.4688,258.2031 Q642.8438,257.625 642.25,257.3594 Q641.6563,257.0781 641.0313,257.0781 Q639.6875,257.0781 639,258.1563 Q638.3125,259.2188 638.3125,261.3125 Q638.3125,263.4063 639,264.4844 Q639.6875,265.5469 641.0313,265.5469 Q641.6563,265.5469 642.25,265.2813 Q642.8438,265 643.4688,264.4219 L643.4688,267.1406 Z "/><text fill="#000000" font-family="sans-serif" font-size="12" lengthAdjust="spacingAndGlyphs" textLength="105" x="654.5" y="265.6543">TextReportWriter</text><!--class JSONReportWriter--><rect fill="#FEFECE" filter="url(#fufpnfjus61hc)" height="32" id="JSONReportWriter" style="stroke: #A80036; stroke-width: 1.5;" width="140" x="798" y="245.5"/><ellipse cx="813" cy="261.5" fill="#ADD1B2" rx="11" ry="11" style="stroke: #A80036; stroke-width: 1.0;"/><path d="M815.9688,267.1406 Q815.3906,267.4375 814.75,267.5781 Q814.1094,267.7344 813.4063,267.7344 Q810.9063,267.7344 809.5781,266.0938 Q808.2656,264.4375 808.2656,261.3125 Q808.2656,258.1875 809.5781,256.5313 Q810.9063,254.875 813.4063,254.875 Q814.1094,254.875 814.75,255.0313 Q815.4063,255.1875 815.9688,255.4844 L815.9688,258.2031 Q815.3438,257.625 814.75,257.3594 Q814.1563,257.0781 813.5313,257.0781 Q812.1875,257.0781 811.5,258.1563 Q810.8125,259.2188 810.8125,261.3125 Q810.8125,263.4063 811.5,264.4844 Q812.1875,265.5469 813.5313,265.5469 Q814.1563,265.5469 814.75,265.2813 Q815.3438,265 815.9688,264.4219 L815.9688,267.1406 Z "/><text fill="#000000" font-family="sans-serif" font-size="12" lengthAdjust="spacingAndGlyphs" textLength="108" x="827" y="265.6543">JSONReportWriter</text><!--class ExcelReportWriter--><rect fill="#FEFECE" filter="url(#fufpnfjus61hc)" height="32" id="ExcelReportWriter" style="stroke: #A80036; stroke-width: 1.5;" width="143" x="973.5" y="245.5"/><ellipse cx="988.5" cy="261.5" fill="#ADD1B2" rx="11" ry="11" style="stroke: #A80036; stroke-width: 1.0;"/><path d="M991.4688,267.1406 Q990.8906,267.4375 990.25,267.5781 Q989.6094,267.7344 988.9063,267.7344 Q986.4063,267.7344 985.0781,266.0938 Q983.7656,264.4375 983.7656,261.3125 Q983.7656,258.1875 985.0781,256.5313 Q986.4063,254.875 988.9063,254.875 Q989.6094,254.875 990.25,255.0313 Q990.9063,255.1875 991.4688,255.4844 L991.4688,258.2031 Q990.8438,257.625 990.25,257.3594 Q989.6563,257.0781 989.0313,257.0781 Q987.6875,257.0781 987,258.1563 Q986.3125,259.2188 986.3125,261.3125 Q986.3125,263.4063 987,264.4844 Q987.6875,265.5469 989.0313,265.5469 Q989.6563,265.5469 990.25,265.2813 Q990.8438,265 991.4688,264.4219 L991.4688,267.1406 Z "/><text fill="#000000" font-family="sans-serif" font-size="12" lengthAdjust="spacingAndGlyphs" textLength="111" x="1002.5" y="265.6543">ExcelReportWriter</text><!--reverse link Resource to Image--><path d="M173.96,503.045 C167.838,518.6445 162.022,533.4635 157.915,543.9276 " fill="none" id="Resource&lt;-Image" style="stroke: #A80036; stroke-width: 1.0;"/><polygon fill="none" points="167.521,500.2913,181.343,484.231,180.553,505.4059,167.521,500.2913" style="stroke: #A80036; stroke-width: 1.0;"/><!--reverse link Resource to Script--><path d="M234.04,503.045 C240.162,518.6445 245.978,533.4635 250.085,543.9276 " fill="none" id="Resource&lt;-Script" style="stroke: #A80036; stroke-width: 1.0;"/><polygon fill="none" points="227.447,505.4059,226.657,484.231,240.479,500.2913,227.447,505.4059" style="stroke: #A80036; stroke-width: 1.0;"/><!--reverse link Resource to StyleSheet--><path d="M294.491,496.6172 C317.588,514.5144 340.199,532.0339 355.548,543.9276 " fill="none" id="Resource&lt;-StyleSheet" style="stroke: #A80036; stroke-width: 1.0;"/><polygon fill="none" points="290.028,502.0143,278.506,484.231,298.603,490.9477,290.028,502.0143" style="stroke: #A80036; stroke-width: 1.0;"/><!--reverse link Resource to Anchor--><path d="M118.707,497.1333 C97.3123,514.8508 76.4247,532.1483 62.2007,543.9276 " fill="none" id="Resource&lt;-Anchor" style="stroke: #A80036; stroke-width: 1.0;"/><polygon fill="none" points="114.419,491.596,134.287,484.231,123.348,502.3786,114.419,491.596" style="stroke: #A80036; stroke-width: 1.0;"/><!--reverse link Website to HTMLDocument--><path d="M204,128.478 C204,155.34 204,189.206 204,215.912 " fill="none" id="Website&lt;-HTMLDocument" style="stroke: #A80036; stroke-width: 1.0;"/><polygon fill="#FFFFFF" points="204,115.144,200,121.144,204,127.144,208,121.144,204,115.144" style="stroke: #A80036; stroke-width: 1.0;"/><!--reverse link HTMLDocument to Resource--><path d="M204,320.624 C204,335.67 204,351.862 204,366.881 " fill="none" id="HTMLDocument&lt;-Resource" style="stroke: #A80036; stroke-width: 1.0;"/><polygon fill="#FFFFFF" points="204,307.196,200,313.196,204,319.196,208,313.196,204,307.196" style="stroke: #A80036; stroke-width: 1.0;"/><!--reverse link ReportWriter to ConsoleReportWriter--><path d="M675.963,149.336 C623.766,184.298 564.155,224.227 532.512,245.422 " fill="none" id="ReportWriter&lt;-ConsoleReportWriter" style="stroke: #A80036; stroke-width: 1.0;"/><polygon fill="none" points="672.093,143.503,692.605,138.189,679.884,155.135,672.093,143.503" style="stroke: #A80036; stroke-width: 1.0;"/><!--reverse link ReportWriter to TextReportWriter--><path d="M741.384,156.664 C726.291,189.74 709.883,225.695 700.881,245.422 " fill="none" id="ReportWriter&lt;-TextReportWriter" style="stroke: #A80036; stroke-width: 1.0;"/><polygon fill="none" points="735.144,153.478,749.815,138.189,747.88,159.29,735.144,153.478" style="stroke: #A80036; stroke-width: 1.0;"/><!--reverse link ReportWriter to JSONReportWriter--><path d="M813.354,156.203 C830.75,189.405 849.716,225.603 860.1,245.422 " fill="none" id="ReportWriter&lt;-JSONReportWriter" style="stroke: #A80036; stroke-width: 1.0;"/><polygon fill="none" points="806.998,159.154,803.916,138.189,819.399,152.656,806.998,159.154" style="stroke: #A80036; stroke-width: 1.0;"/><!--reverse link ReportWriter to ExcelReportWriter--><path d="M875.905,149.336 C929.088,184.298 989.824,224.227 1022.06,245.422 " fill="none" id="ReportWriter&lt;-ExcelReportWriter" style="stroke: #A80036; stroke-width: 1.0;"/><polygon fill="none" points="871.816,155.025,858.95,138.189,879.507,143.327,871.816,155.025" style="stroke: #A80036; stroke-width: 1.0;"/><!--
@startuml analysis_03.svg
hide empty members

class Website {
    localDirectory: Path
    urls: Collection<URL>
}

class HTMLDocument {
    scripts: Collection<Script>
    stylesheets: Collection<StyleSheet>
    images: Collection<Image>
    anchors: Collection<Anchor>
}

class Resource {
    path: Path
    url: URL
    foundOn: Collection<HTMLDocument>
    location: Locality
    typeOfResource: ResourceKind
    sizeOfFile: long
}

class Anchor {

}

class Image {
}

class Script {
}

class StyleSheet {
}

enum Locality <<Enum>> {
    INTERNAL
    INTRAPAGE
    EXTERNAL
}

enum ResourceKind <<Enum>> {
    IMAGE
    STYLESHEET
    SCRIPT
    ANCHOR
    VIDEO
    AUDIO
    ARCHIVE
    OTHER
}

class ReportWriter {
    website: Website

    setSourceData(site: Website)
    setBaseName(baseFileName: String)

    write()
}

class ConsoleReportWriter {

}

class TextReportWriter {

}

class JSONReportWriter {

}

class ExcelReportWriter {

}

Resource <|- - Image
Resource <|- - Script
Resource <|- - StyleSheet
Resource <|- - Anchor

Website o- - HTMLDocument
HTMLDocument o- - Resource

ReportWriter <|- - ConsoleReportWriter
ReportWriter <|- - TextReportWriter
ReportWriter <|- - JSONReportWriter
ReportWriter <|- - ExcelReportWriter

@enduml

PlantUML version 1.2019.09(Mon Aug 26 12:19:51 EDT 2019)
(GPL source distribution)
Java Runtime: OpenJDK Runtime Environment
JVM: OpenJDK 64-Bit Server VM
Java Version: 11.0.14+9-Ubuntu-0ubuntu2.16.04
Operating System: Linux
OS Version: 4.4.0-241-generic
Default Encoding: UTF-8
Language: en
Country: US
--></g></svg>