<?xml version="1.0" encoding="UTF-8" standalone="no"?><svg xmlns="http://www.w3.org/2000/svg" xmlns:xlink="http://www.w3.org/1999/xlink" contentScriptType="application/ecmascript" contentStyleType="text/css" height="405px" preserveAspectRatio="none" style="width:1034px;height:405px;" version="1.1" viewBox="0 0 1034 405" width="1034px" zoomAndPan="magnify"><defs><filter height="300%" id="f2w4anx3fv7hq" width="300%" x="-1" y="-1"><feGaussianBlur result="blurOut" stdDeviation="2.0"/><feColorMatrix in="blurOut" result="blurOut2" type="matrix" values="0 0 0 0 0 0 0 0 0 0 0 0 0 0 0 0 0 0 .4 0"/><feOffset dx="4.0" dy="4.0" in="blurOut2" result="blurOut3"/><feBlend in="SourceGraphic" in2="blurOut3" mode="normal"/></filter></defs><g><!--class Website--><rect fill="#FEFECE" filter="url(#f2w4anx3fv7hq)" height="65.6094" id="Website" style="stroke: #A80036; stroke-width: 1.5;" width="127" x="450.5" y="17"/><ellipse cx="485.75" cy="33" fill="#ADD1B2" rx="11" ry="11" style="stroke: #A80036; stroke-width: 1.0;"/><path d="M488.7188,38.6406 Q488.1406,38.9375 487.5,39.0781 Q486.8594,39.2344 486.1563,39.2344 Q483.6563,39.2344 482.3281,37.5938 Q481.0156,35.9375 481.0156,32.8125 Q481.0156,29.6875 482.3281,28.0313 Q483.6563,26.375 486.1563,26.375 Q486.8594,26.375 487.5,26.5313 Q488.1563,26.6875 488.7188,26.9844 L488.7188,29.7031 Q488.0938,29.125 487.5,28.8594 Q486.9063,28.5781 486.2813,28.5781 Q484.9375,28.5781 484.25,29.6563 Q483.5625,30.7188 483.5625,32.8125 Q483.5625,34.9063 484.25,35.9844 Q484.9375,37.0469 486.2813,37.0469 Q486.9063,37.0469 487.5,36.7813 Q488.0938,36.5 488.7188,35.9219 L488.7188,38.6406 Z "/><text fill="#000000" font-family="sans-serif" font-size="12" lengthAdjust="spacingAndGlyphs" textLength="50" x="504.25" y="37.1543">Website</text><line style="stroke: #A80036; stroke-width: 1.5;" x1="451.5" x2="576.5" y1="49" y2="49"/><text fill="#000000" font-family="sans-serif" font-size="11" lengthAdjust="spacingAndGlyphs" textLength="115" x="456.5" y="63.2104">local_directory: Path</text><text fill="#000000" font-family="sans-serif" font-size="11" lengthAdjust="spacingAndGlyphs" textLength="51" x="456.5" y="76.0151">urls: URL</text><!--class HTMLDocument--><rect fill="#FEFECE" filter="url(#f2w4anx3fv7hq)" height="91.2188" id="HTMLDocument" style="stroke: #A80036; stroke-width: 1.5;" width="220" x="404" y="152"/><ellipse cx="461.75" cy="168" fill="#ADD1B2" rx="11" ry="11" style="stroke: #A80036; stroke-width: 1.0;"/><path d="M464.7188,173.6406 Q464.1406,173.9375 463.5,174.0781 Q462.8594,174.2344 462.1563,174.2344 Q459.6563,174.2344 458.3281,172.5938 Q457.0156,170.9375 457.0156,167.8125 Q457.0156,164.6875 458.3281,163.0313 Q459.6563,161.375 462.1563,161.375 Q462.8594,161.375 463.5,161.5313 Q464.1563,161.6875 464.7188,161.9844 L464.7188,164.7031 Q464.0938,164.125 463.5,163.8594 Q462.9063,163.5781 462.2813,163.5781 Q460.9375,163.5781 460.25,164.6563 Q459.5625,165.7188 459.5625,167.8125 Q459.5625,169.9063 460.25,170.9844 Q460.9375,172.0469 462.2813,172.0469 Q462.9063,172.0469 463.5,171.7813 Q464.0938,171.5 464.7188,170.9219 L464.7188,173.6406 Z "/><text fill="#000000" font-family="sans-serif" font-size="12" lengthAdjust="spacingAndGlyphs" textLength="96" x="482.25" y="172.1543">HTMLDocument</text><line style="stroke: #A80036; stroke-width: 1.5;" x1="405" x2="623" y1="184" y2="184"/><text fill="#000000" font-family="sans-serif" font-size="11" lengthAdjust="spacingAndGlyphs" textLength="153" x="410" y="198.2104">scripts: Collection&lt;Script&gt;</text><text fill="#000000" font-family="sans-serif" font-size="11" lengthAdjust="spacingAndGlyphs" textLength="208" x="410" y="211.0151">stylesheets: Collection&lt;StyleSheet&gt;</text><text fill="#000000" font-family="sans-serif" font-size="11" lengthAdjust="spacingAndGlyphs" textLength="158" x="410" y="223.8198">images: Collection&lt;Image&gt;</text><text fill="#000000" font-family="sans-serif" font-size="11" lengthAdjust="spacingAndGlyphs" textLength="166" x="410" y="236.6245">anchors: Collection&lt;Anchor&gt;</text><!--class Anchor--><rect fill="#FEFECE" filter="url(#f2w4anx3fv7hq)" height="91.2188" id="Anchor" style="stroke: #A80036; stroke-width: 1.5;" width="228" x="6" y="303"/><ellipse cx="93.75" cy="319" fill="#ADD1B2" rx="11" ry="11" style="stroke: #A80036; stroke-width: 1.0;"/><path d="M96.7188,324.6406 Q96.1406,324.9375 95.5,325.0781 Q94.8594,325.2344 94.1563,325.2344 Q91.6563,325.2344 90.3281,323.5938 Q89.0156,321.9375 89.0156,318.8125 Q89.0156,315.6875 90.3281,314.0313 Q91.6563,312.375 94.1563,312.375 Q94.8594,312.375 95.5,312.5313 Q96.1563,312.6875 96.7188,312.9844 L96.7188,315.7031 Q96.0938,315.125 95.5,314.8594 Q94.9063,314.5781 94.2813,314.5781 Q92.9375,314.5781 92.25,315.6563 Q91.5625,316.7188 91.5625,318.8125 Q91.5625,320.9063 92.25,321.9844 Q92.9375,323.0469 94.2813,323.0469 Q94.9063,323.0469 95.5,322.7813 Q96.0938,322.5 96.7188,321.9219 L96.7188,324.6406 Z "/><text fill="#000000" font-family="sans-serif" font-size="12" lengthAdjust="spacingAndGlyphs" textLength="44" x="114.25" y="323.1543">Anchor</text><line style="stroke: #A80036; stroke-width: 1.5;" x1="7" x2="233" y1="335" y2="335"/><text fill="#000000" font-family="sans-serif" font-size="11" lengthAdjust="spacingAndGlyphs" textLength="58" x="12" y="349.2104">path: Path</text><text fill="#000000" font-family="sans-serif" font-size="11" lengthAdjust="spacingAndGlyphs" textLength="44" x="12" y="362.0151">url: URL</text><text fill="#000000" font-family="sans-serif" font-size="11" lengthAdjust="spacingAndGlyphs" textLength="216" x="12" y="374.8198">foundOn: Collection&lt;HTMLDocument&gt;</text><text fill="#000000" font-family="sans-serif" font-size="11" lengthAdjust="spacingAndGlyphs" textLength="94" x="12" y="387.6245">location: Locality</text><!--class Image--><rect fill="#FEFECE" filter="url(#f2w4anx3fv7hq)" height="91.2188" id="Image" style="stroke: #A80036; stroke-width: 1.5;" width="228" x="269" y="303"/><ellipse cx="359.75" cy="319" fill="#ADD1B2" rx="11" ry="11" style="stroke: #A80036; stroke-width: 1.0;"/><path d="M362.7188,324.6406 Q362.1406,324.9375 361.5,325.0781 Q360.8594,325.2344 360.1563,325.2344 Q357.6563,325.2344 356.3281,323.5938 Q355.0156,321.9375 355.0156,318.8125 Q355.0156,315.6875 356.3281,314.0313 Q357.6563,312.375 360.1563,312.375 Q360.8594,312.375 361.5,312.5313 Q362.1563,312.6875 362.7188,312.9844 L362.7188,315.7031 Q362.0938,315.125 361.5,314.8594 Q360.9063,314.5781 360.2813,314.5781 Q358.9375,314.5781 358.25,315.6563 Q357.5625,316.7188 357.5625,318.8125 Q357.5625,320.9063 358.25,321.9844 Q358.9375,323.0469 360.2813,323.0469 Q360.9063,323.0469 361.5,322.7813 Q362.0938,322.5 362.7188,321.9219 L362.7188,324.6406 Z "/><text fill="#000000" font-family="sans-serif" font-size="12" lengthAdjust="spacingAndGlyphs" textLength="38" x="380.25" y="323.1543">Image</text><line style="stroke: #A80036; stroke-width: 1.5;" x1="270" x2="496" y1="335" y2="335"/><text fill="#000000" font-family="sans-serif" font-size="11" lengthAdjust="spacingAndGlyphs" textLength="58" x="275" y="349.2104">path: Path</text><text fill="#000000" font-family="sans-serif" font-size="11" lengthAdjust="spacingAndGlyphs" textLength="44" x="275" y="362.0151">url: URL</text><text fill="#000000" font-family="sans-serif" font-size="11" lengthAdjust="spacingAndGlyphs" textLength="216" x="275" y="374.8198">foundOn: Collection&lt;HTMLDocument&gt;</text><text fill="#000000" font-family="sans-serif" font-size="11" lengthAdjust="spacingAndGlyphs" textLength="94" x="275" y="387.6245">location: Locality</text><!--class Script--><rect fill="#FEFECE" filter="url(#f2w4anx3fv7hq)" height="91.2188" id="Script" style="stroke: #A80036; stroke-width: 1.5;" width="228" x="532" y="303"/><ellipse cx="623.75" cy="319" fill="#ADD1B2" rx="11" ry="11" style="stroke: #A80036; stroke-width: 1.0;"/><path d="M626.7188,324.6406 Q626.1406,324.9375 625.5,325.0781 Q624.8594,325.2344 624.1563,325.2344 Q621.6563,325.2344 620.3281,323.5938 Q619.0156,321.9375 619.0156,318.8125 Q619.0156,315.6875 620.3281,314.0313 Q621.6563,312.375 624.1563,312.375 Q624.8594,312.375 625.5,312.5313 Q626.1563,312.6875 626.7188,312.9844 L626.7188,315.7031 Q626.0938,315.125 625.5,314.8594 Q624.9063,314.5781 624.2813,314.5781 Q622.9375,314.5781 622.25,315.6563 Q621.5625,316.7188 621.5625,318.8125 Q621.5625,320.9063 622.25,321.9844 Q622.9375,323.0469 624.2813,323.0469 Q624.9063,323.0469 625.5,322.7813 Q626.0938,322.5 626.7188,321.9219 L626.7188,324.6406 Z "/><text fill="#000000" font-family="sans-serif" font-size="12" lengthAdjust="spacingAndGlyphs" textLength="36" x="644.25" y="323.1543">Script</text><line style="stroke: #A80036; stroke-width: 1.5;" x1="533" x2="759" y1="335" y2="335"/><text fill="#000000" font-family="sans-serif" font-size="11" lengthAdjust="spacingAndGlyphs" textLength="58" x="538" y="349.2104">path: Path</text><text fill="#000000" font-family="sans-serif" font-size="11" lengthAdjust="spacingAndGlyphs" textLength="44" x="538" y="362.0151">url: URL</text><text fill="#000000" font-family="sans-serif" font-size="11" lengthAdjust="spacingAndGlyphs" textLength="216" x="538" y="374.8198">foundOn: Collection&lt;HTMLDocument&gt;</text><text fill="#000000" font-family="sans-serif" font-size="11" lengthAdjust="spacingAndGlyphs" textLength="94" x="538" y="387.6245">location: Locality</text><!--class StyleSheet--><rect fill="#FEFECE" filter="url(#f2w4anx3fv7hq)" height="91.2188" id="StyleSheet" style="stroke: #A80036; stroke-width: 1.5;" width="228" x="795" y="303"/><ellipse cx="871.25" cy="319" fill="#ADD1B2" rx="11" ry="11" style="stroke: #A80036; stroke-width: 1.0;"/><path d="M874.2188,324.6406 Q873.6406,324.9375 873,325.0781 Q872.3594,325.2344 871.6563,325.2344 Q869.1563,325.2344 867.8281,323.5938 Q866.5156,321.9375 866.5156,318.8125 Q866.5156,315.6875 867.8281,314.0313 Q869.1563,312.375 871.6563,312.375 Q872.3594,312.375 873,312.5313 Q873.6563,312.6875 874.2188,312.9844 L874.2188,315.7031 Q873.5938,315.125 873,314.8594 Q872.4063,314.5781 871.7813,314.5781 Q870.4375,314.5781 869.75,315.6563 Q869.0625,316.7188 869.0625,318.8125 Q869.0625,320.9063 869.75,321.9844 Q870.4375,323.0469 871.7813,323.0469 Q872.4063,323.0469 873,322.7813 Q873.5938,322.5 874.2188,321.9219 L874.2188,324.6406 Z "/><text fill="#000000" font-family="sans-serif" font-size="12" lengthAdjust="spacingAndGlyphs" textLength="67" x="891.75" y="323.1543">StyleSheet</text><line style="stroke: #A80036; stroke-width: 1.5;" x1="796" x2="1022" y1="335" y2="335"/><text fill="#000000" font-family="sans-serif" font-size="11" lengthAdjust="spacingAndGlyphs" textLength="58" x="801" y="349.2104">path: Path</text><text fill="#000000" font-family="sans-serif" font-size="11" lengthAdjust="spacingAndGlyphs" textLength="44" x="801" y="362.0151">url: URL</text><text fill="#000000" font-family="sans-serif" font-size="11" lengthAdjust="spacingAndGlyphs" textLength="216" x="801" y="374.8198">foundOn: Collection&lt;HTMLDocument&gt;</text><text fill="#000000" font-family="sans-serif" font-size="11" lengthAdjust="spacingAndGlyphs" textLength="94" x="801" y="387.6245">location: Locality</text><!--class Locality--><rect fill="#FEFECE" filter="url(#f2w4anx3fv7hq)" height="84.3516" id="Locality" style="stroke: #A80036; stroke-width: 1.5;" width="78" x="613" y="8"/><ellipse cx="628" cy="26.9688" fill="#EB937F" rx="11" ry="11" style="stroke: #A80036; stroke-width: 1.0;"/><path d="M632.1094,32.9688 L624.3906,32.9688 L624.3906,20.5781 L632.1094,20.5781 L632.1094,22.7344 L626.8438,22.7344 L626.8438,25.4063 L631.6094,25.4063 L631.6094,27.5625 L626.8438,27.5625 L626.8438,30.8125 L632.1094,30.8125 L632.1094,32.9688 Z "/><text fill="#000000" font-family="sans-serif" font-size="12" font-style="italic" lengthAdjust="spacingAndGlyphs" textLength="49" x="640.5" y="24.1387">«Enum»</text><text fill="#000000" font-family="sans-serif" font-size="12" lengthAdjust="spacingAndGlyphs" textLength="46" x="642" y="38.1074">Locality</text><line style="stroke: #A80036; stroke-width: 1.5;" x1="614" x2="690" y1="45.9375" y2="45.9375"/><text fill="#000000" font-family="sans-serif" font-size="11" lengthAdjust="spacingAndGlyphs" textLength="53" x="619" y="60.1479">INTERNAL</text><text fill="#000000" font-family="sans-serif" font-size="11" lengthAdjust="spacingAndGlyphs" textLength="62" x="619" y="72.9526">INTRAPAGE</text><text fill="#000000" font-family="sans-serif" font-size="11" lengthAdjust="spacingAndGlyphs" textLength="56" x="619" y="85.7573">EXTERNAL</text><!--reverse link Website to HTMLDocument--><path d="M514,96.515 C514,114.167 514,134.319 514,151.884 " fill="none" id="Website&lt;-HTMLDocument" style="stroke: #A80036; stroke-width: 1.0;"/><polygon fill="#FFFFFF" points="514,83.291,510,89.291,514,95.291,518,89.291,514,83.291" style="stroke: #A80036; stroke-width: 1.0;"/><!--reverse link HTMLDocument to Image--><path d="M465.936,253.168 C451.574,269.504 436.005,287.212 422.277,302.8266 " fill="none" id="HTMLDocument&lt;-Image" style="stroke: #A80036; stroke-width: 1.0;"/><polygon fill="#FFFFFF" points="474.696,243.205,467.7303,245.0702,466.7729,252.2174,473.7386,250.3523,474.696,243.205" style="stroke: #A80036; stroke-width: 1.0;"/><!--reverse link HTMLDocument to Script--><path d="M562.431,253.168 C576.903,269.504 592.591,287.212 606.424,302.8266 " fill="none" id="HTMLDocument&lt;-Script" style="stroke: #A80036; stroke-width: 1.0;"/><polygon fill="#FFFFFF" points="553.604,243.205,554.5887,250.3485,561.5615,252.1871,560.5768,245.0435,553.604,243.205" style="stroke: #A80036; stroke-width: 1.0;"/><!--reverse link HTMLDocument to StyleSheet--><path d="M636.359,244.656 C686.878,263.712 745.106,285.677 794.745,304.4015 " fill="none" id="HTMLDocument&lt;-StyleSheet" style="stroke: #A80036; stroke-width: 1.0;"/><polygon fill="#FFFFFF" points="624.03,240.005,628.2319,245.8654,635.2576,244.2407,631.0557,238.3803,624.03,240.005" style="stroke: #A80036; stroke-width: 1.0;"/><!--reverse link HTMLDocument to Anchor--><path d="M391.717,244.744 C341.448,263.754 283.56,285.646 234.166,304.3256 " fill="none" id="HTMLDocument&lt;-Anchor" style="stroke: #A80036; stroke-width: 1.0;"/><polygon fill="#FFFFFF" points="403.987,240.104,396.96,238.4849,392.7628,244.3487,399.7898,245.9677,403.987,240.104" style="stroke: #A80036; stroke-width: 1.0;"/><!--
@startuml domain_03.svg
hide empty members

class Website {
    local_directory: Path
    urls: URL
}

class HTMLDocument {
    scripts: Collection<Script>
    stylesheets: Collection<StyleSheet>
    images: Collection<Image>
    anchors: Collection<Anchor>
}

class Anchor {
    path: Path
    url: URL
    foundOn: Collection<HTMLDocument>
    location: Locality
}

class Image {
    path: Path
    url: URL
    foundOn: Collection<HTMLDocument>
    location: Locality
}

class Script {
    path: Path
    url: URL
    foundOn: Collection<HTMLDocument>
    location: Locality
}

class StyleSheet {
    path: Path
    url: URL
    foundOn: Collection<HTMLDocument>
    location: Locality
}

enum Locality <<Enum>> {
    INTERNAL
    INTRAPAGE
    EXTERNAL
}

Website o- - HTMLDocument
HTMLDocument o- - Image
HTMLDocument o- - Script
HTMLDocument o- - StyleSheet
HTMLDocument o- - Anchor

@enduml

PlantUML version 1.2019.09(Mon Aug 26 12:19:51 EDT 2019)
(GPL source distribution)
Java Runtime: OpenJDK Runtime Environment
JVM: OpenJDK 64-Bit Server VM
Java Version: 11.0.14+9-Ubuntu-0ubuntu2.16.04
Operating System: Linux
OS Version: 4.4.0-241-generic
Default Encoding: UTF-8
Language: en
Country: US
--></g></svg>