<?xml version="1.0" encoding="UTF-8" standalone="no"?><svg xmlns="http://www.w3.org/2000/svg" xmlns:xlink="http://www.w3.org/1999/xlink" contentScriptType="application/ecmascript" contentStyleType="text/css" height="374px" preserveAspectRatio="none" style="width:1050px;height:374px;" version="1.1" viewBox="0 0 1050 374" width="1050px" zoomAndPan="magnify"><defs><filter height="300%" id="fz352g5uo53px" width="300%" x="-1" y="-1"><feGaussianBlur result="blurOut" stdDeviation="2.0"/><feColorMatrix in="blurOut" result="blurOut2" type="matrix" values="0 0 0 0 0 0 0 0 0 0 0 0 0 0 0 0 0 0 .4 0"/><feOffset dx="4.0" dy="4.0" in="blurOut2" result="blurOut3"/><feBlend in="SourceGraphic" in2="blurOut3" mode="normal"/></filter></defs><g><!--class Website--><rect fill="#FEFECE" filter="url(#fz352g5uo53px)" height="65.6094" id="Website" style="stroke: #A80036; stroke-width: 1.5;" width="127" x="458.5" y="8"/><ellipse cx="493.75" cy="24" fill="#ADD1B2" rx="11" ry="11" style="stroke: #A80036; stroke-width: 1.0;"/><path d="M496.7188,29.6406 Q496.1406,29.9375 495.5,30.0781 Q494.8594,30.2344 494.1563,30.2344 Q491.6563,30.2344 490.3281,28.5938 Q489.0156,26.9375 489.0156,23.8125 Q489.0156,20.6875 490.3281,19.0313 Q491.6563,17.375 494.1563,17.375 Q494.8594,17.375 495.5,17.5313 Q496.1563,17.6875 496.7188,17.9844 L496.7188,20.7031 Q496.0938,20.125 495.5,19.8594 Q494.9063,19.5781 494.2813,19.5781 Q492.9375,19.5781 492.25,20.6563 Q491.5625,21.7188 491.5625,23.8125 Q491.5625,25.9063 492.25,26.9844 Q492.9375,28.0469 494.2813,28.0469 Q494.9063,28.0469 495.5,27.7813 Q496.0938,27.5 496.7188,26.9219 L496.7188,29.6406 Z "/><text fill="#000000" font-family="sans-serif" font-size="12" lengthAdjust="spacingAndGlyphs" textLength="50" x="512.25" y="28.1543">Website</text><line style="stroke: #A80036; stroke-width: 1.5;" x1="459.5" x2="584.5" y1="40" y2="40"/><text fill="#000000" font-family="sans-serif" font-size="11" lengthAdjust="spacingAndGlyphs" textLength="115" x="464.5" y="54.2104">local_directory: Path</text><text fill="#000000" font-family="sans-serif" font-size="11" lengthAdjust="spacingAndGlyphs" textLength="51" x="464.5" y="67.0151">urls: URL</text><!--class HTMLDocument--><rect fill="#FEFECE" filter="url(#fz352g5uo53px)" height="91.2188" id="HTMLDocument" style="stroke: #A80036; stroke-width: 1.5;" width="220" x="412" y="134"/><ellipse cx="469.75" cy="150" fill="#ADD1B2" rx="11" ry="11" style="stroke: #A80036; stroke-width: 1.0;"/><path d="M472.7188,155.6406 Q472.1406,155.9375 471.5,156.0781 Q470.8594,156.2344 470.1563,156.2344 Q467.6563,156.2344 466.3281,154.5938 Q465.0156,152.9375 465.0156,149.8125 Q465.0156,146.6875 466.3281,145.0313 Q467.6563,143.375 470.1563,143.375 Q470.8594,143.375 471.5,143.5313 Q472.1563,143.6875 472.7188,143.9844 L472.7188,146.7031 Q472.0938,146.125 471.5,145.8594 Q470.9063,145.5781 470.2813,145.5781 Q468.9375,145.5781 468.25,146.6563 Q467.5625,147.7188 467.5625,149.8125 Q467.5625,151.9063 468.25,152.9844 Q468.9375,154.0469 470.2813,154.0469 Q470.9063,154.0469 471.5,153.7813 Q472.0938,153.5 472.7188,152.9219 L472.7188,155.6406 Z "/><text fill="#000000" font-family="sans-serif" font-size="12" lengthAdjust="spacingAndGlyphs" textLength="96" x="490.25" y="154.1543">HTMLDocument</text><line style="stroke: #A80036; stroke-width: 1.5;" x1="413" x2="631" y1="166" y2="166"/><text fill="#000000" font-family="sans-serif" font-size="11" lengthAdjust="spacingAndGlyphs" textLength="153" x="418" y="180.2104">scripts: Collection&lt;Script&gt;</text><text fill="#000000" font-family="sans-serif" font-size="11" lengthAdjust="spacingAndGlyphs" textLength="208" x="418" y="193.0151">stylesheets: Collection&lt;StyleSheet&gt;</text><text fill="#000000" font-family="sans-serif" font-size="11" lengthAdjust="spacingAndGlyphs" textLength="158" x="418" y="205.8198">images: Collection&lt;Image&gt;</text><text fill="#000000" font-family="sans-serif" font-size="11" lengthAdjust="spacingAndGlyphs" textLength="166" x="418" y="218.6245">anchors: Collection&lt;Anchor&gt;</text><!--class Anchor--><rect fill="#FEFECE" filter="url(#fz352g5uo53px)" height="78.4141" id="Anchor" style="stroke: #A80036; stroke-width: 1.5;" width="232" x="6" y="285"/><ellipse cx="95.75" cy="301" fill="#ADD1B2" rx="11" ry="11" style="stroke: #A80036; stroke-width: 1.0;"/><path d="M98.7188,306.6406 Q98.1406,306.9375 97.5,307.0781 Q96.8594,307.2344 96.1563,307.2344 Q93.6563,307.2344 92.3281,305.5938 Q91.0156,303.9375 91.0156,300.8125 Q91.0156,297.6875 92.3281,296.0313 Q93.6563,294.375 96.1563,294.375 Q96.8594,294.375 97.5,294.5313 Q98.1563,294.6875 98.7188,294.9844 L98.7188,297.7031 Q98.0938,297.125 97.5,296.8594 Q96.9063,296.5781 96.2813,296.5781 Q94.9375,296.5781 94.25,297.6563 Q93.5625,298.7188 93.5625,300.8125 Q93.5625,302.9063 94.25,303.9844 Q94.9375,305.0469 96.2813,305.0469 Q96.9063,305.0469 97.5,304.7813 Q98.0938,304.5 98.7188,303.9219 L98.7188,306.6406 Z "/><text fill="#000000" font-family="sans-serif" font-size="12" lengthAdjust="spacingAndGlyphs" textLength="44" x="116.25" y="305.1543">Anchor</text><line style="stroke: #A80036; stroke-width: 1.5;" x1="7" x2="237" y1="317" y2="317"/><text fill="#000000" font-family="sans-serif" font-size="11" lengthAdjust="spacingAndGlyphs" textLength="58" x="12" y="331.2104">path: Path</text><text fill="#000000" font-family="sans-serif" font-size="11" lengthAdjust="spacingAndGlyphs" textLength="44" x="12" y="344.0151">url: URL</text><text fill="#000000" font-family="sans-serif" font-size="11" lengthAdjust="spacingAndGlyphs" textLength="220" x="12" y="356.8198">found_on: Collection&lt;HTMLDocument&gt;</text><!--class Image--><rect fill="#FEFECE" filter="url(#fz352g5uo53px)" height="78.4141" id="Image" style="stroke: #A80036; stroke-width: 1.5;" width="232" x="273" y="285"/><ellipse cx="365.75" cy="301" fill="#ADD1B2" rx="11" ry="11" style="stroke: #A80036; stroke-width: 1.0;"/><path d="M368.7188,306.6406 Q368.1406,306.9375 367.5,307.0781 Q366.8594,307.2344 366.1563,307.2344 Q363.6563,307.2344 362.3281,305.5938 Q361.0156,303.9375 361.0156,300.8125 Q361.0156,297.6875 362.3281,296.0313 Q363.6563,294.375 366.1563,294.375 Q366.8594,294.375 367.5,294.5313 Q368.1563,294.6875 368.7188,294.9844 L368.7188,297.7031 Q368.0938,297.125 367.5,296.8594 Q366.9063,296.5781 366.2813,296.5781 Q364.9375,296.5781 364.25,297.6563 Q363.5625,298.7188 363.5625,300.8125 Q363.5625,302.9063 364.25,303.9844 Q364.9375,305.0469 366.2813,305.0469 Q366.9063,305.0469 367.5,304.7813 Q368.0938,304.5 368.7188,303.9219 L368.7188,306.6406 Z "/><text fill="#000000" font-family="sans-serif" font-size="12" lengthAdjust="spacingAndGlyphs" textLength="38" x="386.25" y="305.1543">Image</text><line style="stroke: #A80036; stroke-width: 1.5;" x1="274" x2="504" y1="317" y2="317"/><text fill="#000000" font-family="sans-serif" font-size="11" lengthAdjust="spacingAndGlyphs" textLength="58" x="279" y="331.2104">path: Path</text><text fill="#000000" font-family="sans-serif" font-size="11" lengthAdjust="spacingAndGlyphs" textLength="44" x="279" y="344.0151">url: URL</text><text fill="#000000" font-family="sans-serif" font-size="11" lengthAdjust="spacingAndGlyphs" textLength="220" x="279" y="356.8198">found_on: Collection&lt;HTMLDocument&gt;</text><!--class Script--><rect fill="#FEFECE" filter="url(#fz352g5uo53px)" height="78.4141" id="Script" style="stroke: #A80036; stroke-width: 1.5;" width="232" x="540" y="285"/><ellipse cx="633.75" cy="301" fill="#ADD1B2" rx="11" ry="11" style="stroke: #A80036; stroke-width: 1.0;"/><path d="M636.7188,306.6406 Q636.1406,306.9375 635.5,307.0781 Q634.8594,307.2344 634.1563,307.2344 Q631.6563,307.2344 630.3281,305.5938 Q629.0156,303.9375 629.0156,300.8125 Q629.0156,297.6875 630.3281,296.0313 Q631.6563,294.375 634.1563,294.375 Q634.8594,294.375 635.5,294.5313 Q636.1563,294.6875 636.7188,294.9844 L636.7188,297.7031 Q636.0938,297.125 635.5,296.8594 Q634.9063,296.5781 634.2813,296.5781 Q632.9375,296.5781 632.25,297.6563 Q631.5625,298.7188 631.5625,300.8125 Q631.5625,302.9063 632.25,303.9844 Q632.9375,305.0469 634.2813,305.0469 Q634.9063,305.0469 635.5,304.7813 Q636.0938,304.5 636.7188,303.9219 L636.7188,306.6406 Z "/><text fill="#000000" font-family="sans-serif" font-size="12" lengthAdjust="spacingAndGlyphs" textLength="36" x="654.25" y="305.1543">Script</text><line style="stroke: #A80036; stroke-width: 1.5;" x1="541" x2="771" y1="317" y2="317"/><text fill="#000000" font-family="sans-serif" font-size="11" lengthAdjust="spacingAndGlyphs" textLength="58" x="546" y="331.2104">path: Path</text><text fill="#000000" font-family="sans-serif" font-size="11" lengthAdjust="spacingAndGlyphs" textLength="44" x="546" y="344.0151">url: URL</text><text fill="#000000" font-family="sans-serif" font-size="11" lengthAdjust="spacingAndGlyphs" textLength="220" x="546" y="356.8198">found_on: Collection&lt;HTMLDocument&gt;</text><!--class StyleSheet--><rect fill="#FEFECE" filter="url(#fz352g5uo53px)" height="78.4141" id="StyleSheet" style="stroke: #A80036; stroke-width: 1.5;" width="232" x="807" y="285"/><ellipse cx="885.25" cy="301" fill="#ADD1B2" rx="11" ry="11" style="stroke: #A80036; stroke-width: 1.0;"/><path d="M888.2188,306.6406 Q887.6406,306.9375 887,307.0781 Q886.3594,307.2344 885.6563,307.2344 Q883.1563,307.2344 881.8281,305.5938 Q880.5156,303.9375 880.5156,300.8125 Q880.5156,297.6875 881.8281,296.0313 Q883.1563,294.375 885.6563,294.375 Q886.3594,294.375 887,294.5313 Q887.6563,294.6875 888.2188,294.9844 L888.2188,297.7031 Q887.5938,297.125 887,296.8594 Q886.4063,296.5781 885.7813,296.5781 Q884.4375,296.5781 883.75,297.6563 Q883.0625,298.7188 883.0625,300.8125 Q883.0625,302.9063 883.75,303.9844 Q884.4375,305.0469 885.7813,305.0469 Q886.4063,305.0469 887,304.7813 Q887.5938,304.5 888.2188,303.9219 L888.2188,306.6406 Z "/><text fill="#000000" font-family="sans-serif" font-size="12" lengthAdjust="spacingAndGlyphs" textLength="67" x="905.75" y="305.1543">StyleSheet</text><line style="stroke: #A80036; stroke-width: 1.5;" x1="808" x2="1038" y1="317" y2="317"/><text fill="#000000" font-family="sans-serif" font-size="11" lengthAdjust="spacingAndGlyphs" textLength="58" x="813" y="331.2104">path: Path</text><text fill="#000000" font-family="sans-serif" font-size="11" lengthAdjust="spacingAndGlyphs" textLength="44" x="813" y="344.0151">url: URL</text><text fill="#000000" font-family="sans-serif" font-size="11" lengthAdjust="spacingAndGlyphs" textLength="220" x="813" y="356.8198">found_on: Collection&lt;HTMLDocument&gt;</text><!--reverse link Website to HTMLDocument--><path d="M522,87.192 C522,102.173 522,118.834 522,133.78 " fill="none" id="Website&lt;-HTMLDocument" style="stroke: #A80036; stroke-width: 1.0;"/><polygon fill="#FFFFFF" points="522,74.003,518,80.003,522,86.003,526,80.003,522,74.003" style="stroke: #A80036; stroke-width: 1.0;"/><!--reverse link HTMLDocument to Image--><path d="M471.313,234.808 C455.791,251.438 439.05,269.375 424.744,284.7028 " fill="none" id="HTMLDocument&lt;-Image" style="stroke: #A80036; stroke-width: 1.0;"/><polygon fill="#FFFFFF" points="480.283,225.197,473.2649,226.8543,472.0955,233.97,479.1136,232.3126,480.283,225.197" style="stroke: #A80036; stroke-width: 1.0;"/><!--reverse link HTMLDocument to Script--><path d="M573.068,234.808 C588.706,251.438 605.574,269.375 619.987,284.7028 " fill="none" id="HTMLDocument&lt;-Script" style="stroke: #A80036; stroke-width: 1.0;"/><polygon fill="#FFFFFF" points="564.031,225.197,565.2275,232.3081,572.2518,233.9387,571.0553,226.8276,564.031,225.197" style="stroke: #A80036; stroke-width: 1.0;"/><!--reverse link HTMLDocument to StyleSheet--><path d="M644.361,223.983 C699.114,243.44 763.083,266.1718 815.911,284.9446 " fill="none" id="HTMLDocument&lt;-StyleSheet" style="stroke: #A80036; stroke-width: 1.0;"/><polygon fill="#FFFFFF" points="632.105,219.627,636.4188,225.4055,643.4119,223.6461,639.0982,217.8676,632.105,219.627" style="stroke: #A80036; stroke-width: 1.0;"/><!--reverse link HTMLDocument to Anchor--><path d="M399.336,224.199 C344.808,243.625 281.213,266.2804 228.686,284.993 " fill="none" id="HTMLDocument&lt;-Anchor" style="stroke: #A80036; stroke-width: 1.0;"/><polygon fill="#FFFFFF" points="411.904,219.722,404.9095,217.9677,400.6,223.7493,407.5944,225.5037,411.904,219.722" style="stroke: #A80036; stroke-width: 1.0;"/><!--
@startuml domain_02.svg
hide empty members

class Website {
    local_directory: Path
    urls: URL
}

class HTMLDocument {
    scripts: Collection<Script>
    stylesheets: Collection<StyleSheet>
    images: Collection<Image>
    anchors: Collection<Anchor>
}

class Anchor {
    path: Path
    url: URL
    found_on: Collection<HTMLDocument>
}

class Image {
    path: Path
    url: URL
    found_on: Collection<HTMLDocument>
}

class Script {
    path: Path
    url: URL
    found_on: Collection<HTMLDocument>
}

class StyleSheet {
    path: Path
    url: URL
    found_on: Collection<HTMLDocument>
}

Website o- - HTMLDocument
HTMLDocument o- - Image
HTMLDocument o- - Script
HTMLDocument o- - StyleSheet
HTMLDocument o- - Anchor

@enduml

PlantUML version 1.2019.09(Mon Aug 26 12:19:51 EDT 2019)
(GPL source distribution)
Java Runtime: OpenJDK Runtime Environment
JVM: OpenJDK 64-Bit Server VM
Java Version: 11.0.14+9-Ubuntu-0ubuntu2.16.04
Operating System: Linux
OS Version: 4.4.0-241-generic
Default Encoding: UTF-8
Language: en
Country: US
--></g></svg>