<?xml version="1.0" encoding="UTF-8" standalone="no"?><svg xmlns="http://www.w3.org/2000/svg" xmlns:xlink="http://www.w3.org/1999/xlink" contentScriptType="application/ecmascript" contentStyleType="text/css" height="328px" preserveAspectRatio="none" style="width:435px;height:328px;" version="1.1" viewBox="0 0 435 328" width="435px" zoomAndPan="magnify"><defs><filter height="300%" id="f9jbux8lmd0oo" width="300%" x="-1" y="-1"><feGaussianBlur result="blurOut" stdDeviation="2.0"/><feColorMatrix in="blurOut" result="blurOut2" type="matrix" values="0 0 0 0 0 0 0 0 0 0 0 0 0 0 0 0 0 0 .4 0"/><feOffset dx="4.0" dy="4.0" in="blurOut2" result="blurOut3"/><feBlend in="SourceGraphic" in2="blurOut3" mode="normal"/></filter></defs><g><!--class Website--><rect fill="#FEFECE" filter="url(#f9jbux8lmd0oo)" height="65.6094" id="Website" style="stroke: #A80036; stroke-width: 1.5;" width="127" x="140.5" y="8"/><ellipse cx="175.75" cy="24" fill="#ADD1B2" rx="11" ry="11" style="stroke: #A80036; stroke-width: 1.0;"/><path d="M178.7188,29.6406 Q178.1406,29.9375 177.5,30.0781 Q176.8594,30.2344 176.1563,30.2344 Q173.6563,30.2344 172.3281,28.5938 Q171.0156,26.9375 171.0156,23.8125 Q171.0156,20.6875 172.3281,19.0313 Q173.6563,17.375 176.1563,17.375 Q176.8594,17.375 177.5,17.5313 Q178.1563,17.6875 178.7188,17.9844 L178.7188,20.7031 Q178.0938,20.125 177.5,19.8594 Q176.9063,19.5781 176.2813,19.5781 Q174.9375,19.5781 174.25,20.6563 Q173.5625,21.7188 173.5625,23.8125 Q173.5625,25.9063 174.25,26.9844 Q174.9375,28.0469 176.2813,28.0469 Q176.9063,28.0469 177.5,27.7813 Q178.0938,27.5 178.7188,26.9219 L178.7188,29.6406 Z "/><text fill="#000000" font-family="sans-serif" font-size="12" lengthAdjust="spacingAndGlyphs" textLength="50" x="194.25" y="28.1543">Website</text><line style="stroke: #A80036; stroke-width: 1.5;" x1="141.5" x2="266.5" y1="40" y2="40"/><text fill="#000000" font-family="sans-serif" font-size="11" lengthAdjust="spacingAndGlyphs" textLength="115" x="146.5" y="54.2104">local_directory: Path</text><text fill="#000000" font-family="sans-serif" font-size="11" lengthAdjust="spacingAndGlyphs" textLength="51" x="146.5" y="67.0151">urls: URL</text><!--class HTMLDocument--><rect fill="#FEFECE" filter="url(#f9jbux8lmd0oo)" height="91.2188" id="HTMLDocument" style="stroke: #A80036; stroke-width: 1.5;" width="220" x="94" y="134"/><ellipse cx="151.75" cy="150" fill="#ADD1B2" rx="11" ry="11" style="stroke: #A80036; stroke-width: 1.0;"/><path d="M154.7188,155.6406 Q154.1406,155.9375 153.5,156.0781 Q152.8594,156.2344 152.1563,156.2344 Q149.6563,156.2344 148.3281,154.5938 Q147.0156,152.9375 147.0156,149.8125 Q147.0156,146.6875 148.3281,145.0313 Q149.6563,143.375 152.1563,143.375 Q152.8594,143.375 153.5,143.5313 Q154.1563,143.6875 154.7188,143.9844 L154.7188,146.7031 Q154.0938,146.125 153.5,145.8594 Q152.9063,145.5781 152.2813,145.5781 Q150.9375,145.5781 150.25,146.6563 Q149.5625,147.7188 149.5625,149.8125 Q149.5625,151.9063 150.25,152.9844 Q150.9375,154.0469 152.2813,154.0469 Q152.9063,154.0469 153.5,153.7813 Q154.0938,153.5 154.7188,152.9219 L154.7188,155.6406 Z "/><text fill="#000000" font-family="sans-serif" font-size="12" lengthAdjust="spacingAndGlyphs" textLength="96" x="172.25" y="154.1543">HTMLDocument</text><line style="stroke: #A80036; stroke-width: 1.5;" x1="95" x2="313" y1="166" y2="166"/><text fill="#000000" font-family="sans-serif" font-size="11" lengthAdjust="spacingAndGlyphs" textLength="153" x="100" y="180.2104">scripts: Collection&lt;Script&gt;</text><text fill="#000000" font-family="sans-serif" font-size="11" lengthAdjust="spacingAndGlyphs" textLength="208" x="100" y="193.0151">stylesheets: Collection&lt;StyleSheet&gt;</text><text fill="#000000" font-family="sans-serif" font-size="11" lengthAdjust="spacingAndGlyphs" textLength="158" x="100" y="205.8198">images: Collection&lt;Image&gt;</text><text fill="#000000" font-family="sans-serif" font-size="11" lengthAdjust="spacingAndGlyphs" textLength="166" x="100" y="218.6245">anchors: Collection&lt;Anchor&gt;</text><!--class Anchor--><rect fill="#FEFECE" filter="url(#f9jbux8lmd0oo)" height="32" id="Anchor" style="stroke: #A80036; stroke-width: 1.5;" width="76" x="6" y="285"/><ellipse cx="21" cy="301" fill="#ADD1B2" rx="11" ry="11" style="stroke: #A80036; stroke-width: 1.0;"/><path d="M23.9688,306.6406 Q23.3906,306.9375 22.75,307.0781 Q22.1094,307.2344 21.4063,307.2344 Q18.9063,307.2344 17.5781,305.5938 Q16.2656,303.9375 16.2656,300.8125 Q16.2656,297.6875 17.5781,296.0313 Q18.9063,294.375 21.4063,294.375 Q22.1094,294.375 22.75,294.5313 Q23.4063,294.6875 23.9688,294.9844 L23.9688,297.7031 Q23.3438,297.125 22.75,296.8594 Q22.1563,296.5781 21.5313,296.5781 Q20.1875,296.5781 19.5,297.6563 Q18.8125,298.7188 18.8125,300.8125 Q18.8125,302.9063 19.5,303.9844 Q20.1875,305.0469 21.5313,305.0469 Q22.1563,305.0469 22.75,304.7813 Q23.3438,304.5 23.9688,303.9219 L23.9688,306.6406 Z "/><text fill="#000000" font-family="sans-serif" font-size="12" lengthAdjust="spacingAndGlyphs" textLength="44" x="35" y="305.1543">Anchor</text><!--class Image--><rect fill="#FEFECE" filter="url(#f9jbux8lmd0oo)" height="32" id="Image" style="stroke: #A80036; stroke-width: 1.5;" width="70" x="117" y="285"/><ellipse cx="132" cy="301" fill="#ADD1B2" rx="11" ry="11" style="stroke: #A80036; stroke-width: 1.0;"/><path d="M134.9688,306.6406 Q134.3906,306.9375 133.75,307.0781 Q133.1094,307.2344 132.4063,307.2344 Q129.9063,307.2344 128.5781,305.5938 Q127.2656,303.9375 127.2656,300.8125 Q127.2656,297.6875 128.5781,296.0313 Q129.9063,294.375 132.4063,294.375 Q133.1094,294.375 133.75,294.5313 Q134.4063,294.6875 134.9688,294.9844 L134.9688,297.7031 Q134.3438,297.125 133.75,296.8594 Q133.1563,296.5781 132.5313,296.5781 Q131.1875,296.5781 130.5,297.6563 Q129.8125,298.7188 129.8125,300.8125 Q129.8125,302.9063 130.5,303.9844 Q131.1875,305.0469 132.5313,305.0469 Q133.1563,305.0469 133.75,304.7813 Q134.3438,304.5 134.9688,303.9219 L134.9688,306.6406 Z "/><text fill="#000000" font-family="sans-serif" font-size="12" lengthAdjust="spacingAndGlyphs" textLength="38" x="146" y="305.1543">Image</text><!--class Script--><rect fill="#FEFECE" filter="url(#f9jbux8lmd0oo)" height="32" id="Script" style="stroke: #A80036; stroke-width: 1.5;" width="68" x="222" y="285"/><ellipse cx="237" cy="301" fill="#ADD1B2" rx="11" ry="11" style="stroke: #A80036; stroke-width: 1.0;"/><path d="M239.9688,306.6406 Q239.3906,306.9375 238.75,307.0781 Q238.1094,307.2344 237.4063,307.2344 Q234.9063,307.2344 233.5781,305.5938 Q232.2656,303.9375 232.2656,300.8125 Q232.2656,297.6875 233.5781,296.0313 Q234.9063,294.375 237.4063,294.375 Q238.1094,294.375 238.75,294.5313 Q239.4063,294.6875 239.9688,294.9844 L239.9688,297.7031 Q239.3438,297.125 238.75,296.8594 Q238.1563,296.5781 237.5313,296.5781 Q236.1875,296.5781 235.5,297.6563 Q234.8125,298.7188 234.8125,300.8125 Q234.8125,302.9063 235.5,303.9844 Q236.1875,305.0469 237.5313,305.0469 Q238.1563,305.0469 238.75,304.7813 Q239.3438,304.5 239.9688,303.9219 L239.9688,306.6406 Z "/><text fill="#000000" font-family="sans-serif" font-size="12" lengthAdjust="spacingAndGlyphs" textLength="36" x="251" y="305.1543">Script</text><!--class StyleSheet--><rect fill="#FEFECE" filter="url(#f9jbux8lmd0oo)" height="32" id="StyleSheet" style="stroke: #A80036; stroke-width: 1.5;" width="99" x="325.5" y="285"/><ellipse cx="340.5" cy="301" fill="#ADD1B2" rx="11" ry="11" style="stroke: #A80036; stroke-width: 1.0;"/><path d="M343.4688,306.6406 Q342.8906,306.9375 342.25,307.0781 Q341.6094,307.2344 340.9063,307.2344 Q338.4063,307.2344 337.0781,305.5938 Q335.7656,303.9375 335.7656,300.8125 Q335.7656,297.6875 337.0781,296.0313 Q338.4063,294.375 340.9063,294.375 Q341.6094,294.375 342.25,294.5313 Q342.9063,294.6875 343.4688,294.9844 L343.4688,297.7031 Q342.8438,297.125 342.25,296.8594 Q341.6563,296.5781 341.0313,296.5781 Q339.6875,296.5781 339,297.6563 Q338.3125,298.7188 338.3125,300.8125 Q338.3125,302.9063 339,303.9844 Q339.6875,305.0469 341.0313,305.0469 Q341.6563,305.0469 342.25,304.7813 Q342.8438,304.5 343.4688,303.9219 L343.4688,306.6406 Z "/><text fill="#000000" font-family="sans-serif" font-size="12" lengthAdjust="spacingAndGlyphs" textLength="67" x="354.5" y="305.1543">StyleSheet</text><!--reverse link Website to HTMLDocument--><path d="M204,87.192 C204,102.173 204,118.834 204,133.78 " fill="none" id="Website&lt;-HTMLDocument" style="stroke: #A80036; stroke-width: 1.0;"/><polygon fill="#FFFFFF" points="204,74.003,200,80.003,204,86.003,208,80.003,204,74.003" style="stroke: #A80036; stroke-width: 1.0;"/><!--reverse link HTMLDocument to Image--><path d="M179.279,237.3106 C171.673,254.7894 163.921,272.6045 158.635,284.7534 " fill="none" id="HTMLDocument&lt;-Image" style="stroke: #A80036; stroke-width: 1.0;"/><polygon fill="#FFFFFF" points="184.489,225.3374,178.4271,229.243,179.7008,236.3407,185.7627,232.4351,184.489,225.3374" style="stroke: #A80036; stroke-width: 1.0;"/><!--reverse link HTMLDocument to Script--><path d="M228.721,237.3106 C236.327,254.7894 244.079,272.6045 249.365,284.7534 " fill="none" id="HTMLDocument&lt;-Script" style="stroke: #A80036; stroke-width: 1.0;"/><polygon fill="#FFFFFF" points="223.511,225.3374,222.2373,232.4351,228.2992,236.3407,229.5729,229.243,223.511,225.3374" style="stroke: #A80036; stroke-width: 1.0;"/><!--reverse link HTMLDocument to StyleSheet--><path d="M278.817,232.7843 C305.832,251.6636 334.294,271.5531 353.183,284.7534 " fill="none" id="HTMLDocument&lt;-StyleSheet" style="stroke: #A80036; stroke-width: 1.0;"/><polygon fill="#FFFFFF" points="268.161,225.3374,270.7876,232.0531,277.997,232.2115,275.3704,225.4958,268.161,225.3374" style="stroke: #A80036; stroke-width: 1.0;"/><!--reverse link HTMLDocument to Anchor--><path d="M133.325,233.2857 C108.248,252.0151 81.9315,271.6699 64.4139,284.7534 " fill="none" id="HTMLDocument&lt;-Anchor" style="stroke: #A80036; stroke-width: 1.0;"/><polygon fill="#FFFFFF" points="143.967,225.3374,136.7662,225.7234,134.353,232.5187,141.5537,232.1327,143.967,225.3374" style="stroke: #A80036; stroke-width: 1.0;"/><!--
@startuml domain_01
hide empty members

class Website {
    local_directory: Path
    urls: URL
}

class HTMLDocument {
    scripts: Collection<Script>
    stylesheets: Collection<StyleSheet>
    images: Collection<Image>
    anchors: Collection<Anchor>
}

class Anchor {
}

class Image {
}

class Script {
}

class StyleSheet {
}

Website o- - HTMLDocument
HTMLDocument o- - Image
HTMLDocument o- - Script
HTMLDocument o- - StyleSheet
HTMLDocument o- - Anchor

@enduml

PlantUML version 1.2019.09(Mon Aug 26 12:19:51 EDT 2019)
(GPL source distribution)
Java Runtime: OpenJDK Runtime Environment
JVM: OpenJDK 64-Bit Server VM
Java Version: 11.0.14+9-Ubuntu-0ubuntu2.16.04
Operating System: Linux
OS Version: 4.4.0-241-generic
Default Encoding: UTF-8
Language: en
Country: US
--></g></svg>