<?xml version="1.0" encoding="UTF-8" standalone="no"?><svg xmlns="http://www.w3.org/2000/svg" xmlns:xlink="http://www.w3.org/1999/xlink" contentScriptType="application/ecmascript" contentStyleType="text/css" height="587px" preserveAspectRatio="none" style="width:544px;height:587px;" version="1.1" viewBox="0 0 544 587" width="544px" zoomAndPan="magnify"><defs><filter height="300%" id="f18v2r7zxddxfj" width="300%" x="-1" y="-1"><feGaussianBlur result="blurOut" stdDeviation="2.0"/><feColorMatrix in="blurOut" result="blurOut2" type="matrix" values="0 0 0 0 0 0 0 0 0 0 0 0 0 0 0 0 0 0 .4 0"/><feOffset dx="4.0" dy="4.0" in="blurOut2" result="blurOut3"/><feBlend in="SourceGraphic" in2="blurOut3" mode="normal"/></filter></defs><g><!--class Website--><rect fill="#FEFECE" filter="url(#f18v2r7zxddxfj)" height="65.6094" id="Website" style="stroke: #A80036; stroke-width: 1.5;" width="127" x="140.5" y="49"/><ellipse cx="175.75" cy="65" fill="#ADD1B2" rx="11" ry="11" style="stroke: #A80036; stroke-width: 1.0;"/><path d="M178.7188,70.6406 Q178.1406,70.9375 177.5,71.0781 Q176.8594,71.2344 176.1563,71.2344 Q173.6563,71.2344 172.3281,69.5938 Q171.0156,67.9375 171.0156,64.8125 Q171.0156,61.6875 172.3281,60.0313 Q173.6563,58.375 176.1563,58.375 Q176.8594,58.375 177.5,58.5313 Q178.1563,58.6875 178.7188,58.9844 L178.7188,61.7031 Q178.0938,61.125 177.5,60.8594 Q176.9063,60.5781 176.2813,60.5781 Q174.9375,60.5781 174.25,61.6563 Q173.5625,62.7188 173.5625,64.8125 Q173.5625,66.9063 174.25,67.9844 Q174.9375,69.0469 176.2813,69.0469 Q176.9063,69.0469 177.5,68.7813 Q178.0938,68.5 178.7188,67.9219 L178.7188,70.6406 Z "/><text fill="#000000" font-family="sans-serif" font-size="12" lengthAdjust="spacingAndGlyphs" textLength="50" x="194.25" y="69.1543">Website</text><line style="stroke: #A80036; stroke-width: 1.5;" x1="141.5" x2="266.5" y1="81" y2="81"/><text fill="#000000" font-family="sans-serif" font-size="11" lengthAdjust="spacingAndGlyphs" textLength="115" x="146.5" y="95.2104">local_directory: Path</text><text fill="#000000" font-family="sans-serif" font-size="11" lengthAdjust="spacingAndGlyphs" textLength="51" x="146.5" y="108.0151">urls: URL</text><!--class HTMLDocument--><rect fill="#FEFECE" filter="url(#f18v2r7zxddxfj)" height="91.2188" id="HTMLDocument" style="stroke: #A80036; stroke-width: 1.5;" width="220" x="94" y="216"/><ellipse cx="151.75" cy="232" fill="#ADD1B2" rx="11" ry="11" style="stroke: #A80036; stroke-width: 1.0;"/><path d="M154.7188,237.6406 Q154.1406,237.9375 153.5,238.0781 Q152.8594,238.2344 152.1563,238.2344 Q149.6563,238.2344 148.3281,236.5938 Q147.0156,234.9375 147.0156,231.8125 Q147.0156,228.6875 148.3281,227.0313 Q149.6563,225.375 152.1563,225.375 Q152.8594,225.375 153.5,225.5313 Q154.1563,225.6875 154.7188,225.9844 L154.7188,228.7031 Q154.0938,228.125 153.5,227.8594 Q152.9063,227.5781 152.2813,227.5781 Q150.9375,227.5781 150.25,228.6563 Q149.5625,229.7188 149.5625,231.8125 Q149.5625,233.9063 150.25,234.9844 Q150.9375,236.0469 152.2813,236.0469 Q152.9063,236.0469 153.5,235.7813 Q154.0938,235.5 154.7188,234.9219 L154.7188,237.6406 Z "/><text fill="#000000" font-family="sans-serif" font-size="12" lengthAdjust="spacingAndGlyphs" textLength="96" x="172.25" y="236.1543">HTMLDocument</text><line style="stroke: #A80036; stroke-width: 1.5;" x1="95" x2="313" y1="248" y2="248"/><text fill="#000000" font-family="sans-serif" font-size="11" lengthAdjust="spacingAndGlyphs" textLength="153" x="100" y="262.2104">scripts: Collection&lt;Script&gt;</text><text fill="#000000" font-family="sans-serif" font-size="11" lengthAdjust="spacingAndGlyphs" textLength="208" x="100" y="275.0151">stylesheets: Collection&lt;StyleSheet&gt;</text><text fill="#000000" font-family="sans-serif" font-size="11" lengthAdjust="spacingAndGlyphs" textLength="158" x="100" y="287.8198">images: Collection&lt;Image&gt;</text><text fill="#000000" font-family="sans-serif" font-size="11" lengthAdjust="spacingAndGlyphs" textLength="166" x="100" y="300.6245">anchors: Collection&lt;Anchor&gt;</text><!--class Resource--><rect fill="#FEFECE" filter="url(#f18v2r7zxddxfj)" height="116.8281" id="Resource" style="stroke: #A80036; stroke-width: 1.5;" width="232" x="88" y="367"/><ellipse cx="170.25" cy="383" fill="#ADD1B2" rx="11" ry="11" style="stroke: #A80036; stroke-width: 1.0;"/><path d="M173.2188,388.6406 Q172.6406,388.9375 172,389.0781 Q171.3594,389.2344 170.6563,389.2344 Q168.1563,389.2344 166.8281,387.5938 Q165.5156,385.9375 165.5156,382.8125 Q165.5156,379.6875 166.8281,378.0313 Q168.1563,376.375 170.6563,376.375 Q171.3594,376.375 172,376.5313 Q172.6563,376.6875 173.2188,376.9844 L173.2188,379.7031 Q172.5938,379.125 172,378.8594 Q171.4063,378.5781 170.7813,378.5781 Q169.4375,378.5781 168.75,379.6563 Q168.0625,380.7188 168.0625,382.8125 Q168.0625,384.9063 168.75,385.9844 Q169.4375,387.0469 170.7813,387.0469 Q171.4063,387.0469 172,386.7813 Q172.5938,386.5 173.2188,385.9219 L173.2188,388.6406 Z "/><text fill="#000000" font-family="sans-serif" font-size="12" lengthAdjust="spacingAndGlyphs" textLength="59" x="190.75" y="387.1543">Resource</text><line style="stroke: #A80036; stroke-width: 1.5;" x1="89" x2="319" y1="399" y2="399"/><text fill="#000000" font-family="sans-serif" font-size="11" lengthAdjust="spacingAndGlyphs" textLength="58" x="94" y="413.2104">path: Path</text><text fill="#000000" font-family="sans-serif" font-size="11" lengthAdjust="spacingAndGlyphs" textLength="44" x="94" y="426.0151">url: URL</text><text fill="#000000" font-family="sans-serif" font-size="11" lengthAdjust="spacingAndGlyphs" textLength="220" x="94" y="438.8198">found_on: Collection&lt;HTMLDocument&gt;</text><text fill="#000000" font-family="sans-serif" font-size="11" lengthAdjust="spacingAndGlyphs" textLength="94" x="94" y="451.6245">location: Locality</text><text fill="#000000" font-family="sans-serif" font-size="11" lengthAdjust="spacingAndGlyphs" textLength="175" x="94" y="464.4292">typeOfResource: ResourceKind</text><text fill="#000000" font-family="sans-serif" font-size="11" lengthAdjust="spacingAndGlyphs" textLength="86" x="94" y="477.2339">sizeOfFile: long</text><!--class Anchor--><rect fill="#FEFECE" filter="url(#f18v2r7zxddxfj)" height="32" id="Anchor" style="stroke: #A80036; stroke-width: 1.5;" width="76" x="6" y="544"/><ellipse cx="21" cy="560" fill="#ADD1B2" rx="11" ry="11" style="stroke: #A80036; stroke-width: 1.0;"/><path d="M23.9688,565.6406 Q23.3906,565.9375 22.75,566.0781 Q22.1094,566.2344 21.4063,566.2344 Q18.9063,566.2344 17.5781,564.5938 Q16.2656,562.9375 16.2656,559.8125 Q16.2656,556.6875 17.5781,555.0313 Q18.9063,553.375 21.4063,553.375 Q22.1094,553.375 22.75,553.5313 Q23.4063,553.6875 23.9688,553.9844 L23.9688,556.7031 Q23.3438,556.125 22.75,555.8594 Q22.1563,555.5781 21.5313,555.5781 Q20.1875,555.5781 19.5,556.6563 Q18.8125,557.7188 18.8125,559.8125 Q18.8125,561.9063 19.5,562.9844 Q20.1875,564.0469 21.5313,564.0469 Q22.1563,564.0469 22.75,563.7813 Q23.3438,563.5 23.9688,562.9219 L23.9688,565.6406 Z "/><text fill="#000000" font-family="sans-serif" font-size="12" lengthAdjust="spacingAndGlyphs" textLength="44" x="35" y="564.1543">Anchor</text><!--class Image--><rect fill="#FEFECE" filter="url(#f18v2r7zxddxfj)" height="32" id="Image" style="stroke: #A80036; stroke-width: 1.5;" width="70" x="117" y="544"/><ellipse cx="132" cy="560" fill="#ADD1B2" rx="11" ry="11" style="stroke: #A80036; stroke-width: 1.0;"/><path d="M134.9688,565.6406 Q134.3906,565.9375 133.75,566.0781 Q133.1094,566.2344 132.4063,566.2344 Q129.9063,566.2344 128.5781,564.5938 Q127.2656,562.9375 127.2656,559.8125 Q127.2656,556.6875 128.5781,555.0313 Q129.9063,553.375 132.4063,553.375 Q133.1094,553.375 133.75,553.5313 Q134.4063,553.6875 134.9688,553.9844 L134.9688,556.7031 Q134.3438,556.125 133.75,555.8594 Q133.1563,555.5781 132.5313,555.5781 Q131.1875,555.5781 130.5,556.6563 Q129.8125,557.7188 129.8125,559.8125 Q129.8125,561.9063 130.5,562.9844 Q131.1875,564.0469 132.5313,564.0469 Q133.1563,564.0469 133.75,563.7813 Q134.3438,563.5 134.9688,562.9219 L134.9688,565.6406 Z "/><text fill="#000000" font-family="sans-serif" font-size="12" lengthAdjust="spacingAndGlyphs" textLength="38" x="146" y="564.1543">Image</text><!--class Script--><rect fill="#FEFECE" filter="url(#f18v2r7zxddxfj)" height="32" id="Script" style="stroke: #A80036; stroke-width: 1.5;" width="68" x="222" y="544"/><ellipse cx="237" cy="560" fill="#ADD1B2" rx="11" ry="11" style="stroke: #A80036; stroke-width: 1.0;"/><path d="M239.9688,565.6406 Q239.3906,565.9375 238.75,566.0781 Q238.1094,566.2344 237.4063,566.2344 Q234.9063,566.2344 233.5781,564.5938 Q232.2656,562.9375 232.2656,559.8125 Q232.2656,556.6875 233.5781,555.0313 Q234.9063,553.375 237.4063,553.375 Q238.1094,553.375 238.75,553.5313 Q239.4063,553.6875 239.9688,553.9844 L239.9688,556.7031 Q239.3438,556.125 238.75,555.8594 Q238.1563,555.5781 237.5313,555.5781 Q236.1875,555.5781 235.5,556.6563 Q234.8125,557.7188 234.8125,559.8125 Q234.8125,561.9063 235.5,562.9844 Q236.1875,564.0469 237.5313,564.0469 Q238.1563,564.0469 238.75,563.7813 Q239.3438,563.5 239.9688,562.9219 L239.9688,565.6406 Z "/><text fill="#000000" font-family="sans-serif" font-size="12" lengthAdjust="spacingAndGlyphs" textLength="36" x="251" y="564.1543">Script</text><!--class StyleSheet--><rect fill="#FEFECE" filter="url(#f18v2r7zxddxfj)" height="32" id="StyleSheet" style="stroke: #A80036; stroke-width: 1.5;" width="99" x="325.5" y="544"/><ellipse cx="340.5" cy="560" fill="#ADD1B2" rx="11" ry="11" style="stroke: #A80036; stroke-width: 1.0;"/><path d="M343.4688,565.6406 Q342.8906,565.9375 342.25,566.0781 Q341.6094,566.2344 340.9063,566.2344 Q338.4063,566.2344 337.0781,564.5938 Q335.7656,562.9375 335.7656,559.8125 Q335.7656,556.6875 337.0781,555.0313 Q338.4063,553.375 340.9063,553.375 Q341.6094,553.375 342.25,553.5313 Q342.9063,553.6875 343.4688,553.9844 L343.4688,556.7031 Q342.8438,556.125 342.25,555.8594 Q341.6563,555.5781 341.0313,555.5781 Q339.6875,555.5781 339,556.6563 Q338.3125,557.7188 338.3125,559.8125 Q338.3125,561.9063 339,562.9844 Q339.6875,564.0469 341.0313,564.0469 Q341.6563,564.0469 342.25,563.7813 Q342.8438,563.5 343.4688,562.9219 L343.4688,565.6406 Z "/><text fill="#000000" font-family="sans-serif" font-size="12" lengthAdjust="spacingAndGlyphs" textLength="67" x="354.5" y="564.1543">StyleSheet</text><!--class Locality--><rect fill="#FEFECE" filter="url(#f18v2r7zxddxfj)" height="84.3516" id="Locality" style="stroke: #A80036; stroke-width: 1.5;" width="78" x="303" y="40"/><ellipse cx="318" cy="58.9688" fill="#EB937F" rx="11" ry="11" style="stroke: #A80036; stroke-width: 1.0;"/><path d="M322.1094,64.9688 L314.3906,64.9688 L314.3906,52.5781 L322.1094,52.5781 L322.1094,54.7344 L316.8438,54.7344 L316.8438,57.4063 L321.6094,57.4063 L321.6094,59.5625 L316.8438,59.5625 L316.8438,62.8125 L322.1094,62.8125 L322.1094,64.9688 Z "/><text fill="#000000" font-family="sans-serif" font-size="12" font-style="italic" lengthAdjust="spacingAndGlyphs" textLength="49" x="330.5" y="56.1387">«Enum»</text><text fill="#000000" font-family="sans-serif" font-size="12" lengthAdjust="spacingAndGlyphs" textLength="46" x="332" y="70.1074">Locality</text><line style="stroke: #A80036; stroke-width: 1.5;" x1="304" x2="380" y1="77.9375" y2="77.9375"/><text fill="#000000" font-family="sans-serif" font-size="11" lengthAdjust="spacingAndGlyphs" textLength="53" x="309" y="92.1479">INTERNAL</text><text fill="#000000" font-family="sans-serif" font-size="11" lengthAdjust="spacingAndGlyphs" textLength="62" x="309" y="104.9526">INTRAPAGE</text><text fill="#000000" font-family="sans-serif" font-size="11" lengthAdjust="spacingAndGlyphs" textLength="56" x="309" y="117.7573">EXTERNAL</text><!--class ResourceKind--><rect fill="#FEFECE" filter="url(#f18v2r7zxddxfj)" height="148.375" id="ResourceKind" style="stroke: #A80036; stroke-width: 1.5;" width="117" x="416.5" y="8"/><ellipse cx="431.5" cy="26.9688" fill="#EB937F" rx="11" ry="11" style="stroke: #A80036; stroke-width: 1.0;"/><path d="M435.6094,32.9688 L427.8906,32.9688 L427.8906,20.5781 L435.6094,20.5781 L435.6094,22.7344 L430.3438,22.7344 L430.3438,25.4063 L435.1094,25.4063 L435.1094,27.5625 L430.3438,27.5625 L430.3438,30.8125 L435.6094,30.8125 L435.6094,32.9688 Z "/><text fill="#000000" font-family="sans-serif" font-size="12" font-style="italic" lengthAdjust="spacingAndGlyphs" textLength="49" x="463.5" y="24.1387">«Enum»</text><text fill="#000000" font-family="sans-serif" font-size="12" lengthAdjust="spacingAndGlyphs" textLength="85" x="445.5" y="38.1074">ResourceKind</text><line style="stroke: #A80036; stroke-width: 1.5;" x1="417.5" x2="532.5" y1="45.9375" y2="45.9375"/><text fill="#000000" font-family="sans-serif" font-size="11" lengthAdjust="spacingAndGlyphs" textLength="35" x="422.5" y="60.1479">IMAGE</text><text fill="#000000" font-family="sans-serif" font-size="11" lengthAdjust="spacingAndGlyphs" textLength="72" x="422.5" y="72.9526">STYLESHEET</text><text fill="#000000" font-family="sans-serif" font-size="11" lengthAdjust="spacingAndGlyphs" textLength="40" x="422.5" y="85.7573">SCRIPT</text><text fill="#000000" font-family="sans-serif" font-size="11" lengthAdjust="spacingAndGlyphs" textLength="47" x="422.5" y="98.562">ANCHOR</text><text fill="#000000" font-family="sans-serif" font-size="11" lengthAdjust="spacingAndGlyphs" textLength="34" x="422.5" y="111.3667">VIDEO</text><text fill="#000000" font-family="sans-serif" font-size="11" lengthAdjust="spacingAndGlyphs" textLength="35" x="422.5" y="124.1714">AUDIO</text><text fill="#000000" font-family="sans-serif" font-size="11" lengthAdjust="spacingAndGlyphs" textLength="47" x="422.5" y="136.9761">ARCHIVE</text><text fill="#000000" font-family="sans-serif" font-size="11" lengthAdjust="spacingAndGlyphs" textLength="38" x="422.5" y="149.7808">OTHER</text><!--reverse link Resource to Image--><path d="M173.96,503.045 C167.838,518.6445 162.022,533.4635 157.915,543.9276 " fill="none" id="Resource&lt;-Image" style="stroke: #A80036; stroke-width: 1.0;"/><polygon fill="none" points="167.521,500.2913,181.343,484.231,180.553,505.4059,167.521,500.2913" style="stroke: #A80036; stroke-width: 1.0;"/><!--reverse link Resource to Script--><path d="M234.04,503.045 C240.162,518.6445 245.978,533.4635 250.085,543.9276 " fill="none" id="Resource&lt;-Script" style="stroke: #A80036; stroke-width: 1.0;"/><polygon fill="none" points="227.447,505.4059,226.657,484.231,240.479,500.2913,227.447,505.4059" style="stroke: #A80036; stroke-width: 1.0;"/><!--reverse link Resource to StyleSheet--><path d="M294.491,496.6172 C317.588,514.5144 340.199,532.0339 355.548,543.9276 " fill="none" id="Resource&lt;-StyleSheet" style="stroke: #A80036; stroke-width: 1.0;"/><polygon fill="none" points="290.028,502.0143,278.506,484.231,298.603,490.9477,290.028,502.0143" style="stroke: #A80036; stroke-width: 1.0;"/><!--reverse link Resource to Anchor--><path d="M118.707,497.1333 C97.3123,514.8508 76.4247,532.1483 62.2007,543.9276 " fill="none" id="Resource&lt;-Anchor" style="stroke: #A80036; stroke-width: 1.0;"/><polygon fill="none" points="114.419,491.596,134.287,484.231,123.348,502.3786,114.419,491.596" style="stroke: #A80036; stroke-width: 1.0;"/><!--reverse link Website to HTMLDocument--><path d="M204,128.478 C204,155.34 204,189.206 204,215.912 " fill="none" id="Website&lt;-HTMLDocument" style="stroke: #A80036; stroke-width: 1.0;"/><polygon fill="#FFFFFF" points="204,115.144,200,121.144,204,127.144,208,121.144,204,115.144" style="stroke: #A80036; stroke-width: 1.0;"/><!--reverse link HTMLDocument to Resource--><path d="M204,320.624 C204,335.67 204,351.862 204,366.881 " fill="none" id="HTMLDocument&lt;-Resource" style="stroke: #A80036; stroke-width: 1.0;"/><polygon fill="#FFFFFF" points="204,307.196,200,313.196,204,319.196,208,313.196,204,307.196" style="stroke: #A80036; stroke-width: 1.0;"/><!--
@startuml domain_05.svg
hide empty members

class Website {
    local_directory: Path
    urls: URL
}

class HTMLDocument {
    scripts: Collection<Script>
    stylesheets: Collection<StyleSheet>
    images: Collection<Image>
    anchors: Collection<Anchor>
}

class Resource {
    path: Path
    url: URL
    found_on: Collection<HTMLDocument>
    location: Locality
    typeOfResource: ResourceKind
    sizeOfFile: long
}

class Anchor {

}

class Image {
}

class Script {
}

class StyleSheet {
}

enum Locality <<Enum>> {
    INTERNAL
    INTRAPAGE
    EXTERNAL
}

enum ResourceKind <<Enum>> {
    IMAGE
    STYLESHEET
    SCRIPT
    ANCHOR
    VIDEO
    AUDIO
    ARCHIVE
    OTHER
}

Resource <|- - Image
Resource <|- - Script
Resource <|- - StyleSheet
Resource <|- - Anchor

Website o- - HTMLDocument
HTMLDocument o- - Resource

@enduml

PlantUML version 1.2019.09(Mon Aug 26 12:19:51 EDT 2019)
(GPL source distribution)
Java Runtime: OpenJDK Runtime Environment
JVM: OpenJDK 64-Bit Server VM
Java Version: 11.0.14+9-Ubuntu-0ubuntu2.16.04
Operating System: Linux
OS Version: 4.4.0-241-generic
Default Encoding: UTF-8
Language: en
Country: US
--></g></svg>