<?xml version="1.0" encoding="UTF-8" standalone="no"?><svg xmlns="http://www.w3.org/2000/svg" xmlns:xlink="http://www.w3.org/1999/xlink" contentScriptType="application/ecmascript" contentStyleType="text/css" height="374px" preserveAspectRatio="none" style="width:1034px;height:374px;" version="1.1" viewBox="0 0 1034 374" width="1034px" zoomAndPan="magnify"><defs><filter height="300%" id="fz8xmvdm0xskw" width="300%" x="-1" y="-1"><feGaussianBlur result="blurOut" stdDeviation="2.0"/><feColorMatrix in="blurOut" result="blurOut2" type="matrix" values="0 0 0 0 0 0 0 0 0 0 0 0 0 0 0 0 0 0 .4 0"/><feOffset dx="4.0" dy="4.0" in="blurOut2" result="blurOut3"/><feBlend in="SourceGraphic" in2="blurOut3" mode="normal"/></filter></defs><g><!--class Website--><rect fill="#FEFECE" filter="url(#fz8xmvdm0xskw)" height="65.6094" id="Website" style="stroke: #A80036; stroke-width: 1.5;" width="136" x="446" y="8"/><ellipse cx="485.3" cy="24" fill="#ADD1B2" rx="11" ry="11" style="stroke: #A80036; stroke-width: 1.0;"/><path d="M488.2688,29.6406 Q487.6906,29.9375 487.05,30.0781 Q486.4094,30.2344 485.7063,30.2344 Q483.2063,30.2344 481.8781,28.5938 Q480.5656,26.9375 480.5656,23.8125 Q480.5656,20.6875 481.8781,19.0313 Q483.2063,17.375 485.7063,17.375 Q486.4094,17.375 487.05,17.5313 Q487.7063,17.6875 488.2688,17.9844 L488.2688,20.7031 Q487.6438,20.125 487.05,19.8594 Q486.4563,19.5781 485.8313,19.5781 Q484.4875,19.5781 483.8,20.6563 Q483.1125,21.7188 483.1125,23.8125 Q483.1125,25.9063 483.8,26.9844 Q484.4875,28.0469 485.8313,28.0469 Q486.4563,28.0469 487.05,27.7813 Q487.6438,27.5 488.2688,26.9219 L488.2688,29.6406 Z "/><text fill="#000000" font-family="sans-serif" font-size="12" lengthAdjust="spacingAndGlyphs" textLength="50" x="504.7" y="28.1543">Website</text><line style="stroke: #A80036; stroke-width: 1.5;" x1="447" x2="581" y1="40" y2="40"/><text fill="#000000" font-family="sans-serif" font-size="11" lengthAdjust="spacingAndGlyphs" textLength="110" x="452" y="54.2104">localDirectory: Path</text><text fill="#000000" font-family="sans-serif" font-size="11" lengthAdjust="spacingAndGlyphs" textLength="124" x="452" y="67.0151">urls: Collection&lt;URL&gt;</text><!--class HTMLDocument--><rect fill="#FEFECE" filter="url(#fz8xmvdm0xskw)" height="91.2188" id="HTMLDocument" style="stroke: #A80036; stroke-width: 1.5;" width="220" x="404" y="134"/><ellipse cx="461.75" cy="150" fill="#ADD1B2" rx="11" ry="11" style="stroke: #A80036; stroke-width: 1.0;"/><path d="M464.7188,155.6406 Q464.1406,155.9375 463.5,156.0781 Q462.8594,156.2344 462.1563,156.2344 Q459.6563,156.2344 458.3281,154.5938 Q457.0156,152.9375 457.0156,149.8125 Q457.0156,146.6875 458.3281,145.0313 Q459.6563,143.375 462.1563,143.375 Q462.8594,143.375 463.5,143.5313 Q464.1563,143.6875 464.7188,143.9844 L464.7188,146.7031 Q464.0938,146.125 463.5,145.8594 Q462.9063,145.5781 462.2813,145.5781 Q460.9375,145.5781 460.25,146.6563 Q459.5625,147.7188 459.5625,149.8125 Q459.5625,151.9063 460.25,152.9844 Q460.9375,154.0469 462.2813,154.0469 Q462.9063,154.0469 463.5,153.7813 Q464.0938,153.5 464.7188,152.9219 L464.7188,155.6406 Z "/><text fill="#000000" font-family="sans-serif" font-size="12" lengthAdjust="spacingAndGlyphs" textLength="96" x="482.25" y="154.1543">HTMLDocument</text><line style="stroke: #A80036; stroke-width: 1.5;" x1="405" x2="623" y1="166" y2="166"/><text fill="#000000" font-family="sans-serif" font-size="11" lengthAdjust="spacingAndGlyphs" textLength="153" x="410" y="180.2104">scripts: Collection&lt;Script&gt;</text><text fill="#000000" font-family="sans-serif" font-size="11" lengthAdjust="spacingAndGlyphs" textLength="208" x="410" y="193.0151">stylesheets: Collection&lt;StyleSheet&gt;</text><text fill="#000000" font-family="sans-serif" font-size="11" lengthAdjust="spacingAndGlyphs" textLength="158" x="410" y="205.8198">images: Collection&lt;Image&gt;</text><text fill="#000000" font-family="sans-serif" font-size="11" lengthAdjust="spacingAndGlyphs" textLength="166" x="410" y="218.6245">anchors: Collection&lt;Anchor&gt;</text><!--class Anchor--><rect fill="#FEFECE" filter="url(#fz8xmvdm0xskw)" height="78.4141" id="Anchor" style="stroke: #A80036; stroke-width: 1.5;" width="228" x="6" y="285"/><ellipse cx="93.75" cy="301" fill="#ADD1B2" rx="11" ry="11" style="stroke: #A80036; stroke-width: 1.0;"/><path d="M96.7188,306.6406 Q96.1406,306.9375 95.5,307.0781 Q94.8594,307.2344 94.1563,307.2344 Q91.6563,307.2344 90.3281,305.5938 Q89.0156,303.9375 89.0156,300.8125 Q89.0156,297.6875 90.3281,296.0313 Q91.6563,294.375 94.1563,294.375 Q94.8594,294.375 95.5,294.5313 Q96.1563,294.6875 96.7188,294.9844 L96.7188,297.7031 Q96.0938,297.125 95.5,296.8594 Q94.9063,296.5781 94.2813,296.5781 Q92.9375,296.5781 92.25,297.6563 Q91.5625,298.7188 91.5625,300.8125 Q91.5625,302.9063 92.25,303.9844 Q92.9375,305.0469 94.2813,305.0469 Q94.9063,305.0469 95.5,304.7813 Q96.0938,304.5 96.7188,303.9219 L96.7188,306.6406 Z "/><text fill="#000000" font-family="sans-serif" font-size="12" lengthAdjust="spacingAndGlyphs" textLength="44" x="114.25" y="305.1543">Anchor</text><line style="stroke: #A80036; stroke-width: 1.5;" x1="7" x2="233" y1="317" y2="317"/><text fill="#000000" font-family="sans-serif" font-size="11" lengthAdjust="spacingAndGlyphs" textLength="58" x="12" y="331.2104">path: Path</text><text fill="#000000" font-family="sans-serif" font-size="11" lengthAdjust="spacingAndGlyphs" textLength="44" x="12" y="344.0151">url: URL</text><text fill="#000000" font-family="sans-serif" font-size="11" lengthAdjust="spacingAndGlyphs" textLength="216" x="12" y="356.8198">foundOn: Collection&lt;HTMLDocument&gt;</text><!--class Image--><rect fill="#FEFECE" filter="url(#fz8xmvdm0xskw)" height="78.4141" id="Image" style="stroke: #A80036; stroke-width: 1.5;" width="228" x="269" y="285"/><ellipse cx="359.75" cy="301" fill="#ADD1B2" rx="11" ry="11" style="stroke: #A80036; stroke-width: 1.0;"/><path d="M362.7188,306.6406 Q362.1406,306.9375 361.5,307.0781 Q360.8594,307.2344 360.1563,307.2344 Q357.6563,307.2344 356.3281,305.5938 Q355.0156,303.9375 355.0156,300.8125 Q355.0156,297.6875 356.3281,296.0313 Q357.6563,294.375 360.1563,294.375 Q360.8594,294.375 361.5,294.5313 Q362.1563,294.6875 362.7188,294.9844 L362.7188,297.7031 Q362.0938,297.125 361.5,296.8594 Q360.9063,296.5781 360.2813,296.5781 Q358.9375,296.5781 358.25,297.6563 Q357.5625,298.7188 357.5625,300.8125 Q357.5625,302.9063 358.25,303.9844 Q358.9375,305.0469 360.2813,305.0469 Q360.9063,305.0469 361.5,304.7813 Q362.0938,304.5 362.7188,303.9219 L362.7188,306.6406 Z "/><text fill="#000000" font-family="sans-serif" font-size="12" lengthAdjust="spacingAndGlyphs" textLength="38" x="380.25" y="305.1543">Image</text><line style="stroke: #A80036; stroke-width: 1.5;" x1="270" x2="496" y1="317" y2="317"/><text fill="#000000" font-family="sans-serif" font-size="11" lengthAdjust="spacingAndGlyphs" textLength="58" x="275" y="331.2104">path: Path</text><text fill="#000000" font-family="sans-serif" font-size="11" lengthAdjust="spacingAndGlyphs" textLength="44" x="275" y="344.0151">url: URL</text><text fill="#000000" font-family="sans-serif" font-size="11" lengthAdjust="spacingAndGlyphs" textLength="216" x="275" y="356.8198">foundOn: Collection&lt;HTMLDocument&gt;</text><!--class Script--><rect fill="#FEFECE" filter="url(#fz8xmvdm0xskw)" height="78.4141" id="Script" style="stroke: #A80036; stroke-width: 1.5;" width="228" x="532" y="285"/><ellipse cx="623.75" cy="301" fill="#ADD1B2" rx="11" ry="11" style="stroke: #A80036; stroke-width: 1.0;"/><path d="M626.7188,306.6406 Q626.1406,306.9375 625.5,307.0781 Q624.8594,307.2344 624.1563,307.2344 Q621.6563,307.2344 620.3281,305.5938 Q619.0156,303.9375 619.0156,300.8125 Q619.0156,297.6875 620.3281,296.0313 Q621.6563,294.375 624.1563,294.375 Q624.8594,294.375 625.5,294.5313 Q626.1563,294.6875 626.7188,294.9844 L626.7188,297.7031 Q626.0938,297.125 625.5,296.8594 Q624.9063,296.5781 624.2813,296.5781 Q622.9375,296.5781 622.25,297.6563 Q621.5625,298.7188 621.5625,300.8125 Q621.5625,302.9063 622.25,303.9844 Q622.9375,305.0469 624.2813,305.0469 Q624.9063,305.0469 625.5,304.7813 Q626.0938,304.5 626.7188,303.9219 L626.7188,306.6406 Z "/><text fill="#000000" font-family="sans-serif" font-size="12" lengthAdjust="spacingAndGlyphs" textLength="36" x="644.25" y="305.1543">Script</text><line style="stroke: #A80036; stroke-width: 1.5;" x1="533" x2="759" y1="317" y2="317"/><text fill="#000000" font-family="sans-serif" font-size="11" lengthAdjust="spacingAndGlyphs" textLength="58" x="538" y="331.2104">path: Path</text><text fill="#000000" font-family="sans-serif" font-size="11" lengthAdjust="spacingAndGlyphs" textLength="44" x="538" y="344.0151">url: URL</text><text fill="#000000" font-family="sans-serif" font-size="11" lengthAdjust="spacingAndGlyphs" textLength="216" x="538" y="356.8198">foundOn: Collection&lt;HTMLDocument&gt;</text><!--class StyleSheet--><rect fill="#FEFECE" filter="url(#fz8xmvdm0xskw)" height="78.4141" id="StyleSheet" style="stroke: #A80036; stroke-width: 1.5;" width="228" x="795" y="285"/><ellipse cx="871.25" cy="301" fill="#ADD1B2" rx="11" ry="11" style="stroke: #A80036; stroke-width: 1.0;"/><path d="M874.2188,306.6406 Q873.6406,306.9375 873,307.0781 Q872.3594,307.2344 871.6563,307.2344 Q869.1563,307.2344 867.8281,305.5938 Q866.5156,303.9375 866.5156,300.8125 Q866.5156,297.6875 867.8281,296.0313 Q869.1563,294.375 871.6563,294.375 Q872.3594,294.375 873,294.5313 Q873.6563,294.6875 874.2188,294.9844 L874.2188,297.7031 Q873.5938,297.125 873,296.8594 Q872.4063,296.5781 871.7813,296.5781 Q870.4375,296.5781 869.75,297.6563 Q869.0625,298.7188 869.0625,300.8125 Q869.0625,302.9063 869.75,303.9844 Q870.4375,305.0469 871.7813,305.0469 Q872.4063,305.0469 873,304.7813 Q873.5938,304.5 874.2188,303.9219 L874.2188,306.6406 Z "/><text fill="#000000" font-family="sans-serif" font-size="12" lengthAdjust="spacingAndGlyphs" textLength="67" x="891.75" y="305.1543">StyleSheet</text><line style="stroke: #A80036; stroke-width: 1.5;" x1="796" x2="1022" y1="317" y2="317"/><text fill="#000000" font-family="sans-serif" font-size="11" lengthAdjust="spacingAndGlyphs" textLength="58" x="801" y="331.2104">path: Path</text><text fill="#000000" font-family="sans-serif" font-size="11" lengthAdjust="spacingAndGlyphs" textLength="44" x="801" y="344.0151">url: URL</text><text fill="#000000" font-family="sans-serif" font-size="11" lengthAdjust="spacingAndGlyphs" textLength="216" x="801" y="356.8198">foundOn: Collection&lt;HTMLDocument&gt;</text><!--reverse link Website to HTMLDocument--><path d="M514,87.192 C514,102.173 514,118.834 514,133.78 " fill="none" id="Website&lt;-HTMLDocument" style="stroke: #A80036; stroke-width: 1.0;"/><polygon fill="#FFFFFF" points="514,74.003,510,80.003,514,86.003,518,80.003,514,74.003" style="stroke: #A80036; stroke-width: 1.0;"/><!--reverse link HTMLDocument to Image--><path d="M464.075,234.808 C448.787,251.438 432.297,269.375 418.207,284.7028 " fill="none" id="HTMLDocument&lt;-Image" style="stroke: #A80036; stroke-width: 1.0;"/><polygon fill="#FFFFFF" points="472.91,225.197,465.9046,226.9072,464.7889,234.0315,471.7943,232.3213,472.91,225.197" style="stroke: #A80036; stroke-width: 1.0;"/><!--reverse link HTMLDocument to Script--><path d="M564.306,234.808 C579.711,251.438 596.326,269.375 610.525,284.7028 " fill="none" id="HTMLDocument&lt;-Script" style="stroke: #A80036; stroke-width: 1.0;"/><polygon fill="#FFFFFF" points="555.403,225.197,556.5459,232.317,563.5577,234.0005,562.4148,226.8805,555.403,225.197" style="stroke: #A80036; stroke-width: 1.0;"/><!--reverse link HTMLDocument to StyleSheet--><path d="M636.38,224.65 C689.945,243.974 752.174,266.4234 803.642,284.991 " fill="none" id="HTMLDocument&lt;-StyleSheet" style="stroke: #A80036; stroke-width: 1.0;"/><polygon fill="#FFFFFF" points="624.03,220.194,628.3166,225.9927,635.318,224.2661,631.0313,218.4674,624.03,220.194" style="stroke: #A80036; stroke-width: 1.0;"/><!--reverse link HTMLDocument to Anchor--><path d="M391.695,224.735 C338.389,244.014 276.518,266.3914 225.294,284.9177 " fill="none" id="HTMLDocument&lt;-Anchor" style="stroke: #A80036; stroke-width: 1.0;"/><polygon fill="#FFFFFF" points="403.987,220.289,396.9842,218.5682,392.7024,224.3705,399.7052,226.0913,403.987,220.289" style="stroke: #A80036; stroke-width: 1.0;"/><!--
@startuml domain_02.svg
hide empty members

class Website {
    localDirectory: Path
    urls: Collection<URL>
}

class HTMLDocument {
    scripts: Collection<Script>
    stylesheets: Collection<StyleSheet>
    images: Collection<Image>
    anchors: Collection<Anchor>
}

class Anchor {
    path: Path
    url: URL
    foundOn: Collection<HTMLDocument>
}

class Image {
    path: Path
    url: URL
    foundOn: Collection<HTMLDocument>
}

class Script {
    path: Path
    url: URL
    foundOn: Collection<HTMLDocument>
}

class StyleSheet {
    path: Path
    url: URL
    foundOn: Collection<HTMLDocument>
}

Website o- - HTMLDocument
HTMLDocument o- - Image
HTMLDocument o- - Script
HTMLDocument o- - StyleSheet
HTMLDocument o- - Anchor

@enduml

PlantUML version 1.2019.09(Mon Aug 26 12:19:51 EDT 2019)
(GPL source distribution)
Java Runtime: OpenJDK Runtime Environment
JVM: OpenJDK 64-Bit Server VM
Java Version: 11.0.14+9-Ubuntu-0ubuntu2.16.04
Operating System: Linux
OS Version: 4.4.0-241-generic
Default Encoding: UTF-8
Language: en
Country: US
--></g></svg>