<?xml version="1.0" encoding="us-ascii" standalone="no"?><svg xmlns="http://www.w3.org/2000/svg" xmlns:xlink="http://www.w3.org/1999/xlink" contentStyleType="text/css" height="1272px" preserveAspectRatio="none" style="width:1080px;height:1272px;background:#FFFFFF;" version="1.1" viewBox="0 0 1080 1272" width="1080px" zoomAndPan="magnify"><defs/><g><text fill="#000000" font-family="sans-serif" font-size="14" font-weight="bold" lengthAdjust="spacing" textLength="361" x="361" y="27.9951">Data Analysis and Extraction: High-Level View</text><rect fill="#FFFFFF" height="1173.2734" style="stroke:#181818;stroke-width:1.0;" width="10" x="52.5" y="83.5938"/><rect fill="#FFFFFF" height="16.1641" style="stroke:#181818;stroke-width:1.0;" width="10" x="178" y="114.7266"/><rect fill="#FFFFFF" height="14" style="stroke:#181818;stroke-width:1.0;" width="10" x="178" y="160.0234"/><rect fill="#FFFFFF" height="14" style="stroke:#181818;stroke-width:1.0;" width="10" x="178" y="203.1563"/><rect fill="#FFFFFF" height="972.4453" style="stroke:#181818;stroke-width:1.0;" width="10" x="178" y="246.2891"/><rect fill="#FFFFFF" height="40.1328" style="stroke:#181818;stroke-width:1.0;" width="10" x="183" y="283.4219"/><rect fill="#FFFFFF" height="40.1328" style="stroke:#181818;stroke-width:1.0;" width="10" x="183" y="367.6875"/><rect fill="#FFFFFF" height="16.1641" style="stroke:#181818;stroke-width:1.0;" width="10" x="375" y="453.9531"/><rect fill="#FFFFFF" height="14" style="stroke:#181818;stroke-width:1.0;" width="10" x="375" y="1168.6016"/><rect fill="#FFFFFF" height="16.1641" style="stroke:#181818;stroke-width:1.0;" width="10" x="501" y="533.3828"/><rect fill="#FFFFFF" height="16.1641" style="stroke:#181818;stroke-width:1.0;" width="10" x="664" y="588.6797"/><rect fill="#FFFFFF" height="14" style="stroke:#181818;stroke-width:1.0;" width="10" x="664" y="633.9766"/><rect fill="#FFFFFF" height="290.5313" style="stroke:#181818;stroke-width:1.0;" width="10" x="664" y="677.1094"/><rect fill="#FFFFFF" height="25" style="stroke:#181818;stroke-width:1.0;" width="10" x="669" y="714.2422"/><rect fill="#FFFFFF" height="25" style="stroke:#181818;stroke-width:1.0;" width="10" x="669" y="783.375"/><rect fill="#FFFFFF" height="25" style="stroke:#181818;stroke-width:1.0;" width="10" x="669" y="852.5078"/><rect fill="#FFFFFF" height="25" style="stroke:#181818;stroke-width:1.0;" width="10" x="669" y="921.6406"/><rect fill="#FFFFFF" height="84.4297" style="stroke:#181818;stroke-width:1.0;" width="10" x="664" y="996.7734"/><rect fill="#FFFFFF" height="16.1641" style="stroke:#181818;stroke-width:1.0;" width="10" x="981" y="1035.9063"/><rect fill="none" height="705.4844" style="stroke:#000000;stroke-width:1.5;" width="962.5" x="111.5" y="485.1172"/><line style="stroke:#181818;stroke-width:0.5;stroke-dasharray:5.0,5.0;" x1="57" x2="57" y1="73.5938" y2="1265.8672"/><line style="stroke:#181818;stroke-width:0.5;stroke-dasharray:5.0,5.0;" x1="182.5" x2="182.5" y1="114.2422" y2="1265.8672"/><line style="stroke:#181818;stroke-width:0.5;stroke-dasharray:5.0,5.0;" x1="380" x2="380" y1="453.4688" y2="1265.8672"/><line style="stroke:#181818;stroke-width:0.5;stroke-dasharray:5.0,5.0;" x1="506" x2="506" y1="532.8984" y2="1265.8672"/><line style="stroke:#181818;stroke-width:0.5;stroke-dasharray:5.0,5.0;" x1="669" x2="669" y1="588.1953" y2="1265.8672"/><line style="stroke:#181818;stroke-width:0.5;stroke-dasharray:5.0,5.0;" x1="986" x2="986" y1="1035.4219" y2="1265.8672"/><rect fill="#E2E2F0" height="30.2969" rx="2.5" ry="2.5" style="stroke:#181818;stroke-width:0.5;" width="105" x="5" y="42.2969"/><text fill="#000000" font-family="sans-serif" font-size="14" lengthAdjust="spacing" text-decoration="underline" textLength="91" x="12" y="62.292">:WebAnalysis</text><rect fill="#FFFFFF" height="1173.2734" style="stroke:#181818;stroke-width:1.0;" width="10" x="52.5" y="83.5938"/><rect fill="#FFFFFF" height="16.1641" style="stroke:#181818;stroke-width:1.0;" width="10" x="178" y="114.7266"/><rect fill="#FFFFFF" height="14" style="stroke:#181818;stroke-width:1.0;" width="10" x="178" y="160.0234"/><rect fill="#FFFFFF" height="14" style="stroke:#181818;stroke-width:1.0;" width="10" x="178" y="203.1563"/><rect fill="#FFFFFF" height="972.4453" style="stroke:#181818;stroke-width:1.0;" width="10" x="178" y="246.2891"/><rect fill="#FFFFFF" height="40.1328" style="stroke:#181818;stroke-width:1.0;" width="10" x="183" y="283.4219"/><rect fill="#FFFFFF" height="40.1328" style="stroke:#181818;stroke-width:1.0;" width="10" x="183" y="367.6875"/><rect fill="#FFFFFF" height="16.1641" style="stroke:#181818;stroke-width:1.0;" width="10" x="375" y="453.9531"/><rect fill="#FFFFFF" height="14" style="stroke:#181818;stroke-width:1.0;" width="10" x="375" y="1168.6016"/><rect fill="#FFFFFF" height="16.1641" style="stroke:#181818;stroke-width:1.0;" width="10" x="501" y="533.3828"/><rect fill="#FFFFFF" height="16.1641" style="stroke:#181818;stroke-width:1.0;" width="10" x="664" y="588.6797"/><rect fill="#FFFFFF" height="14" style="stroke:#181818;stroke-width:1.0;" width="10" x="664" y="633.9766"/><rect fill="#FFFFFF" height="290.5313" style="stroke:#181818;stroke-width:1.0;" width="10" x="664" y="677.1094"/><rect fill="#FFFFFF" height="25" style="stroke:#181818;stroke-width:1.0;" width="10" x="669" y="714.2422"/><rect fill="#FFFFFF" height="25" style="stroke:#181818;stroke-width:1.0;" width="10" x="669" y="783.375"/><rect fill="#FFFFFF" height="25" style="stroke:#181818;stroke-width:1.0;" width="10" x="669" y="852.5078"/><rect fill="#FFFFFF" height="25" style="stroke:#181818;stroke-width:1.0;" width="10" x="669" y="921.6406"/><rect fill="#FFFFFF" height="84.4297" style="stroke:#181818;stroke-width:1.0;" width="10" x="664" y="996.7734"/><rect fill="#FFFFFF" height="16.1641" style="stroke:#181818;stroke-width:1.0;" width="10" x="981" y="1035.9063"/><polygon fill="#181818" points="109.5,100.7266,119.5,104.7266,109.5,108.7266,113.5,104.7266" style="stroke:#181818;stroke-width:1.0;"/><line style="stroke:#181818;stroke-width:1.0;" x1="62.5" x2="115.5" y1="104.7266" y2="104.7266"/><text fill="#000000" font-family="sans-serif" font-size="13" lengthAdjust="spacing" textLength="35" x="69.5" y="99.6606">new()</text><rect fill="#E2E2F0" height="30.2969" rx="2.5" ry="2.5" style="stroke:#181818;stroke-width:0.5;" width="123" x="121.5" y="83.5938"/><text fill="#000000" font-family="sans-serif" font-size="14" lengthAdjust="spacing" text-decoration="underline" textLength="109" x="128.5" y="103.5889">:WebsiteBuilder</text><polygon fill="#181818" points="73.5,126.8906,63.5,130.8906,73.5,134.8906,69.5,130.8906" style="stroke:#181818;stroke-width:1.0;"/><line style="stroke:#181818;stroke-width:1.0;stroke-dasharray:2.0,2.0;" x1="67.5" x2="182" y1="130.8906" y2="130.8906"/><polygon fill="#181818" points="166,156.0234,176,160.0234,166,164.0234,170,160.0234" style="stroke:#181818;stroke-width:1.0;"/><line style="stroke:#181818;stroke-width:1.0;" x1="62.5" x2="172" y1="160.0234" y2="160.0234"/><text fill="#000000" font-family="sans-serif" font-size="13" lengthAdjust="spacing" textLength="93" x="69.5" y="154.9575">withPath(path)</text><polygon fill="#181818" points="73.5,170.0234,63.5,174.0234,73.5,178.0234,69.5,174.0234" style="stroke:#181818;stroke-width:1.0;"/><line style="stroke:#181818;stroke-width:1.0;stroke-dasharray:2.0,2.0;" x1="67.5" x2="182" y1="174.0234" y2="174.0234"/><polygon fill="#181818" points="166,199.1563,176,203.1563,166,207.1563,170,203.1563" style="stroke:#181818;stroke-width:1.0;"/><line style="stroke:#181818;stroke-width:1.0;" x1="62.5" x2="172" y1="203.1563" y2="203.1563"/><text fill="#000000" font-family="sans-serif" font-size="13" lengthAdjust="spacing" textLength="90" x="69.5" y="198.0903">withURLs(urls)</text><polygon fill="#181818" points="73.5,213.1563,63.5,217.1563,73.5,221.1563,69.5,217.1563" style="stroke:#181818;stroke-width:1.0;"/><line style="stroke:#181818;stroke-width:1.0;stroke-dasharray:2.0,2.0;" x1="67.5" x2="182" y1="217.1563" y2="217.1563"/><polygon fill="#181818" points="166,242.2891,176,246.2891,166,250.2891,170,246.2891" style="stroke:#181818;stroke-width:1.0;"/><line style="stroke:#181818;stroke-width:1.0;" x1="62.5" x2="172" y1="246.2891" y2="246.2891"/><text fill="#000000" font-family="sans-serif" font-size="13" lengthAdjust="spacing" textLength="40" x="69.5" y="241.2231">build()</text><line style="stroke:#181818;stroke-width:1.0;" x1="188" x2="235" y1="270.4219" y2="270.4219"/><line style="stroke:#181818;stroke-width:1.0;" x1="235" x2="235" y1="270.4219" y2="283.4219"/><line style="stroke:#181818;stroke-width:1.0;" x1="194" x2="235" y1="283.4219" y2="283.4219"/><polygon fill="#181818" points="204,279.4219,194,283.4219,204,287.4219,200,283.4219" style="stroke:#181818;stroke-width:1.0;"/><text fill="#000000" font-family="sans-serif" font-size="13" lengthAdjust="spacing" textLength="95" x="200" y="265.356">walkDirectory()</text><line style="stroke:#181818;stroke-width:1.0;stroke-dasharray:2.0,2.0;" x1="193" x2="235" y1="322.5547" y2="322.5547"/><line style="stroke:#181818;stroke-width:1.0;stroke-dasharray:2.0,2.0;" x1="235" x2="235" y1="322.5547" y2="335.5547"/><line style="stroke:#181818;stroke-width:1.0;stroke-dasharray:2.0,2.0;" x1="188" x2="235" y1="335.5547" y2="335.5547"/><polygon fill="#181818" points="198,331.5547,188,335.5547,198,339.5547,194,335.5547" style="stroke:#181818;stroke-width:1.0;"/><text fill="#000000" font-family="sans-serif" font-size="13" lengthAdjust="spacing" textLength="25" x="200" y="317.4888">files</text><line style="stroke:#181818;stroke-width:1.0;" x1="188" x2="235" y1="354.6875" y2="354.6875"/><line style="stroke:#181818;stroke-width:1.0;" x1="235" x2="235" y1="354.6875" y2="367.6875"/><line style="stroke:#181818;stroke-width:1.0;" x1="194" x2="235" y1="367.6875" y2="367.6875"/><polygon fill="#181818" points="204,363.6875,194,367.6875,204,371.6875,200,367.6875" style="stroke:#181818;stroke-width:1.0;"/><text fill="#000000" font-family="sans-serif" font-size="13" lengthAdjust="spacing" textLength="173" x="200" y="349.6216">removeNonHTMLFiles(files)</text><line style="stroke:#181818;stroke-width:1.0;stroke-dasharray:2.0,2.0;" x1="193" x2="235" y1="406.8203" y2="406.8203"/><line style="stroke:#181818;stroke-width:1.0;stroke-dasharray:2.0,2.0;" x1="235" x2="235" y1="406.8203" y2="419.8203"/><line style="stroke:#181818;stroke-width:1.0;stroke-dasharray:2.0,2.0;" x1="188" x2="235" y1="419.8203" y2="419.8203"/><polygon fill="#181818" points="198,415.8203,188,419.8203,198,423.8203,194,419.8203" style="stroke:#181818;stroke-width:1.0;"/><text fill="#000000" font-family="sans-serif" font-size="13" lengthAdjust="spacing" textLength="73" x="200" y="401.7544">prunedFiles</text><polygon fill="#181818" points="316,439.9531,326,443.9531,316,447.9531,320,443.9531" style="stroke:#181818;stroke-width:1.0;"/><line style="stroke:#181818;stroke-width:1.0;" x1="188" x2="322" y1="443.9531" y2="443.9531"/><text fill="#000000" font-family="sans-serif" font-size="13" lengthAdjust="spacing" textLength="104" x="195" y="438.8872">new(path, URLs)</text><rect fill="#E2E2F0" height="30.2969" rx="2.5" ry="2.5" style="stroke:#181818;stroke-width:0.5;" width="104" x="328" y="422.8203"/><text fill="#000000" font-family="sans-serif" font-size="14" lengthAdjust="spacing" text-decoration="underline" textLength="90" x="335" y="442.8154">site: Website</text><polygon fill="#181818" points="199,466.1172,189,470.1172,199,474.1172,195,470.1172" style="stroke:#181818;stroke-width:1.0;"/><line style="stroke:#181818;stroke-width:1.0;stroke-dasharray:2.0,2.0;" x1="193" x2="379" y1="470.1172" y2="470.1172"/><path d="M111.5,485.1172 L188.5,485.1172 L188.5,492.25 L178.5,502.25 L111.5,502.25 L111.5,485.1172 " fill="#EEEEEE" style="stroke:#000000;stroke-width:1.5;"/><rect fill="none" height="705.4844" style="stroke:#000000;stroke-width:1.5;" width="962.5" x="111.5" y="485.1172"/><text fill="#000000" font-family="sans-serif" font-size="13" font-weight="bold" lengthAdjust="spacing" textLength="32" x="126.5" y="498.1841">loop</text><text fill="#000000" font-family="sans-serif" font-size="11" font-weight="bold" lengthAdjust="spacing" textLength="180" x="203.5" y="497.3276">[for htmlFile in prunedFiles]</text><polygon fill="#181818" points="430,519.3828,440,523.3828,430,527.3828,434,523.3828" style="stroke:#181818;stroke-width:1.0;"/><line style="stroke:#181818;stroke-width:1.0;" x1="188" x2="436" y1="523.3828" y2="523.3828"/><text fill="#000000" font-family="sans-serif" font-size="13" lengthAdjust="spacing" textLength="85" x="195" y="518.3169">new(htmlFile)</text><rect fill="#E2E2F0" height="30.2969" rx="2.5" ry="2.5" style="stroke:#181818;stroke-width:0.5;" width="128" x="442" y="502.25"/><text fill="#000000" font-family="sans-serif" font-size="14" lengthAdjust="spacing" text-decoration="underline" textLength="114" x="449" y="522.2451">:BufferedReader</text><polygon fill="#181818" points="199,545.5469,189,549.5469,199,553.5469,195,549.5469" style="stroke:#181818;stroke-width:1.0;"/><line style="stroke:#181818;stroke-width:1.0;stroke-dasharray:2.0,2.0;" x1="193" x2="505" y1="549.5469" y2="549.5469"/><polygon fill="#181818" points="568,574.6797,578,578.6797,568,582.6797,572,578.6797" style="stroke:#181818;stroke-width:1.0;"/><line style="stroke:#181818;stroke-width:1.0;" x1="188" x2="574" y1="578.6797" y2="578.6797"/><text fill="#000000" font-family="sans-serif" font-size="13" lengthAdjust="spacing" textLength="35" x="195" y="573.6138">new()</text><rect fill="#E2E2F0" height="30.2969" rx="2.5" ry="2.5" style="stroke:#181818;stroke-width:0.5;" width="178" x="580" y="557.5469"/><text fill="#000000" font-family="sans-serif" font-size="14" lengthAdjust="spacing" text-decoration="underline" textLength="164" x="587" y="577.542">:HTMLDocumentBuilder</text><polygon fill="#181818" points="199,600.8438,189,604.8438,199,608.8438,195,604.8438" style="stroke:#181818;stroke-width:1.0;"/><line style="stroke:#181818;stroke-width:1.0;stroke-dasharray:2.0,2.0;" x1="193" x2="668" y1="604.8438" y2="604.8438"/><polygon fill="#181818" points="652,629.9766,662,633.9766,652,637.9766,656,633.9766" style="stroke:#181818;stroke-width:1.0;"/><line style="stroke:#181818;stroke-width:1.0;" x1="188" x2="658" y1="633.9766" y2="633.9766"/><text fill="#000000" font-family="sans-serif" font-size="13" lengthAdjust="spacing" textLength="156" x="195" y="628.9106">withContentFrom(buffer)</text><polygon fill="#181818" points="199,643.9766,189,647.9766,199,651.9766,195,647.9766" style="stroke:#181818;stroke-width:1.0;"/><line style="stroke:#181818;stroke-width:1.0;stroke-dasharray:2.0,2.0;" x1="193" x2="668" y1="647.9766" y2="647.9766"/><polygon fill="#181818" points="652,673.1094,662,677.1094,652,681.1094,656,677.1094" style="stroke:#181818;stroke-width:1.0;"/><line style="stroke:#181818;stroke-width:1.0;" x1="188" x2="658" y1="677.1094" y2="677.1094"/><text fill="#000000" font-family="sans-serif" font-size="13" lengthAdjust="spacing" textLength="106" x="195" y="672.0435">extractContent()</text><line style="stroke:#181818;stroke-width:1.0;" x1="674" x2="721" y1="701.2422" y2="701.2422"/><line style="stroke:#181818;stroke-width:1.0;" x1="721" x2="721" y1="701.2422" y2="714.2422"/><line style="stroke:#181818;stroke-width:1.0;" x1="680" x2="721" y1="714.2422" y2="714.2422"/><polygon fill="#181818" points="690,710.2422,680,714.2422,690,718.2422,686,714.2422" style="stroke:#181818;stroke-width:1.0;"/><text fill="#000000" font-family="sans-serif" font-size="13" lengthAdjust="spacing" textLength="107" x="686" y="696.1763">extractAnchors()</text><line style="stroke:#181818;stroke-width:1.0;stroke-dasharray:2.0,2.0;" x1="679" x2="721" y1="738.2422" y2="738.2422"/><line style="stroke:#181818;stroke-width:1.0;stroke-dasharray:2.0,2.0;" x1="721" x2="721" y1="738.2422" y2="751.2422"/><line style="stroke:#181818;stroke-width:1.0;stroke-dasharray:2.0,2.0;" x1="674" x2="721" y1="751.2422" y2="751.2422"/><polygon fill="#181818" points="684,747.2422,674,751.2422,684,755.2422,680,751.2422" style="stroke:#181818;stroke-width:1.0;"/><line style="stroke:#181818;stroke-width:1.0;" x1="674" x2="721" y1="770.375" y2="770.375"/><line style="stroke:#181818;stroke-width:1.0;" x1="721" x2="721" y1="770.375" y2="783.375"/><line style="stroke:#181818;stroke-width:1.0;" x1="680" x2="721" y1="783.375" y2="783.375"/><polygon fill="#181818" points="690,779.375,680,783.375,690,787.375,686,783.375" style="stroke:#181818;stroke-width:1.0;"/><text fill="#000000" font-family="sans-serif" font-size="13" lengthAdjust="spacing" textLength="102" x="686" y="765.3091">extractImages()</text><line style="stroke:#181818;stroke-width:1.0;stroke-dasharray:2.0,2.0;" x1="679" x2="721" y1="807.375" y2="807.375"/><line style="stroke:#181818;stroke-width:1.0;stroke-dasharray:2.0,2.0;" x1="721" x2="721" y1="807.375" y2="820.375"/><line style="stroke:#181818;stroke-width:1.0;stroke-dasharray:2.0,2.0;" x1="674" x2="721" y1="820.375" y2="820.375"/><polygon fill="#181818" points="684,816.375,674,820.375,684,824.375,680,820.375" style="stroke:#181818;stroke-width:1.0;"/><line style="stroke:#181818;stroke-width:1.0;" x1="674" x2="721" y1="839.5078" y2="839.5078"/><line style="stroke:#181818;stroke-width:1.0;" x1="721" x2="721" y1="839.5078" y2="852.5078"/><line style="stroke:#181818;stroke-width:1.0;" x1="680" x2="721" y1="852.5078" y2="852.5078"/><polygon fill="#181818" points="690,848.5078,680,852.5078,690,856.5078,686,852.5078" style="stroke:#181818;stroke-width:1.0;"/><text fill="#000000" font-family="sans-serif" font-size="13" lengthAdjust="spacing" textLength="99" x="686" y="834.4419">extractScripts()</text><line style="stroke:#181818;stroke-width:1.0;stroke-dasharray:2.0,2.0;" x1="679" x2="721" y1="876.5078" y2="876.5078"/><line style="stroke:#181818;stroke-width:1.0;stroke-dasharray:2.0,2.0;" x1="721" x2="721" y1="876.5078" y2="889.5078"/><line style="stroke:#181818;stroke-width:1.0;stroke-dasharray:2.0,2.0;" x1="674" x2="721" y1="889.5078" y2="889.5078"/><polygon fill="#181818" points="684,885.5078,674,889.5078,684,893.5078,680,889.5078" style="stroke:#181818;stroke-width:1.0;"/><line style="stroke:#181818;stroke-width:1.0;" x1="674" x2="721" y1="908.6406" y2="908.6406"/><line style="stroke:#181818;stroke-width:1.0;" x1="721" x2="721" y1="908.6406" y2="921.6406"/><line style="stroke:#181818;stroke-width:1.0;" x1="680" x2="721" y1="921.6406" y2="921.6406"/><polygon fill="#181818" points="690,917.6406,680,921.6406,690,925.6406,686,921.6406" style="stroke:#181818;stroke-width:1.0;"/><text fill="#000000" font-family="sans-serif" font-size="13" lengthAdjust="spacing" textLength="132" x="686" y="903.5747">extractStyleSheets()</text><line style="stroke:#181818;stroke-width:1.0;stroke-dasharray:2.0,2.0;" x1="679" x2="721" y1="945.6406" y2="945.6406"/><line style="stroke:#181818;stroke-width:1.0;stroke-dasharray:2.0,2.0;" x1="721" x2="721" y1="945.6406" y2="958.6406"/><line style="stroke:#181818;stroke-width:1.0;stroke-dasharray:2.0,2.0;" x1="674" x2="721" y1="958.6406" y2="958.6406"/><polygon fill="#181818" points="684,954.6406,674,958.6406,684,962.6406,680,958.6406" style="stroke:#181818;stroke-width:1.0;"/><polygon fill="#181818" points="199,963.6406,189,967.6406,199,971.6406,195,967.6406" style="stroke:#181818;stroke-width:1.0;"/><line style="stroke:#181818;stroke-width:1.0;stroke-dasharray:2.0,2.0;" x1="193" x2="668" y1="967.6406" y2="967.6406"/><polygon fill="#181818" points="652,992.7734,662,996.7734,652,1000.7734,656,996.7734" style="stroke:#181818;stroke-width:1.0;"/><line style="stroke:#181818;stroke-width:1.0;" x1="188" x2="658" y1="996.7734" y2="996.7734"/><text fill="#000000" font-family="sans-serif" font-size="13" lengthAdjust="spacing" textLength="40" x="195" y="991.7075">build()</text><polygon fill="#181818" points="896,1021.9063,906,1025.9063,896,1029.9063,900,1025.9063" style="stroke:#181818;stroke-width:1.0;"/><line style="stroke:#181818;stroke-width:1.0;" x1="674" x2="902" y1="1025.9063" y2="1025.9063"/><text fill="#000000" font-family="sans-serif" font-size="13" lengthAdjust="spacing" textLength="210" x="681" y="1020.8403">new() [creation details not listed]</text><rect fill="#E2E2F0" height="30.2969" rx="2.5" ry="2.5" style="stroke:#181818;stroke-width:0.5;" width="156" x="908" y="1004.7734"/><text fill="#000000" font-family="sans-serif" font-size="14" lengthAdjust="spacing" text-decoration="underline" textLength="142" x="915" y="1024.7686">doc:HTMLDocument</text><polygon fill="#181818" points="685,1048.0703,675,1052.0703,685,1056.0703,681,1052.0703" style="stroke:#181818;stroke-width:1.0;"/><line style="stroke:#181818;stroke-width:1.0;stroke-dasharray:2.0,2.0;" x1="679" x2="985" y1="1052.0703" y2="1052.0703"/><polygon fill="#181818" points="199,1077.2031,189,1081.2031,199,1085.2031,195,1081.2031" style="stroke:#181818;stroke-width:1.0;"/><line style="stroke:#181818;stroke-width:1.0;stroke-dasharray:2.0,2.0;" x1="193" x2="668" y1="1081.2031" y2="1081.2031"/><text fill="#000000" font-family="sans-serif" font-size="13" lengthAdjust="spacing" textLength="23" x="205" y="1076.1372">doc</text><polygon fill="#181818" points="494,1106.3359,504,1110.3359,494,1114.3359,498,1110.3359" style="stroke:#181818;stroke-width:1.0;"/><line style="stroke:#181818;stroke-width:1.0;" x1="188" x2="500" y1="1110.3359" y2="1110.3359"/><text fill="#000000" font-family="sans-serif" font-size="13" lengthAdjust="spacing" textLength="40" x="195" y="1105.27">delete</text><line style="stroke:#A80036;stroke-width:2.0;" x1="497" x2="515" y1="1101.3359" y2="1119.3359"/><line style="stroke:#A80036;stroke-width:2.0;" x1="497" x2="515" y1="1119.3359" y2="1101.3359"/><polygon fill="#181818" points="657,1135.4688,667,1139.4688,657,1143.4688,661,1139.4688" style="stroke:#181818;stroke-width:1.0;"/><line style="stroke:#181818;stroke-width:1.0;" x1="188" x2="663" y1="1139.4688" y2="1139.4688"/><text fill="#000000" font-family="sans-serif" font-size="13" lengthAdjust="spacing" textLength="40" x="195" y="1134.4028">delete</text><line style="stroke:#A80036;stroke-width:2.0;" x1="660" x2="678" y1="1130.4688" y2="1148.4688"/><line style="stroke:#A80036;stroke-width:2.0;" x1="660" x2="678" y1="1148.4688" y2="1130.4688"/><polygon fill="#181818" points="363,1164.6016,373,1168.6016,363,1172.6016,367,1168.6016" style="stroke:#181818;stroke-width:1.0;"/><line style="stroke:#181818;stroke-width:1.0;" x1="188" x2="369" y1="1168.6016" y2="1168.6016"/><text fill="#000000" font-family="sans-serif" font-size="13" lengthAdjust="spacing" textLength="89" x="195" y="1163.5356">addPage(doc)</text><polygon fill="#181818" points="199,1178.6016,189,1182.6016,199,1186.6016,195,1182.6016" style="stroke:#181818;stroke-width:1.0;"/><line style="stroke:#181818;stroke-width:1.0;stroke-dasharray:2.0,2.0;" x1="193" x2="379" y1="1182.6016" y2="1182.6016"/><polygon fill="#181818" points="73.5,1214.7344,63.5,1218.7344,73.5,1222.7344,69.5,1218.7344" style="stroke:#181818;stroke-width:1.0;"/><line style="stroke:#181818;stroke-width:1.0;stroke-dasharray:2.0,2.0;" x1="67.5" x2="182" y1="1218.7344" y2="1218.7344"/><text fill="#000000" font-family="sans-serif" font-size="13" lengthAdjust="spacing" textLength="23" x="79.5" y="1213.6685">site</text><polygon fill="#181818" points="171,1243.8672,181,1247.8672,171,1251.8672,175,1247.8672" style="stroke:#181818;stroke-width:1.0;"/><line style="stroke:#181818;stroke-width:1.0;" x1="62.5" x2="177" y1="1247.8672" y2="1247.8672"/><text fill="#000000" font-family="sans-serif" font-size="13" lengthAdjust="spacing" textLength="40" x="69.5" y="1242.8013">delete</text><line style="stroke:#A80036;stroke-width:2.0;" x1="174" x2="192" y1="1238.8672" y2="1256.8672"/><line style="stroke:#A80036;stroke-width:2.0;" x1="174" x2="192" y1="1256.8672" y2="1238.8672"/><!--SRC=[dLHDRzim3BthLx3TnGNMFv33W7uiw81i2Dfz78OTP8c9XSYY9z59y-ydMOxhUCawb0V34jzxf4XHicMIYirMCW8vKHcDi2BYafv5s1ZNI2zhAANQh3srJj-H9G_lvfsD405_j-WKBgLdeqmZ7KE4exV6eH1is2BSIvPmuwJT1nD0EWqVdzcd-EHcy63MrVK2jsZXky6T4Cr8wtBs0yi3zH9a0EtD5hqOik_NGdbCouuG3EDjQspCe-FiIY4o3gu_nDKC7EwAA-6HM- -clftXQYcvAfhu-HVes-CY5AstuHoeJ3d4E11jLmvKQJVtngDYyllUc_cmCXR31EwnfYr-8VVmzVDYdW151piYDhvrg3klwFOFvKYbc45VawuOwMSK8WDIFT9ntqCwr5WworcY9buG3nNNDeK1SnmKUXlQSDkkLkXHFw8yjA7ijWPeZfytSmO7yQi1q-VmbtggnJsfjaR7uqvNvKI-6ffzHl85bbfwHuwZvDnJNUJC_eE8-JRtt56ePDKKTkDKHJvCO1FnaynFjLpZMuXFofk6tyJalSMd2l4rzjdYZ6TWsaPDwgYJUS19dSWfGNCZuMT7Zsy7Q6HfR0173DO4HlthzHoJ58YJjn0kBcPHr68_8UEJZ7qJPpT2KkjbR4yHrKzU6NHQzCz47i6ZjsAi_WS0]--></g></svg>