<?xml version="1.0" encoding="UTF-8" standalone="no"?><svg xmlns="http://www.w3.org/2000/svg" xmlns:xlink="http://www.w3.org/1999/xlink" contentScriptType="application/ecmascript" contentStyleType="text/css" height="971px" preserveAspectRatio="none" style="width:927px;height:971px;" version="1.1" viewBox="0 0 927 971" width="927px" zoomAndPan="magnify"><defs><filter height="300%" id="f1hz4wxgvfv336" width="300%" x="-1" y="-1"><feGaussianBlur result="blurOut" stdDeviation="2.0"/><feColorMatrix in="blurOut" result="blurOut2" type="matrix" values="0 0 0 0 0 0 0 0 0 0 0 0 0 0 0 0 0 0 .4 0"/><feOffset dx="4.0" dy="4.0" in="blurOut2" result="blurOut3"/><feBlend in="SourceGraphic" in2="blurOut3" mode="normal"/></filter></defs><g><text fill="#000000" font-family="sans-serif" font-size="14" font-weight="bold" lengthAdjust="spacingAndGlyphs" textLength="284" x="322.25" y="22.9951">Report Generation: High-Level View</text><rect fill="#FFFFFF" filter="url(#f1hz4wxgvfv336)" height="872.3125" style="stroke: #A80036; stroke-width: 1.0;" width="10" x="171.5" y="78.5938"/><rect fill="#FFFFFF" filter="url(#f1hz4wxgvfv336)" height="841.1797" style="stroke: #A80036; stroke-width: 1.0;" width="10" x="373.5" y="109.7266"/><rect fill="#FFFFFF" filter="url(#f1hz4wxgvfv336)" height="14" style="stroke: #A80036; stroke-width: 1.0;" width="10" x="378.5" y="145.0234"/><rect fill="#FFFFFF" filter="url(#f1hz4wxgvfv336)" height="14" style="stroke: #A80036; stroke-width: 1.0;" width="10" x="378.5" y="188.1563"/><rect fill="#FFFFFF" filter="url(#f1hz4wxgvfv336)" height="667.4844" style="stroke: #A80036; stroke-width: 1.0;" width="10" x="378.5" y="231.2891"/><rect fill="#FFFFFF" filter="url(#f1hz4wxgvfv336)" height="14" style="stroke: #A80036; stroke-width: 1.0;" width="10" x="378.5" y="927.9063"/><rect fill="#FFFFFF" filter="url(#f1hz4wxgvfv336)" height="20.1641" style="stroke: #A80036; stroke-width: 1.0;" width="10" x="536.5" y="270.4219"/><rect fill="#FFFFFF" filter="url(#f1hz4wxgvfv336)" height="14" style="stroke: #A80036; stroke-width: 1.0;" width="10" x="536.5" y="319.7188"/><rect fill="#FFFFFF" filter="url(#f1hz4wxgvfv336)" height="14" style="stroke: #A80036; stroke-width: 1.0;" width="10" x="536.5" y="362.8516"/><rect fill="#FFFFFF" filter="url(#f1hz4wxgvfv336)" height="14" style="stroke: #A80036; stroke-width: 1.0;" width="10" x="536.5" y="405.9844"/><rect fill="#FFFFFF" filter="url(#f1hz4wxgvfv336)" height="20.1641" style="stroke: #A80036; stroke-width: 1.0;" width="10" x="688" y="488.25"/><rect fill="#FFFFFF" filter="url(#f1hz4wxgvfv336)" height="14" style="stroke: #A80036; stroke-width: 1.0;" width="10" x="688" y="537.5469"/><rect fill="#FFFFFF" filter="url(#f1hz4wxgvfv336)" height="14" style="stroke: #A80036; stroke-width: 1.0;" width="10" x="688" y="580.6797"/><rect fill="#FFFFFF" filter="url(#f1hz4wxgvfv336)" height="14" style="stroke: #A80036; stroke-width: 1.0;" width="10" x="688" y="623.8125"/><rect fill="#FFFFFF" filter="url(#f1hz4wxgvfv336)" height="20.1641" style="stroke: #A80036; stroke-width: 1.0;" width="10" x="842.5" y="706.0781"/><rect fill="#FFFFFF" filter="url(#f1hz4wxgvfv336)" height="14" style="stroke: #A80036; stroke-width: 1.0;" width="10" x="842.5" y="755.375"/><rect fill="#FFFFFF" filter="url(#f1hz4wxgvfv336)" height="14" style="stroke: #A80036; stroke-width: 1.0;" width="10" x="842.5" y="798.5078"/><rect fill="#FFFFFF" filter="url(#f1hz4wxgvfv336)" height="14" style="stroke: #A80036; stroke-width: 1.0;" width="10" x="842.5" y="841.6406"/><rect fill="#FEFECE" filter="url(#f1hz4wxgvfv336)" height="30.2969" style="stroke: #A80036; stroke-width: 1.5;" width="126" x="313.5" y="78.5938"/><text fill="#000000" font-family="sans-serif" font-size="14" lengthAdjust="spacingAndGlyphs" text-decoration="underline" textLength="112" x="320.5" y="98.5889">:ReportManager</text><rect fill="#FEFECE" filter="url(#f1hz4wxgvfv336)" height="30.2969" style="stroke: #A80036; stroke-width: 1.5;" width="136" x="471.5" y="239.2891"/><text fill="#000000" font-family="sans-serif" font-size="14" lengthAdjust="spacingAndGlyphs" text-decoration="underline" textLength="122" x="478.5" y="259.2842">:TextReportWriter</text><rect fill="#FEFECE" filter="url(#f1hz4wxgvfv336)" height="30.2969" style="stroke: #A80036; stroke-width: 1.5;" width="139" x="621.5" y="457.1172"/><text fill="#000000" font-family="sans-serif" font-size="14" lengthAdjust="spacingAndGlyphs" text-decoration="underline" textLength="125" x="628.5" y="477.1123">:JSONReportWriter</text><rect fill="#FEFECE" filter="url(#f1hz4wxgvfv336)" height="30.2969" style="stroke: #A80036; stroke-width: 1.5;" width="142" x="774.5" y="674.9453"/><text fill="#000000" font-family="sans-serif" font-size="14" lengthAdjust="spacingAndGlyphs" text-decoration="underline" textLength="128" x="781.5" y="694.9404">:ExcelReportWriter</text><line style="stroke: #A80036; stroke-width: 1.0; stroke-dasharray: 5.0,5.0;" x1="60" x2="60" y1="68.5938" y2="959.9063"/><line style="stroke: #A80036; stroke-width: 1.0; stroke-dasharray: 5.0,5.0;" x1="176" x2="176" y1="68.5938" y2="959.9063"/><line style="stroke: #A80036; stroke-width: 1.0; stroke-dasharray: 5.0,5.0;" x1="378.5" x2="378.5" y1="111.2422" y2="959.9063"/><line style="stroke: #A80036; stroke-width: 1.0; stroke-dasharray: 5.0,5.0;" x1="541.5" x2="541.5" y1="271.9375" y2="959.9063"/><line style="stroke: #A80036; stroke-width: 1.0; stroke-dasharray: 5.0,5.0;" x1="692.5" x2="692.5" y1="489.7656" y2="959.9063"/><line style="stroke: #A80036; stroke-width: 1.0; stroke-dasharray: 5.0,5.0;" x1="847.5" x2="847.5" y1="707.5938" y2="959.9063"/><rect fill="#FEFECE" filter="url(#f1hz4wxgvfv336)" height="30.2969" style="stroke: #A80036; stroke-width: 1.5;" width="100" x="8" y="33.2969"/><text fill="#000000" font-family="sans-serif" font-size="14" lengthAdjust="spacingAndGlyphs" text-decoration="underline" textLength="86" x="15" y="53.292">site:Website</text><rect fill="#FEFECE" filter="url(#f1hz4wxgvfv336)" height="30.2969" style="stroke: #A80036; stroke-width: 1.5;" width="105" x="122" y="33.2969"/><text fill="#000000" font-family="sans-serif" font-size="14" lengthAdjust="spacingAndGlyphs" text-decoration="underline" textLength="91" x="129" y="53.292">:WebAnalysis</text><rect fill="#FFFFFF" filter="url(#f1hz4wxgvfv336)" height="872.3125" style="stroke: #A80036; stroke-width: 1.0;" width="10" x="171.5" y="78.5938"/><rect fill="#FFFFFF" filter="url(#f1hz4wxgvfv336)" height="841.1797" style="stroke: #A80036; stroke-width: 1.0;" width="10" x="373.5" y="109.7266"/><rect fill="#FFFFFF" filter="url(#f1hz4wxgvfv336)" height="14" style="stroke: #A80036; stroke-width: 1.0;" width="10" x="378.5" y="145.0234"/><rect fill="#FFFFFF" filter="url(#f1hz4wxgvfv336)" height="14" style="stroke: #A80036; stroke-width: 1.0;" width="10" x="378.5" y="188.1563"/><rect fill="#FFFFFF" filter="url(#f1hz4wxgvfv336)" height="667.4844" style="stroke: #A80036; stroke-width: 1.0;" width="10" x="378.5" y="231.2891"/><rect fill="#FFFFFF" filter="url(#f1hz4wxgvfv336)" height="14" style="stroke: #A80036; stroke-width: 1.0;" width="10" x="378.5" y="927.9063"/><rect fill="#FFFFFF" filter="url(#f1hz4wxgvfv336)" height="20.1641" style="stroke: #A80036; stroke-width: 1.0;" width="10" x="536.5" y="270.4219"/><rect fill="#FFFFFF" filter="url(#f1hz4wxgvfv336)" height="14" style="stroke: #A80036; stroke-width: 1.0;" width="10" x="536.5" y="319.7188"/><rect fill="#FFFFFF" filter="url(#f1hz4wxgvfv336)" height="14" style="stroke: #A80036; stroke-width: 1.0;" width="10" x="536.5" y="362.8516"/><rect fill="#FFFFFF" filter="url(#f1hz4wxgvfv336)" height="14" style="stroke: #A80036; stroke-width: 1.0;" width="10" x="536.5" y="405.9844"/><rect fill="#FFFFFF" filter="url(#f1hz4wxgvfv336)" height="20.1641" style="stroke: #A80036; stroke-width: 1.0;" width="10" x="688" y="488.25"/><rect fill="#FFFFFF" filter="url(#f1hz4wxgvfv336)" height="14" style="stroke: #A80036; stroke-width: 1.0;" width="10" x="688" y="537.5469"/><rect fill="#FFFFFF" filter="url(#f1hz4wxgvfv336)" height="14" style="stroke: #A80036; stroke-width: 1.0;" width="10" x="688" y="580.6797"/><rect fill="#FFFFFF" filter="url(#f1hz4wxgvfv336)" height="14" style="stroke: #A80036; stroke-width: 1.0;" width="10" x="688" y="623.8125"/><rect fill="#FFFFFF" filter="url(#f1hz4wxgvfv336)" height="20.1641" style="stroke: #A80036; stroke-width: 1.0;" width="10" x="842.5" y="706.0781"/><rect fill="#FFFFFF" filter="url(#f1hz4wxgvfv336)" height="14" style="stroke: #A80036; stroke-width: 1.0;" width="10" x="842.5" y="755.375"/><rect fill="#FFFFFF" filter="url(#f1hz4wxgvfv336)" height="14" style="stroke: #A80036; stroke-width: 1.0;" width="10" x="842.5" y="798.5078"/><rect fill="#FFFFFF" filter="url(#f1hz4wxgvfv336)" height="14" style="stroke: #A80036; stroke-width: 1.0;" width="10" x="842.5" y="841.6406"/><polygon fill="#A80036" points="301.5,95.7266,311.5,99.7266,301.5,103.7266,305.5,99.7266" style="stroke: #A80036; stroke-width: 1.0;"/><line style="stroke: #A80036; stroke-width: 1.0;" x1="181.5" x2="307.5" y1="99.7266" y2="99.7266"/><text fill="#000000" font-family="sans-serif" font-size="13" lengthAdjust="spacingAndGlyphs" textLength="35" x="188.5" y="94.6606">new()</text><rect fill="#FEFECE" filter="url(#f1hz4wxgvfv336)" height="30.2969" style="stroke: #A80036; stroke-width: 1.5;" width="126" x="313.5" y="78.5938"/><text fill="#000000" font-family="sans-serif" font-size="14" lengthAdjust="spacingAndGlyphs" text-decoration="underline" textLength="112" x="320.5" y="98.5889">:ReportManager</text><polygon fill="#A80036" points="366.5,141.0234,376.5,145.0234,366.5,149.0234,370.5,145.0234" style="stroke: #A80036; stroke-width: 1.0;"/><line style="stroke: #A80036; stroke-width: 1.0;" x1="181.5" x2="372.5" y1="145.0234" y2="145.0234"/><text fill="#000000" font-family="sans-serif" font-size="13" lengthAdjust="spacingAndGlyphs" textLength="129" x="188.5" y="139.9575">setSourceData(site)</text><polygon fill="#A80036" points="192.5,155.0234,182.5,159.0234,192.5,163.0234,188.5,159.0234" style="stroke: #A80036; stroke-width: 1.0;"/><line style="stroke: #A80036; stroke-width: 1.0; stroke-dasharray: 2.0,2.0;" x1="186.5" x2="372.5" y1="159.0234" y2="159.0234"/><polygon fill="#A80036" points="366.5,184.1563,376.5,188.1563,366.5,192.1563,370.5,188.1563" style="stroke: #A80036; stroke-width: 1.0;"/><line style="stroke: #A80036; stroke-width: 1.0;" x1="181.5" x2="372.5" y1="188.1563" y2="188.1563"/><text fill="#000000" font-family="sans-serif" font-size="13" lengthAdjust="spacingAndGlyphs" textLength="168" x="188.5" y="183.0903">determineBaseFileName()</text><polygon fill="#A80036" points="192.5,198.1563,182.5,202.1563,192.5,206.1563,188.5,202.1563" style="stroke: #A80036; stroke-width: 1.0;"/><line style="stroke: #A80036; stroke-width: 1.0; stroke-dasharray: 2.0,2.0;" x1="186.5" x2="372.5" y1="202.1563" y2="202.1563"/><polygon fill="#A80036" points="366.5,227.2891,376.5,231.2891,366.5,235.2891,370.5,231.2891" style="stroke: #A80036; stroke-width: 1.0;"/><line style="stroke: #A80036; stroke-width: 1.0;" x1="181.5" x2="372.5" y1="231.2891" y2="231.2891"/><text fill="#000000" font-family="sans-serif" font-size="13" lengthAdjust="spacingAndGlyphs" textLength="55" x="188.5" y="226.2231">writeAll()</text><polygon fill="#A80036" points="459.5,256.4219,469.5,260.4219,459.5,264.4219,463.5,260.4219" style="stroke: #A80036; stroke-width: 1.0;"/><line style="stroke: #A80036; stroke-width: 1.0;" x1="388.5" x2="465.5" y1="260.4219" y2="260.4219"/><text fill="#000000" font-family="sans-serif" font-size="13" lengthAdjust="spacingAndGlyphs" textLength="35" x="395.5" y="255.356">new()</text><rect fill="#FEFECE" filter="url(#f1hz4wxgvfv336)" height="30.2969" style="stroke: #A80036; stroke-width: 1.5;" width="136" x="471.5" y="239.2891"/><text fill="#000000" font-family="sans-serif" font-size="14" lengthAdjust="spacingAndGlyphs" text-decoration="underline" textLength="122" x="478.5" y="259.2842">:TextReportWriter</text><polygon fill="#A80036" points="399.5,286.5859,389.5,290.5859,399.5,294.5859,395.5,290.5859" style="stroke: #A80036; stroke-width: 1.0;"/><line style="stroke: #A80036; stroke-width: 1.0; stroke-dasharray: 2.0,2.0;" x1="393.5" x2="540.5" y1="290.5859" y2="290.5859"/><polygon fill="#A80036" points="524.5,315.7188,534.5,319.7188,524.5,323.7188,528.5,319.7188" style="stroke: #A80036; stroke-width: 1.0;"/><line style="stroke: #A80036; stroke-width: 1.0;" x1="388.5" x2="530.5" y1="319.7188" y2="319.7188"/><text fill="#000000" font-family="sans-serif" font-size="13" lengthAdjust="spacingAndGlyphs" textLength="129" x="395.5" y="314.6528">setSourceData(site)</text><polygon fill="#A80036" points="399.5,329.7188,389.5,333.7188,399.5,337.7188,395.5,333.7188" style="stroke: #A80036; stroke-width: 1.0;"/><line style="stroke: #A80036; stroke-width: 1.0; stroke-dasharray: 2.0,2.0;" x1="393.5" x2="540.5" y1="333.7188" y2="333.7188"/><polygon fill="#A80036" points="524.5,358.8516,534.5,362.8516,524.5,366.8516,528.5,362.8516" style="stroke: #A80036; stroke-width: 1.0;"/><line style="stroke: #A80036; stroke-width: 1.0;" x1="388.5" x2="530.5" y1="362.8516" y2="362.8516"/><text fill="#000000" font-family="sans-serif" font-size="13" lengthAdjust="spacingAndGlyphs" textLength="113" x="395.5" y="357.7856">setBaseName(...)</text><polygon fill="#A80036" points="399.5,372.8516,389.5,376.8516,399.5,380.8516,395.5,376.8516" style="stroke: #A80036; stroke-width: 1.0;"/><line style="stroke: #A80036; stroke-width: 1.0; stroke-dasharray: 2.0,2.0;" x1="393.5" x2="540.5" y1="376.8516" y2="376.8516"/><polygon fill="#A80036" points="524.5,401.9844,534.5,405.9844,524.5,409.9844,528.5,405.9844" style="stroke: #A80036; stroke-width: 1.0;"/><line style="stroke: #A80036; stroke-width: 1.0;" x1="388.5" x2="530.5" y1="405.9844" y2="405.9844"/><text fill="#000000" font-family="sans-serif" font-size="13" lengthAdjust="spacingAndGlyphs" textLength="40" x="395.5" y="400.9185">write()</text><polygon fill="#A80036" points="399.5,415.9844,389.5,419.9844,399.5,423.9844,395.5,419.9844" style="stroke: #A80036; stroke-width: 1.0;"/><line style="stroke: #A80036; stroke-width: 1.0; stroke-dasharray: 2.0,2.0;" x1="393.5" x2="540.5" y1="419.9844" y2="419.9844"/><polygon fill="#A80036" points="529.5,445.1172,539.5,449.1172,529.5,453.1172,533.5,449.1172" style="stroke: #A80036; stroke-width: 1.0;"/><line style="stroke: #A80036; stroke-width: 1.0;" x1="388.5" x2="535.5" y1="449.1172" y2="449.1172"/><text fill="#000000" font-family="sans-serif" font-size="13" lengthAdjust="spacingAndGlyphs" textLength="40" x="395.5" y="444.0513">delete</text><line style="stroke: #A80036; stroke-width: 2.0;" x1="532.5" x2="550.5" y1="440.1172" y2="458.1172"/><line style="stroke: #A80036; stroke-width: 2.0;" x1="532.5" x2="550.5" y1="458.1172" y2="440.1172"/><polygon fill="#A80036" points="609.5,474.25,619.5,478.25,609.5,482.25,613.5,478.25" style="stroke: #A80036; stroke-width: 1.0;"/><line style="stroke: #A80036; stroke-width: 1.0;" x1="388.5" x2="615.5" y1="478.25" y2="478.25"/><text fill="#000000" font-family="sans-serif" font-size="13" lengthAdjust="spacingAndGlyphs" textLength="35" x="395.5" y="473.1841">new()</text><rect fill="#FEFECE" filter="url(#f1hz4wxgvfv336)" height="30.2969" style="stroke: #A80036; stroke-width: 1.5;" width="139" x="621.5" y="457.1172"/><text fill="#000000" font-family="sans-serif" font-size="14" lengthAdjust="spacingAndGlyphs" text-decoration="underline" textLength="125" x="628.5" y="477.1123">:JSONReportWriter</text><polygon fill="#A80036" points="399.5,504.4141,389.5,508.4141,399.5,512.4141,395.5,508.4141" style="stroke: #A80036; stroke-width: 1.0;"/><line style="stroke: #A80036; stroke-width: 1.0; stroke-dasharray: 2.0,2.0;" x1="393.5" x2="692" y1="508.4141" y2="508.4141"/><polygon fill="#A80036" points="676,533.5469,686,537.5469,676,541.5469,680,537.5469" style="stroke: #A80036; stroke-width: 1.0;"/><line style="stroke: #A80036; stroke-width: 1.0;" x1="388.5" x2="682" y1="537.5469" y2="537.5469"/><text fill="#000000" font-family="sans-serif" font-size="13" lengthAdjust="spacingAndGlyphs" textLength="129" x="395.5" y="532.481">setSourceData(site)</text><polygon fill="#A80036" points="399.5,547.5469,389.5,551.5469,399.5,555.5469,395.5,551.5469" style="stroke: #A80036; stroke-width: 1.0;"/><line style="stroke: #A80036; stroke-width: 1.0; stroke-dasharray: 2.0,2.0;" x1="393.5" x2="692" y1="551.5469" y2="551.5469"/><polygon fill="#A80036" points="676,576.6797,686,580.6797,676,584.6797,680,580.6797" style="stroke: #A80036; stroke-width: 1.0;"/><line style="stroke: #A80036; stroke-width: 1.0;" x1="388.5" x2="682" y1="580.6797" y2="580.6797"/><text fill="#000000" font-family="sans-serif" font-size="13" lengthAdjust="spacingAndGlyphs" textLength="113" x="395.5" y="575.6138">setBaseName(...)</text><polygon fill="#A80036" points="399.5,590.6797,389.5,594.6797,399.5,598.6797,395.5,594.6797" style="stroke: #A80036; stroke-width: 1.0;"/><line style="stroke: #A80036; stroke-width: 1.0; stroke-dasharray: 2.0,2.0;" x1="393.5" x2="692" y1="594.6797" y2="594.6797"/><polygon fill="#A80036" points="676,619.8125,686,623.8125,676,627.8125,680,623.8125" style="stroke: #A80036; stroke-width: 1.0;"/><line style="stroke: #A80036; stroke-width: 1.0;" x1="388.5" x2="682" y1="623.8125" y2="623.8125"/><text fill="#000000" font-family="sans-serif" font-size="13" lengthAdjust="spacingAndGlyphs" textLength="40" x="395.5" y="618.7466">write()</text><polygon fill="#A80036" points="399.5,633.8125,389.5,637.8125,399.5,641.8125,395.5,637.8125" style="stroke: #A80036; stroke-width: 1.0;"/><line style="stroke: #A80036; stroke-width: 1.0; stroke-dasharray: 2.0,2.0;" x1="393.5" x2="692" y1="637.8125" y2="637.8125"/><polygon fill="#A80036" points="681,662.9453,691,666.9453,681,670.9453,685,666.9453" style="stroke: #A80036; stroke-width: 1.0;"/><line style="stroke: #A80036; stroke-width: 1.0;" x1="388.5" x2="687" y1="666.9453" y2="666.9453"/><text fill="#000000" font-family="sans-serif" font-size="13" lengthAdjust="spacingAndGlyphs" textLength="40" x="395.5" y="661.8794">delete</text><line style="stroke: #A80036; stroke-width: 2.0;" x1="684" x2="702" y1="657.9453" y2="675.9453"/><line style="stroke: #A80036; stroke-width: 2.0;" x1="684" x2="702" y1="675.9453" y2="657.9453"/><polygon fill="#A80036" points="762.5,692.0781,772.5,696.0781,762.5,700.0781,766.5,696.0781" style="stroke: #A80036; stroke-width: 1.0;"/><line style="stroke: #A80036; stroke-width: 1.0;" x1="388.5" x2="768.5" y1="696.0781" y2="696.0781"/><text fill="#000000" font-family="sans-serif" font-size="13" lengthAdjust="spacingAndGlyphs" textLength="35" x="395.5" y="691.0122">new()</text><rect fill="#FEFECE" filter="url(#f1hz4wxgvfv336)" height="30.2969" style="stroke: #A80036; stroke-width: 1.5;" width="142" x="774.5" y="674.9453"/><text fill="#000000" font-family="sans-serif" font-size="14" lengthAdjust="spacingAndGlyphs" text-decoration="underline" textLength="128" x="781.5" y="694.9404">:ExcelReportWriter</text><polygon fill="#A80036" points="399.5,722.2422,389.5,726.2422,399.5,730.2422,395.5,726.2422" style="stroke: #A80036; stroke-width: 1.0;"/><line style="stroke: #A80036; stroke-width: 1.0; stroke-dasharray: 2.0,2.0;" x1="393.5" x2="846.5" y1="726.2422" y2="726.2422"/><polygon fill="#A80036" points="830.5,751.375,840.5,755.375,830.5,759.375,834.5,755.375" style="stroke: #A80036; stroke-width: 1.0;"/><line style="stroke: #A80036; stroke-width: 1.0;" x1="388.5" x2="836.5" y1="755.375" y2="755.375"/><text fill="#000000" font-family="sans-serif" font-size="13" lengthAdjust="spacingAndGlyphs" textLength="129" x="395.5" y="750.3091">setSourceData(site)</text><polygon fill="#A80036" points="399.5,765.375,389.5,769.375,399.5,773.375,395.5,769.375" style="stroke: #A80036; stroke-width: 1.0;"/><line style="stroke: #A80036; stroke-width: 1.0; stroke-dasharray: 2.0,2.0;" x1="393.5" x2="846.5" y1="769.375" y2="769.375"/><polygon fill="#A80036" points="830.5,794.5078,840.5,798.5078,830.5,802.5078,834.5,798.5078" style="stroke: #A80036; stroke-width: 1.0;"/><line style="stroke: #A80036; stroke-width: 1.0;" x1="388.5" x2="836.5" y1="798.5078" y2="798.5078"/><text fill="#000000" font-family="sans-serif" font-size="13" lengthAdjust="spacingAndGlyphs" textLength="113" x="395.5" y="793.4419">setBaseName(...)</text><polygon fill="#A80036" points="399.5,808.5078,389.5,812.5078,399.5,816.5078,395.5,812.5078" style="stroke: #A80036; stroke-width: 1.0;"/><line style="stroke: #A80036; stroke-width: 1.0; stroke-dasharray: 2.0,2.0;" x1="393.5" x2="846.5" y1="812.5078" y2="812.5078"/><polygon fill="#A80036" points="830.5,837.6406,840.5,841.6406,830.5,845.6406,834.5,841.6406" style="stroke: #A80036; stroke-width: 1.0;"/><line style="stroke: #A80036; stroke-width: 1.0;" x1="388.5" x2="836.5" y1="841.6406" y2="841.6406"/><text fill="#000000" font-family="sans-serif" font-size="13" lengthAdjust="spacingAndGlyphs" textLength="40" x="395.5" y="836.5747">write()</text><polygon fill="#A80036" points="399.5,851.6406,389.5,855.6406,399.5,859.6406,395.5,855.6406" style="stroke: #A80036; stroke-width: 1.0;"/><line style="stroke: #A80036; stroke-width: 1.0; stroke-dasharray: 2.0,2.0;" x1="393.5" x2="846.5" y1="855.6406" y2="855.6406"/><polygon fill="#A80036" points="835.5,880.7734,845.5,884.7734,835.5,888.7734,839.5,884.7734" style="stroke: #A80036; stroke-width: 1.0;"/><line style="stroke: #A80036; stroke-width: 1.0;" x1="388.5" x2="841.5" y1="884.7734" y2="884.7734"/><text fill="#000000" font-family="sans-serif" font-size="13" lengthAdjust="spacingAndGlyphs" textLength="40" x="395.5" y="879.7075">delete</text><line style="stroke: #A80036; stroke-width: 2.0;" x1="838.5" x2="856.5" y1="875.7734" y2="893.7734"/><line style="stroke: #A80036; stroke-width: 2.0;" x1="838.5" x2="856.5" y1="893.7734" y2="875.7734"/><polygon fill="#A80036" points="192.5,894.7734,182.5,898.7734,192.5,902.7734,188.5,898.7734" style="stroke: #A80036; stroke-width: 1.0;"/><line style="stroke: #A80036; stroke-width: 1.0; stroke-dasharray: 2.0,2.0;" x1="186.5" x2="372.5" y1="898.7734" y2="898.7734"/><polygon fill="#A80036" points="366.5,923.9063,376.5,927.9063,366.5,931.9063,370.5,927.9063" style="stroke: #A80036; stroke-width: 1.0;"/><line style="stroke: #A80036; stroke-width: 1.0;" x1="181.5" x2="372.5" y1="927.9063" y2="927.9063"/><text fill="#000000" font-family="sans-serif" font-size="13" lengthAdjust="spacingAndGlyphs" textLength="140" x="188.5" y="922.8403">writeReportNames(...)</text><polygon fill="#A80036" points="192.5,937.9063,182.5,941.9063,192.5,945.9063,188.5,941.9063" style="stroke: #A80036; stroke-width: 1.0;"/><line style="stroke: #A80036; stroke-width: 1.0; stroke-dasharray: 2.0,2.0;" x1="186.5" x2="372.5" y1="941.9063" y2="941.9063"/><!--
@startuml sequence_03.svg
autoactivate on
hide footbox
skinparam backgroundColor #FFFFFF
skinparam sequenceParticipant underline

title Report Generation: High-Level View

participant "site:Website" as site
participant ":WebAnalysis" as driver
activate driver


create ":ReportManager" as manager

driver -> manager: new()
driver -> manager: setSourceData(site)
return

driver -> manager: determineBaseFileName()
return

driver -> manager: writeAll()
    create ":TextReportWriter" as textWriter
    manager -> textWriter: new()
    return
    manager -> textWriter: setSourceData(site)
    return
    manager -> textWriter: setBaseName(...)
    return
    manager -> textWriter: write()
    return
    manager -> textWriter !!: delete

    create ":JSONReportWriter" as jsonWriter
    manager -> jsonWriter: new()
    return
    manager -> jsonWriter: setSourceData(site)
    return
    manager -> jsonWriter: setBaseName(...)
    return
    manager -> jsonWriter: write()
    return
    manager -> jsonWriter !!: delete

    create ":ExcelReportWriter" as excelWriter
    manager -> excelWriter: new()
    return
    manager -> excelWriter: setSourceData(site)
    return
    manager -> excelWriter: setBaseName(...)
    return
    manager -> excelWriter: write()
    return
    manager -> excelWriter !!: delete
return

driver -> manager: writeReportNames(...)
return

@enduml

PlantUML version 1.2019.09(Mon Aug 26 12:19:51 EDT 2019)
(GPL source distribution)
Java Runtime: OpenJDK Runtime Environment
JVM: OpenJDK 64-Bit Server VM
Java Version: 11.0.14+9-Ubuntu-0ubuntu2.16.04
Operating System: Linux
OS Version: 4.4.0-241-generic
Default Encoding: UTF-8
Language: en
Country: US
--></g></svg>