<?xml version="1.0" encoding="UTF-8" standalone="no"?><svg xmlns="http://www.w3.org/2000/svg" xmlns:xlink="http://www.w3.org/1999/xlink" contentScriptType="application/ecmascript" contentStyleType="text/css" height="985px" preserveAspectRatio="none" style="width:917px;height:985px;" version="1.1" viewBox="0 0 917 985" width="917px" zoomAndPan="magnify"><defs><filter height="300%" id="f95pbv1ykvj57" width="300%" x="-1" y="-1"><feGaussianBlur result="blurOut" stdDeviation="2.0"/><feColorMatrix in="blurOut" result="blurOut2" type="matrix" values="0 0 0 0 0 0 0 0 0 0 0 0 0 0 0 0 0 0 .4 0"/><feOffset dx="4.0" dy="4.0" in="blurOut2" result="blurOut3"/><feBlend in="SourceGraphic" in2="blurOut3" mode="normal"/></filter></defs><g><text fill="#000000" font-family="sans-serif" font-size="14" font-weight="bold" lengthAdjust="spacingAndGlyphs" textLength="284" x="317.25" y="22.9951">Report Generation: High-Level View</text><rect fill="#FFFFFF" filter="url(#f95pbv1ykvj57)" height="886.3125" style="stroke: #A80036; stroke-width: 1.0;" width="10" x="171.5" y="78.5938"/><rect fill="#FFFFFF" filter="url(#f95pbv1ykvj57)" height="20.1641" style="stroke: #A80036; stroke-width: 1.0;" width="10" x="368.5" y="109.7266"/><rect fill="#FFFFFF" filter="url(#f95pbv1ykvj57)" height="14" style="stroke: #A80036; stroke-width: 1.0;" width="10" x="368.5" y="159.0234"/><rect fill="#FFFFFF" filter="url(#f95pbv1ykvj57)" height="14" style="stroke: #A80036; stroke-width: 1.0;" width="10" x="368.5" y="202.1563"/><rect fill="#FFFFFF" filter="url(#f95pbv1ykvj57)" height="667.4844" style="stroke: #A80036; stroke-width: 1.0;" width="10" x="368.5" y="245.2891"/><rect fill="#FFFFFF" filter="url(#f95pbv1ykvj57)" height="14" style="stroke: #A80036; stroke-width: 1.0;" width="10" x="368.5" y="941.9063"/><rect fill="#FFFFFF" filter="url(#f95pbv1ykvj57)" height="20.1641" style="stroke: #A80036; stroke-width: 1.0;" width="10" x="526.5" y="284.4219"/><rect fill="#FFFFFF" filter="url(#f95pbv1ykvj57)" height="14" style="stroke: #A80036; stroke-width: 1.0;" width="10" x="526.5" y="333.7188"/><rect fill="#FFFFFF" filter="url(#f95pbv1ykvj57)" height="14" style="stroke: #A80036; stroke-width: 1.0;" width="10" x="526.5" y="376.8516"/><rect fill="#FFFFFF" filter="url(#f95pbv1ykvj57)" height="14" style="stroke: #A80036; stroke-width: 1.0;" width="10" x="526.5" y="419.9844"/><rect fill="#FFFFFF" filter="url(#f95pbv1ykvj57)" height="20.1641" style="stroke: #A80036; stroke-width: 1.0;" width="10" x="678" y="502.25"/><rect fill="#FFFFFF" filter="url(#f95pbv1ykvj57)" height="14" style="stroke: #A80036; stroke-width: 1.0;" width="10" x="678" y="551.5469"/><rect fill="#FFFFFF" filter="url(#f95pbv1ykvj57)" height="14" style="stroke: #A80036; stroke-width: 1.0;" width="10" x="678" y="594.6797"/><rect fill="#FFFFFF" filter="url(#f95pbv1ykvj57)" height="14" style="stroke: #A80036; stroke-width: 1.0;" width="10" x="678" y="637.8125"/><rect fill="#FFFFFF" filter="url(#f95pbv1ykvj57)" height="20.1641" style="stroke: #A80036; stroke-width: 1.0;" width="10" x="832.5" y="720.0781"/><rect fill="#FFFFFF" filter="url(#f95pbv1ykvj57)" height="14" style="stroke: #A80036; stroke-width: 1.0;" width="10" x="832.5" y="769.375"/><rect fill="#FFFFFF" filter="url(#f95pbv1ykvj57)" height="14" style="stroke: #A80036; stroke-width: 1.0;" width="10" x="832.5" y="812.5078"/><rect fill="#FFFFFF" filter="url(#f95pbv1ykvj57)" height="14" style="stroke: #A80036; stroke-width: 1.0;" width="10" x="832.5" y="855.6406"/><rect fill="#FEFECE" filter="url(#f95pbv1ykvj57)" height="30.2969" style="stroke: #A80036; stroke-width: 1.5;" width="126" x="308.5" y="78.5938"/><text fill="#000000" font-family="sans-serif" font-size="14" lengthAdjust="spacingAndGlyphs" text-decoration="underline" textLength="112" x="315.5" y="98.5889">:ReportManager</text><rect fill="#FEFECE" filter="url(#f95pbv1ykvj57)" height="30.2969" style="stroke: #A80036; stroke-width: 1.5;" width="136" x="461.5" y="253.2891"/><text fill="#000000" font-family="sans-serif" font-size="14" lengthAdjust="spacingAndGlyphs" text-decoration="underline" textLength="122" x="468.5" y="273.2842">:TextReportWriter</text><rect fill="#FEFECE" filter="url(#f95pbv1ykvj57)" height="30.2969" style="stroke: #A80036; stroke-width: 1.5;" width="139" x="611.5" y="471.1172"/><text fill="#000000" font-family="sans-serif" font-size="14" lengthAdjust="spacingAndGlyphs" text-decoration="underline" textLength="125" x="618.5" y="491.1123">:JSONReportWriter</text><rect fill="#FEFECE" filter="url(#f95pbv1ykvj57)" height="30.2969" style="stroke: #A80036; stroke-width: 1.5;" width="142" x="764.5" y="688.9453"/><text fill="#000000" font-family="sans-serif" font-size="14" lengthAdjust="spacingAndGlyphs" text-decoration="underline" textLength="128" x="771.5" y="708.9404">:ExcelReportWriter</text><line style="stroke: #A80036; stroke-width: 1.0; stroke-dasharray: 5.0,5.0;" x1="60" x2="60" y1="68.5938" y2="973.9063"/><line style="stroke: #A80036; stroke-width: 1.0; stroke-dasharray: 5.0,5.0;" x1="176" x2="176" y1="68.5938" y2="973.9063"/><line style="stroke: #A80036; stroke-width: 1.0; stroke-dasharray: 5.0,5.0;" x1="373.5" x2="373.5" y1="111.2422" y2="973.9063"/><line style="stroke: #A80036; stroke-width: 1.0; stroke-dasharray: 5.0,5.0;" x1="531.5" x2="531.5" y1="285.9375" y2="973.9063"/><line style="stroke: #A80036; stroke-width: 1.0; stroke-dasharray: 5.0,5.0;" x1="682.5" x2="682.5" y1="503.7656" y2="973.9063"/><line style="stroke: #A80036; stroke-width: 1.0; stroke-dasharray: 5.0,5.0;" x1="837.5" x2="837.5" y1="721.5938" y2="973.9063"/><rect fill="#FEFECE" filter="url(#f95pbv1ykvj57)" height="30.2969" style="stroke: #A80036; stroke-width: 1.5;" width="100" x="8" y="33.2969"/><text fill="#000000" font-family="sans-serif" font-size="14" lengthAdjust="spacingAndGlyphs" text-decoration="underline" textLength="86" x="15" y="53.292">site:Website</text><rect fill="#FEFECE" filter="url(#f95pbv1ykvj57)" height="30.2969" style="stroke: #A80036; stroke-width: 1.5;" width="105" x="122" y="33.2969"/><text fill="#000000" font-family="sans-serif" font-size="14" lengthAdjust="spacingAndGlyphs" text-decoration="underline" textLength="91" x="129" y="53.292">:WebAnalysis</text><rect fill="#FFFFFF" filter="url(#f95pbv1ykvj57)" height="886.3125" style="stroke: #A80036; stroke-width: 1.0;" width="10" x="171.5" y="78.5938"/><rect fill="#FFFFFF" filter="url(#f95pbv1ykvj57)" height="20.1641" style="stroke: #A80036; stroke-width: 1.0;" width="10" x="368.5" y="109.7266"/><rect fill="#FFFFFF" filter="url(#f95pbv1ykvj57)" height="14" style="stroke: #A80036; stroke-width: 1.0;" width="10" x="368.5" y="159.0234"/><rect fill="#FFFFFF" filter="url(#f95pbv1ykvj57)" height="14" style="stroke: #A80036; stroke-width: 1.0;" width="10" x="368.5" y="202.1563"/><rect fill="#FFFFFF" filter="url(#f95pbv1ykvj57)" height="667.4844" style="stroke: #A80036; stroke-width: 1.0;" width="10" x="368.5" y="245.2891"/><rect fill="#FFFFFF" filter="url(#f95pbv1ykvj57)" height="14" style="stroke: #A80036; stroke-width: 1.0;" width="10" x="368.5" y="941.9063"/><rect fill="#FFFFFF" filter="url(#f95pbv1ykvj57)" height="20.1641" style="stroke: #A80036; stroke-width: 1.0;" width="10" x="526.5" y="284.4219"/><rect fill="#FFFFFF" filter="url(#f95pbv1ykvj57)" height="14" style="stroke: #A80036; stroke-width: 1.0;" width="10" x="526.5" y="333.7188"/><rect fill="#FFFFFF" filter="url(#f95pbv1ykvj57)" height="14" style="stroke: #A80036; stroke-width: 1.0;" width="10" x="526.5" y="376.8516"/><rect fill="#FFFFFF" filter="url(#f95pbv1ykvj57)" height="14" style="stroke: #A80036; stroke-width: 1.0;" width="10" x="526.5" y="419.9844"/><rect fill="#FFFFFF" filter="url(#f95pbv1ykvj57)" height="20.1641" style="stroke: #A80036; stroke-width: 1.0;" width="10" x="678" y="502.25"/><rect fill="#FFFFFF" filter="url(#f95pbv1ykvj57)" height="14" style="stroke: #A80036; stroke-width: 1.0;" width="10" x="678" y="551.5469"/><rect fill="#FFFFFF" filter="url(#f95pbv1ykvj57)" height="14" style="stroke: #A80036; stroke-width: 1.0;" width="10" x="678" y="594.6797"/><rect fill="#FFFFFF" filter="url(#f95pbv1ykvj57)" height="14" style="stroke: #A80036; stroke-width: 1.0;" width="10" x="678" y="637.8125"/><rect fill="#FFFFFF" filter="url(#f95pbv1ykvj57)" height="20.1641" style="stroke: #A80036; stroke-width: 1.0;" width="10" x="832.5" y="720.0781"/><rect fill="#FFFFFF" filter="url(#f95pbv1ykvj57)" height="14" style="stroke: #A80036; stroke-width: 1.0;" width="10" x="832.5" y="769.375"/><rect fill="#FFFFFF" filter="url(#f95pbv1ykvj57)" height="14" style="stroke: #A80036; stroke-width: 1.0;" width="10" x="832.5" y="812.5078"/><rect fill="#FFFFFF" filter="url(#f95pbv1ykvj57)" height="14" style="stroke: #A80036; stroke-width: 1.0;" width="10" x="832.5" y="855.6406"/><polygon fill="#A80036" points="296.5,95.7266,306.5,99.7266,296.5,103.7266,300.5,99.7266" style="stroke: #A80036; stroke-width: 1.0;"/><line style="stroke: #A80036; stroke-width: 1.0;" x1="181.5" x2="302.5" y1="99.7266" y2="99.7266"/><text fill="#000000" font-family="sans-serif" font-size="13" lengthAdjust="spacingAndGlyphs" textLength="35" x="188.5" y="94.6606">new()</text><rect fill="#FEFECE" filter="url(#f95pbv1ykvj57)" height="30.2969" style="stroke: #A80036; stroke-width: 1.5;" width="126" x="308.5" y="78.5938"/><text fill="#000000" font-family="sans-serif" font-size="14" lengthAdjust="spacingAndGlyphs" text-decoration="underline" textLength="112" x="315.5" y="98.5889">:ReportManager</text><polygon fill="#A80036" points="192.5,125.8906,182.5,129.8906,192.5,133.8906,188.5,129.8906" style="stroke: #A80036; stroke-width: 1.0;"/><line style="stroke: #A80036; stroke-width: 1.0; stroke-dasharray: 2.0,2.0;" x1="186.5" x2="372.5" y1="129.8906" y2="129.8906"/><polygon fill="#A80036" points="356.5,155.0234,366.5,159.0234,356.5,163.0234,360.5,159.0234" style="stroke: #A80036; stroke-width: 1.0;"/><line style="stroke: #A80036; stroke-width: 1.0;" x1="181.5" x2="362.5" y1="159.0234" y2="159.0234"/><text fill="#000000" font-family="sans-serif" font-size="13" lengthAdjust="spacingAndGlyphs" textLength="129" x="188.5" y="153.9575">setSourceData(site)</text><polygon fill="#A80036" points="192.5,169.0234,182.5,173.0234,192.5,177.0234,188.5,173.0234" style="stroke: #A80036; stroke-width: 1.0;"/><line style="stroke: #A80036; stroke-width: 1.0; stroke-dasharray: 2.0,2.0;" x1="186.5" x2="372.5" y1="173.0234" y2="173.0234"/><polygon fill="#A80036" points="356.5,198.1563,366.5,202.1563,356.5,206.1563,360.5,202.1563" style="stroke: #A80036; stroke-width: 1.0;"/><line style="stroke: #A80036; stroke-width: 1.0;" x1="181.5" x2="362.5" y1="202.1563" y2="202.1563"/><text fill="#000000" font-family="sans-serif" font-size="13" lengthAdjust="spacingAndGlyphs" textLength="168" x="188.5" y="197.0903">determineBaseFileName()</text><polygon fill="#A80036" points="192.5,212.1563,182.5,216.1563,192.5,220.1563,188.5,216.1563" style="stroke: #A80036; stroke-width: 1.0;"/><line style="stroke: #A80036; stroke-width: 1.0; stroke-dasharray: 2.0,2.0;" x1="186.5" x2="372.5" y1="216.1563" y2="216.1563"/><polygon fill="#A80036" points="356.5,241.2891,366.5,245.2891,356.5,249.2891,360.5,245.2891" style="stroke: #A80036; stroke-width: 1.0;"/><line style="stroke: #A80036; stroke-width: 1.0;" x1="181.5" x2="362.5" y1="245.2891" y2="245.2891"/><text fill="#000000" font-family="sans-serif" font-size="13" lengthAdjust="spacingAndGlyphs" textLength="55" x="188.5" y="240.2231">writeAll()</text><polygon fill="#A80036" points="449.5,270.4219,459.5,274.4219,449.5,278.4219,453.5,274.4219" style="stroke: #A80036; stroke-width: 1.0;"/><line style="stroke: #A80036; stroke-width: 1.0;" x1="378.5" x2="455.5" y1="274.4219" y2="274.4219"/><text fill="#000000" font-family="sans-serif" font-size="13" lengthAdjust="spacingAndGlyphs" textLength="35" x="385.5" y="269.356">new()</text><rect fill="#FEFECE" filter="url(#f95pbv1ykvj57)" height="30.2969" style="stroke: #A80036; stroke-width: 1.5;" width="136" x="461.5" y="253.2891"/><text fill="#000000" font-family="sans-serif" font-size="14" lengthAdjust="spacingAndGlyphs" text-decoration="underline" textLength="122" x="468.5" y="273.2842">:TextReportWriter</text><polygon fill="#A80036" points="389.5,300.5859,379.5,304.5859,389.5,308.5859,385.5,304.5859" style="stroke: #A80036; stroke-width: 1.0;"/><line style="stroke: #A80036; stroke-width: 1.0; stroke-dasharray: 2.0,2.0;" x1="383.5" x2="530.5" y1="304.5859" y2="304.5859"/><polygon fill="#A80036" points="514.5,329.7188,524.5,333.7188,514.5,337.7188,518.5,333.7188" style="stroke: #A80036; stroke-width: 1.0;"/><line style="stroke: #A80036; stroke-width: 1.0;" x1="378.5" x2="520.5" y1="333.7188" y2="333.7188"/><text fill="#000000" font-family="sans-serif" font-size="13" lengthAdjust="spacingAndGlyphs" textLength="129" x="385.5" y="328.6528">setSourceData(site)</text><polygon fill="#A80036" points="389.5,343.7188,379.5,347.7188,389.5,351.7188,385.5,347.7188" style="stroke: #A80036; stroke-width: 1.0;"/><line style="stroke: #A80036; stroke-width: 1.0; stroke-dasharray: 2.0,2.0;" x1="383.5" x2="530.5" y1="347.7188" y2="347.7188"/><polygon fill="#A80036" points="514.5,372.8516,524.5,376.8516,514.5,380.8516,518.5,376.8516" style="stroke: #A80036; stroke-width: 1.0;"/><line style="stroke: #A80036; stroke-width: 1.0;" x1="378.5" x2="520.5" y1="376.8516" y2="376.8516"/><text fill="#000000" font-family="sans-serif" font-size="13" lengthAdjust="spacingAndGlyphs" textLength="113" x="385.5" y="371.7856">setBaseName(...)</text><polygon fill="#A80036" points="389.5,386.8516,379.5,390.8516,389.5,394.8516,385.5,390.8516" style="stroke: #A80036; stroke-width: 1.0;"/><line style="stroke: #A80036; stroke-width: 1.0; stroke-dasharray: 2.0,2.0;" x1="383.5" x2="530.5" y1="390.8516" y2="390.8516"/><polygon fill="#A80036" points="514.5,415.9844,524.5,419.9844,514.5,423.9844,518.5,419.9844" style="stroke: #A80036; stroke-width: 1.0;"/><line style="stroke: #A80036; stroke-width: 1.0;" x1="378.5" x2="520.5" y1="419.9844" y2="419.9844"/><text fill="#000000" font-family="sans-serif" font-size="13" lengthAdjust="spacingAndGlyphs" textLength="40" x="385.5" y="414.9185">write()</text><polygon fill="#A80036" points="389.5,429.9844,379.5,433.9844,389.5,437.9844,385.5,433.9844" style="stroke: #A80036; stroke-width: 1.0;"/><line style="stroke: #A80036; stroke-width: 1.0; stroke-dasharray: 2.0,2.0;" x1="383.5" x2="530.5" y1="433.9844" y2="433.9844"/><polygon fill="#A80036" points="519.5,459.1172,529.5,463.1172,519.5,467.1172,523.5,463.1172" style="stroke: #A80036; stroke-width: 1.0;"/><line style="stroke: #A80036; stroke-width: 1.0;" x1="378.5" x2="525.5" y1="463.1172" y2="463.1172"/><text fill="#000000" font-family="sans-serif" font-size="13" lengthAdjust="spacingAndGlyphs" textLength="40" x="385.5" y="458.0513">delete</text><line style="stroke: #A80036; stroke-width: 2.0;" x1="522.5" x2="540.5" y1="454.1172" y2="472.1172"/><line style="stroke: #A80036; stroke-width: 2.0;" x1="522.5" x2="540.5" y1="472.1172" y2="454.1172"/><polygon fill="#A80036" points="599.5,488.25,609.5,492.25,599.5,496.25,603.5,492.25" style="stroke: #A80036; stroke-width: 1.0;"/><line style="stroke: #A80036; stroke-width: 1.0;" x1="378.5" x2="605.5" y1="492.25" y2="492.25"/><text fill="#000000" font-family="sans-serif" font-size="13" lengthAdjust="spacingAndGlyphs" textLength="35" x="385.5" y="487.1841">new()</text><rect fill="#FEFECE" filter="url(#f95pbv1ykvj57)" height="30.2969" style="stroke: #A80036; stroke-width: 1.5;" width="139" x="611.5" y="471.1172"/><text fill="#000000" font-family="sans-serif" font-size="14" lengthAdjust="spacingAndGlyphs" text-decoration="underline" textLength="125" x="618.5" y="491.1123">:JSONReportWriter</text><polygon fill="#A80036" points="389.5,518.4141,379.5,522.4141,389.5,526.4141,385.5,522.4141" style="stroke: #A80036; stroke-width: 1.0;"/><line style="stroke: #A80036; stroke-width: 1.0; stroke-dasharray: 2.0,2.0;" x1="383.5" x2="682" y1="522.4141" y2="522.4141"/><polygon fill="#A80036" points="666,547.5469,676,551.5469,666,555.5469,670,551.5469" style="stroke: #A80036; stroke-width: 1.0;"/><line style="stroke: #A80036; stroke-width: 1.0;" x1="378.5" x2="672" y1="551.5469" y2="551.5469"/><text fill="#000000" font-family="sans-serif" font-size="13" lengthAdjust="spacingAndGlyphs" textLength="129" x="385.5" y="546.481">setSourceData(site)</text><polygon fill="#A80036" points="389.5,561.5469,379.5,565.5469,389.5,569.5469,385.5,565.5469" style="stroke: #A80036; stroke-width: 1.0;"/><line style="stroke: #A80036; stroke-width: 1.0; stroke-dasharray: 2.0,2.0;" x1="383.5" x2="682" y1="565.5469" y2="565.5469"/><polygon fill="#A80036" points="666,590.6797,676,594.6797,666,598.6797,670,594.6797" style="stroke: #A80036; stroke-width: 1.0;"/><line style="stroke: #A80036; stroke-width: 1.0;" x1="378.5" x2="672" y1="594.6797" y2="594.6797"/><text fill="#000000" font-family="sans-serif" font-size="13" lengthAdjust="spacingAndGlyphs" textLength="113" x="385.5" y="589.6138">setBaseName(...)</text><polygon fill="#A80036" points="389.5,604.6797,379.5,608.6797,389.5,612.6797,385.5,608.6797" style="stroke: #A80036; stroke-width: 1.0;"/><line style="stroke: #A80036; stroke-width: 1.0; stroke-dasharray: 2.0,2.0;" x1="383.5" x2="682" y1="608.6797" y2="608.6797"/><polygon fill="#A80036" points="666,633.8125,676,637.8125,666,641.8125,670,637.8125" style="stroke: #A80036; stroke-width: 1.0;"/><line style="stroke: #A80036; stroke-width: 1.0;" x1="378.5" x2="672" y1="637.8125" y2="637.8125"/><text fill="#000000" font-family="sans-serif" font-size="13" lengthAdjust="spacingAndGlyphs" textLength="40" x="385.5" y="632.7466">write()</text><polygon fill="#A80036" points="389.5,647.8125,379.5,651.8125,389.5,655.8125,385.5,651.8125" style="stroke: #A80036; stroke-width: 1.0;"/><line style="stroke: #A80036; stroke-width: 1.0; stroke-dasharray: 2.0,2.0;" x1="383.5" x2="682" y1="651.8125" y2="651.8125"/><polygon fill="#A80036" points="671,676.9453,681,680.9453,671,684.9453,675,680.9453" style="stroke: #A80036; stroke-width: 1.0;"/><line style="stroke: #A80036; stroke-width: 1.0;" x1="378.5" x2="677" y1="680.9453" y2="680.9453"/><text fill="#000000" font-family="sans-serif" font-size="13" lengthAdjust="spacingAndGlyphs" textLength="40" x="385.5" y="675.8794">delete</text><line style="stroke: #A80036; stroke-width: 2.0;" x1="674" x2="692" y1="671.9453" y2="689.9453"/><line style="stroke: #A80036; stroke-width: 2.0;" x1="674" x2="692" y1="689.9453" y2="671.9453"/><polygon fill="#A80036" points="752.5,706.0781,762.5,710.0781,752.5,714.0781,756.5,710.0781" style="stroke: #A80036; stroke-width: 1.0;"/><line style="stroke: #A80036; stroke-width: 1.0;" x1="378.5" x2="758.5" y1="710.0781" y2="710.0781"/><text fill="#000000" font-family="sans-serif" font-size="13" lengthAdjust="spacingAndGlyphs" textLength="35" x="385.5" y="705.0122">new()</text><rect fill="#FEFECE" filter="url(#f95pbv1ykvj57)" height="30.2969" style="stroke: #A80036; stroke-width: 1.5;" width="142" x="764.5" y="688.9453"/><text fill="#000000" font-family="sans-serif" font-size="14" lengthAdjust="spacingAndGlyphs" text-decoration="underline" textLength="128" x="771.5" y="708.9404">:ExcelReportWriter</text><polygon fill="#A80036" points="389.5,736.2422,379.5,740.2422,389.5,744.2422,385.5,740.2422" style="stroke: #A80036; stroke-width: 1.0;"/><line style="stroke: #A80036; stroke-width: 1.0; stroke-dasharray: 2.0,2.0;" x1="383.5" x2="836.5" y1="740.2422" y2="740.2422"/><polygon fill="#A80036" points="820.5,765.375,830.5,769.375,820.5,773.375,824.5,769.375" style="stroke: #A80036; stroke-width: 1.0;"/><line style="stroke: #A80036; stroke-width: 1.0;" x1="378.5" x2="826.5" y1="769.375" y2="769.375"/><text fill="#000000" font-family="sans-serif" font-size="13" lengthAdjust="spacingAndGlyphs" textLength="129" x="385.5" y="764.3091">setSourceData(site)</text><polygon fill="#A80036" points="389.5,779.375,379.5,783.375,389.5,787.375,385.5,783.375" style="stroke: #A80036; stroke-width: 1.0;"/><line style="stroke: #A80036; stroke-width: 1.0; stroke-dasharray: 2.0,2.0;" x1="383.5" x2="836.5" y1="783.375" y2="783.375"/><polygon fill="#A80036" points="820.5,808.5078,830.5,812.5078,820.5,816.5078,824.5,812.5078" style="stroke: #A80036; stroke-width: 1.0;"/><line style="stroke: #A80036; stroke-width: 1.0;" x1="378.5" x2="826.5" y1="812.5078" y2="812.5078"/><text fill="#000000" font-family="sans-serif" font-size="13" lengthAdjust="spacingAndGlyphs" textLength="113" x="385.5" y="807.4419">setBaseName(...)</text><polygon fill="#A80036" points="389.5,822.5078,379.5,826.5078,389.5,830.5078,385.5,826.5078" style="stroke: #A80036; stroke-width: 1.0;"/><line style="stroke: #A80036; stroke-width: 1.0; stroke-dasharray: 2.0,2.0;" x1="383.5" x2="836.5" y1="826.5078" y2="826.5078"/><polygon fill="#A80036" points="820.5,851.6406,830.5,855.6406,820.5,859.6406,824.5,855.6406" style="stroke: #A80036; stroke-width: 1.0;"/><line style="stroke: #A80036; stroke-width: 1.0;" x1="378.5" x2="826.5" y1="855.6406" y2="855.6406"/><text fill="#000000" font-family="sans-serif" font-size="13" lengthAdjust="spacingAndGlyphs" textLength="40" x="385.5" y="850.5747">write()</text><polygon fill="#A80036" points="389.5,865.6406,379.5,869.6406,389.5,873.6406,385.5,869.6406" style="stroke: #A80036; stroke-width: 1.0;"/><line style="stroke: #A80036; stroke-width: 1.0; stroke-dasharray: 2.0,2.0;" x1="383.5" x2="836.5" y1="869.6406" y2="869.6406"/><polygon fill="#A80036" points="825.5,894.7734,835.5,898.7734,825.5,902.7734,829.5,898.7734" style="stroke: #A80036; stroke-width: 1.0;"/><line style="stroke: #A80036; stroke-width: 1.0;" x1="378.5" x2="831.5" y1="898.7734" y2="898.7734"/><text fill="#000000" font-family="sans-serif" font-size="13" lengthAdjust="spacingAndGlyphs" textLength="40" x="385.5" y="893.7075">delete</text><line style="stroke: #A80036; stroke-width: 2.0;" x1="828.5" x2="846.5" y1="889.7734" y2="907.7734"/><line style="stroke: #A80036; stroke-width: 2.0;" x1="828.5" x2="846.5" y1="907.7734" y2="889.7734"/><polygon fill="#A80036" points="192.5,908.7734,182.5,912.7734,192.5,916.7734,188.5,912.7734" style="stroke: #A80036; stroke-width: 1.0;"/><line style="stroke: #A80036; stroke-width: 1.0; stroke-dasharray: 2.0,2.0;" x1="186.5" x2="372.5" y1="912.7734" y2="912.7734"/><polygon fill="#A80036" points="356.5,937.9063,366.5,941.9063,356.5,945.9063,360.5,941.9063" style="stroke: #A80036; stroke-width: 1.0;"/><line style="stroke: #A80036; stroke-width: 1.0;" x1="181.5" x2="362.5" y1="941.9063" y2="941.9063"/><text fill="#000000" font-family="sans-serif" font-size="13" lengthAdjust="spacingAndGlyphs" textLength="140" x="188.5" y="936.8403">writeReportNames(...)</text><polygon fill="#A80036" points="192.5,951.9063,182.5,955.9063,192.5,959.9063,188.5,955.9063" style="stroke: #A80036; stroke-width: 1.0;"/><line style="stroke: #A80036; stroke-width: 1.0; stroke-dasharray: 2.0,2.0;" x1="186.5" x2="372.5" y1="955.9063" y2="955.9063"/><!--
@startuml sequence_03.svg
autoactivate on
hide footbox
skinparam backgroundColor #FFFFFF
skinparam sequenceParticipant underline

title Report Generation: High-Level View

participant "site:Website" as site
participant ":WebAnalysis" as driver
activate driver


create ":ReportManager" as manager

driver -> manager: new()
return
driver -> manager: setSourceData(site)
return

driver -> manager: determineBaseFileName()
return

driver -> manager: writeAll()
    create ":TextReportWriter" as textWriter
    manager -> textWriter: new()
    return
    manager -> textWriter: setSourceData(site)
    return
    manager -> textWriter: setBaseName(...)
    return
    manager -> textWriter: write()
    return
    manager -> textWriter !!: delete

    create ":JSONReportWriter" as jsonWriter
    manager -> jsonWriter: new()
    return
    manager -> jsonWriter: setSourceData(site)
    return
    manager -> jsonWriter: setBaseName(...)
    return
    manager -> jsonWriter: write()
    return
    manager -> jsonWriter !!: delete

    create ":ExcelReportWriter" as excelWriter
    manager -> excelWriter: new()
    return
    manager -> excelWriter: setSourceData(site)
    return
    manager -> excelWriter: setBaseName(...)
    return
    manager -> excelWriter: write()
    return
    manager -> excelWriter !!: delete
return

driver -> manager: writeReportNames(...)
return

@enduml

PlantUML version 1.2019.09(Mon Aug 26 12:19:51 EDT 2019)
(GPL source distribution)
Java Runtime: OpenJDK Runtime Environment
JVM: OpenJDK 64-Bit Server VM
Java Version: 11.0.14+9-Ubuntu-0ubuntu2.16.04
Operating System: Linux
OS Version: 4.4.0-241-generic
Default Encoding: UTF-8
Language: en
Country: US
--></g></svg>