<?xml version="1.0" encoding="UTF-8" standalone="no"?><svg xmlns="http://www.w3.org/2000/svg" xmlns:xlink="http://www.w3.org/1999/xlink" contentScriptType="application/ecmascript" contentStyleType="text/css" height="1292px" preserveAspectRatio="none" style="width:1104px;height:1292px;" version="1.1" viewBox="0 0 1104 1292" width="1104px" zoomAndPan="magnify"><defs><filter height="300%" id="f1mtt6vyfm4wqg" width="300%" x="-1" y="-1"><feGaussianBlur result="blurOut" stdDeviation="2.0"/><feColorMatrix in="blurOut" result="blurOut2" type="matrix" values="0 0 0 0 0 0 0 0 0 0 0 0 0 0 0 0 0 0 .4 0"/><feOffset dx="4.0" dy="4.0" in="blurOut2" result="blurOut3"/><feBlend in="SourceGraphic" in2="blurOut3" mode="normal"/></filter></defs><g><text fill="#000000" font-family="sans-serif" font-size="14" font-weight="bold" lengthAdjust="spacingAndGlyphs" textLength="361" x="372.75" y="22.9951">Data Analysis and Extraction: High-Level View</text><rect fill="#FFFFFF" filter="url(#f1mtt6vyfm4wqg)" height="1193.2734" style="stroke: #A80036; stroke-width: 1.0;" width="10" x="57.5" y="78.5938"/><rect fill="#FFFFFF" filter="url(#f1mtt6vyfm4wqg)" height="20.1641" style="stroke: #A80036; stroke-width: 1.0;" width="10" x="185.5" y="109.7266"/><rect fill="#FFFFFF" filter="url(#f1mtt6vyfm4wqg)" height="14" style="stroke: #A80036; stroke-width: 1.0;" width="10" x="185.5" y="159.0234"/><rect fill="#FFFFFF" filter="url(#f1mtt6vyfm4wqg)" height="14" style="stroke: #A80036; stroke-width: 1.0;" width="10" x="185.5" y="202.1563"/><rect fill="#FFFFFF" filter="url(#f1mtt6vyfm4wqg)" height="988.4453" style="stroke: #A80036; stroke-width: 1.0;" width="10" x="185.5" y="245.2891"/><rect fill="#FFFFFF" filter="url(#f1mtt6vyfm4wqg)" height="40.1328" style="stroke: #A80036; stroke-width: 1.0;" width="10" x="190.5" y="282.4219"/><rect fill="#FFFFFF" filter="url(#f1mtt6vyfm4wqg)" height="40.1328" style="stroke: #A80036; stroke-width: 1.0;" width="10" x="190.5" y="366.6875"/><rect fill="#FFFFFF" filter="url(#f1mtt6vyfm4wqg)" height="20.1641" style="stroke: #A80036; stroke-width: 1.0;" width="10" x="382.5" y="452.9531"/><rect fill="#FFFFFF" filter="url(#f1mtt6vyfm4wqg)" height="14" style="stroke: #A80036; stroke-width: 1.0;" width="10" x="382.5" y="1183.6016"/><rect fill="#FFFFFF" filter="url(#f1mtt6vyfm4wqg)" height="20.1641" style="stroke: #A80036; stroke-width: 1.0;" width="10" x="512.5" y="536.3828"/><rect fill="#FFFFFF" filter="url(#f1mtt6vyfm4wqg)" height="20.1641" style="stroke: #A80036; stroke-width: 1.0;" width="10" x="679.5" y="595.6797"/><rect fill="#FFFFFF" filter="url(#f1mtt6vyfm4wqg)" height="14" style="stroke: #A80036; stroke-width: 1.0;" width="10" x="679.5" y="644.9766"/><rect fill="#FFFFFF" filter="url(#f1mtt6vyfm4wqg)" height="290.5313" style="stroke: #A80036; stroke-width: 1.0;" width="10" x="679.5" y="688.1094"/><rect fill="#FFFFFF" filter="url(#f1mtt6vyfm4wqg)" height="25" style="stroke: #A80036; stroke-width: 1.0;" width="10" x="684.5" y="725.2422"/><rect fill="#FFFFFF" filter="url(#f1mtt6vyfm4wqg)" height="25" style="stroke: #A80036; stroke-width: 1.0;" width="10" x="684.5" y="794.375"/><rect fill="#FFFFFF" filter="url(#f1mtt6vyfm4wqg)" height="25" style="stroke: #A80036; stroke-width: 1.0;" width="10" x="684.5" y="863.5078"/><rect fill="#FFFFFF" filter="url(#f1mtt6vyfm4wqg)" height="25" style="stroke: #A80036; stroke-width: 1.0;" width="10" x="684.5" y="932.6406"/><rect fill="#FFFFFF" filter="url(#f1mtt6vyfm4wqg)" height="88.4297" style="stroke: #A80036; stroke-width: 1.0;" width="10" x="679.5" y="1007.7734"/><rect fill="#FFFFFF" filter="url(#f1mtt6vyfm4wqg)" height="20.1641" style="stroke: #A80036; stroke-width: 1.0;" width="10" x="998.5" y="1046.9063"/><rect fill="#FEFECE" filter="url(#f1mtt6vyfm4wqg)" height="30.2969" style="stroke: #A80036; stroke-width: 1.5;" width="123" x="127" y="78.5938"/><text fill="#000000" font-family="sans-serif" font-size="14" lengthAdjust="spacingAndGlyphs" text-decoration="underline" textLength="109" x="134" y="98.5889">:WebsiteBuilder</text><rect fill="#FEFECE" filter="url(#f1mtt6vyfm4wqg)" height="30.2969" style="stroke: #A80036; stroke-width: 1.5;" width="104" x="333.5" y="421.8203"/><text fill="#000000" font-family="sans-serif" font-size="14" lengthAdjust="spacingAndGlyphs" text-decoration="underline" textLength="90" x="340.5" y="441.8154">site: Website</text><rect fill="#FFFFFF" filter="url(#f1mtt6vyfm4wqg)" height="717.4844" style="stroke: #000000; stroke-width: 2.0;" width="976.5" x="117" y="488.1172"/><rect fill="#FEFECE" filter="url(#f1mtt6vyfm4wqg)" height="30.2969" style="stroke: #A80036; stroke-width: 1.5;" width="128" x="451.5" y="505.25"/><text fill="#000000" font-family="sans-serif" font-size="14" lengthAdjust="spacingAndGlyphs" text-decoration="underline" textLength="114" x="458.5" y="525.2451">:BufferedReader</text><rect fill="#FEFECE" filter="url(#f1mtt6vyfm4wqg)" height="30.2969" style="stroke: #A80036; stroke-width: 1.5;" width="178" x="593.5" y="564.5469"/><text fill="#000000" font-family="sans-serif" font-size="14" lengthAdjust="spacingAndGlyphs" text-decoration="underline" textLength="164" x="600.5" y="584.542">:HTMLDocumentBuilder</text><rect fill="#FEFECE" filter="url(#f1mtt6vyfm4wqg)" height="30.2969" style="stroke: #A80036; stroke-width: 1.5;" width="156" x="923.5" y="1015.7734"/><text fill="#000000" font-family="sans-serif" font-size="14" lengthAdjust="spacingAndGlyphs" text-decoration="underline" textLength="142" x="930.5" y="1035.7686">doc:HTMLDocument</text><line style="stroke: #A80036; stroke-width: 1.0; stroke-dasharray: 5.0,5.0;" x1="62" x2="62" y1="68.5938" y2="1280.8672"/><line style="stroke: #A80036; stroke-width: 1.0; stroke-dasharray: 5.0,5.0;" x1="190" x2="190" y1="111.2422" y2="1280.8672"/><line style="stroke: #A80036; stroke-width: 1.0; stroke-dasharray: 5.0,5.0;" x1="387.5" x2="387.5" y1="454.4688" y2="1280.8672"/><line style="stroke: #A80036; stroke-width: 1.0; stroke-dasharray: 5.0,5.0;" x1="517.5" x2="517.5" y1="537.8984" y2="1280.8672"/><line style="stroke: #A80036; stroke-width: 1.0; stroke-dasharray: 5.0,5.0;" x1="684.5" x2="684.5" y1="597.1953" y2="1280.8672"/><line style="stroke: #A80036; stroke-width: 1.0; stroke-dasharray: 5.0,5.0;" x1="1003.5" x2="1003.5" y1="1048.4219" y2="1280.8672"/><rect fill="#FEFECE" filter="url(#f1mtt6vyfm4wqg)" height="30.2969" style="stroke: #A80036; stroke-width: 1.5;" width="105" x="8" y="33.2969"/><text fill="#000000" font-family="sans-serif" font-size="14" lengthAdjust="spacingAndGlyphs" text-decoration="underline" textLength="91" x="15" y="53.292">:WebAnalysis</text><rect fill="#FFFFFF" filter="url(#f1mtt6vyfm4wqg)" height="1193.2734" style="stroke: #A80036; stroke-width: 1.0;" width="10" x="57.5" y="78.5938"/><rect fill="#FFFFFF" filter="url(#f1mtt6vyfm4wqg)" height="20.1641" style="stroke: #A80036; stroke-width: 1.0;" width="10" x="185.5" y="109.7266"/><rect fill="#FFFFFF" filter="url(#f1mtt6vyfm4wqg)" height="14" style="stroke: #A80036; stroke-width: 1.0;" width="10" x="185.5" y="159.0234"/><rect fill="#FFFFFF" filter="url(#f1mtt6vyfm4wqg)" height="14" style="stroke: #A80036; stroke-width: 1.0;" width="10" x="185.5" y="202.1563"/><rect fill="#FFFFFF" filter="url(#f1mtt6vyfm4wqg)" height="988.4453" style="stroke: #A80036; stroke-width: 1.0;" width="10" x="185.5" y="245.2891"/><rect fill="#FFFFFF" filter="url(#f1mtt6vyfm4wqg)" height="40.1328" style="stroke: #A80036; stroke-width: 1.0;" width="10" x="190.5" y="282.4219"/><rect fill="#FFFFFF" filter="url(#f1mtt6vyfm4wqg)" height="40.1328" style="stroke: #A80036; stroke-width: 1.0;" width="10" x="190.5" y="366.6875"/><rect fill="#FFFFFF" filter="url(#f1mtt6vyfm4wqg)" height="20.1641" style="stroke: #A80036; stroke-width: 1.0;" width="10" x="382.5" y="452.9531"/><rect fill="#FFFFFF" filter="url(#f1mtt6vyfm4wqg)" height="14" style="stroke: #A80036; stroke-width: 1.0;" width="10" x="382.5" y="1183.6016"/><rect fill="#FFFFFF" filter="url(#f1mtt6vyfm4wqg)" height="20.1641" style="stroke: #A80036; stroke-width: 1.0;" width="10" x="512.5" y="536.3828"/><rect fill="#FFFFFF" filter="url(#f1mtt6vyfm4wqg)" height="20.1641" style="stroke: #A80036; stroke-width: 1.0;" width="10" x="679.5" y="595.6797"/><rect fill="#FFFFFF" filter="url(#f1mtt6vyfm4wqg)" height="14" style="stroke: #A80036; stroke-width: 1.0;" width="10" x="679.5" y="644.9766"/><rect fill="#FFFFFF" filter="url(#f1mtt6vyfm4wqg)" height="290.5313" style="stroke: #A80036; stroke-width: 1.0;" width="10" x="679.5" y="688.1094"/><rect fill="#FFFFFF" filter="url(#f1mtt6vyfm4wqg)" height="25" style="stroke: #A80036; stroke-width: 1.0;" width="10" x="684.5" y="725.2422"/><rect fill="#FFFFFF" filter="url(#f1mtt6vyfm4wqg)" height="25" style="stroke: #A80036; stroke-width: 1.0;" width="10" x="684.5" y="794.375"/><rect fill="#FFFFFF" filter="url(#f1mtt6vyfm4wqg)" height="25" style="stroke: #A80036; stroke-width: 1.0;" width="10" x="684.5" y="863.5078"/><rect fill="#FFFFFF" filter="url(#f1mtt6vyfm4wqg)" height="25" style="stroke: #A80036; stroke-width: 1.0;" width="10" x="684.5" y="932.6406"/><rect fill="#FFFFFF" filter="url(#f1mtt6vyfm4wqg)" height="88.4297" style="stroke: #A80036; stroke-width: 1.0;" width="10" x="679.5" y="1007.7734"/><rect fill="#FFFFFF" filter="url(#f1mtt6vyfm4wqg)" height="20.1641" style="stroke: #A80036; stroke-width: 1.0;" width="10" x="998.5" y="1046.9063"/><polygon fill="#A80036" points="115,95.7266,125,99.7266,115,103.7266,119,99.7266" style="stroke: #A80036; stroke-width: 1.0;"/><line style="stroke: #A80036; stroke-width: 1.0;" x1="67.5" x2="121" y1="99.7266" y2="99.7266"/><text fill="#000000" font-family="sans-serif" font-size="13" lengthAdjust="spacingAndGlyphs" textLength="35" x="74.5" y="94.6606">new()</text><rect fill="#FEFECE" filter="url(#f1mtt6vyfm4wqg)" height="30.2969" style="stroke: #A80036; stroke-width: 1.5;" width="123" x="127" y="78.5938"/><text fill="#000000" font-family="sans-serif" font-size="14" lengthAdjust="spacingAndGlyphs" text-decoration="underline" textLength="109" x="134" y="98.5889">:WebsiteBuilder</text><polygon fill="#A80036" points="78.5,125.8906,68.5,129.8906,78.5,133.8906,74.5,129.8906" style="stroke: #A80036; stroke-width: 1.0;"/><line style="stroke: #A80036; stroke-width: 1.0; stroke-dasharray: 2.0,2.0;" x1="72.5" x2="189.5" y1="129.8906" y2="129.8906"/><polygon fill="#A80036" points="173.5,155.0234,183.5,159.0234,173.5,163.0234,177.5,159.0234" style="stroke: #A80036; stroke-width: 1.0;"/><line style="stroke: #A80036; stroke-width: 1.0;" x1="67.5" x2="179.5" y1="159.0234" y2="159.0234"/><text fill="#000000" font-family="sans-serif" font-size="13" lengthAdjust="spacingAndGlyphs" textLength="93" x="74.5" y="153.9575">withPath(path)</text><polygon fill="#A80036" points="78.5,169.0234,68.5,173.0234,78.5,177.0234,74.5,173.0234" style="stroke: #A80036; stroke-width: 1.0;"/><line style="stroke: #A80036; stroke-width: 1.0; stroke-dasharray: 2.0,2.0;" x1="72.5" x2="189.5" y1="173.0234" y2="173.0234"/><polygon fill="#A80036" points="173.5,198.1563,183.5,202.1563,173.5,206.1563,177.5,202.1563" style="stroke: #A80036; stroke-width: 1.0;"/><line style="stroke: #A80036; stroke-width: 1.0;" x1="67.5" x2="179.5" y1="202.1563" y2="202.1563"/><text fill="#000000" font-family="sans-serif" font-size="13" lengthAdjust="spacingAndGlyphs" textLength="90" x="74.5" y="197.0903">withURLs(urls)</text><polygon fill="#A80036" points="78.5,212.1563,68.5,216.1563,78.5,220.1563,74.5,216.1563" style="stroke: #A80036; stroke-width: 1.0;"/><line style="stroke: #A80036; stroke-width: 1.0; stroke-dasharray: 2.0,2.0;" x1="72.5" x2="189.5" y1="216.1563" y2="216.1563"/><polygon fill="#A80036" points="173.5,241.2891,183.5,245.2891,173.5,249.2891,177.5,245.2891" style="stroke: #A80036; stroke-width: 1.0;"/><line style="stroke: #A80036; stroke-width: 1.0;" x1="67.5" x2="179.5" y1="245.2891" y2="245.2891"/><text fill="#000000" font-family="sans-serif" font-size="13" lengthAdjust="spacingAndGlyphs" textLength="40" x="74.5" y="240.2231">build()</text><line style="stroke: #A80036; stroke-width: 1.0;" x1="195.5" x2="242.5" y1="269.4219" y2="269.4219"/><line style="stroke: #A80036; stroke-width: 1.0;" x1="242.5" x2="242.5" y1="269.4219" y2="282.4219"/><line style="stroke: #A80036; stroke-width: 1.0;" x1="201.5" x2="242.5" y1="282.4219" y2="282.4219"/><polygon fill="#A80036" points="211.5,278.4219,201.5,282.4219,211.5,286.4219,207.5,282.4219" style="stroke: #A80036; stroke-width: 1.0;"/><text fill="#000000" font-family="sans-serif" font-size="13" lengthAdjust="spacingAndGlyphs" textLength="95" x="207.5" y="264.356">walkDirectory()</text><line style="stroke: #A80036; stroke-width: 1.0; stroke-dasharray: 2.0,2.0;" x1="200.5" x2="242.5" y1="321.5547" y2="321.5547"/><line style="stroke: #A80036; stroke-width: 1.0; stroke-dasharray: 2.0,2.0;" x1="242.5" x2="242.5" y1="321.5547" y2="334.5547"/><line style="stroke: #A80036; stroke-width: 1.0; stroke-dasharray: 2.0,2.0;" x1="195.5" x2="242.5" y1="334.5547" y2="334.5547"/><polygon fill="#A80036" points="205.5,330.5547,195.5,334.5547,205.5,338.5547,201.5,334.5547" style="stroke: #A80036; stroke-width: 1.0;"/><text fill="#000000" font-family="sans-serif" font-size="13" lengthAdjust="spacingAndGlyphs" textLength="25" x="207.5" y="316.4888">files</text><line style="stroke: #A80036; stroke-width: 1.0;" x1="195.5" x2="242.5" y1="353.6875" y2="353.6875"/><line style="stroke: #A80036; stroke-width: 1.0;" x1="242.5" x2="242.5" y1="353.6875" y2="366.6875"/><line style="stroke: #A80036; stroke-width: 1.0;" x1="201.5" x2="242.5" y1="366.6875" y2="366.6875"/><polygon fill="#A80036" points="211.5,362.6875,201.5,366.6875,211.5,370.6875,207.5,366.6875" style="stroke: #A80036; stroke-width: 1.0;"/><text fill="#000000" font-family="sans-serif" font-size="13" lengthAdjust="spacingAndGlyphs" textLength="173" x="207.5" y="348.6216">removeNonHTMLFiles(files)</text><line style="stroke: #A80036; stroke-width: 1.0; stroke-dasharray: 2.0,2.0;" x1="200.5" x2="242.5" y1="405.8203" y2="405.8203"/><line style="stroke: #A80036; stroke-width: 1.0; stroke-dasharray: 2.0,2.0;" x1="242.5" x2="242.5" y1="405.8203" y2="418.8203"/><line style="stroke: #A80036; stroke-width: 1.0; stroke-dasharray: 2.0,2.0;" x1="195.5" x2="242.5" y1="418.8203" y2="418.8203"/><polygon fill="#A80036" points="205.5,414.8203,195.5,418.8203,205.5,422.8203,201.5,418.8203" style="stroke: #A80036; stroke-width: 1.0;"/><text fill="#000000" font-family="sans-serif" font-size="13" lengthAdjust="spacingAndGlyphs" textLength="73" x="207.5" y="400.7544">prunedFiles</text><polygon fill="#A80036" points="321.5,438.9531,331.5,442.9531,321.5,446.9531,325.5,442.9531" style="stroke: #A80036; stroke-width: 1.0;"/><line style="stroke: #A80036; stroke-width: 1.0;" x1="195.5" x2="327.5" y1="442.9531" y2="442.9531"/><text fill="#000000" font-family="sans-serif" font-size="13" lengthAdjust="spacingAndGlyphs" textLength="104" x="202.5" y="437.8872">new(path, URLs)</text><rect fill="#FEFECE" filter="url(#f1mtt6vyfm4wqg)" height="30.2969" style="stroke: #A80036; stroke-width: 1.5;" width="104" x="333.5" y="421.8203"/><text fill="#000000" font-family="sans-serif" font-size="14" lengthAdjust="spacingAndGlyphs" text-decoration="underline" textLength="90" x="340.5" y="441.8154">site: Website</text><polygon fill="#A80036" points="206.5,469.1172,196.5,473.1172,206.5,477.1172,202.5,473.1172" style="stroke: #A80036; stroke-width: 1.0;"/><line style="stroke: #A80036; stroke-width: 1.0; stroke-dasharray: 2.0,2.0;" x1="200.5" x2="386.5" y1="473.1172" y2="473.1172"/><path d="M117,488.1172 L194,488.1172 L194,495.1172 L184,505.1172 L117,505.1172 L117,488.1172 " fill="#EEEEEE" style="stroke: #000000; stroke-width: 1.0;"/><rect fill="none" height="717.4844" style="stroke: #000000; stroke-width: 2.0;" width="976.5" x="117" y="488.1172"/><text fill="#000000" font-family="sans-serif" font-size="13" font-weight="bold" lengthAdjust="spacingAndGlyphs" textLength="32" x="132" y="501.1841">loop</text><text fill="#000000" font-family="sans-serif" font-size="11" font-weight="bold" lengthAdjust="spacingAndGlyphs" textLength="180" x="209" y="500.3276">[for htmlFile in prunedFiles]</text><polygon fill="#A80036" points="439.5,522.3828,449.5,526.3828,439.5,530.3828,443.5,526.3828" style="stroke: #A80036; stroke-width: 1.0;"/><line style="stroke: #A80036; stroke-width: 1.0;" x1="195.5" x2="445.5" y1="526.3828" y2="526.3828"/><text fill="#000000" font-family="sans-serif" font-size="13" lengthAdjust="spacingAndGlyphs" textLength="85" x="202.5" y="521.3169">new(htmlFile)</text><rect fill="#FEFECE" filter="url(#f1mtt6vyfm4wqg)" height="30.2969" style="stroke: #A80036; stroke-width: 1.5;" width="128" x="451.5" y="505.25"/><text fill="#000000" font-family="sans-serif" font-size="14" lengthAdjust="spacingAndGlyphs" text-decoration="underline" textLength="114" x="458.5" y="525.2451">:BufferedReader</text><polygon fill="#A80036" points="206.5,552.5469,196.5,556.5469,206.5,560.5469,202.5,556.5469" style="stroke: #A80036; stroke-width: 1.0;"/><line style="stroke: #A80036; stroke-width: 1.0; stroke-dasharray: 2.0,2.0;" x1="200.5" x2="516.5" y1="556.5469" y2="556.5469"/><polygon fill="#A80036" points="581.5,581.6797,591.5,585.6797,581.5,589.6797,585.5,585.6797" style="stroke: #A80036; stroke-width: 1.0;"/><line style="stroke: #A80036; stroke-width: 1.0;" x1="195.5" x2="587.5" y1="585.6797" y2="585.6797"/><text fill="#000000" font-family="sans-serif" font-size="13" lengthAdjust="spacingAndGlyphs" textLength="35" x="202.5" y="580.6138">new()</text><rect fill="#FEFECE" filter="url(#f1mtt6vyfm4wqg)" height="30.2969" style="stroke: #A80036; stroke-width: 1.5;" width="178" x="593.5" y="564.5469"/><text fill="#000000" font-family="sans-serif" font-size="14" lengthAdjust="spacingAndGlyphs" text-decoration="underline" textLength="164" x="600.5" y="584.542">:HTMLDocumentBuilder</text><polygon fill="#A80036" points="206.5,611.8438,196.5,615.8438,206.5,619.8438,202.5,615.8438" style="stroke: #A80036; stroke-width: 1.0;"/><line style="stroke: #A80036; stroke-width: 1.0; stroke-dasharray: 2.0,2.0;" x1="200.5" x2="683.5" y1="615.8438" y2="615.8438"/><polygon fill="#A80036" points="667.5,640.9766,677.5,644.9766,667.5,648.9766,671.5,644.9766" style="stroke: #A80036; stroke-width: 1.0;"/><line style="stroke: #A80036; stroke-width: 1.0;" x1="195.5" x2="673.5" y1="644.9766" y2="644.9766"/><text fill="#000000" font-family="sans-serif" font-size="13" lengthAdjust="spacingAndGlyphs" textLength="156" x="202.5" y="639.9106">withContentFrom(buffer)</text><polygon fill="#A80036" points="206.5,654.9766,196.5,658.9766,206.5,662.9766,202.5,658.9766" style="stroke: #A80036; stroke-width: 1.0;"/><line style="stroke: #A80036; stroke-width: 1.0; stroke-dasharray: 2.0,2.0;" x1="200.5" x2="683.5" y1="658.9766" y2="658.9766"/><polygon fill="#A80036" points="667.5,684.1094,677.5,688.1094,667.5,692.1094,671.5,688.1094" style="stroke: #A80036; stroke-width: 1.0;"/><line style="stroke: #A80036; stroke-width: 1.0;" x1="195.5" x2="673.5" y1="688.1094" y2="688.1094"/><text fill="#000000" font-family="sans-serif" font-size="13" lengthAdjust="spacingAndGlyphs" textLength="106" x="202.5" y="683.0435">extractContent()</text><line style="stroke: #A80036; stroke-width: 1.0;" x1="689.5" x2="736.5" y1="712.2422" y2="712.2422"/><line style="stroke: #A80036; stroke-width: 1.0;" x1="736.5" x2="736.5" y1="712.2422" y2="725.2422"/><line style="stroke: #A80036; stroke-width: 1.0;" x1="695.5" x2="736.5" y1="725.2422" y2="725.2422"/><polygon fill="#A80036" points="705.5,721.2422,695.5,725.2422,705.5,729.2422,701.5,725.2422" style="stroke: #A80036; stroke-width: 1.0;"/><text fill="#000000" font-family="sans-serif" font-size="13" lengthAdjust="spacingAndGlyphs" textLength="107" x="701.5" y="707.1763">extractAnchors()</text><line style="stroke: #A80036; stroke-width: 1.0; stroke-dasharray: 2.0,2.0;" x1="694.5" x2="736.5" y1="749.2422" y2="749.2422"/><line style="stroke: #A80036; stroke-width: 1.0; stroke-dasharray: 2.0,2.0;" x1="736.5" x2="736.5" y1="749.2422" y2="762.2422"/><line style="stroke: #A80036; stroke-width: 1.0; stroke-dasharray: 2.0,2.0;" x1="689.5" x2="736.5" y1="762.2422" y2="762.2422"/><polygon fill="#A80036" points="699.5,758.2422,689.5,762.2422,699.5,766.2422,695.5,762.2422" style="stroke: #A80036; stroke-width: 1.0;"/><line style="stroke: #A80036; stroke-width: 1.0;" x1="689.5" x2="736.5" y1="781.375" y2="781.375"/><line style="stroke: #A80036; stroke-width: 1.0;" x1="736.5" x2="736.5" y1="781.375" y2="794.375"/><line style="stroke: #A80036; stroke-width: 1.0;" x1="695.5" x2="736.5" y1="794.375" y2="794.375"/><polygon fill="#A80036" points="705.5,790.375,695.5,794.375,705.5,798.375,701.5,794.375" style="stroke: #A80036; stroke-width: 1.0;"/><text fill="#000000" font-family="sans-serif" font-size="13" lengthAdjust="spacingAndGlyphs" textLength="102" x="701.5" y="776.3091">extractImages()</text><line style="stroke: #A80036; stroke-width: 1.0; stroke-dasharray: 2.0,2.0;" x1="694.5" x2="736.5" y1="818.375" y2="818.375"/><line style="stroke: #A80036; stroke-width: 1.0; stroke-dasharray: 2.0,2.0;" x1="736.5" x2="736.5" y1="818.375" y2="831.375"/><line style="stroke: #A80036; stroke-width: 1.0; stroke-dasharray: 2.0,2.0;" x1="689.5" x2="736.5" y1="831.375" y2="831.375"/><polygon fill="#A80036" points="699.5,827.375,689.5,831.375,699.5,835.375,695.5,831.375" style="stroke: #A80036; stroke-width: 1.0;"/><line style="stroke: #A80036; stroke-width: 1.0;" x1="689.5" x2="736.5" y1="850.5078" y2="850.5078"/><line style="stroke: #A80036; stroke-width: 1.0;" x1="736.5" x2="736.5" y1="850.5078" y2="863.5078"/><line style="stroke: #A80036; stroke-width: 1.0;" x1="695.5" x2="736.5" y1="863.5078" y2="863.5078"/><polygon fill="#A80036" points="705.5,859.5078,695.5,863.5078,705.5,867.5078,701.5,863.5078" style="stroke: #A80036; stroke-width: 1.0;"/><text fill="#000000" font-family="sans-serif" font-size="13" lengthAdjust="spacingAndGlyphs" textLength="99" x="701.5" y="845.4419">extractScripts()</text><line style="stroke: #A80036; stroke-width: 1.0; stroke-dasharray: 2.0,2.0;" x1="694.5" x2="736.5" y1="887.5078" y2="887.5078"/><line style="stroke: #A80036; stroke-width: 1.0; stroke-dasharray: 2.0,2.0;" x1="736.5" x2="736.5" y1="887.5078" y2="900.5078"/><line style="stroke: #A80036; stroke-width: 1.0; stroke-dasharray: 2.0,2.0;" x1="689.5" x2="736.5" y1="900.5078" y2="900.5078"/><polygon fill="#A80036" points="699.5,896.5078,689.5,900.5078,699.5,904.5078,695.5,900.5078" style="stroke: #A80036; stroke-width: 1.0;"/><line style="stroke: #A80036; stroke-width: 1.0;" x1="689.5" x2="736.5" y1="919.6406" y2="919.6406"/><line style="stroke: #A80036; stroke-width: 1.0;" x1="736.5" x2="736.5" y1="919.6406" y2="932.6406"/><line style="stroke: #A80036; stroke-width: 1.0;" x1="695.5" x2="736.5" y1="932.6406" y2="932.6406"/><polygon fill="#A80036" points="705.5,928.6406,695.5,932.6406,705.5,936.6406,701.5,932.6406" style="stroke: #A80036; stroke-width: 1.0;"/><text fill="#000000" font-family="sans-serif" font-size="13" lengthAdjust="spacingAndGlyphs" textLength="132" x="701.5" y="914.5747">extractStyleSheets()</text><line style="stroke: #A80036; stroke-width: 1.0; stroke-dasharray: 2.0,2.0;" x1="694.5" x2="736.5" y1="956.6406" y2="956.6406"/><line style="stroke: #A80036; stroke-width: 1.0; stroke-dasharray: 2.0,2.0;" x1="736.5" x2="736.5" y1="956.6406" y2="969.6406"/><line style="stroke: #A80036; stroke-width: 1.0; stroke-dasharray: 2.0,2.0;" x1="689.5" x2="736.5" y1="969.6406" y2="969.6406"/><polygon fill="#A80036" points="699.5,965.6406,689.5,969.6406,699.5,973.6406,695.5,969.6406" style="stroke: #A80036; stroke-width: 1.0;"/><polygon fill="#A80036" points="206.5,974.6406,196.5,978.6406,206.5,982.6406,202.5,978.6406" style="stroke: #A80036; stroke-width: 1.0;"/><line style="stroke: #A80036; stroke-width: 1.0; stroke-dasharray: 2.0,2.0;" x1="200.5" x2="683.5" y1="978.6406" y2="978.6406"/><polygon fill="#A80036" points="667.5,1003.7734,677.5,1007.7734,667.5,1011.7734,671.5,1007.7734" style="stroke: #A80036; stroke-width: 1.0;"/><line style="stroke: #A80036; stroke-width: 1.0;" x1="195.5" x2="673.5" y1="1007.7734" y2="1007.7734"/><text fill="#000000" font-family="sans-serif" font-size="13" lengthAdjust="spacingAndGlyphs" textLength="40" x="202.5" y="1002.7075">build()</text><polygon fill="#A80036" points="911.5,1032.9063,921.5,1036.9063,911.5,1040.9063,915.5,1036.9063" style="stroke: #A80036; stroke-width: 1.0;"/><line style="stroke: #A80036; stroke-width: 1.0;" x1="689.5" x2="917.5" y1="1036.9063" y2="1036.9063"/><text fill="#000000" font-family="sans-serif" font-size="13" lengthAdjust="spacingAndGlyphs" textLength="210" x="696.5" y="1031.8403">new() [creation details not listed]</text><rect fill="#FEFECE" filter="url(#f1mtt6vyfm4wqg)" height="30.2969" style="stroke: #A80036; stroke-width: 1.5;" width="156" x="923.5" y="1015.7734"/><text fill="#000000" font-family="sans-serif" font-size="14" lengthAdjust="spacingAndGlyphs" text-decoration="underline" textLength="142" x="930.5" y="1035.7686">doc:HTMLDocument</text><polygon fill="#A80036" points="700.5,1063.0703,690.5,1067.0703,700.5,1071.0703,696.5,1067.0703" style="stroke: #A80036; stroke-width: 1.0;"/><line style="stroke: #A80036; stroke-width: 1.0; stroke-dasharray: 2.0,2.0;" x1="694.5" x2="1002.5" y1="1067.0703" y2="1067.0703"/><polygon fill="#A80036" points="206.5,1092.2031,196.5,1096.2031,206.5,1100.2031,202.5,1096.2031" style="stroke: #A80036; stroke-width: 1.0;"/><line style="stroke: #A80036; stroke-width: 1.0; stroke-dasharray: 2.0,2.0;" x1="200.5" x2="683.5" y1="1096.2031" y2="1096.2031"/><text fill="#000000" font-family="sans-serif" font-size="13" lengthAdjust="spacingAndGlyphs" textLength="23" x="212.5" y="1091.1372">doc</text><polygon fill="#A80036" points="505.5,1121.3359,515.5,1125.3359,505.5,1129.3359,509.5,1125.3359" style="stroke: #A80036; stroke-width: 1.0;"/><line style="stroke: #A80036; stroke-width: 1.0;" x1="195.5" x2="511.5" y1="1125.3359" y2="1125.3359"/><text fill="#000000" font-family="sans-serif" font-size="13" lengthAdjust="spacingAndGlyphs" textLength="40" x="202.5" y="1120.27">delete</text><line style="stroke: #A80036; stroke-width: 2.0;" x1="508.5" x2="526.5" y1="1116.3359" y2="1134.3359"/><line style="stroke: #A80036; stroke-width: 2.0;" x1="508.5" x2="526.5" y1="1134.3359" y2="1116.3359"/><polygon fill="#A80036" points="672.5,1150.4688,682.5,1154.4688,672.5,1158.4688,676.5,1154.4688" style="stroke: #A80036; stroke-width: 1.0;"/><line style="stroke: #A80036; stroke-width: 1.0;" x1="195.5" x2="678.5" y1="1154.4688" y2="1154.4688"/><text fill="#000000" font-family="sans-serif" font-size="13" lengthAdjust="spacingAndGlyphs" textLength="40" x="202.5" y="1149.4028">delete</text><line style="stroke: #A80036; stroke-width: 2.0;" x1="675.5" x2="693.5" y1="1145.4688" y2="1163.4688"/><line style="stroke: #A80036; stroke-width: 2.0;" x1="675.5" x2="693.5" y1="1163.4688" y2="1145.4688"/><polygon fill="#A80036" points="370.5,1179.6016,380.5,1183.6016,370.5,1187.6016,374.5,1183.6016" style="stroke: #A80036; stroke-width: 1.0;"/><line style="stroke: #A80036; stroke-width: 1.0;" x1="195.5" x2="376.5" y1="1183.6016" y2="1183.6016"/><text fill="#000000" font-family="sans-serif" font-size="13" lengthAdjust="spacingAndGlyphs" textLength="89" x="202.5" y="1178.5356">addPage(doc)</text><polygon fill="#A80036" points="206.5,1193.6016,196.5,1197.6016,206.5,1201.6016,202.5,1197.6016" style="stroke: #A80036; stroke-width: 1.0;"/><line style="stroke: #A80036; stroke-width: 1.0; stroke-dasharray: 2.0,2.0;" x1="200.5" x2="386.5" y1="1197.6016" y2="1197.6016"/><polygon fill="#A80036" points="78.5,1229.7344,68.5,1233.7344,78.5,1237.7344,74.5,1233.7344" style="stroke: #A80036; stroke-width: 1.0;"/><line style="stroke: #A80036; stroke-width: 1.0; stroke-dasharray: 2.0,2.0;" x1="72.5" x2="189.5" y1="1233.7344" y2="1233.7344"/><text fill="#000000" font-family="sans-serif" font-size="13" lengthAdjust="spacingAndGlyphs" textLength="23" x="84.5" y="1228.6685">site</text><polygon fill="#A80036" points="178.5,1258.8672,188.5,1262.8672,178.5,1266.8672,182.5,1262.8672" style="stroke: #A80036; stroke-width: 1.0;"/><line style="stroke: #A80036; stroke-width: 1.0;" x1="67.5" x2="184.5" y1="1262.8672" y2="1262.8672"/><text fill="#000000" font-family="sans-serif" font-size="13" lengthAdjust="spacingAndGlyphs" textLength="40" x="74.5" y="1257.8013">delete</text><line style="stroke: #A80036; stroke-width: 2.0;" x1="181.5" x2="199.5" y1="1253.8672" y2="1271.8672"/><line style="stroke: #A80036; stroke-width: 2.0;" x1="181.5" x2="199.5" y1="1271.8672" y2="1253.8672"/><!--
@startuml sequence_01.svg
autoactivate on
hide footbox
skinparam backgroundColor #FFFFFF
skinparam sequenceParticipant underline

title Data Analysis and Extraction: High-Level View

participant ":WebAnalysis" as driver
activate driver

create ":WebsiteBuilder" as wb

driver -> wb: new()
return

driver -> wb: withPath(path)
return

driver -> wb: withURLs(urls)
return

driver -> wb: build()
    wb -> wb: walkDirectory()
    return files
    wb -> wb: removeNonHTMLFiles(files)
    return prunedFiles

    create "site: Website" as site
    wb -> site: new(path, URLs)
    return

    loop for htmlFile in prunedFiles
        create ":BufferedReader" as buffer
        wb -> buffer: new(htmlFile)
        return
        create ":HTMLDocumentBuilder" as hb
        wb -> hb: new()
        return
        wb -> hb: withContentFrom(buffer)
        return
        wb -> hb: extractContent()
            hb -> hb: extractAnchors()
            return
            hb -> hb: extractImages()
            return
            hb -> hb: extractScripts()
            return
            hb -> hb: extractStyleSheets()
            return
        return
        wb -> hb: build()
            create "doc:HTMLDocument" as doc
            hb -> doc: new() [creation details not listed]
            return
        return doc 

        wb -> buffer !!: delete
        wb -> hb !!: delete

        wb -> site:addPage(doc)
        return
    end

return site

driver -> wb !!: delete

@enduml

PlantUML version 1.2019.09(Mon Aug 26 12:19:51 EDT 2019)
(GPL source distribution)
Java Runtime: OpenJDK Runtime Environment
JVM: OpenJDK 64-Bit Server VM
Java Version: 11.0.14+9-Ubuntu-0ubuntu2.16.04
Operating System: Linux
OS Version: 4.4.0-241-generic
Default Encoding: UTF-8
Language: en
Country: US
--></g></svg>