<?xml version="1.0" encoding="us-ascii" standalone="no"?><svg xmlns="http://www.w3.org/2000/svg" xmlns:xlink="http://www.w3.org/1999/xlink" contentStyleType="text/css" height="969px" preserveAspectRatio="none" style="width:897px;height:969px;background:#FFFFFF;" version="1.1" viewBox="0 0 897 969" width="897px" zoomAndPan="magnify"><defs/><g><text fill="#000000" font-family="sans-serif" font-size="14" font-weight="bold" lengthAdjust="spacing" textLength="284" x="305.75" y="27.9951">Report Generation: High-Level View</text><rect fill="#FFFFFF" height="870.3125" style="stroke:#181818;stroke-width:1.0;" width="10" x="162.5" y="83.5938"/><rect fill="#FFFFFF" height="16.1641" style="stroke:#181818;stroke-width:1.0;" width="10" x="359.5" y="114.7266"/><rect fill="#FFFFFF" height="14" style="stroke:#181818;stroke-width:1.0;" width="10" x="359.5" y="160.0234"/><rect fill="#FFFFFF" height="14" style="stroke:#181818;stroke-width:1.0;" width="10" x="359.5" y="203.1563"/><rect fill="#FFFFFF" height="655.4844" style="stroke:#181818;stroke-width:1.0;" width="10" x="359.5" y="246.2891"/><rect fill="#FFFFFF" height="14" style="stroke:#181818;stroke-width:1.0;" width="10" x="359.5" y="930.9063"/><rect fill="#FFFFFF" height="16.1641" style="stroke:#181818;stroke-width:1.0;" width="10" x="517.5" y="285.4219"/><rect fill="#FFFFFF" height="14" style="stroke:#181818;stroke-width:1.0;" width="10" x="517.5" y="330.7188"/><rect fill="#FFFFFF" height="14" style="stroke:#181818;stroke-width:1.0;" width="10" x="517.5" y="373.8516"/><rect fill="#FFFFFF" height="14" style="stroke:#181818;stroke-width:1.0;" width="10" x="517.5" y="416.9844"/><rect fill="#FFFFFF" height="16.1641" style="stroke:#181818;stroke-width:1.0;" width="10" x="665" y="499.25"/><rect fill="#FFFFFF" height="14" style="stroke:#181818;stroke-width:1.0;" width="10" x="665" y="544.5469"/><rect fill="#FFFFFF" height="14" style="stroke:#181818;stroke-width:1.0;" width="10" x="665" y="587.6797"/><rect fill="#FFFFFF" height="14" style="stroke:#181818;stroke-width:1.0;" width="10" x="665" y="630.8125"/><rect fill="#FFFFFF" height="16.1641" style="stroke:#181818;stroke-width:1.0;" width="10" x="815.5" y="713.0781"/><rect fill="#FFFFFF" height="14" style="stroke:#181818;stroke-width:1.0;" width="10" x="815.5" y="758.375"/><rect fill="#FFFFFF" height="14" style="stroke:#181818;stroke-width:1.0;" width="10" x="815.5" y="801.5078"/><rect fill="#FFFFFF" height="14" style="stroke:#181818;stroke-width:1.0;" width="10" x="815.5" y="844.6406"/><line style="stroke:#181818;stroke-width:0.5;stroke-dasharray:5.0,5.0;" x1="55" x2="55" y1="73.5938" y2="962.9063"/><line style="stroke:#181818;stroke-width:0.5;stroke-dasharray:5.0,5.0;" x1="167" x2="167" y1="73.5938" y2="962.9063"/><line style="stroke:#181818;stroke-width:0.5;stroke-dasharray:5.0,5.0;" x1="364.5" x2="364.5" y1="114.2422" y2="962.9063"/><line style="stroke:#181818;stroke-width:0.5;stroke-dasharray:5.0,5.0;" x1="522.5" x2="522.5" y1="284.9375" y2="962.9063"/><line style="stroke:#181818;stroke-width:0.5;stroke-dasharray:5.0,5.0;" x1="669.5" x2="669.5" y1="498.7656" y2="962.9063"/><line style="stroke:#181818;stroke-width:0.5;stroke-dasharray:5.0,5.0;" x1="820.5" x2="820.5" y1="712.5938" y2="962.9063"/><rect fill="#E2E2F0" height="30.2969" rx="2.5" ry="2.5" style="stroke:#181818;stroke-width:0.5;" width="100" x="5" y="42.2969"/><text fill="#000000" font-family="sans-serif" font-size="14" lengthAdjust="spacing" text-decoration="underline" textLength="86" x="12" y="62.292">site:Website</text><rect fill="#E2E2F0" height="30.2969" rx="2.5" ry="2.5" style="stroke:#181818;stroke-width:0.5;" width="105" x="115" y="42.2969"/><text fill="#000000" font-family="sans-serif" font-size="14" lengthAdjust="spacing" text-decoration="underline" textLength="91" x="122" y="62.292">:WebAnalysis</text><rect fill="#FFFFFF" height="870.3125" style="stroke:#181818;stroke-width:1.0;" width="10" x="162.5" y="83.5938"/><rect fill="#FFFFFF" height="16.1641" style="stroke:#181818;stroke-width:1.0;" width="10" x="359.5" y="114.7266"/><rect fill="#FFFFFF" height="14" style="stroke:#181818;stroke-width:1.0;" width="10" x="359.5" y="160.0234"/><rect fill="#FFFFFF" height="14" style="stroke:#181818;stroke-width:1.0;" width="10" x="359.5" y="203.1563"/><rect fill="#FFFFFF" height="655.4844" style="stroke:#181818;stroke-width:1.0;" width="10" x="359.5" y="246.2891"/><rect fill="#FFFFFF" height="14" style="stroke:#181818;stroke-width:1.0;" width="10" x="359.5" y="930.9063"/><rect fill="#FFFFFF" height="16.1641" style="stroke:#181818;stroke-width:1.0;" width="10" x="517.5" y="285.4219"/><rect fill="#FFFFFF" height="14" style="stroke:#181818;stroke-width:1.0;" width="10" x="517.5" y="330.7188"/><rect fill="#FFFFFF" height="14" style="stroke:#181818;stroke-width:1.0;" width="10" x="517.5" y="373.8516"/><rect fill="#FFFFFF" height="14" style="stroke:#181818;stroke-width:1.0;" width="10" x="517.5" y="416.9844"/><rect fill="#FFFFFF" height="16.1641" style="stroke:#181818;stroke-width:1.0;" width="10" x="665" y="499.25"/><rect fill="#FFFFFF" height="14" style="stroke:#181818;stroke-width:1.0;" width="10" x="665" y="544.5469"/><rect fill="#FFFFFF" height="14" style="stroke:#181818;stroke-width:1.0;" width="10" x="665" y="587.6797"/><rect fill="#FFFFFF" height="14" style="stroke:#181818;stroke-width:1.0;" width="10" x="665" y="630.8125"/><rect fill="#FFFFFF" height="16.1641" style="stroke:#181818;stroke-width:1.0;" width="10" x="815.5" y="713.0781"/><rect fill="#FFFFFF" height="14" style="stroke:#181818;stroke-width:1.0;" width="10" x="815.5" y="758.375"/><rect fill="#FFFFFF" height="14" style="stroke:#181818;stroke-width:1.0;" width="10" x="815.5" y="801.5078"/><rect fill="#FFFFFF" height="14" style="stroke:#181818;stroke-width:1.0;" width="10" x="815.5" y="844.6406"/><polygon fill="#181818" points="289.5,100.7266,299.5,104.7266,289.5,108.7266,293.5,104.7266" style="stroke:#181818;stroke-width:1.0;"/><line style="stroke:#181818;stroke-width:1.0;" x1="172.5" x2="295.5" y1="104.7266" y2="104.7266"/><text fill="#000000" font-family="sans-serif" font-size="13" lengthAdjust="spacing" textLength="35" x="179.5" y="99.6606">new()</text><rect fill="#E2E2F0" height="30.2969" rx="2.5" ry="2.5" style="stroke:#181818;stroke-width:0.5;" width="126" x="301.5" y="83.5938"/><text fill="#000000" font-family="sans-serif" font-size="14" lengthAdjust="spacing" text-decoration="underline" textLength="112" x="308.5" y="103.5889">:ReportManager</text><polygon fill="#181818" points="183.5,126.8906,173.5,130.8906,183.5,134.8906,179.5,130.8906" style="stroke:#181818;stroke-width:1.0;"/><line style="stroke:#181818;stroke-width:1.0;stroke-dasharray:2.0,2.0;" x1="177.5" x2="363.5" y1="130.8906" y2="130.8906"/><polygon fill="#181818" points="347.5,156.0234,357.5,160.0234,347.5,164.0234,351.5,160.0234" style="stroke:#181818;stroke-width:1.0;"/><line style="stroke:#181818;stroke-width:1.0;" x1="172.5" x2="353.5" y1="160.0234" y2="160.0234"/><text fill="#000000" font-family="sans-serif" font-size="13" lengthAdjust="spacing" textLength="129" x="179.5" y="154.9575">setSourceData(site)</text><polygon fill="#181818" points="183.5,170.0234,173.5,174.0234,183.5,178.0234,179.5,174.0234" style="stroke:#181818;stroke-width:1.0;"/><line style="stroke:#181818;stroke-width:1.0;stroke-dasharray:2.0,2.0;" x1="177.5" x2="363.5" y1="174.0234" y2="174.0234"/><polygon fill="#181818" points="347.5,199.1563,357.5,203.1563,347.5,207.1563,351.5,203.1563" style="stroke:#181818;stroke-width:1.0;"/><line style="stroke:#181818;stroke-width:1.0;" x1="172.5" x2="353.5" y1="203.1563" y2="203.1563"/><text fill="#000000" font-family="sans-serif" font-size="13" lengthAdjust="spacing" textLength="168" x="179.5" y="198.0903">determineBaseFileName()</text><polygon fill="#181818" points="183.5,213.1563,173.5,217.1563,183.5,221.1563,179.5,217.1563" style="stroke:#181818;stroke-width:1.0;"/><line style="stroke:#181818;stroke-width:1.0;stroke-dasharray:2.0,2.0;" x1="177.5" x2="363.5" y1="217.1563" y2="217.1563"/><polygon fill="#181818" points="347.5,242.2891,357.5,246.2891,347.5,250.2891,351.5,246.2891" style="stroke:#181818;stroke-width:1.0;"/><line style="stroke:#181818;stroke-width:1.0;" x1="172.5" x2="353.5" y1="246.2891" y2="246.2891"/><text fill="#000000" font-family="sans-serif" font-size="13" lengthAdjust="spacing" textLength="55" x="179.5" y="241.2231">writeAll()</text><polygon fill="#181818" points="442.5,271.4219,452.5,275.4219,442.5,279.4219,446.5,275.4219" style="stroke:#181818;stroke-width:1.0;"/><line style="stroke:#181818;stroke-width:1.0;" x1="369.5" x2="448.5" y1="275.4219" y2="275.4219"/><text fill="#000000" font-family="sans-serif" font-size="13" lengthAdjust="spacing" textLength="35" x="376.5" y="270.356">new()</text><rect fill="#E2E2F0" height="30.2969" rx="2.5" ry="2.5" style="stroke:#181818;stroke-width:0.5;" width="136" x="454.5" y="254.2891"/><text fill="#000000" font-family="sans-serif" font-size="14" lengthAdjust="spacing" text-decoration="underline" textLength="122" x="461.5" y="274.2842">:TextReportWriter</text><polygon fill="#181818" points="380.5,297.5859,370.5,301.5859,380.5,305.5859,376.5,301.5859" style="stroke:#181818;stroke-width:1.0;"/><line style="stroke:#181818;stroke-width:1.0;stroke-dasharray:2.0,2.0;" x1="374.5" x2="521.5" y1="301.5859" y2="301.5859"/><polygon fill="#181818" points="505.5,326.7188,515.5,330.7188,505.5,334.7188,509.5,330.7188" style="stroke:#181818;stroke-width:1.0;"/><line style="stroke:#181818;stroke-width:1.0;" x1="369.5" x2="511.5" y1="330.7188" y2="330.7188"/><text fill="#000000" font-family="sans-serif" font-size="13" lengthAdjust="spacing" textLength="129" x="376.5" y="325.6528">setSourceData(site)</text><polygon fill="#181818" points="380.5,340.7188,370.5,344.7188,380.5,348.7188,376.5,344.7188" style="stroke:#181818;stroke-width:1.0;"/><line style="stroke:#181818;stroke-width:1.0;stroke-dasharray:2.0,2.0;" x1="374.5" x2="521.5" y1="344.7188" y2="344.7188"/><polygon fill="#181818" points="505.5,369.8516,515.5,373.8516,505.5,377.8516,509.5,373.8516" style="stroke:#181818;stroke-width:1.0;"/><line style="stroke:#181818;stroke-width:1.0;" x1="369.5" x2="511.5" y1="373.8516" y2="373.8516"/><text fill="#000000" font-family="sans-serif" font-size="13" lengthAdjust="spacing" textLength="113" x="376.5" y="368.7856">setBaseName(...)</text><polygon fill="#181818" points="380.5,383.8516,370.5,387.8516,380.5,391.8516,376.5,387.8516" style="stroke:#181818;stroke-width:1.0;"/><line style="stroke:#181818;stroke-width:1.0;stroke-dasharray:2.0,2.0;" x1="374.5" x2="521.5" y1="387.8516" y2="387.8516"/><polygon fill="#181818" points="505.5,412.9844,515.5,416.9844,505.5,420.9844,509.5,416.9844" style="stroke:#181818;stroke-width:1.0;"/><line style="stroke:#181818;stroke-width:1.0;" x1="369.5" x2="511.5" y1="416.9844" y2="416.9844"/><text fill="#000000" font-family="sans-serif" font-size="13" lengthAdjust="spacing" textLength="40" x="376.5" y="411.9185">write()</text><polygon fill="#181818" points="380.5,426.9844,370.5,430.9844,380.5,434.9844,376.5,430.9844" style="stroke:#181818;stroke-width:1.0;"/><line style="stroke:#181818;stroke-width:1.0;stroke-dasharray:2.0,2.0;" x1="374.5" x2="521.5" y1="430.9844" y2="430.9844"/><polygon fill="#181818" points="510.5,456.1172,520.5,460.1172,510.5,464.1172,514.5,460.1172" style="stroke:#181818;stroke-width:1.0;"/><line style="stroke:#181818;stroke-width:1.0;" x1="369.5" x2="516.5" y1="460.1172" y2="460.1172"/><text fill="#000000" font-family="sans-serif" font-size="13" lengthAdjust="spacing" textLength="40" x="376.5" y="455.0513">delete</text><line style="stroke:#A80036;stroke-width:2.0;" x1="513.5" x2="531.5" y1="451.1172" y2="469.1172"/><line style="stroke:#A80036;stroke-width:2.0;" x1="513.5" x2="531.5" y1="469.1172" y2="451.1172"/><polygon fill="#181818" points="588.5,485.25,598.5,489.25,588.5,493.25,592.5,489.25" style="stroke:#181818;stroke-width:1.0;"/><line style="stroke:#181818;stroke-width:1.0;" x1="369.5" x2="594.5" y1="489.25" y2="489.25"/><text fill="#000000" font-family="sans-serif" font-size="13" lengthAdjust="spacing" textLength="35" x="376.5" y="484.1841">new()</text><rect fill="#E2E2F0" height="30.2969" rx="2.5" ry="2.5" style="stroke:#181818;stroke-width:0.5;" width="139" x="600.5" y="468.1172"/><text fill="#000000" font-family="sans-serif" font-size="14" lengthAdjust="spacing" text-decoration="underline" textLength="125" x="607.5" y="488.1123">:JSONReportWriter</text><polygon fill="#181818" points="380.5,511.4141,370.5,515.4141,380.5,519.4141,376.5,515.4141" style="stroke:#181818;stroke-width:1.0;"/><line style="stroke:#181818;stroke-width:1.0;stroke-dasharray:2.0,2.0;" x1="374.5" x2="669" y1="515.4141" y2="515.4141"/><polygon fill="#181818" points="653,540.5469,663,544.5469,653,548.5469,657,544.5469" style="stroke:#181818;stroke-width:1.0;"/><line style="stroke:#181818;stroke-width:1.0;" x1="369.5" x2="659" y1="544.5469" y2="544.5469"/><text fill="#000000" font-family="sans-serif" font-size="13" lengthAdjust="spacing" textLength="129" x="376.5" y="539.481">setSourceData(site)</text><polygon fill="#181818" points="380.5,554.5469,370.5,558.5469,380.5,562.5469,376.5,558.5469" style="stroke:#181818;stroke-width:1.0;"/><line style="stroke:#181818;stroke-width:1.0;stroke-dasharray:2.0,2.0;" x1="374.5" x2="669" y1="558.5469" y2="558.5469"/><polygon fill="#181818" points="653,583.6797,663,587.6797,653,591.6797,657,587.6797" style="stroke:#181818;stroke-width:1.0;"/><line style="stroke:#181818;stroke-width:1.0;" x1="369.5" x2="659" y1="587.6797" y2="587.6797"/><text fill="#000000" font-family="sans-serif" font-size="13" lengthAdjust="spacing" textLength="113" x="376.5" y="582.6138">setBaseName(...)</text><polygon fill="#181818" points="380.5,597.6797,370.5,601.6797,380.5,605.6797,376.5,601.6797" style="stroke:#181818;stroke-width:1.0;"/><line style="stroke:#181818;stroke-width:1.0;stroke-dasharray:2.0,2.0;" x1="374.5" x2="669" y1="601.6797" y2="601.6797"/><polygon fill="#181818" points="653,626.8125,663,630.8125,653,634.8125,657,630.8125" style="stroke:#181818;stroke-width:1.0;"/><line style="stroke:#181818;stroke-width:1.0;" x1="369.5" x2="659" y1="630.8125" y2="630.8125"/><text fill="#000000" font-family="sans-serif" font-size="13" lengthAdjust="spacing" textLength="40" x="376.5" y="625.7466">write()</text><polygon fill="#181818" points="380.5,640.8125,370.5,644.8125,380.5,648.8125,376.5,644.8125" style="stroke:#181818;stroke-width:1.0;"/><line style="stroke:#181818;stroke-width:1.0;stroke-dasharray:2.0,2.0;" x1="374.5" x2="669" y1="644.8125" y2="644.8125"/><polygon fill="#181818" points="658,669.9453,668,673.9453,658,677.9453,662,673.9453" style="stroke:#181818;stroke-width:1.0;"/><line style="stroke:#181818;stroke-width:1.0;" x1="369.5" x2="664" y1="673.9453" y2="673.9453"/><text fill="#000000" font-family="sans-serif" font-size="13" lengthAdjust="spacing" textLength="40" x="376.5" y="668.8794">delete</text><line style="stroke:#A80036;stroke-width:2.0;" x1="661" x2="679" y1="664.9453" y2="682.9453"/><line style="stroke:#A80036;stroke-width:2.0;" x1="661" x2="679" y1="682.9453" y2="664.9453"/><polygon fill="#181818" points="737.5,699.0781,747.5,703.0781,737.5,707.0781,741.5,703.0781" style="stroke:#181818;stroke-width:1.0;"/><line style="stroke:#181818;stroke-width:1.0;" x1="369.5" x2="743.5" y1="703.0781" y2="703.0781"/><text fill="#000000" font-family="sans-serif" font-size="13" lengthAdjust="spacing" textLength="35" x="376.5" y="698.0122">new()</text><rect fill="#E2E2F0" height="30.2969" rx="2.5" ry="2.5" style="stroke:#181818;stroke-width:0.5;" width="142" x="749.5" y="681.9453"/><text fill="#000000" font-family="sans-serif" font-size="14" lengthAdjust="spacing" text-decoration="underline" textLength="128" x="756.5" y="701.9404">:ExcelReportWriter</text><polygon fill="#181818" points="380.5,725.2422,370.5,729.2422,380.5,733.2422,376.5,729.2422" style="stroke:#181818;stroke-width:1.0;"/><line style="stroke:#181818;stroke-width:1.0;stroke-dasharray:2.0,2.0;" x1="374.5" x2="819.5" y1="729.2422" y2="729.2422"/><polygon fill="#181818" points="803.5,754.375,813.5,758.375,803.5,762.375,807.5,758.375" style="stroke:#181818;stroke-width:1.0;"/><line style="stroke:#181818;stroke-width:1.0;" x1="369.5" x2="809.5" y1="758.375" y2="758.375"/><text fill="#000000" font-family="sans-serif" font-size="13" lengthAdjust="spacing" textLength="129" x="376.5" y="753.3091">setSourceData(site)</text><polygon fill="#181818" points="380.5,768.375,370.5,772.375,380.5,776.375,376.5,772.375" style="stroke:#181818;stroke-width:1.0;"/><line style="stroke:#181818;stroke-width:1.0;stroke-dasharray:2.0,2.0;" x1="374.5" x2="819.5" y1="772.375" y2="772.375"/><polygon fill="#181818" points="803.5,797.5078,813.5,801.5078,803.5,805.5078,807.5,801.5078" style="stroke:#181818;stroke-width:1.0;"/><line style="stroke:#181818;stroke-width:1.0;" x1="369.5" x2="809.5" y1="801.5078" y2="801.5078"/><text fill="#000000" font-family="sans-serif" font-size="13" lengthAdjust="spacing" textLength="113" x="376.5" y="796.4419">setBaseName(...)</text><polygon fill="#181818" points="380.5,811.5078,370.5,815.5078,380.5,819.5078,376.5,815.5078" style="stroke:#181818;stroke-width:1.0;"/><line style="stroke:#181818;stroke-width:1.0;stroke-dasharray:2.0,2.0;" x1="374.5" x2="819.5" y1="815.5078" y2="815.5078"/><polygon fill="#181818" points="803.5,840.6406,813.5,844.6406,803.5,848.6406,807.5,844.6406" style="stroke:#181818;stroke-width:1.0;"/><line style="stroke:#181818;stroke-width:1.0;" x1="369.5" x2="809.5" y1="844.6406" y2="844.6406"/><text fill="#000000" font-family="sans-serif" font-size="13" lengthAdjust="spacing" textLength="40" x="376.5" y="839.5747">write()</text><polygon fill="#181818" points="380.5,854.6406,370.5,858.6406,380.5,862.6406,376.5,858.6406" style="stroke:#181818;stroke-width:1.0;"/><line style="stroke:#181818;stroke-width:1.0;stroke-dasharray:2.0,2.0;" x1="374.5" x2="819.5" y1="858.6406" y2="858.6406"/><polygon fill="#181818" points="808.5,883.7734,818.5,887.7734,808.5,891.7734,812.5,887.7734" style="stroke:#181818;stroke-width:1.0;"/><line style="stroke:#181818;stroke-width:1.0;" x1="369.5" x2="814.5" y1="887.7734" y2="887.7734"/><text fill="#000000" font-family="sans-serif" font-size="13" lengthAdjust="spacing" textLength="40" x="376.5" y="882.7075">delete</text><line style="stroke:#A80036;stroke-width:2.0;" x1="811.5" x2="829.5" y1="878.7734" y2="896.7734"/><line style="stroke:#A80036;stroke-width:2.0;" x1="811.5" x2="829.5" y1="896.7734" y2="878.7734"/><polygon fill="#181818" points="183.5,897.7734,173.5,901.7734,183.5,905.7734,179.5,901.7734" style="stroke:#181818;stroke-width:1.0;"/><line style="stroke:#181818;stroke-width:1.0;stroke-dasharray:2.0,2.0;" x1="177.5" x2="363.5" y1="901.7734" y2="901.7734"/><polygon fill="#181818" points="347.5,926.9063,357.5,930.9063,347.5,934.9063,351.5,930.9063" style="stroke:#181818;stroke-width:1.0;"/><line style="stroke:#181818;stroke-width:1.0;" x1="172.5" x2="353.5" y1="930.9063" y2="930.9063"/><text fill="#000000" font-family="sans-serif" font-size="13" lengthAdjust="spacing" textLength="140" x="179.5" y="925.8403">writeReportNames(...)</text><polygon fill="#181818" points="183.5,940.9063,173.5,944.9063,183.5,948.9063,179.5,944.9063" style="stroke:#181818;stroke-width:1.0;"/><line style="stroke:#181818;stroke-width:1.0;stroke-dasharray:2.0,2.0;" x1="177.5" x2="363.5" y1="944.9063" y2="944.9063"/><!--SRC=[bPFTKi8m48NlynGHR_027g0Npk0FEewY8uvSB-qAaJIfcotWszkq_BHGQSbDa-mvcptVJ25b2o6h9J1AQyHSHIY_hEMfNGktK2O1WbXE8LpCoAOckhNQahmSvgkaSFYJeWdn3OXLg18mB3CvabO6XM356kKx9fPOFg110bRM1F9HpUQzProYbfyALq8afGOTfnY32KxzjoF1IR-fIdnvO43_EkLoIKHgYIHsgJPd8K92V-u4nHWlO626b7lYOYz48PQzw-rL80skkbU2a5CoTNM7FBOfXNW735q_u4vT9u-GaU8CoWqu72gD8uYnUzAoegpfGEjC9REro_61QowoJBoYYCBPPN7CnPiclj- -iWtb1PjtJsZh0hPs-fHvmdw_tzQMvsqvdhouy4nrHbLKwJoDNqT7TBwTDVLqzfLcEcNjUNGEd6tfb6tDTFRg_-dShqFKHtZGtzRpAPMQ0LN4vn4wjBP5LF4rCoh9ov2Q_iA2c9_75GDj37y0]--></g></svg>