<?xml version="1.0" encoding="UTF-8" standalone="no"?><svg xmlns="http://www.w3.org/2000/svg" xmlns:xlink="http://www.w3.org/1999/xlink" contentScriptType="application/ecmascript" contentStyleType="text/css" height="942px" preserveAspectRatio="none" style="width:943px;height:942px;" version="1.1" viewBox="0 0 943 942" width="943px" zoomAndPan="magnify"><defs><filter height="300%" id="f1b3mjwjlwk4sq" width="300%" x="-1" y="-1"><feGaussianBlur result="blurOut" stdDeviation="2.0"/><feColorMatrix in="blurOut" result="blurOut2" type="matrix" values="0 0 0 0 0 0 0 0 0 0 0 0 0 0 0 0 0 0 .4 0"/><feOffset dx="4.0" dy="4.0" in="blurOut2" result="blurOut3"/><feBlend in="SourceGraphic" in2="blurOut3" mode="normal"/></filter></defs><g><text fill="#000000" font-family="sans-serif" font-size="14" font-weight="bold" lengthAdjust="spacingAndGlyphs" textLength="361" x="291.75" y="22.9951">Data Analysis and Extraction: High-Level View</text><rect fill="#FFFFFF" filter="url(#f1b3mjwjlwk4sq)" height="843.1797" style="stroke: #A80036; stroke-width: 1.0;" width="10" x="171.5" y="78.5938"/><rect fill="#FFFFFF" filter="url(#f1b3mjwjlwk4sq)" height="20.1641" style="stroke: #A80036; stroke-width: 1.0;" width="10" x="394.5" y="109.7266"/><rect fill="#FFFFFF" filter="url(#f1b3mjwjlwk4sq)" height="14" style="stroke: #A80036; stroke-width: 1.0;" width="10" x="394.5" y="159.0234"/><rect fill="#FFFFFF" filter="url(#f1b3mjwjlwk4sq)" height="667.4844" style="stroke: #A80036; stroke-width: 1.0;" width="10" x="394.5" y="202.1563"/><rect fill="#FFFFFF" filter="url(#f1b3mjwjlwk4sq)" height="14" style="stroke: #A80036; stroke-width: 1.0;" width="10" x="394.5" y="898.7734"/><rect fill="#FFFFFF" filter="url(#f1b3mjwjlwk4sq)" height="20.1641" style="stroke: #A80036; stroke-width: 1.0;" width="10" x="552.5" y="241.2891"/><rect fill="#FFFFFF" filter="url(#f1b3mjwjlwk4sq)" height="14" style="stroke: #A80036; stroke-width: 1.0;" width="10" x="552.5" y="290.5859"/><rect fill="#FFFFFF" filter="url(#f1b3mjwjlwk4sq)" height="14" style="stroke: #A80036; stroke-width: 1.0;" width="10" x="552.5" y="333.7188"/><rect fill="#FFFFFF" filter="url(#f1b3mjwjlwk4sq)" height="14" style="stroke: #A80036; stroke-width: 1.0;" width="10" x="552.5" y="376.8516"/><rect fill="#FFFFFF" filter="url(#f1b3mjwjlwk4sq)" height="20.1641" style="stroke: #A80036; stroke-width: 1.0;" width="10" x="704" y="459.1172"/><rect fill="#FFFFFF" filter="url(#f1b3mjwjlwk4sq)" height="14" style="stroke: #A80036; stroke-width: 1.0;" width="10" x="704" y="508.4141"/><rect fill="#FFFFFF" filter="url(#f1b3mjwjlwk4sq)" height="14" style="stroke: #A80036; stroke-width: 1.0;" width="10" x="704" y="551.5469"/><rect fill="#FFFFFF" filter="url(#f1b3mjwjlwk4sq)" height="14" style="stroke: #A80036; stroke-width: 1.0;" width="10" x="704" y="594.6797"/><rect fill="#FFFFFF" filter="url(#f1b3mjwjlwk4sq)" height="20.1641" style="stroke: #A80036; stroke-width: 1.0;" width="10" x="858.5" y="676.9453"/><rect fill="#FFFFFF" filter="url(#f1b3mjwjlwk4sq)" height="14" style="stroke: #A80036; stroke-width: 1.0;" width="10" x="858.5" y="726.2422"/><rect fill="#FFFFFF" filter="url(#f1b3mjwjlwk4sq)" height="14" style="stroke: #A80036; stroke-width: 1.0;" width="10" x="858.5" y="769.375"/><rect fill="#FFFFFF" filter="url(#f1b3mjwjlwk4sq)" height="14" style="stroke: #A80036; stroke-width: 1.0;" width="10" x="858.5" y="812.5078"/><rect fill="#FEFECE" filter="url(#f1b3mjwjlwk4sq)" height="30.2969" style="stroke: #A80036; stroke-width: 1.5;" width="126" x="334.5" y="78.5938"/><text fill="#000000" font-family="sans-serif" font-size="14" lengthAdjust="spacingAndGlyphs" text-decoration="underline" textLength="112" x="341.5" y="98.5889">:ReportManager</text><rect fill="#FEFECE" filter="url(#f1b3mjwjlwk4sq)" height="30.2969" style="stroke: #A80036; stroke-width: 1.5;" width="136" x="487.5" y="210.1563"/><text fill="#000000" font-family="sans-serif" font-size="14" lengthAdjust="spacingAndGlyphs" text-decoration="underline" textLength="122" x="494.5" y="230.1514">:TextReportWriter</text><rect fill="#FEFECE" filter="url(#f1b3mjwjlwk4sq)" height="30.2969" style="stroke: #A80036; stroke-width: 1.5;" width="139" x="637.5" y="427.9844"/><text fill="#000000" font-family="sans-serif" font-size="14" lengthAdjust="spacingAndGlyphs" text-decoration="underline" textLength="125" x="644.5" y="447.9795">:JSONReportWriter</text><rect fill="#FEFECE" filter="url(#f1b3mjwjlwk4sq)" height="30.2969" style="stroke: #A80036; stroke-width: 1.5;" width="142" x="790.5" y="645.8125"/><text fill="#000000" font-family="sans-serif" font-size="14" lengthAdjust="spacingAndGlyphs" text-decoration="underline" textLength="128" x="797.5" y="665.8076">:ExcelReportWriter</text><line style="stroke: #A80036; stroke-width: 1.0; stroke-dasharray: 5.0,5.0;" x1="60" x2="60" y1="68.5938" y2="930.7734"/><line style="stroke: #A80036; stroke-width: 1.0; stroke-dasharray: 5.0,5.0;" x1="176" x2="176" y1="68.5938" y2="930.7734"/><line style="stroke: #A80036; stroke-width: 1.0; stroke-dasharray: 5.0,5.0;" x1="399.5" x2="399.5" y1="111.2422" y2="930.7734"/><line style="stroke: #A80036; stroke-width: 1.0; stroke-dasharray: 5.0,5.0;" x1="557.5" x2="557.5" y1="242.8047" y2="930.7734"/><line style="stroke: #A80036; stroke-width: 1.0; stroke-dasharray: 5.0,5.0;" x1="708.5" x2="708.5" y1="460.6328" y2="930.7734"/><line style="stroke: #A80036; stroke-width: 1.0; stroke-dasharray: 5.0,5.0;" x1="863.5" x2="863.5" y1="678.4609" y2="930.7734"/><rect fill="#FEFECE" filter="url(#f1b3mjwjlwk4sq)" height="30.2969" style="stroke: #A80036; stroke-width: 1.5;" width="100" x="8" y="33.2969"/><text fill="#000000" font-family="sans-serif" font-size="14" lengthAdjust="spacingAndGlyphs" text-decoration="underline" textLength="86" x="15" y="53.292">site:Website</text><rect fill="#FEFECE" filter="url(#f1b3mjwjlwk4sq)" height="30.2969" style="stroke: #A80036; stroke-width: 1.5;" width="105" x="122" y="33.2969"/><text fill="#000000" font-family="sans-serif" font-size="14" lengthAdjust="spacingAndGlyphs" text-decoration="underline" textLength="91" x="129" y="53.292">:WebAnalysis</text><rect fill="#FFFFFF" filter="url(#f1b3mjwjlwk4sq)" height="843.1797" style="stroke: #A80036; stroke-width: 1.0;" width="10" x="171.5" y="78.5938"/><rect fill="#FFFFFF" filter="url(#f1b3mjwjlwk4sq)" height="20.1641" style="stroke: #A80036; stroke-width: 1.0;" width="10" x="394.5" y="109.7266"/><rect fill="#FFFFFF" filter="url(#f1b3mjwjlwk4sq)" height="14" style="stroke: #A80036; stroke-width: 1.0;" width="10" x="394.5" y="159.0234"/><rect fill="#FFFFFF" filter="url(#f1b3mjwjlwk4sq)" height="667.4844" style="stroke: #A80036; stroke-width: 1.0;" width="10" x="394.5" y="202.1563"/><rect fill="#FFFFFF" filter="url(#f1b3mjwjlwk4sq)" height="14" style="stroke: #A80036; stroke-width: 1.0;" width="10" x="394.5" y="898.7734"/><rect fill="#FFFFFF" filter="url(#f1b3mjwjlwk4sq)" height="20.1641" style="stroke: #A80036; stroke-width: 1.0;" width="10" x="552.5" y="241.2891"/><rect fill="#FFFFFF" filter="url(#f1b3mjwjlwk4sq)" height="14" style="stroke: #A80036; stroke-width: 1.0;" width="10" x="552.5" y="290.5859"/><rect fill="#FFFFFF" filter="url(#f1b3mjwjlwk4sq)" height="14" style="stroke: #A80036; stroke-width: 1.0;" width="10" x="552.5" y="333.7188"/><rect fill="#FFFFFF" filter="url(#f1b3mjwjlwk4sq)" height="14" style="stroke: #A80036; stroke-width: 1.0;" width="10" x="552.5" y="376.8516"/><rect fill="#FFFFFF" filter="url(#f1b3mjwjlwk4sq)" height="20.1641" style="stroke: #A80036; stroke-width: 1.0;" width="10" x="704" y="459.1172"/><rect fill="#FFFFFF" filter="url(#f1b3mjwjlwk4sq)" height="14" style="stroke: #A80036; stroke-width: 1.0;" width="10" x="704" y="508.4141"/><rect fill="#FFFFFF" filter="url(#f1b3mjwjlwk4sq)" height="14" style="stroke: #A80036; stroke-width: 1.0;" width="10" x="704" y="551.5469"/><rect fill="#FFFFFF" filter="url(#f1b3mjwjlwk4sq)" height="14" style="stroke: #A80036; stroke-width: 1.0;" width="10" x="704" y="594.6797"/><rect fill="#FFFFFF" filter="url(#f1b3mjwjlwk4sq)" height="20.1641" style="stroke: #A80036; stroke-width: 1.0;" width="10" x="858.5" y="676.9453"/><rect fill="#FFFFFF" filter="url(#f1b3mjwjlwk4sq)" height="14" style="stroke: #A80036; stroke-width: 1.0;" width="10" x="858.5" y="726.2422"/><rect fill="#FFFFFF" filter="url(#f1b3mjwjlwk4sq)" height="14" style="stroke: #A80036; stroke-width: 1.0;" width="10" x="858.5" y="769.375"/><rect fill="#FFFFFF" filter="url(#f1b3mjwjlwk4sq)" height="14" style="stroke: #A80036; stroke-width: 1.0;" width="10" x="858.5" y="812.5078"/><polygon fill="#A80036" points="322.5,95.7266,332.5,99.7266,322.5,103.7266,326.5,99.7266" style="stroke: #A80036; stroke-width: 1.0;"/><line style="stroke: #A80036; stroke-width: 1.0;" x1="181.5" x2="328.5" y1="99.7266" y2="99.7266"/><text fill="#000000" font-family="sans-serif" font-size="13" lengthAdjust="spacingAndGlyphs" textLength="129" x="188.5" y="94.6606">setSourceData(site)</text><rect fill="#FEFECE" filter="url(#f1b3mjwjlwk4sq)" height="30.2969" style="stroke: #A80036; stroke-width: 1.5;" width="126" x="334.5" y="78.5938"/><text fill="#000000" font-family="sans-serif" font-size="14" lengthAdjust="spacingAndGlyphs" text-decoration="underline" textLength="112" x="341.5" y="98.5889">:ReportManager</text><polygon fill="#A80036" points="192.5,125.8906,182.5,129.8906,192.5,133.8906,188.5,129.8906" style="stroke: #A80036; stroke-width: 1.0;"/><line style="stroke: #A80036; stroke-width: 1.0; stroke-dasharray: 2.0,2.0;" x1="186.5" x2="398.5" y1="129.8906" y2="129.8906"/><polygon fill="#A80036" points="382.5,155.0234,392.5,159.0234,382.5,163.0234,386.5,159.0234" style="stroke: #A80036; stroke-width: 1.0;"/><line style="stroke: #A80036; stroke-width: 1.0;" x1="181.5" x2="388.5" y1="159.0234" y2="159.0234"/><text fill="#000000" font-family="sans-serif" font-size="13" lengthAdjust="spacingAndGlyphs" textLength="168" x="188.5" y="153.9575">determineBaseFileName()</text><polygon fill="#A80036" points="192.5,169.0234,182.5,173.0234,192.5,177.0234,188.5,173.0234" style="stroke: #A80036; stroke-width: 1.0;"/><line style="stroke: #A80036; stroke-width: 1.0; stroke-dasharray: 2.0,2.0;" x1="186.5" x2="398.5" y1="173.0234" y2="173.0234"/><polygon fill="#A80036" points="382.5,198.1563,392.5,202.1563,382.5,206.1563,386.5,202.1563" style="stroke: #A80036; stroke-width: 1.0;"/><line style="stroke: #A80036; stroke-width: 1.0;" x1="181.5" x2="388.5" y1="202.1563" y2="202.1563"/><text fill="#000000" font-family="sans-serif" font-size="13" lengthAdjust="spacingAndGlyphs" textLength="55" x="188.5" y="197.0903">writeAll()</text><polygon fill="#A80036" points="475.5,227.2891,485.5,231.2891,475.5,235.2891,479.5,231.2891" style="stroke: #A80036; stroke-width: 1.0;"/><line style="stroke: #A80036; stroke-width: 1.0;" x1="404.5" x2="481.5" y1="231.2891" y2="231.2891"/><text fill="#000000" font-family="sans-serif" font-size="13" lengthAdjust="spacingAndGlyphs" textLength="35" x="411.5" y="226.2231">new()</text><rect fill="#FEFECE" filter="url(#f1b3mjwjlwk4sq)" height="30.2969" style="stroke: #A80036; stroke-width: 1.5;" width="136" x="487.5" y="210.1563"/><text fill="#000000" font-family="sans-serif" font-size="14" lengthAdjust="spacingAndGlyphs" text-decoration="underline" textLength="122" x="494.5" y="230.1514">:TextReportWriter</text><polygon fill="#A80036" points="415.5,257.4531,405.5,261.4531,415.5,265.4531,411.5,261.4531" style="stroke: #A80036; stroke-width: 1.0;"/><line style="stroke: #A80036; stroke-width: 1.0; stroke-dasharray: 2.0,2.0;" x1="409.5" x2="556.5" y1="261.4531" y2="261.4531"/><polygon fill="#A80036" points="540.5,286.5859,550.5,290.5859,540.5,294.5859,544.5,290.5859" style="stroke: #A80036; stroke-width: 1.0;"/><line style="stroke: #A80036; stroke-width: 1.0;" x1="404.5" x2="546.5" y1="290.5859" y2="290.5859"/><text fill="#000000" font-family="sans-serif" font-size="13" lengthAdjust="spacingAndGlyphs" textLength="129" x="411.5" y="285.52">setSourceData(site)</text><polygon fill="#A80036" points="415.5,300.5859,405.5,304.5859,415.5,308.5859,411.5,304.5859" style="stroke: #A80036; stroke-width: 1.0;"/><line style="stroke: #A80036; stroke-width: 1.0; stroke-dasharray: 2.0,2.0;" x1="409.5" x2="556.5" y1="304.5859" y2="304.5859"/><polygon fill="#A80036" points="540.5,329.7188,550.5,333.7188,540.5,337.7188,544.5,333.7188" style="stroke: #A80036; stroke-width: 1.0;"/><line style="stroke: #A80036; stroke-width: 1.0;" x1="404.5" x2="546.5" y1="333.7188" y2="333.7188"/><text fill="#000000" font-family="sans-serif" font-size="13" lengthAdjust="spacingAndGlyphs" textLength="113" x="411.5" y="328.6528">setBaseName(...)</text><polygon fill="#A80036" points="415.5,343.7188,405.5,347.7188,415.5,351.7188,411.5,347.7188" style="stroke: #A80036; stroke-width: 1.0;"/><line style="stroke: #A80036; stroke-width: 1.0; stroke-dasharray: 2.0,2.0;" x1="409.5" x2="556.5" y1="347.7188" y2="347.7188"/><polygon fill="#A80036" points="540.5,372.8516,550.5,376.8516,540.5,380.8516,544.5,376.8516" style="stroke: #A80036; stroke-width: 1.0;"/><line style="stroke: #A80036; stroke-width: 1.0;" x1="404.5" x2="546.5" y1="376.8516" y2="376.8516"/><text fill="#000000" font-family="sans-serif" font-size="13" lengthAdjust="spacingAndGlyphs" textLength="40" x="411.5" y="371.7856">write()</text><polygon fill="#A80036" points="415.5,386.8516,405.5,390.8516,415.5,394.8516,411.5,390.8516" style="stroke: #A80036; stroke-width: 1.0;"/><line style="stroke: #A80036; stroke-width: 1.0; stroke-dasharray: 2.0,2.0;" x1="409.5" x2="556.5" y1="390.8516" y2="390.8516"/><polygon fill="#A80036" points="545.5,415.9844,555.5,419.9844,545.5,423.9844,549.5,419.9844" style="stroke: #A80036; stroke-width: 1.0;"/><line style="stroke: #A80036; stroke-width: 1.0;" x1="404.5" x2="551.5" y1="419.9844" y2="419.9844"/><text fill="#000000" font-family="sans-serif" font-size="13" lengthAdjust="spacingAndGlyphs" textLength="40" x="411.5" y="414.9185">delete</text><line style="stroke: #A80036; stroke-width: 2.0;" x1="548.5" x2="566.5" y1="410.9844" y2="428.9844"/><line style="stroke: #A80036; stroke-width: 2.0;" x1="548.5" x2="566.5" y1="428.9844" y2="410.9844"/><polygon fill="#A80036" points="625.5,445.1172,635.5,449.1172,625.5,453.1172,629.5,449.1172" style="stroke: #A80036; stroke-width: 1.0;"/><line style="stroke: #A80036; stroke-width: 1.0;" x1="404.5" x2="631.5" y1="449.1172" y2="449.1172"/><text fill="#000000" font-family="sans-serif" font-size="13" lengthAdjust="spacingAndGlyphs" textLength="35" x="411.5" y="444.0513">new()</text><rect fill="#FEFECE" filter="url(#f1b3mjwjlwk4sq)" height="30.2969" style="stroke: #A80036; stroke-width: 1.5;" width="139" x="637.5" y="427.9844"/><text fill="#000000" font-family="sans-serif" font-size="14" lengthAdjust="spacingAndGlyphs" text-decoration="underline" textLength="125" x="644.5" y="447.9795">:JSONReportWriter</text><polygon fill="#A80036" points="415.5,475.2813,405.5,479.2813,415.5,483.2813,411.5,479.2813" style="stroke: #A80036; stroke-width: 1.0;"/><line style="stroke: #A80036; stroke-width: 1.0; stroke-dasharray: 2.0,2.0;" x1="409.5" x2="708" y1="479.2813" y2="479.2813"/><polygon fill="#A80036" points="692,504.4141,702,508.4141,692,512.4141,696,508.4141" style="stroke: #A80036; stroke-width: 1.0;"/><line style="stroke: #A80036; stroke-width: 1.0;" x1="404.5" x2="698" y1="508.4141" y2="508.4141"/><text fill="#000000" font-family="sans-serif" font-size="13" lengthAdjust="spacingAndGlyphs" textLength="129" x="411.5" y="503.3481">setSourceData(site)</text><polygon fill="#A80036" points="415.5,518.4141,405.5,522.4141,415.5,526.4141,411.5,522.4141" style="stroke: #A80036; stroke-width: 1.0;"/><line style="stroke: #A80036; stroke-width: 1.0; stroke-dasharray: 2.0,2.0;" x1="409.5" x2="708" y1="522.4141" y2="522.4141"/><polygon fill="#A80036" points="692,547.5469,702,551.5469,692,555.5469,696,551.5469" style="stroke: #A80036; stroke-width: 1.0;"/><line style="stroke: #A80036; stroke-width: 1.0;" x1="404.5" x2="698" y1="551.5469" y2="551.5469"/><text fill="#000000" font-family="sans-serif" font-size="13" lengthAdjust="spacingAndGlyphs" textLength="113" x="411.5" y="546.481">setBaseName(...)</text><polygon fill="#A80036" points="415.5,561.5469,405.5,565.5469,415.5,569.5469,411.5,565.5469" style="stroke: #A80036; stroke-width: 1.0;"/><line style="stroke: #A80036; stroke-width: 1.0; stroke-dasharray: 2.0,2.0;" x1="409.5" x2="708" y1="565.5469" y2="565.5469"/><polygon fill="#A80036" points="692,590.6797,702,594.6797,692,598.6797,696,594.6797" style="stroke: #A80036; stroke-width: 1.0;"/><line style="stroke: #A80036; stroke-width: 1.0;" x1="404.5" x2="698" y1="594.6797" y2="594.6797"/><text fill="#000000" font-family="sans-serif" font-size="13" lengthAdjust="spacingAndGlyphs" textLength="40" x="411.5" y="589.6138">write()</text><polygon fill="#A80036" points="415.5,604.6797,405.5,608.6797,415.5,612.6797,411.5,608.6797" style="stroke: #A80036; stroke-width: 1.0;"/><line style="stroke: #A80036; stroke-width: 1.0; stroke-dasharray: 2.0,2.0;" x1="409.5" x2="708" y1="608.6797" y2="608.6797"/><polygon fill="#A80036" points="697,633.8125,707,637.8125,697,641.8125,701,637.8125" style="stroke: #A80036; stroke-width: 1.0;"/><line style="stroke: #A80036; stroke-width: 1.0;" x1="404.5" x2="703" y1="637.8125" y2="637.8125"/><text fill="#000000" font-family="sans-serif" font-size="13" lengthAdjust="spacingAndGlyphs" textLength="40" x="411.5" y="632.7466">delete</text><line style="stroke: #A80036; stroke-width: 2.0;" x1="700" x2="718" y1="628.8125" y2="646.8125"/><line style="stroke: #A80036; stroke-width: 2.0;" x1="700" x2="718" y1="646.8125" y2="628.8125"/><polygon fill="#A80036" points="778.5,662.9453,788.5,666.9453,778.5,670.9453,782.5,666.9453" style="stroke: #A80036; stroke-width: 1.0;"/><line style="stroke: #A80036; stroke-width: 1.0;" x1="404.5" x2="784.5" y1="666.9453" y2="666.9453"/><text fill="#000000" font-family="sans-serif" font-size="13" lengthAdjust="spacingAndGlyphs" textLength="35" x="411.5" y="661.8794">new()</text><rect fill="#FEFECE" filter="url(#f1b3mjwjlwk4sq)" height="30.2969" style="stroke: #A80036; stroke-width: 1.5;" width="142" x="790.5" y="645.8125"/><text fill="#000000" font-family="sans-serif" font-size="14" lengthAdjust="spacingAndGlyphs" text-decoration="underline" textLength="128" x="797.5" y="665.8076">:ExcelReportWriter</text><polygon fill="#A80036" points="415.5,693.1094,405.5,697.1094,415.5,701.1094,411.5,697.1094" style="stroke: #A80036; stroke-width: 1.0;"/><line style="stroke: #A80036; stroke-width: 1.0; stroke-dasharray: 2.0,2.0;" x1="409.5" x2="862.5" y1="697.1094" y2="697.1094"/><polygon fill="#A80036" points="846.5,722.2422,856.5,726.2422,846.5,730.2422,850.5,726.2422" style="stroke: #A80036; stroke-width: 1.0;"/><line style="stroke: #A80036; stroke-width: 1.0;" x1="404.5" x2="852.5" y1="726.2422" y2="726.2422"/><text fill="#000000" font-family="sans-serif" font-size="13" lengthAdjust="spacingAndGlyphs" textLength="129" x="411.5" y="721.1763">setSourceData(site)</text><polygon fill="#A80036" points="415.5,736.2422,405.5,740.2422,415.5,744.2422,411.5,740.2422" style="stroke: #A80036; stroke-width: 1.0;"/><line style="stroke: #A80036; stroke-width: 1.0; stroke-dasharray: 2.0,2.0;" x1="409.5" x2="862.5" y1="740.2422" y2="740.2422"/><polygon fill="#A80036" points="846.5,765.375,856.5,769.375,846.5,773.375,850.5,769.375" style="stroke: #A80036; stroke-width: 1.0;"/><line style="stroke: #A80036; stroke-width: 1.0;" x1="404.5" x2="852.5" y1="769.375" y2="769.375"/><text fill="#000000" font-family="sans-serif" font-size="13" lengthAdjust="spacingAndGlyphs" textLength="113" x="411.5" y="764.3091">setBaseName(...)</text><polygon fill="#A80036" points="415.5,779.375,405.5,783.375,415.5,787.375,411.5,783.375" style="stroke: #A80036; stroke-width: 1.0;"/><line style="stroke: #A80036; stroke-width: 1.0; stroke-dasharray: 2.0,2.0;" x1="409.5" x2="862.5" y1="783.375" y2="783.375"/><polygon fill="#A80036" points="846.5,808.5078,856.5,812.5078,846.5,816.5078,850.5,812.5078" style="stroke: #A80036; stroke-width: 1.0;"/><line style="stroke: #A80036; stroke-width: 1.0;" x1="404.5" x2="852.5" y1="812.5078" y2="812.5078"/><text fill="#000000" font-family="sans-serif" font-size="13" lengthAdjust="spacingAndGlyphs" textLength="40" x="411.5" y="807.4419">write()</text><polygon fill="#A80036" points="415.5,822.5078,405.5,826.5078,415.5,830.5078,411.5,826.5078" style="stroke: #A80036; stroke-width: 1.0;"/><line style="stroke: #A80036; stroke-width: 1.0; stroke-dasharray: 2.0,2.0;" x1="409.5" x2="862.5" y1="826.5078" y2="826.5078"/><polygon fill="#A80036" points="851.5,851.6406,861.5,855.6406,851.5,859.6406,855.5,855.6406" style="stroke: #A80036; stroke-width: 1.0;"/><line style="stroke: #A80036; stroke-width: 1.0;" x1="404.5" x2="857.5" y1="855.6406" y2="855.6406"/><text fill="#000000" font-family="sans-serif" font-size="13" lengthAdjust="spacingAndGlyphs" textLength="40" x="411.5" y="850.5747">delete</text><line style="stroke: #A80036; stroke-width: 2.0;" x1="854.5" x2="872.5" y1="846.6406" y2="864.6406"/><line style="stroke: #A80036; stroke-width: 2.0;" x1="854.5" x2="872.5" y1="864.6406" y2="846.6406"/><polygon fill="#A80036" points="192.5,865.6406,182.5,869.6406,192.5,873.6406,188.5,869.6406" style="stroke: #A80036; stroke-width: 1.0;"/><line style="stroke: #A80036; stroke-width: 1.0; stroke-dasharray: 2.0,2.0;" x1="186.5" x2="398.5" y1="869.6406" y2="869.6406"/><polygon fill="#A80036" points="382.5,894.7734,392.5,898.7734,382.5,902.7734,386.5,898.7734" style="stroke: #A80036; stroke-width: 1.0;"/><line style="stroke: #A80036; stroke-width: 1.0;" x1="181.5" x2="388.5" y1="898.7734" y2="898.7734"/><text fill="#000000" font-family="sans-serif" font-size="13" lengthAdjust="spacingAndGlyphs" textLength="140" x="188.5" y="893.7075">writeReportNames(...)</text><polygon fill="#A80036" points="192.5,908.7734,182.5,912.7734,192.5,916.7734,188.5,912.7734" style="stroke: #A80036; stroke-width: 1.0;"/><line style="stroke: #A80036; stroke-width: 1.0; stroke-dasharray: 2.0,2.0;" x1="186.5" x2="398.5" y1="912.7734" y2="912.7734"/><!--
@startuml sequence_03.svg
autoactivate on
hide footbox
skinparam backgroundColor #FFFFFF
skinparam sequenceParticipant underline

title Data Analysis and Extraction: High-Level View

participant "site:Website" as site
participant ":WebAnalysis" as driver
activate driver


create ":ReportManager" as manager

driver -> manager: setSourceData(site)
return

driver -> manager: determineBaseFileName()
return

driver -> manager: writeAll()
    create ":TextReportWriter" as textWriter
    manager -> textWriter: new()
    return
    manager -> textWriter: setSourceData(site)
    return
    manager -> textWriter: setBaseName(...)
    return
    manager -> textWriter: write()
    return
    manager -> textWriter !!: delete

    create ":JSONReportWriter" as jsonWriter
    manager -> jsonWriter: new()
    return
    manager -> jsonWriter: setSourceData(site)
    return
    manager -> jsonWriter: setBaseName(...)
    return
    manager -> jsonWriter: write()
    return
    manager -> jsonWriter !!: delete

    create ":ExcelReportWriter" as excelWriter
    manager -> excelWriter: new()
    return
    manager -> excelWriter: setSourceData(site)
    return
    manager -> excelWriter: setBaseName(...)
    return
    manager -> excelWriter: write()
    return
    manager -> excelWriter !!: delete
return

driver -> manager: writeReportNames(...)
return

@enduml

PlantUML version 1.2019.09(Mon Aug 26 12:19:51 EDT 2019)
(GPL source distribution)
Java Runtime: OpenJDK Runtime Environment
JVM: OpenJDK 64-Bit Server VM
Java Version: 11.0.14+9-Ubuntu-0ubuntu2.16.04
Operating System: Linux
OS Version: 4.4.0-241-generic
Default Encoding: UTF-8
Language: en
Country: US
--></g></svg>