<?xml version="1.0" encoding="UTF-8" standalone="no"?><svg xmlns="http://www.w3.org/2000/svg" xmlns:xlink="http://www.w3.org/1999/xlink" contentScriptType="application/ecmascript" contentStyleType="text/css" height="795px" preserveAspectRatio="none" style="width:906px;height:795px;" version="1.1" viewBox="0 0 906 795" width="906px" zoomAndPan="magnify"><defs><filter height="300%" id="f1iyz0jad90miv" width="300%" x="-1" y="-1"><feGaussianBlur result="blurOut" stdDeviation="2.0"/><feColorMatrix in="blurOut" result="blurOut2" type="matrix" values="0 0 0 0 0 0 0 0 0 0 0 0 0 0 0 0 0 0 .4 0"/><feOffset dx="4.0" dy="4.0" in="blurOut2" result="blurOut3"/><feBlend in="SourceGraphic" in2="blurOut3" mode="normal"/></filter></defs><g><!--class Website--><rect fill="#FEFECE" filter="url(#f1iyz0jad90miv)" height="65.6094" id="Website" style="stroke: #A80036; stroke-width: 1.5;" width="136" x="41" y="256"/><ellipse cx="80.3" cy="272" fill="#ADD1B2" rx="11" ry="11" style="stroke: #A80036; stroke-width: 1.0;"/><path d="M83.2688,277.6406 Q82.6906,277.9375 82.05,278.0781 Q81.4094,278.2344 80.7063,278.2344 Q78.2063,278.2344 76.8781,276.5938 Q75.5656,274.9375 75.5656,271.8125 Q75.5656,268.6875 76.8781,267.0313 Q78.2063,265.375 80.7063,265.375 Q81.4094,265.375 82.05,265.5313 Q82.7063,265.6875 83.2688,265.9844 L83.2688,268.7031 Q82.6438,268.125 82.05,267.8594 Q81.4563,267.5781 80.8313,267.5781 Q79.4875,267.5781 78.8,268.6563 Q78.1125,269.7188 78.1125,271.8125 Q78.1125,273.9063 78.8,274.9844 Q79.4875,276.0469 80.8313,276.0469 Q81.4563,276.0469 82.05,275.7813 Q82.6438,275.5 83.2688,274.9219 L83.2688,277.6406 Z "/><text fill="#000000" font-family="sans-serif" font-size="12" lengthAdjust="spacingAndGlyphs" textLength="50" x="99.7" y="276.1543">Website</text><line style="stroke: #A80036; stroke-width: 1.5;" x1="42" x2="176" y1="288" y2="288"/><text fill="#000000" font-family="sans-serif" font-size="11" lengthAdjust="spacingAndGlyphs" textLength="110" x="47" y="302.2104">localDirectory: Path</text><text fill="#000000" font-family="sans-serif" font-size="11" lengthAdjust="spacingAndGlyphs" textLength="124" x="47" y="315.0151">urls: Collection&lt;URL&gt;</text><!--class HTMLDocument--><rect fill="#FEFECE" filter="url(#f1iyz0jad90miv)" height="91.2188" id="HTMLDocument" style="stroke: #A80036; stroke-width: 1.5;" width="220" x="94" y="422"/><ellipse cx="151.75" cy="438" fill="#ADD1B2" rx="11" ry="11" style="stroke: #A80036; stroke-width: 1.0;"/><path d="M154.7188,443.6406 Q154.1406,443.9375 153.5,444.0781 Q152.8594,444.2344 152.1563,444.2344 Q149.6563,444.2344 148.3281,442.5938 Q147.0156,440.9375 147.0156,437.8125 Q147.0156,434.6875 148.3281,433.0313 Q149.6563,431.375 152.1563,431.375 Q152.8594,431.375 153.5,431.5313 Q154.1563,431.6875 154.7188,431.9844 L154.7188,434.7031 Q154.0938,434.125 153.5,433.8594 Q152.9063,433.5781 152.2813,433.5781 Q150.9375,433.5781 150.25,434.6563 Q149.5625,435.7188 149.5625,437.8125 Q149.5625,439.9063 150.25,440.9844 Q150.9375,442.0469 152.2813,442.0469 Q152.9063,442.0469 153.5,441.7813 Q154.0938,441.5 154.7188,440.9219 L154.7188,443.6406 Z "/><text fill="#000000" font-family="sans-serif" font-size="12" lengthAdjust="spacingAndGlyphs" textLength="96" x="172.25" y="442.1543">HTMLDocument</text><line style="stroke: #A80036; stroke-width: 1.5;" x1="95" x2="313" y1="454" y2="454"/><text fill="#000000" font-family="sans-serif" font-size="11" lengthAdjust="spacingAndGlyphs" textLength="153" x="100" y="468.2104">scripts: Collection&lt;Script&gt;</text><text fill="#000000" font-family="sans-serif" font-size="11" lengthAdjust="spacingAndGlyphs" textLength="208" x="100" y="481.0151">stylesheets: Collection&lt;StyleSheet&gt;</text><text fill="#000000" font-family="sans-serif" font-size="11" lengthAdjust="spacingAndGlyphs" textLength="158" x="100" y="493.8198">images: Collection&lt;Image&gt;</text><text fill="#000000" font-family="sans-serif" font-size="11" lengthAdjust="spacingAndGlyphs" textLength="166" x="100" y="506.6245">anchors: Collection&lt;Anchor&gt;</text><!--class Resource--><rect fill="#FEFECE" filter="url(#f1iyz0jad90miv)" height="116.8281" id="Resource" style="stroke: #A80036; stroke-width: 1.5;" width="228" x="90" y="574"/><ellipse cx="170.25" cy="590" fill="#ADD1B2" rx="11" ry="11" style="stroke: #A80036; stroke-width: 1.0;"/><path d="M173.2188,595.6406 Q172.6406,595.9375 172,596.0781 Q171.3594,596.2344 170.6563,596.2344 Q168.1563,596.2344 166.8281,594.5938 Q165.5156,592.9375 165.5156,589.8125 Q165.5156,586.6875 166.8281,585.0313 Q168.1563,583.375 170.6563,583.375 Q171.3594,583.375 172,583.5313 Q172.6563,583.6875 173.2188,583.9844 L173.2188,586.7031 Q172.5938,586.125 172,585.8594 Q171.4063,585.5781 170.7813,585.5781 Q169.4375,585.5781 168.75,586.6563 Q168.0625,587.7188 168.0625,589.8125 Q168.0625,591.9063 168.75,592.9844 Q169.4375,594.0469 170.7813,594.0469 Q171.4063,594.0469 172,593.7813 Q172.5938,593.5 173.2188,592.9219 L173.2188,595.6406 Z "/><text fill="#000000" font-family="sans-serif" font-size="12" lengthAdjust="spacingAndGlyphs" textLength="59" x="190.75" y="594.1543">Resource</text><line style="stroke: #A80036; stroke-width: 1.5;" x1="91" x2="317" y1="606" y2="606"/><text fill="#000000" font-family="sans-serif" font-size="11" lengthAdjust="spacingAndGlyphs" textLength="58" x="96" y="620.2104">path: Path</text><text fill="#000000" font-family="sans-serif" font-size="11" lengthAdjust="spacingAndGlyphs" textLength="44" x="96" y="633.0151">url: URL</text><text fill="#000000" font-family="sans-serif" font-size="11" lengthAdjust="spacingAndGlyphs" textLength="216" x="96" y="645.8198">foundOn: Collection&lt;HTMLDocument&gt;</text><text fill="#000000" font-family="sans-serif" font-size="11" lengthAdjust="spacingAndGlyphs" textLength="94" x="96" y="658.6245">location: Locality</text><text fill="#000000" font-family="sans-serif" font-size="11" lengthAdjust="spacingAndGlyphs" textLength="175" x="96" y="671.4292">typeOfResource: ResourceKind</text><text fill="#000000" font-family="sans-serif" font-size="11" lengthAdjust="spacingAndGlyphs" textLength="86" x="96" y="684.2339">sizeOfFile: long</text><!--class Anchor--><rect fill="#FEFECE" filter="url(#f1iyz0jad90miv)" height="32" id="Anchor" style="stroke: #A80036; stroke-width: 1.5;" width="76" x="6" y="752"/><ellipse cx="21" cy="768" fill="#ADD1B2" rx="11" ry="11" style="stroke: #A80036; stroke-width: 1.0;"/><path d="M23.9688,773.6406 Q23.3906,773.9375 22.75,774.0781 Q22.1094,774.2344 21.4063,774.2344 Q18.9063,774.2344 17.5781,772.5938 Q16.2656,770.9375 16.2656,767.8125 Q16.2656,764.6875 17.5781,763.0313 Q18.9063,761.375 21.4063,761.375 Q22.1094,761.375 22.75,761.5313 Q23.4063,761.6875 23.9688,761.9844 L23.9688,764.7031 Q23.3438,764.125 22.75,763.8594 Q22.1563,763.5781 21.5313,763.5781 Q20.1875,763.5781 19.5,764.6563 Q18.8125,765.7188 18.8125,767.8125 Q18.8125,769.9063 19.5,770.9844 Q20.1875,772.0469 21.5313,772.0469 Q22.1563,772.0469 22.75,771.7813 Q23.3438,771.5 23.9688,770.9219 L23.9688,773.6406 Z "/><text fill="#000000" font-family="sans-serif" font-size="12" lengthAdjust="spacingAndGlyphs" textLength="44" x="35" y="772.1543">Anchor</text><!--class Image--><rect fill="#FEFECE" filter="url(#f1iyz0jad90miv)" height="32" id="Image" style="stroke: #A80036; stroke-width: 1.5;" width="70" x="117" y="752"/><ellipse cx="132" cy="768" fill="#ADD1B2" rx="11" ry="11" style="stroke: #A80036; stroke-width: 1.0;"/><path d="M134.9688,773.6406 Q134.3906,773.9375 133.75,774.0781 Q133.1094,774.2344 132.4063,774.2344 Q129.9063,774.2344 128.5781,772.5938 Q127.2656,770.9375 127.2656,767.8125 Q127.2656,764.6875 128.5781,763.0313 Q129.9063,761.375 132.4063,761.375 Q133.1094,761.375 133.75,761.5313 Q134.4063,761.6875 134.9688,761.9844 L134.9688,764.7031 Q134.3438,764.125 133.75,763.8594 Q133.1563,763.5781 132.5313,763.5781 Q131.1875,763.5781 130.5,764.6563 Q129.8125,765.7188 129.8125,767.8125 Q129.8125,769.9063 130.5,770.9844 Q131.1875,772.0469 132.5313,772.0469 Q133.1563,772.0469 133.75,771.7813 Q134.3438,771.5 134.9688,770.9219 L134.9688,773.6406 Z "/><text fill="#000000" font-family="sans-serif" font-size="12" lengthAdjust="spacingAndGlyphs" textLength="38" x="146" y="772.1543">Image</text><!--class Script--><rect fill="#FEFECE" filter="url(#f1iyz0jad90miv)" height="32" id="Script" style="stroke: #A80036; stroke-width: 1.5;" width="68" x="222" y="752"/><ellipse cx="237" cy="768" fill="#ADD1B2" rx="11" ry="11" style="stroke: #A80036; stroke-width: 1.0;"/><path d="M239.9688,773.6406 Q239.3906,773.9375 238.75,774.0781 Q238.1094,774.2344 237.4063,774.2344 Q234.9063,774.2344 233.5781,772.5938 Q232.2656,770.9375 232.2656,767.8125 Q232.2656,764.6875 233.5781,763.0313 Q234.9063,761.375 237.4063,761.375 Q238.1094,761.375 238.75,761.5313 Q239.4063,761.6875 239.9688,761.9844 L239.9688,764.7031 Q239.3438,764.125 238.75,763.8594 Q238.1563,763.5781 237.5313,763.5781 Q236.1875,763.5781 235.5,764.6563 Q234.8125,765.7188 234.8125,767.8125 Q234.8125,769.9063 235.5,770.9844 Q236.1875,772.0469 237.5313,772.0469 Q238.1563,772.0469 238.75,771.7813 Q239.3438,771.5 239.9688,770.9219 L239.9688,773.6406 Z "/><text fill="#000000" font-family="sans-serif" font-size="12" lengthAdjust="spacingAndGlyphs" textLength="36" x="251" y="772.1543">Script</text><!--class StyleSheet--><rect fill="#FEFECE" filter="url(#f1iyz0jad90miv)" height="32" id="StyleSheet" style="stroke: #A80036; stroke-width: 1.5;" width="99" x="325.5" y="752"/><ellipse cx="340.5" cy="768" fill="#ADD1B2" rx="11" ry="11" style="stroke: #A80036; stroke-width: 1.0;"/><path d="M343.4688,773.6406 Q342.8906,773.9375 342.25,774.0781 Q341.6094,774.2344 340.9063,774.2344 Q338.4063,774.2344 337.0781,772.5938 Q335.7656,770.9375 335.7656,767.8125 Q335.7656,764.6875 337.0781,763.0313 Q338.4063,761.375 340.9063,761.375 Q341.6094,761.375 342.25,761.5313 Q342.9063,761.6875 343.4688,761.9844 L343.4688,764.7031 Q342.8438,764.125 342.25,763.8594 Q341.6563,763.5781 341.0313,763.5781 Q339.6875,763.5781 339,764.6563 Q338.3125,765.7188 338.3125,767.8125 Q338.3125,769.9063 339,770.9844 Q339.6875,772.0469 341.0313,772.0469 Q341.6563,772.0469 342.25,771.7813 Q342.8438,771.5 343.4688,770.9219 L343.4688,773.6406 Z "/><text fill="#000000" font-family="sans-serif" font-size="12" lengthAdjust="spacingAndGlyphs" textLength="67" x="354.5" y="772.1543">StyleSheet</text><!--class Locality--><rect fill="#FEFECE" filter="url(#f1iyz0jad90miv)" height="84.3516" id="Locality" style="stroke: #A80036; stroke-width: 1.5;" width="78" x="259" y="40"/><ellipse cx="274" cy="58.9688" fill="#EB937F" rx="11" ry="11" style="stroke: #A80036; stroke-width: 1.0;"/><path d="M278.1094,64.9688 L270.3906,64.9688 L270.3906,52.5781 L278.1094,52.5781 L278.1094,54.7344 L272.8438,54.7344 L272.8438,57.4063 L277.6094,57.4063 L277.6094,59.5625 L272.8438,59.5625 L272.8438,62.8125 L278.1094,62.8125 L278.1094,64.9688 Z "/><text fill="#000000" font-family="sans-serif" font-size="12" font-style="italic" lengthAdjust="spacingAndGlyphs" textLength="49" x="286.5" y="56.1387">«Enum»</text><text fill="#000000" font-family="sans-serif" font-size="12" lengthAdjust="spacingAndGlyphs" textLength="46" x="288" y="70.1074">Locality</text><line style="stroke: #A80036; stroke-width: 1.5;" x1="260" x2="336" y1="77.9375" y2="77.9375"/><text fill="#000000" font-family="sans-serif" font-size="11" lengthAdjust="spacingAndGlyphs" textLength="53" x="265" y="92.1479">INTERNAL</text><text fill="#000000" font-family="sans-serif" font-size="11" lengthAdjust="spacingAndGlyphs" textLength="62" x="265" y="104.9526">INTRAPAGE</text><text fill="#000000" font-family="sans-serif" font-size="11" lengthAdjust="spacingAndGlyphs" textLength="56" x="265" y="117.7573">EXTERNAL</text><!--class ResourceKind--><rect fill="#FEFECE" filter="url(#f1iyz0jad90miv)" height="148.375" id="ResourceKind" style="stroke: #A80036; stroke-width: 1.5;" width="117" x="373.5" y="8"/><ellipse cx="388.5" cy="26.9688" fill="#EB937F" rx="11" ry="11" style="stroke: #A80036; stroke-width: 1.0;"/><path d="M392.6094,32.9688 L384.8906,32.9688 L384.8906,20.5781 L392.6094,20.5781 L392.6094,22.7344 L387.3438,22.7344 L387.3438,25.4063 L392.1094,25.4063 L392.1094,27.5625 L387.3438,27.5625 L387.3438,30.8125 L392.6094,30.8125 L392.6094,32.9688 Z "/><text fill="#000000" font-family="sans-serif" font-size="12" font-style="italic" lengthAdjust="spacingAndGlyphs" textLength="49" x="420.5" y="24.1387">«Enum»</text><text fill="#000000" font-family="sans-serif" font-size="12" lengthAdjust="spacingAndGlyphs" textLength="85" x="402.5" y="38.1074">ResourceKind</text><line style="stroke: #A80036; stroke-width: 1.5;" x1="374.5" x2="489.5" y1="45.9375" y2="45.9375"/><text fill="#000000" font-family="sans-serif" font-size="11" lengthAdjust="spacingAndGlyphs" textLength="35" x="379.5" y="60.1479">IMAGE</text><text fill="#000000" font-family="sans-serif" font-size="11" lengthAdjust="spacingAndGlyphs" textLength="72" x="379.5" y="72.9526">STYLESHEET</text><text fill="#000000" font-family="sans-serif" font-size="11" lengthAdjust="spacingAndGlyphs" textLength="40" x="379.5" y="85.7573">SCRIPT</text><text fill="#000000" font-family="sans-serif" font-size="11" lengthAdjust="spacingAndGlyphs" textLength="47" x="379.5" y="98.562">ANCHOR</text><text fill="#000000" font-family="sans-serif" font-size="11" lengthAdjust="spacingAndGlyphs" textLength="34" x="379.5" y="111.3667">VIDEO</text><text fill="#000000" font-family="sans-serif" font-size="11" lengthAdjust="spacingAndGlyphs" textLength="35" x="379.5" y="124.1714">AUDIO</text><text fill="#000000" font-family="sans-serif" font-size="11" lengthAdjust="spacingAndGlyphs" textLength="47" x="379.5" y="136.9761">ARCHIVE</text><text fill="#000000" font-family="sans-serif" font-size="11" lengthAdjust="spacingAndGlyphs" textLength="38" x="379.5" y="149.7808">OTHER</text><!--class ReportManager--><rect fill="#FEFECE" filter="url(#f1iyz0jad90miv)" height="104.0234" id="ReportManager" style="stroke: #A80036; stroke-width: 1.5;" width="240" x="527" y="30"/><ellipse cx="594.25" cy="46" fill="#ADD1B2" rx="11" ry="11" style="stroke: #A80036; stroke-width: 1.0;"/><path d="M597.2188,51.6406 Q596.6406,51.9375 596,52.0781 Q595.3594,52.2344 594.6563,52.2344 Q592.1563,52.2344 590.8281,50.5938 Q589.5156,48.9375 589.5156,45.8125 Q589.5156,42.6875 590.8281,41.0313 Q592.1563,39.375 594.6563,39.375 Q595.3594,39.375 596,39.5313 Q596.6563,39.6875 597.2188,39.9844 L597.2188,42.7031 Q596.5938,42.125 596,41.8594 Q595.4063,41.5781 594.7813,41.5781 Q593.4375,41.5781 592.75,42.6563 Q592.0625,43.7188 592.0625,45.8125 Q592.0625,47.9063 592.75,48.9844 Q593.4375,50.0469 594.7813,50.0469 Q595.4063,50.0469 596,49.7813 Q596.5938,49.5 597.2188,48.9219 L597.2188,51.6406 Z "/><text fill="#000000" font-family="sans-serif" font-size="12" lengthAdjust="spacingAndGlyphs" textLength="97" x="614.75" y="50.1543">ReportManager</text><line style="stroke: #A80036; stroke-width: 1.5;" x1="528" x2="766" y1="62" y2="62"/><text fill="#000000" font-family="sans-serif" font-size="11" lengthAdjust="spacingAndGlyphs" textLength="165" x="533" y="76.2104">setSourceData(site: Website)</text><text fill="#000000" font-family="sans-serif" font-size="11" lengthAdjust="spacingAndGlyphs" textLength="146" x="533" y="89.0151">determineBaseFilename()</text><text fill="#000000" font-family="sans-serif" font-size="11" lengthAdjust="spacingAndGlyphs" textLength="228" x="533" y="101.8198">writeReportNames(outs: BufferedWriter)</text><text fill="#000000" font-family="sans-serif" font-size="11" lengthAdjust="spacingAndGlyphs" textLength="0" x="537" y="114.6245"/><text fill="#000000" font-family="sans-serif" font-size="11" lengthAdjust="spacingAndGlyphs" textLength="49" x="533" y="127.4292">writeAll()</text><!--class ReportWriter--><rect fill="#FEFECE" filter="url(#f1iyz0jad90miv)" height="112.0234" id="ReportWriter" style="stroke: #A80036; stroke-width: 1.5;" width="222" x="536" y="233"/><ellipse cx="603.25" cy="249" fill="#ADD1B2" rx="11" ry="11" style="stroke: #A80036; stroke-width: 1.0;"/><path d="M606.2188,254.6406 Q605.6406,254.9375 605,255.0781 Q604.3594,255.2344 603.6563,255.2344 Q601.1563,255.2344 599.8281,253.5938 Q598.5156,251.9375 598.5156,248.8125 Q598.5156,245.6875 599.8281,244.0313 Q601.1563,242.375 603.6563,242.375 Q604.3594,242.375 605,242.5313 Q605.6563,242.6875 606.2188,242.9844 L606.2188,245.7031 Q605.5938,245.125 605,244.8594 Q604.4063,244.5781 603.7813,244.5781 Q602.4375,244.5781 601.75,245.6563 Q601.0625,246.7188 601.0625,248.8125 Q601.0625,250.9063 601.75,251.9844 Q602.4375,253.0469 603.7813,253.0469 Q604.4063,253.0469 605,252.7813 Q605.5938,252.5 606.2188,251.9219 L606.2188,254.6406 Z "/><text fill="#000000" font-family="sans-serif" font-size="12" lengthAdjust="spacingAndGlyphs" textLength="79" x="623.75" y="253.1543">ReportWriter</text><line style="stroke: #A80036; stroke-width: 1.5;" x1="537" x2="757" y1="265" y2="265"/><text fill="#000000" font-family="sans-serif" font-size="11" lengthAdjust="spacingAndGlyphs" textLength="96" x="542" y="279.2104">website: Website</text><line style="stroke: #A80036; stroke-width: 1.5;" x1="537" x2="757" y1="285.8047" y2="285.8047"/><text fill="#000000" font-family="sans-serif" font-size="11" lengthAdjust="spacingAndGlyphs" textLength="165" x="542" y="300.0151">setSourceData(site: Website)</text><text fill="#000000" font-family="sans-serif" font-size="11" lengthAdjust="spacingAndGlyphs" textLength="210" x="542" y="312.8198">setBaseName(baseFileName: String)</text><text fill="#000000" font-family="sans-serif" font-size="11" lengthAdjust="spacingAndGlyphs" textLength="0" x="546" y="325.6245"/><text fill="#000000" font-family="sans-serif" font-size="11" lengthAdjust="spacingAndGlyphs" textLength="36" x="542" y="338.4292">write()</text><!--class TextReportWriter--><rect fill="#FEFECE" filter="url(#f1iyz0jad90miv)" height="32" id="TextReportWriter" style="stroke: #A80036; stroke-width: 1.5;" width="137" x="404.5" y="451.5"/><ellipse cx="419.5" cy="467.5" fill="#ADD1B2" rx="11" ry="11" style="stroke: #A80036; stroke-width: 1.0;"/><path d="M422.4688,473.1406 Q421.8906,473.4375 421.25,473.5781 Q420.6094,473.7344 419.9063,473.7344 Q417.4063,473.7344 416.0781,472.0938 Q414.7656,470.4375 414.7656,467.3125 Q414.7656,464.1875 416.0781,462.5313 Q417.4063,460.875 419.9063,460.875 Q420.6094,460.875 421.25,461.0313 Q421.9063,461.1875 422.4688,461.4844 L422.4688,464.2031 Q421.8438,463.625 421.25,463.3594 Q420.6563,463.0781 420.0313,463.0781 Q418.6875,463.0781 418,464.1563 Q417.3125,465.2188 417.3125,467.3125 Q417.3125,469.4063 418,470.4844 Q418.6875,471.5469 420.0313,471.5469 Q420.6563,471.5469 421.25,471.2813 Q421.8438,471 422.4688,470.4219 L422.4688,473.1406 Z "/><text fill="#000000" font-family="sans-serif" font-size="12" lengthAdjust="spacingAndGlyphs" textLength="105" x="433.5" y="471.6543">TextReportWriter</text><!--class JSONReportWriter--><rect fill="#FEFECE" filter="url(#f1iyz0jad90miv)" height="32" id="JSONReportWriter" style="stroke: #A80036; stroke-width: 1.5;" width="140" x="577" y="451.5"/><ellipse cx="592" cy="467.5" fill="#ADD1B2" rx="11" ry="11" style="stroke: #A80036; stroke-width: 1.0;"/><path d="M594.9688,473.1406 Q594.3906,473.4375 593.75,473.5781 Q593.1094,473.7344 592.4063,473.7344 Q589.9063,473.7344 588.5781,472.0938 Q587.2656,470.4375 587.2656,467.3125 Q587.2656,464.1875 588.5781,462.5313 Q589.9063,460.875 592.4063,460.875 Q593.1094,460.875 593.75,461.0313 Q594.4063,461.1875 594.9688,461.4844 L594.9688,464.2031 Q594.3438,463.625 593.75,463.3594 Q593.1563,463.0781 592.5313,463.0781 Q591.1875,463.0781 590.5,464.1563 Q589.8125,465.2188 589.8125,467.3125 Q589.8125,469.4063 590.5,470.4844 Q591.1875,471.5469 592.5313,471.5469 Q593.1563,471.5469 593.75,471.2813 Q594.3438,471 594.9688,470.4219 L594.9688,473.1406 Z "/><text fill="#000000" font-family="sans-serif" font-size="12" lengthAdjust="spacingAndGlyphs" textLength="108" x="606" y="471.6543">JSONReportWriter</text><!--class ExcelReportWriter--><rect fill="#FEFECE" filter="url(#f1iyz0jad90miv)" height="32" id="ExcelReportWriter" style="stroke: #A80036; stroke-width: 1.5;" width="143" x="752.5" y="451.5"/><ellipse cx="767.5" cy="467.5" fill="#ADD1B2" rx="11" ry="11" style="stroke: #A80036; stroke-width: 1.0;"/><path d="M770.4688,473.1406 Q769.8906,473.4375 769.25,473.5781 Q768.6094,473.7344 767.9063,473.7344 Q765.4063,473.7344 764.0781,472.0938 Q762.7656,470.4375 762.7656,467.3125 Q762.7656,464.1875 764.0781,462.5313 Q765.4063,460.875 767.9063,460.875 Q768.6094,460.875 769.25,461.0313 Q769.9063,461.1875 770.4688,461.4844 L770.4688,464.2031 Q769.8438,463.625 769.25,463.3594 Q768.6563,463.0781 768.0313,463.0781 Q766.6875,463.0781 766,464.1563 Q765.3125,465.2188 765.3125,467.3125 Q765.3125,469.4063 766,470.4844 Q766.6875,471.5469 768.0313,471.5469 Q768.6563,471.5469 769.25,471.2813 Q769.8438,471 770.4688,470.4219 L770.4688,473.1406 Z "/><text fill="#000000" font-family="sans-serif" font-size="12" lengthAdjust="spacingAndGlyphs" textLength="111" x="781.5" y="471.6543">ExcelReportWriter</text><!--class WebsiteBuilder--><rect fill="#FEFECE" filter="url(#f1iyz0jad90miv)" height="104.0234" id="WebsiteBuilder" style="stroke: #A80036; stroke-width: 1.5;" width="195" x="26.5" y="30"/><ellipse cx="73.25" cy="46" fill="#ADD1B2" rx="11" ry="11" style="stroke: #A80036; stroke-width: 1.0;"/><path d="M76.2188,51.6406 Q75.6406,51.9375 75,52.0781 Q74.3594,52.2344 73.6563,52.2344 Q71.1563,52.2344 69.8281,50.5938 Q68.5156,48.9375 68.5156,45.8125 Q68.5156,42.6875 69.8281,41.0313 Q71.1563,39.375 73.6563,39.375 Q74.3594,39.375 75,39.5313 Q75.6563,39.6875 76.2188,39.9844 L76.2188,42.7031 Q75.5938,42.125 75,41.8594 Q74.4063,41.5781 73.7813,41.5781 Q72.4375,41.5781 71.75,42.6563 Q71.0625,43.7188 71.0625,45.8125 Q71.0625,47.9063 71.75,48.9844 Q72.4375,50.0469 73.7813,50.0469 Q74.4063,50.0469 75,49.7813 Q75.5938,49.5 76.2188,48.9219 L76.2188,51.6406 Z "/><text fill="#000000" font-family="sans-serif" font-size="12" lengthAdjust="spacingAndGlyphs" textLength="93" x="93.75" y="50.1543">WebsiteBuilder</text><line style="stroke: #A80036; stroke-width: 1.5;" x1="27.5" x2="220.5" y1="62" y2="62"/><text fill="#000000" font-family="sans-serif" font-size="11" lengthAdjust="spacingAndGlyphs" textLength="114" x="32.5" y="76.2104">withPath(path: Path)</text><text fill="#000000" font-family="sans-serif" font-size="11" lengthAdjust="spacingAndGlyphs" textLength="96" x="32.5" y="89.0151">withURL(url: URL)</text><text fill="#000000" font-family="sans-serif" font-size="11" lengthAdjust="spacingAndGlyphs" textLength="183" x="32.5" y="101.8198">withURLs(urls: Collection&lt;URL&gt;)</text><text fill="#000000" font-family="sans-serif" font-size="11" lengthAdjust="spacingAndGlyphs" textLength="0" x="36.5" y="114.6245"/><text fill="#000000" font-family="sans-serif" font-size="11" lengthAdjust="spacingAndGlyphs" textLength="100" x="32.5" y="127.4292">build() -&gt; Website</text><!--class HTMLDocumentBuilder--><rect fill="#FEFECE" filter="url(#f1iyz0jad90miv)" height="91.2188" id="HTMLDocumentBuilder" style="stroke: #A80036; stroke-width: 1.5;" width="251" x="212.5" y="243.5"/><ellipse cx="264.25" cy="259.5" fill="#ADD1B2" rx="11" ry="11" style="stroke: #A80036; stroke-width: 1.0;"/><path d="M267.2188,265.1406 Q266.6406,265.4375 266,265.5781 Q265.3594,265.7344 264.6563,265.7344 Q262.1563,265.7344 260.8281,264.0938 Q259.5156,262.4375 259.5156,259.3125 Q259.5156,256.1875 260.8281,254.5313 Q262.1563,252.875 264.6563,252.875 Q265.3594,252.875 266,253.0313 Q266.6563,253.1875 267.2188,253.4844 L267.2188,256.2031 Q266.5938,255.625 266,255.3594 Q265.4063,255.0781 264.7813,255.0781 Q263.4375,255.0781 262.75,256.1563 Q262.0625,257.2188 262.0625,259.3125 Q262.0625,261.4063 262.75,262.4844 Q263.4375,263.5469 264.7813,263.5469 Q265.4063,263.5469 266,263.2813 Q266.5938,263 267.2188,262.4219 L267.2188,265.1406 Z "/><text fill="#000000" font-family="sans-serif" font-size="12" lengthAdjust="spacingAndGlyphs" textLength="139" x="284.75" y="263.6543">HTMLDocumentBuilder</text><line style="stroke: #A80036; stroke-width: 1.5;" x1="213.5" x2="462.5" y1="275.5" y2="275.5"/><text fill="#000000" font-family="sans-serif" font-size="11" lengthAdjust="spacingAndGlyphs" textLength="239" x="218.5" y="289.7104">withContentFrom(reader: BufferedReader)</text><text fill="#000000" font-family="sans-serif" font-size="11" lengthAdjust="spacingAndGlyphs" textLength="148" x="218.5" y="302.5151">withContentFrom(file: File)</text><text fill="#000000" font-family="sans-serif" font-size="11" lengthAdjust="spacingAndGlyphs" textLength="0" x="222.5" y="315.3198"/><text fill="#000000" font-family="sans-serif" font-size="11" lengthAdjust="spacingAndGlyphs" textLength="143" x="218.5" y="328.1245">build() -&gt; HTMLDocument</text><!--reverse link Resource to Image--><path d="M174.139,710.1633 C167.916,726.1395 161.995,741.3408 157.844,751.9958 " fill="none" id="Resource&lt;-Image" style="stroke: #A80036; stroke-width: 1.0;"/><polygon fill="none" points="167.713,707.3741,181.494,691.2786,180.758,712.4554,167.713,707.3741" style="stroke: #A80036; stroke-width: 1.0;"/><!--reverse link Resource to Script--><path d="M233.861,710.1633 C240.084,726.1395 246.005,741.3408 250.156,751.9958 " fill="none" id="Resource&lt;-Script" style="stroke: #A80036; stroke-width: 1.0;"/><polygon fill="none" points="227.242,712.4554,226.506,691.2786,240.287,707.3741,227.242,712.4554" style="stroke: #A80036; stroke-width: 1.0;"/><!--reverse link Resource to StyleSheet--><path d="M293.814,703.6178 C317.263,721.9248 340.279,739.8931 355.781,751.9958 " fill="none" id="Resource&lt;-StyleSheet" style="stroke: #A80036; stroke-width: 1.0;"/><polygon fill="none" points="289.466,709.1038,278.009,691.2786,298.081,698.0685,289.466,709.1038" style="stroke: #A80036; stroke-width: 1.0;"/><!--reverse link Resource to Anchor--><path d="M119.334,704.1432 C97.6112,722.2681 76.3489,740.0089 61.9825,751.9958 " fill="none" id="Resource&lt;-Anchor" style="stroke: #A80036; stroke-width: 1.0;"/><polygon fill="none" points="114.911,698.717,134.752,691.2786,123.88,709.4666,114.911,698.717" style="stroke: #A80036; stroke-width: 1.0;"/><!--reverse link Website to HTMLDocument--><path d="M132.732,334.092 C147.122,360.826 165.432,394.844 179.889,421.705 " fill="none" id="Website&lt;-HTMLDocument" style="stroke: #A80036; stroke-width: 1.0;"/><polygon fill="#FFFFFF" points="126.424,322.373,125.7448,329.552,132.1104,332.9401,132.7896,325.7611,126.424,322.373" style="stroke: #A80036; stroke-width: 1.0;"/><!--reverse link HTMLDocument to Resource--><path d="M204,526.237 C204,541.692 204,558.396 204,573.846 " fill="none" id="HTMLDocument&lt;-Resource" style="stroke: #A80036; stroke-width: 1.0;"/><polygon fill="#FFFFFF" points="204,513.04,200,519.04,204,525.04,208,519.04,204,513.04" style="stroke: #A80036; stroke-width: 1.0;"/><!--reverse link ReportWriter to TextReportWriter--><path d="M578.022,359.969 C544.895,393.572 508.122,430.873 488.073,451.21 " fill="none" id="ReportWriter&lt;-TextReportWriter" style="stroke: #A80036; stroke-width: 1.0;"/><polygon fill="none" points="573.397,354.69,592.423,345.361,583.367,364.518,573.397,354.69" style="stroke: #A80036; stroke-width: 1.0;"/><!--reverse link ReportWriter to JSONReportWriter--><path d="M647,365.423 C647,397.537 647,431.967 647,451.21 " fill="none" id="ReportWriter&lt;-JSONReportWriter" style="stroke: #A80036; stroke-width: 1.0;"/><polygon fill="none" points="640,365.361,647,345.361,654,365.361,640,365.361" style="stroke: #A80036; stroke-width: 1.0;"/><!--reverse link ReportWriter to ExcelReportWriter--><path d="M716.714,359.517 C750.53,393.237 788.181,430.782 808.667,451.21 " fill="none" id="ReportWriter&lt;-ExcelReportWriter" style="stroke: #A80036; stroke-width: 1.0;"/><polygon fill="none" points="711.738,364.44,702.518,345.361,721.623,354.527,711.738,364.44" style="stroke: #A80036; stroke-width: 1.0;"/><!--link ReportManager to ReportWriter--><path d="M647,134.201 C647,162.565 647,197.988 647,227.688 " fill="none" id="ReportManager-&gt;ReportWriter" style="stroke: #A80036; stroke-width: 1.0;"/><polygon fill="#A80036" points="647,232.782,651,223.782,647,227.782,643,223.782,647,232.782" style="stroke: #A80036; stroke-width: 1.0;"/><text fill="#000000" font-family="sans-serif" font-size="13" lengthAdjust="spacingAndGlyphs" textLength="140" x="648" y="199.0669">creates and manages</text><text fill="#000000" font-family="sans-serif" font-size="13" lengthAdjust="spacingAndGlyphs" textLength="8" x="638.5125" y="222.0899">3</text><!--link WebsiteBuilder to Website--><path d="M120.254,134.201 C117.601,170.449 114.105,218.229 111.718,250.854 " fill="none" id="WebsiteBuilder-&gt;Website" style="stroke: #A80036; stroke-width: 1.0;"/><polygon fill="#A80036" points="111.345,255.956,115.9925,247.2726,111.7107,250.9694,108.0139,246.6876,111.345,255.956" style="stroke: #A80036; stroke-width: 1.0;"/><text fill="#000000" font-family="sans-serif" font-size="13" lengthAdjust="spacingAndGlyphs" textLength="67" x="118" y="199.0669">constructs</text><!--link WebsiteBuilder to HTMLDocumentBuilder--><path d="M177.449,134.201 C211.116,166.452 254.312,207.832 287.418,239.545 " fill="none" id="WebsiteBuilder-&gt;HTMLDocumentBuilder" style="stroke: #A80036; stroke-width: 1.0; stroke-dasharray: 7.0,7.0;"/><polygon fill="#A80036" points="291.403,243.363,287.6696,234.2492,287.7919,239.9047,282.1363,240.027,291.403,243.363" style="stroke: #A80036; stroke-width: 1.0;"/><!--link HTMLDocumentBuilder to HTMLDocument--><path d="M304.186,334.538 C284.904,359.936 260.717,391.795 240.938,417.846 " fill="none" id="HTMLDocumentBuilder-&gt;HTMLDocument" style="stroke: #A80036; stroke-width: 1.0;"/><polygon fill="#A80036" points="237.803,421.976,246.4322,417.2287,240.8274,417.9944,240.0617,412.3896,237.803,421.976" style="stroke: #A80036; stroke-width: 1.0;"/><text fill="#000000" font-family="sans-serif" font-size="13" lengthAdjust="spacingAndGlyphs" textLength="67" x="272" y="388.0669">constructs</text><!--
@startuml diagrams_uml_class/analysis_06.svg
hide empty members

class Website {
    localDirectory: Path
    urls: Collection<URL>
}

class HTMLDocument {
    scripts: Collection<Script>
    stylesheets: Collection<StyleSheet>
    images: Collection<Image>
    anchors: Collection<Anchor>
}

class Resource {
    path: Path
    url: URL
    foundOn: Collection<HTMLDocument>
    location: Locality
    typeOfResource: ResourceKind
    sizeOfFile: long
}

class Anchor {

}

class Image {
}

class Script {
}

class StyleSheet {
}

enum Locality <<Enum>> {
    INTERNAL
    INTRAPAGE
    EXTERNAL
}

enum ResourceKind <<Enum>> {
    IMAGE
    STYLESHEET
    SCRIPT
    ANCHOR
    VIDEO
    AUDIO
    ARCHIVE
    OTHER
}

class ReportManager {
    setSourceData(site: Website)
    determineBaseFilename()
    writeReportNames(outs: BufferedWriter)

    writeAll()
}

class ReportWriter {
    website: Website

    setSourceData(site: Website)
    setBaseName(baseFileName: String)

    write()
}

class TextReportWriter {

}

class JSONReportWriter {

}

class ExcelReportWriter {

}

class WebsiteBuilder {
    withPath(path: Path)
    withURL(url: URL)
    withURLs(urls: Collection<URL>)
    
    build() -> Website
}

class HTMLDocumentBuilder {
    withContentFrom(reader: BufferedReader)
    withContentFrom(file: File)

    build() -> HTMLDocument
}

Resource <|- - Image
Resource <|- - Script
Resource <|- - StyleSheet
Resource <|- - Anchor

Website o- - HTMLDocument
HTMLDocument o- - Resource

ReportWriter <|- - TextReportWriter
ReportWriter <|- - JSONReportWriter
ReportWriter <|- - ExcelReportWriter

ReportManager - -> "3" ReportWriter: "creates and manages"

WebsiteBuilder - -> Website: "constructs"
WebsiteBuilder ..> HTMLDocumentBuilder
HTMLDocumentBuilder - -> HTMLDocument: "constructs"

@enduml

PlantUML version 1.2019.09(Mon Aug 26 12:19:51 EDT 2019)
(GPL source distribution)
Java Runtime: OpenJDK Runtime Environment
JVM: OpenJDK 64-Bit Server VM
Java Version: 11.0.14+9-Ubuntu-0ubuntu2.16.04
Operating System: Linux
OS Version: 4.4.0-241-generic
Default Encoding: UTF-8
Language: en
Country: US
--></g></svg>