<?xml version="1.0" encoding="us-ascii" standalone="no"?><svg xmlns="http://www.w3.org/2000/svg" xmlns:xlink="http://www.w3.org/1999/xlink" contentStyleType="text/css" height="691px" preserveAspectRatio="none" style="width:1040px;height:691px;background:#FFFFFF;" version="1.1" viewBox="0 0 1040 691" width="1040px" zoomAndPan="magnify"><defs/><g><!--class Website--><g id="elem_Website"><rect codeLine="781" fill="#F1F1F1" height="72.5938" id="Website" rx="2.5" ry="2.5" style="stroke:#181818;stroke-width:0.5;" width="165" x="132" y="60"/><ellipse cx="182.25" cy="76" fill="#ADD1B2" rx="11" ry="11" style="stroke:#181818;stroke-width:1.0;"/><path d="M185.2188,81.6406 Q184.6406,81.9375 184,82.0781 Q183.3594,82.2344 182.6563,82.2344 Q180.1563,82.2344 178.8281,80.5938 Q177.5156,78.9375 177.5156,75.8125 Q177.5156,72.6875 178.8281,71.0313 Q180.1563,69.375 182.6563,69.375 Q183.3594,69.375 184,69.5313 Q184.6563,69.6875 185.2188,69.9844 L185.2188,72.7031 Q184.5938,72.125 184,71.8594 Q183.4063,71.5781 182.7813,71.5781 Q181.4375,71.5781 180.75,72.6563 Q180.0625,73.7188 180.0625,75.8125 Q180.0625,77.9063 180.75,78.9844 Q181.4375,80.0469 182.7813,80.0469 Q183.4063,80.0469 184,79.7813 Q184.5938,79.5 185.2188,78.9219 L185.2188,81.6406 Z " fill="#000000"/><text fill="#000000" font-family="sans-serif" font-size="14" lengthAdjust="spacing" textLength="56" x="202.75" y="80.8467">Website</text><line style="stroke:#181818;stroke-width:0.5;" x1="133" x2="296" y1="92" y2="92"/><text fill="#000000" font-family="sans-serif" font-size="14" lengthAdjust="spacing" textLength="133" x="138" y="108.9951">localDirectory: Path</text><text fill="#000000" font-family="sans-serif" font-size="14" lengthAdjust="spacing" textLength="153" x="138" y="125.292">urls: Collection&lt;URL&gt;</text></g><!--class HTMLDocument--><g id="elem_HTMLDocument"><rect codeLine="786" fill="#F1F1F1" height="105.1875" id="HTMLDocument" rx="2.5" ry="2.5" style="stroke:#181818;stroke-width:0.5;" width="267" x="81" y="275"/><ellipse cx="154.75" cy="291" fill="#ADD1B2" rx="11" ry="11" style="stroke:#181818;stroke-width:1.0;"/><path d="M157.7188,296.6406 Q157.1406,296.9375 156.5,297.0781 Q155.8594,297.2344 155.1563,297.2344 Q152.6563,297.2344 151.3281,295.5938 Q150.0156,293.9375 150.0156,290.8125 Q150.0156,287.6875 151.3281,286.0313 Q152.6563,284.375 155.1563,284.375 Q155.8594,284.375 156.5,284.5313 Q157.1563,284.6875 157.7188,284.9844 L157.7188,287.7031 Q157.0938,287.125 156.5,286.8594 Q155.9063,286.5781 155.2813,286.5781 Q153.9375,286.5781 153.25,287.6563 Q152.5625,288.7188 152.5625,290.8125 Q152.5625,292.9063 153.25,293.9844 Q153.9375,295.0469 155.2813,295.0469 Q155.9063,295.0469 156.5,294.7813 Q157.0938,294.5 157.7188,293.9219 L157.7188,296.6406 Z " fill="#000000"/><text fill="#000000" font-family="sans-serif" font-size="14" lengthAdjust="spacing" textLength="111" x="175.25" y="295.8467">HTMLDocument</text><line style="stroke:#181818;stroke-width:0.5;" x1="82" x2="347" y1="307" y2="307"/><text fill="#000000" font-family="sans-serif" font-size="14" lengthAdjust="spacing" textLength="186" x="87" y="323.9951">scripts: Collection&lt;Script&gt;</text><text fill="#000000" font-family="sans-serif" font-size="14" lengthAdjust="spacing" textLength="255" x="87" y="340.292">stylesheets: Collection&lt;StyleSheet&gt;</text><text fill="#000000" font-family="sans-serif" font-size="14" lengthAdjust="spacing" textLength="193" x="87" y="356.5889">images: Collection&lt;Image&gt;</text><text fill="#000000" font-family="sans-serif" font-size="14" lengthAdjust="spacing" textLength="206" x="87" y="372.8857">anchors: Collection&lt;Anchor&gt;</text></g><!--class Resource--><g id="elem_Resource"><rect codeLine="793" fill="#F1F1F1" height="137.7813" id="Resource" rx="2.5" ry="2.5" style="stroke:#181818;stroke-width:0.5;" width="284" x="72.5" y="453"/><ellipse cx="176.75" cy="469" fill="#ADD1B2" rx="11" ry="11" style="stroke:#181818;stroke-width:1.0;"/><path d="M179.7188,474.6406 Q179.1406,474.9375 178.5,475.0781 Q177.8594,475.2344 177.1563,475.2344 Q174.6563,475.2344 173.3281,473.5938 Q172.0156,471.9375 172.0156,468.8125 Q172.0156,465.6875 173.3281,464.0313 Q174.6563,462.375 177.1563,462.375 Q177.8594,462.375 178.5,462.5313 Q179.1563,462.6875 179.7188,462.9844 L179.7188,465.7031 Q179.0938,465.125 178.5,464.8594 Q177.9063,464.5781 177.2813,464.5781 Q175.9375,464.5781 175.25,465.6563 Q174.5625,466.7188 174.5625,468.8125 Q174.5625,470.9063 175.25,471.9844 Q175.9375,473.0469 177.2813,473.0469 Q177.9063,473.0469 178.5,472.7813 Q179.0938,472.5 179.7188,471.9219 L179.7188,474.6406 Z " fill="#000000"/><text fill="#000000" font-family="sans-serif" font-size="14" lengthAdjust="spacing" textLength="67" x="197.25" y="473.8467">Resource</text><line style="stroke:#181818;stroke-width:0.5;" x1="73.5" x2="355.5" y1="485" y2="485"/><text fill="#000000" font-family="sans-serif" font-size="14" lengthAdjust="spacing" textLength="71" x="78.5" y="501.9951">path: Path</text><text fill="#000000" font-family="sans-serif" font-size="14" lengthAdjust="spacing" textLength="53" x="78.5" y="518.292">url: URL</text><text fill="#000000" font-family="sans-serif" font-size="14" lengthAdjust="spacing" textLength="272" x="78.5" y="534.5889">foundOn: Collection&lt;HTMLDocument&gt;</text><text fill="#000000" font-family="sans-serif" font-size="14" lengthAdjust="spacing" textLength="113" x="78.5" y="550.8857">location: Locality</text><text fill="#000000" font-family="sans-serif" font-size="14" lengthAdjust="spacing" textLength="218" x="78.5" y="567.1826">typeOfResource: ResourceKind</text><text fill="#000000" font-family="sans-serif" font-size="14" lengthAdjust="spacing" textLength="105" x="78.5" y="583.4795">sizeOfFile: long</text></g><!--class Anchor--><g id="elem_Anchor"><rect codeLine="802" fill="#F1F1F1" height="32" id="Anchor" rx="2.5" ry="2.5" style="stroke:#181818;stroke-width:0.5;" width="81" x="7" y="652"/><ellipse cx="22" cy="668" fill="#ADD1B2" rx="11" ry="11" style="stroke:#181818;stroke-width:1.0;"/><path d="M24.9688,673.6406 Q24.3906,673.9375 23.75,674.0781 Q23.1094,674.2344 22.4063,674.2344 Q19.9063,674.2344 18.5781,672.5938 Q17.2656,670.9375 17.2656,667.8125 Q17.2656,664.6875 18.5781,663.0313 Q19.9063,661.375 22.4063,661.375 Q23.1094,661.375 23.75,661.5313 Q24.4063,661.6875 24.9688,661.9844 L24.9688,664.7031 Q24.3438,664.125 23.75,663.8594 Q23.1563,663.5781 22.5313,663.5781 Q21.1875,663.5781 20.5,664.6563 Q19.8125,665.7188 19.8125,667.8125 Q19.8125,669.9063 20.5,670.9844 Q21.1875,672.0469 22.5313,672.0469 Q23.1563,672.0469 23.75,671.7813 Q24.3438,671.5 24.9688,670.9219 L24.9688,673.6406 Z " fill="#000000"/><text fill="#000000" font-family="sans-serif" font-size="14" lengthAdjust="spacing" textLength="49" x="36" y="672.8467">Anchor</text></g><!--class Image--><g id="elem_Image"><rect codeLine="806" fill="#F1F1F1" height="32" id="Image" rx="2.5" ry="2.5" style="stroke:#181818;stroke-width:0.5;" width="74" x="123.5" y="652"/><ellipse cx="138.5" cy="668" fill="#ADD1B2" rx="11" ry="11" style="stroke:#181818;stroke-width:1.0;"/><path d="M141.4688,673.6406 Q140.8906,673.9375 140.25,674.0781 Q139.6094,674.2344 138.9063,674.2344 Q136.4063,674.2344 135.0781,672.5938 Q133.7656,670.9375 133.7656,667.8125 Q133.7656,664.6875 135.0781,663.0313 Q136.4063,661.375 138.9063,661.375 Q139.6094,661.375 140.25,661.5313 Q140.9063,661.6875 141.4688,661.9844 L141.4688,664.7031 Q140.8438,664.125 140.25,663.8594 Q139.6563,663.5781 139.0313,663.5781 Q137.6875,663.5781 137,664.6563 Q136.3125,665.7188 136.3125,667.8125 Q136.3125,669.9063 137,670.9844 Q137.6875,672.0469 139.0313,672.0469 Q139.6563,672.0469 140.25,671.7813 Q140.8438,671.5 141.4688,670.9219 L141.4688,673.6406 Z " fill="#000000"/><text fill="#000000" font-family="sans-serif" font-size="14" lengthAdjust="spacing" textLength="42" x="152.5" y="672.8467">Image</text></g><!--class Script--><g id="elem_Script"><rect codeLine="809" fill="#F1F1F1" height="32" id="Script" rx="2.5" ry="2.5" style="stroke:#181818;stroke-width:0.5;" width="71" x="233" y="652"/><ellipse cx="248" cy="668" fill="#ADD1B2" rx="11" ry="11" style="stroke:#181818;stroke-width:1.0;"/><path d="M250.9688,673.6406 Q250.3906,673.9375 249.75,674.0781 Q249.1094,674.2344 248.4063,674.2344 Q245.9063,674.2344 244.5781,672.5938 Q243.2656,670.9375 243.2656,667.8125 Q243.2656,664.6875 244.5781,663.0313 Q245.9063,661.375 248.4063,661.375 Q249.1094,661.375 249.75,661.5313 Q250.4063,661.6875 250.9688,661.9844 L250.9688,664.7031 Q250.3438,664.125 249.75,663.8594 Q249.1563,663.5781 248.5313,663.5781 Q247.1875,663.5781 246.5,664.6563 Q245.8125,665.7188 245.8125,667.8125 Q245.8125,669.9063 246.5,670.9844 Q247.1875,672.0469 248.5313,672.0469 Q249.1563,672.0469 249.75,671.7813 Q250.3438,671.5 250.9688,670.9219 L250.9688,673.6406 Z " fill="#000000"/><text fill="#000000" font-family="sans-serif" font-size="14" lengthAdjust="spacing" textLength="39" x="262" y="672.8467">Script</text></g><!--class StyleSheet--><g id="elem_StyleSheet"><rect codeLine="812" fill="#F1F1F1" height="32" id="StyleSheet" rx="2.5" ry="2.5" style="stroke:#181818;stroke-width:0.5;" width="106" x="339.5" y="652"/><ellipse cx="354.5" cy="668" fill="#ADD1B2" rx="11" ry="11" style="stroke:#181818;stroke-width:1.0;"/><path d="M357.4688,673.6406 Q356.8906,673.9375 356.25,674.0781 Q355.6094,674.2344 354.9063,674.2344 Q352.4063,674.2344 351.0781,672.5938 Q349.7656,670.9375 349.7656,667.8125 Q349.7656,664.6875 351.0781,663.0313 Q352.4063,661.375 354.9063,661.375 Q355.6094,661.375 356.25,661.5313 Q356.9063,661.6875 357.4688,661.9844 L357.4688,664.7031 Q356.8438,664.125 356.25,663.8594 Q355.6563,663.5781 355.0313,663.5781 Q353.6875,663.5781 353,664.6563 Q352.3125,665.7188 352.3125,667.8125 Q352.3125,669.9063 353,670.9844 Q353.6875,672.0469 355.0313,672.0469 Q355.6563,672.0469 356.25,671.7813 Q356.8438,671.5 357.4688,670.9219 L357.4688,673.6406 Z " fill="#000000"/><text fill="#000000" font-family="sans-serif" font-size="14" lengthAdjust="spacing" textLength="74" x="368.5" y="672.8467">StyleSheet</text></g><!--class Locality--><g id="elem_Locality"><rect codeLine="815" fill="#F1F1F1" height="97.1563" id="Locality" rx="2.5" ry="2.5" style="stroke:#181818;stroke-width:0.5;" width="91" x="332" y="48"/><ellipse cx="351.05" cy="68.1328" fill="#EB937F" rx="11" ry="11" style="stroke:#181818;stroke-width:1.0;"/><path d="M355.1594,74.1328 L347.4406,74.1328 L347.4406,61.7422 L355.1594,61.7422 L355.1594,63.8984 L349.8938,63.8984 L349.8938,66.5703 L354.6594,66.5703 L354.6594,68.7266 L349.8938,68.7266 L349.8938,71.9766 L355.1594,71.9766 L355.1594,74.1328 Z " fill="#000000"/><text fill="#000000" font-family="sans-serif" font-size="12" font-style="italic" lengthAdjust="spacing" textLength="49" x="366.45" y="64.1387">&#171;Enum&#187;</text><text fill="#000000" font-family="sans-serif" font-size="14" lengthAdjust="spacing" textLength="50" x="365.95" y="79.9639">Locality</text><line style="stroke:#181818;stroke-width:0.5;" x1="333" x2="422" y1="88.2656" y2="88.2656"/><text fill="#000000" font-family="sans-serif" font-size="14" lengthAdjust="spacing" textLength="67" x="338" y="105.2607">INTERNAL</text><text fill="#000000" font-family="sans-serif" font-size="14" lengthAdjust="spacing" textLength="79" x="338" y="121.5576">INTRAPAGE</text><text fill="#000000" font-family="sans-serif" font-size="14" lengthAdjust="spacing" textLength="72" x="338" y="137.8545">EXTERNAL</text></g><!--class ResourceKind--><g id="elem_ResourceKind"><rect codeLine="821" fill="#F1F1F1" height="178.6406" id="ResourceKind" rx="2.5" ry="2.5" style="stroke:#181818;stroke-width:0.5;" width="129" x="458" y="7"/><ellipse cx="473" cy="27.1328" fill="#EB937F" rx="11" ry="11" style="stroke:#181818;stroke-width:1.0;"/><path d="M477.1094,33.1328 L469.3906,33.1328 L469.3906,20.7422 L477.1094,20.7422 L477.1094,22.8984 L471.8438,22.8984 L471.8438,25.5703 L476.6094,25.5703 L476.6094,27.7266 L471.8438,27.7266 L471.8438,30.9766 L477.1094,30.9766 L477.1094,33.1328 Z " fill="#000000"/><text fill="#000000" font-family="sans-serif" font-size="12" font-style="italic" lengthAdjust="spacing" textLength="49" x="511" y="23.1387">&#171;Enum&#187;</text><text fill="#000000" font-family="sans-serif" font-size="14" lengthAdjust="spacing" textLength="97" x="487" y="38.9639">ResourceKind</text><line style="stroke:#181818;stroke-width:0.5;" x1="459" x2="586" y1="47.2656" y2="47.2656"/><text fill="#000000" font-family="sans-serif" font-size="14" lengthAdjust="spacing" textLength="44" x="464" y="64.2607">IMAGE</text><text fill="#000000" font-family="sans-serif" font-size="14" lengthAdjust="spacing" textLength="89" x="464" y="80.5576">STYLESHEET</text><text fill="#000000" font-family="sans-serif" font-size="14" lengthAdjust="spacing" textLength="50" x="464" y="96.8545">SCRIPT</text><text fill="#000000" font-family="sans-serif" font-size="14" lengthAdjust="spacing" textLength="60" x="464" y="113.1514">ANCHOR</text><text fill="#000000" font-family="sans-serif" font-size="14" lengthAdjust="spacing" textLength="43" x="464" y="129.4482">VIDEO</text><text fill="#000000" font-family="sans-serif" font-size="14" lengthAdjust="spacing" textLength="44" x="464" y="145.7451">AUDIO</text><text fill="#000000" font-family="sans-serif" font-size="14" lengthAdjust="spacing" textLength="60" x="464" y="162.042">ARCHIVE</text><text fill="#000000" font-family="sans-serif" font-size="14" lengthAdjust="spacing" textLength="49" x="464" y="178.3389">OTHER</text></g><!--class ReportManager--><g id="elem_ReportManager"><rect codeLine="832" fill="#F1F1F1" height="121.4844" id="ReportManager" rx="2.5" ry="2.5" style="stroke:#181818;stroke-width:0.5;" width="289" x="622" y="36"/><ellipse cx="708.75" cy="52" fill="#ADD1B2" rx="11" ry="11" style="stroke:#181818;stroke-width:1.0;"/><path d="M711.7188,57.6406 Q711.1406,57.9375 710.5,58.0781 Q709.8594,58.2344 709.1563,58.2344 Q706.6563,58.2344 705.3281,56.5938 Q704.0156,54.9375 704.0156,51.8125 Q704.0156,48.6875 705.3281,47.0313 Q706.6563,45.375 709.1563,45.375 Q709.8594,45.375 710.5,45.5313 Q711.1563,45.6875 711.7188,45.9844 L711.7188,48.7031 Q711.0938,48.125 710.5,47.8594 Q709.9063,47.5781 709.2813,47.5781 Q707.9375,47.5781 707.25,48.6563 Q706.5625,49.7188 706.5625,51.8125 Q706.5625,53.9063 707.25,54.9844 Q707.9375,56.0469 709.2813,56.0469 Q709.9063,56.0469 710.5,55.7813 Q711.0938,55.5 711.7188,54.9219 L711.7188,57.6406 Z " fill="#000000"/><text fill="#000000" font-family="sans-serif" font-size="14" lengthAdjust="spacing" textLength="107" x="729.25" y="56.8467">ReportManager</text><line style="stroke:#181818;stroke-width:0.5;" x1="623" x2="910" y1="68" y2="68"/><text fill="#000000" font-family="sans-serif" font-size="14" lengthAdjust="spacing" textLength="203" x="628" y="84.9951">setSourceData(site: Website)</text><text fill="#000000" font-family="sans-serif" font-size="14" lengthAdjust="spacing" textLength="178" x="628" y="101.292">determineBaseFilename()</text><text fill="#000000" font-family="sans-serif" font-size="14" lengthAdjust="spacing" textLength="277" x="628" y="117.5889">writeReportNames(outs: BufferedWriter)</text><text fill="#000000" font-family="sans-serif" font-size="14" lengthAdjust="spacing" textLength="4" x="628" y="133.8857">&#160;</text><text fill="#000000" font-family="sans-serif" font-size="14" lengthAdjust="spacing" textLength="58" x="628" y="150.1826">writeAll()</text></g><!--class ReportWriter--><g id="elem_ReportWriter"><rect codeLine="840" fill="#F1F1F1" height="129.4844" id="ReportWriter" rx="2.5" ry="2.5" style="stroke:#181818;stroke-width:0.5;" width="265" x="634" y="263"/><ellipse cx="718.75" cy="279" fill="#ADD1B2" rx="11" ry="11" style="stroke:#181818;stroke-width:1.0;"/><path d="M721.7188,284.6406 Q721.1406,284.9375 720.5,285.0781 Q719.8594,285.2344 719.1563,285.2344 Q716.6563,285.2344 715.3281,283.5938 Q714.0156,281.9375 714.0156,278.8125 Q714.0156,275.6875 715.3281,274.0313 Q716.6563,272.375 719.1563,272.375 Q719.8594,272.375 720.5,272.5313 Q721.1563,272.6875 721.7188,272.9844 L721.7188,275.7031 Q721.0938,275.125 720.5,274.8594 Q719.9063,274.5781 719.2813,274.5781 Q717.9375,274.5781 717.25,275.6563 Q716.5625,276.7188 716.5625,278.8125 Q716.5625,280.9063 717.25,281.9844 Q717.9375,283.0469 719.2813,283.0469 Q719.9063,283.0469 720.5,282.7813 Q721.0938,282.5 721.7188,281.9219 L721.7188,284.6406 Z " fill="#000000"/><text fill="#000000" font-family="sans-serif" font-size="14" lengthAdjust="spacing" textLength="87" x="739.25" y="283.8467">ReportWriter</text><line style="stroke:#181818;stroke-width:0.5;" x1="635" x2="898" y1="295" y2="295"/><text fill="#000000" font-family="sans-serif" font-size="14" lengthAdjust="spacing" textLength="119" x="640" y="311.9951">website: Website</text><line style="stroke:#181818;stroke-width:0.5;" x1="635" x2="898" y1="319.2969" y2="319.2969"/><text fill="#000000" font-family="sans-serif" font-size="14" lengthAdjust="spacing" textLength="203" x="640" y="336.292">setSourceData(site: Website)</text><text fill="#000000" font-family="sans-serif" font-size="14" lengthAdjust="spacing" textLength="253" x="640" y="352.5889">setBaseName(baseFileName: String)</text><text fill="#000000" font-family="sans-serif" font-size="14" lengthAdjust="spacing" textLength="4" x="640" y="368.8857">&#160;</text><text fill="#000000" font-family="sans-serif" font-size="14" lengthAdjust="spacing" textLength="43" x="640" y="385.1826">write()</text></g><!--class TextReportWriter--><g id="elem_TextReportWriter"><rect codeLine="849" fill="#F1F1F1" height="32" id="TextReportWriter" rx="2.5" ry="2.5" style="stroke:#181818;stroke-width:0.5;" width="149" x="506" y="506"/><ellipse cx="521" cy="522" fill="#ADD1B2" rx="11" ry="11" style="stroke:#181818;stroke-width:1.0;"/><path d="M523.9688,527.6406 Q523.3906,527.9375 522.75,528.0781 Q522.1094,528.2344 521.4063,528.2344 Q518.9063,528.2344 517.5781,526.5938 Q516.2656,524.9375 516.2656,521.8125 Q516.2656,518.6875 517.5781,517.0313 Q518.9063,515.375 521.4063,515.375 Q522.1094,515.375 522.75,515.5313 Q523.4063,515.6875 523.9688,515.9844 L523.9688,518.7031 Q523.3438,518.125 522.75,517.8594 Q522.1563,517.5781 521.5313,517.5781 Q520.1875,517.5781 519.5,518.6563 Q518.8125,519.7188 518.8125,521.8125 Q518.8125,523.9063 519.5,524.9844 Q520.1875,526.0469 521.5313,526.0469 Q522.1563,526.0469 522.75,525.7813 Q523.3438,525.5 523.9688,524.9219 L523.9688,527.6406 Z " fill="#000000"/><text fill="#000000" font-family="sans-serif" font-size="14" lengthAdjust="spacing" textLength="117" x="535" y="526.8467">TextReportWriter</text></g><!--class JSONReportWriter--><g id="elem_JSONReportWriter"><rect codeLine="853" fill="#F1F1F1" height="32" id="JSONReportWriter" rx="2.5" ry="2.5" style="stroke:#181818;stroke-width:0.5;" width="152" x="690.5" y="506"/><ellipse cx="705.5" cy="522" fill="#ADD1B2" rx="11" ry="11" style="stroke:#181818;stroke-width:1.0;"/><path d="M708.4688,527.6406 Q707.8906,527.9375 707.25,528.0781 Q706.6094,528.2344 705.9063,528.2344 Q703.4063,528.2344 702.0781,526.5938 Q700.7656,524.9375 700.7656,521.8125 Q700.7656,518.6875 702.0781,517.0313 Q703.4063,515.375 705.9063,515.375 Q706.6094,515.375 707.25,515.5313 Q707.9063,515.6875 708.4688,515.9844 L708.4688,518.7031 Q707.8438,518.125 707.25,517.8594 Q706.6563,517.5781 706.0313,517.5781 Q704.6875,517.5781 704,518.6563 Q703.3125,519.7188 703.3125,521.8125 Q703.3125,523.9063 704,524.9844 Q704.6875,526.0469 706.0313,526.0469 Q706.6563,526.0469 707.25,525.7813 Q707.8438,525.5 708.4688,524.9219 L708.4688,527.6406 Z " fill="#000000"/><text fill="#000000" font-family="sans-serif" font-size="14" lengthAdjust="spacing" textLength="120" x="719.5" y="526.8467">JSONReportWriter</text></g><!--class ExcelReportWriter--><g id="elem_ExcelReportWriter"><rect codeLine="857" fill="#F1F1F1" height="32" id="ExcelReportWriter" rx="2.5" ry="2.5" style="stroke:#181818;stroke-width:0.5;" width="155" x="878" y="506"/><ellipse cx="893" cy="522" fill="#ADD1B2" rx="11" ry="11" style="stroke:#181818;stroke-width:1.0;"/><path d="M895.9688,527.6406 Q895.3906,527.9375 894.75,528.0781 Q894.1094,528.2344 893.4063,528.2344 Q890.9063,528.2344 889.5781,526.5938 Q888.2656,524.9375 888.2656,521.8125 Q888.2656,518.6875 889.5781,517.0313 Q890.9063,515.375 893.4063,515.375 Q894.1094,515.375 894.75,515.5313 Q895.4063,515.6875 895.9688,515.9844 L895.9688,518.7031 Q895.3438,518.125 894.75,517.8594 Q894.1563,517.5781 893.5313,517.5781 Q892.1875,517.5781 891.5,518.6563 Q890.8125,519.7188 890.8125,521.8125 Q890.8125,523.9063 891.5,524.9844 Q892.1875,526.0469 893.5313,526.0469 Q894.1563,526.0469 894.75,525.7813 Q895.3438,525.5 895.9688,524.9219 L895.9688,527.6406 Z " fill="#000000"/><text fill="#000000" font-family="sans-serif" font-size="14" lengthAdjust="spacing" textLength="123" x="907" y="526.8467">ExcelReportWriter</text></g><!--reverse link Resource to Image--><g id="link_Resource_Image"><path codeLine="861" d="M182.6055,608.0561 C174.1055,630.7461 171.72,637.07 166.23,651.72 " fill="none" id="Resource-backto-Image" style="stroke:#181818;stroke-width:1.0;"/><polygon fill="none" points="188.92,591.2,176.9868,605.9512,188.2242,610.1609,188.92,591.2" style="stroke:#181818;stroke-width:1.0;"/></g><!--reverse link Resource to Script--><g id="link_Resource_Script"><path codeLine="862" d="M246.3945,608.0561 C254.8945,630.7461 257.28,637.07 262.77,651.72 " fill="none" id="Resource-backto-Script" style="stroke:#181818;stroke-width:1.0;"/><polygon fill="none" points="240.08,591.2,240.7758,610.1609,252.0132,605.9512,240.08,591.2" style="stroke:#181818;stroke-width:1.0;"/></g><!--reverse link Resource to StyleSheet--><g id="link_Resource_StyleSheet"><path codeLine="863" d="M312.8006,602.5253 C340.8306,625.2153 355.5,637.07 373.61,651.72 " fill="none" id="Resource-backto-StyleSheet" style="stroke:#181818;stroke-width:1.0;"/><polygon fill="none" points="298.81,591.2,309.0255,607.1888,316.5757,597.8617,298.81,591.2" style="stroke:#181818;stroke-width:1.0;"/></g><!--reverse link Resource to Anchor--><g id="link_Resource_Anchor"><path codeLine="864" d="M121.7711,602.9581 C95.4711,625.6481 82.21,637.07 65.22,651.72 " fill="none" id="Resource-backto-Anchor" style="stroke:#181818;stroke-width:1.0;"/><polygon fill="none" points="135.4,591.2,117.8517,598.4152,125.6905,607.5011,135.4,591.2" style="stroke:#181818;stroke-width:1.0;"/></g><!--reverse link Website to HTMLDocument--><g id="link_Website_HTMLDocument"><path codeLine="866" d="M214.5,145.28 C214.5,183.27 214.5,231.67 214.5,274.82 " fill="none" id="Website-backto-HTMLDocument" style="stroke:#181818;stroke-width:1.0;"/><polygon fill="none" points="214.5,133.28,210.5,139.28,214.5,145.28,218.5,139.28,214.5,133.28" style="stroke:#181818;stroke-width:1.0;"/></g><!--reverse link HTMLDocument to Resource--><g id="link_HTMLDocument_Resource"><path codeLine="867" d="M214.5,392.09 C214.5,414.47 214.5,429 214.5,452.96 " fill="none" id="HTMLDocument-backto-Resource" style="stroke:#181818;stroke-width:1.0;"/><polygon fill="none" points="214.5,380.09,210.5,386.09,214.5,392.09,218.5,386.09,214.5,380.09" style="stroke:#181818;stroke-width:1.0;"/></g><!--reverse link ReportWriter to TextReportWriter--><g id="link_ReportWriter_TextReportWriter"><path codeLine="869" d="M692.5724,405.0145 C653.6324,445.3145 618.82,481.34 595.28,505.7 " fill="none" id="ReportWriter-backto-TextReportWriter" style="stroke:#181818;stroke-width:1.0;"/><polygon fill="none" points="705.08,392.07,688.2575,400.8453,696.8872,409.1837,705.08,392.07" style="stroke:#181818;stroke-width:1.0;"/></g><!--reverse link ReportWriter to JSONReportWriter--><g id="link_ReportWriter_JSONReportWriter"><path codeLine="870" d="M766.5,410.07 C766.5,450.37 766.5,481.34 766.5,505.7 " fill="none" id="ReportWriter-backto-JSONReportWriter" style="stroke:#181818;stroke-width:1.0;"/><polygon fill="none" points="766.5,392.07,760.5,410.07,772.5,410.07,766.5,392.07" style="stroke:#181818;stroke-width:1.0;"/></g><!--reverse link ReportWriter to ExcelReportWriter--><g id="link_ReportWriter_ExcelReportWriter"><path codeLine="871" d="M841.5211,404.9137 C881.0911,445.2137 916.56,481.34 940.48,505.7 " fill="none" id="ReportWriter-backto-ExcelReportWriter" style="stroke:#181818;stroke-width:1.0;"/><polygon fill="none" points="828.91,392.07,837.2398,409.1174,845.8023,400.71,828.91,392.07" style="stroke:#181818;stroke-width:1.0;"/></g><!--link ReportManager to ReportWriter--><g id="link_ReportManager_ReportWriter"><path codeLine="873" d="M766.5,157.07 C766.5,189.54 766.5,223.73 766.5,256.82 " fill="none" id="ReportManager-to-ReportWriter" style="stroke:#181818;stroke-width:1.0;"/><polygon fill="#181818" points="766.5,262.82,770.5,253.82,766.5,257.82,762.5,253.82,766.5,262.82" style="stroke:#181818;stroke-width:1.0;"/><text fill="#000000" font-family="sans-serif" font-size="13" lengthAdjust="spacing" textLength="140" x="767.5" y="229.0669">creates and manages</text><text fill="#000000" font-family="sans-serif" font-size="13" lengthAdjust="spacing" textLength="8" x="758.0625" y="251.973">3</text></g><!--SRC=[ZLHDZvim5BppAwoSieUSUaCH4flGXZO9As1tswC3BuabOqUsqMxwyT_h3qo0JQLoicV6ppFsmsTI0uBcegweWUO0GWP1HR6Kw1KEaYX0lmAaFyehJDT4GAMuk8Re2Qkp9Lf1POXMd59D4SwMp_as2lxuAfjojrtpgcs0gQwKh0IvgF6YmcAHuzMLWZm3J3K6BmpkTAJ19nXBKWCv5hFgpCMOZYqsS9U3vAseVCYB3ZME5Y8TnqwEl6LrnaRrXk6Y_fWC5QAjEJ2YhXPMrmjaHxzRsE_xZR3QPIO_jU0pePgad9rk5frdRV06sPGQwG5tUYEaFok70ckRtX9QBXCzZw8kThelatmVR_qaZv_YBucT9TyxojSOElzGP-UN5UMFRL9iagHqqrMUFhbXl5zjijmENz9raZdmUPrsetorILzSaQpS9FdmhYvSg1rcEhpmhGIgi7RMME6vQTVGz-s35TIWG3I4mIEMO8wNuGRcZdiJMkQgxZKgvxmr7VVO7eyWe7urj7W8RjgOKhrqOiZ9EZzlRk_UHF1_BhN0-3CkveVEg9c4-Xu5OQUXYQ634jxLnCMD_5fa-t-IoNi5z0xR_n3Btuk5QxG9vdfj2lRjDY5SzmQ1VqouneP_JJ1w7mphrnil0tkssZJl7SaqzHt9X-n-AzzRYqM4PfzcemiEqQmIW1L8_RBKgB5IEGl-0W00]--></g></svg>