<?xml version="1.0" encoding="us-ascii" standalone="no"?><svg xmlns="http://www.w3.org/2000/svg" xmlns:xlink="http://www.w3.org/1999/xlink" contentStyleType="text/css" height="691px" preserveAspectRatio="none" style="width:1249px;height:691px;background:#FFFFFF;" version="1.1" viewBox="0 0 1249 691" width="1249px" zoomAndPan="magnify"><defs/><g><!--class Website--><g id="elem_Website"><rect codeLine="912" fill="#F1F1F1" height="72.5938" id="Website" rx="2.5" ry="2.5" style="stroke:#181818;stroke-width:0.5;" width="165" x="455.5" y="60"/><ellipse cx="505.75" cy="76" fill="#ADD1B2" rx="11" ry="11" style="stroke:#181818;stroke-width:1.0;"/><path d="M508.7188,81.6406 Q508.1406,81.9375 507.5,82.0781 Q506.8594,82.2344 506.1563,82.2344 Q503.6563,82.2344 502.3281,80.5938 Q501.0156,78.9375 501.0156,75.8125 Q501.0156,72.6875 502.3281,71.0313 Q503.6563,69.375 506.1563,69.375 Q506.8594,69.375 507.5,69.5313 Q508.1563,69.6875 508.7188,69.9844 L508.7188,72.7031 Q508.0938,72.125 507.5,71.8594 Q506.9063,71.5781 506.2813,71.5781 Q504.9375,71.5781 504.25,72.6563 Q503.5625,73.7188 503.5625,75.8125 Q503.5625,77.9063 504.25,78.9844 Q504.9375,80.0469 506.2813,80.0469 Q506.9063,80.0469 507.5,79.7813 Q508.0938,79.5 508.7188,78.9219 L508.7188,81.6406 Z " fill="#000000"/><text fill="#000000" font-family="sans-serif" font-size="14" lengthAdjust="spacing" textLength="56" x="526.25" y="80.8467">Website</text><line style="stroke:#181818;stroke-width:0.5;" x1="456.5" x2="619.5" y1="92" y2="92"/><text fill="#000000" font-family="sans-serif" font-size="14" lengthAdjust="spacing" textLength="133" x="461.5" y="108.9951">localDirectory: Path</text><text fill="#000000" font-family="sans-serif" font-size="14" lengthAdjust="spacing" textLength="153" x="461.5" y="125.292">urls: Collection&lt;URL&gt;</text></g><!--class HTMLDocument--><g id="elem_HTMLDocument"><rect codeLine="917" fill="#F1F1F1" height="105.1875" id="HTMLDocument" rx="2.5" ry="2.5" style="stroke:#181818;stroke-width:0.5;" width="267" x="404.5" y="275"/><ellipse cx="478.25" cy="291" fill="#ADD1B2" rx="11" ry="11" style="stroke:#181818;stroke-width:1.0;"/><path d="M481.2188,296.6406 Q480.6406,296.9375 480,297.0781 Q479.3594,297.2344 478.6563,297.2344 Q476.1563,297.2344 474.8281,295.5938 Q473.5156,293.9375 473.5156,290.8125 Q473.5156,287.6875 474.8281,286.0313 Q476.1563,284.375 478.6563,284.375 Q479.3594,284.375 480,284.5313 Q480.6563,284.6875 481.2188,284.9844 L481.2188,287.7031 Q480.5938,287.125 480,286.8594 Q479.4063,286.5781 478.7813,286.5781 Q477.4375,286.5781 476.75,287.6563 Q476.0625,288.7188 476.0625,290.8125 Q476.0625,292.9063 476.75,293.9844 Q477.4375,295.0469 478.7813,295.0469 Q479.4063,295.0469 480,294.7813 Q480.5938,294.5 481.2188,293.9219 L481.2188,296.6406 Z " fill="#000000"/><text fill="#000000" font-family="sans-serif" font-size="14" lengthAdjust="spacing" textLength="111" x="498.75" y="295.8467">HTMLDocument</text><line style="stroke:#181818;stroke-width:0.5;" x1="405.5" x2="670.5" y1="307" y2="307"/><text fill="#000000" font-family="sans-serif" font-size="14" lengthAdjust="spacing" textLength="186" x="410.5" y="323.9951">scripts: Collection&lt;Script&gt;</text><text fill="#000000" font-family="sans-serif" font-size="14" lengthAdjust="spacing" textLength="255" x="410.5" y="340.292">stylesheets: Collection&lt;StyleSheet&gt;</text><text fill="#000000" font-family="sans-serif" font-size="14" lengthAdjust="spacing" textLength="193" x="410.5" y="356.5889">images: Collection&lt;Image&gt;</text><text fill="#000000" font-family="sans-serif" font-size="14" lengthAdjust="spacing" textLength="206" x="410.5" y="372.8857">anchors: Collection&lt;Anchor&gt;</text></g><!--class Resource--><g id="elem_Resource"><rect codeLine="924" fill="#F1F1F1" height="137.7813" id="Resource" rx="2.5" ry="2.5" style="stroke:#181818;stroke-width:0.5;" width="284" x="396" y="453"/><ellipse cx="500.25" cy="469" fill="#ADD1B2" rx="11" ry="11" style="stroke:#181818;stroke-width:1.0;"/><path d="M503.2188,474.6406 Q502.6406,474.9375 502,475.0781 Q501.3594,475.2344 500.6563,475.2344 Q498.1563,475.2344 496.8281,473.5938 Q495.5156,471.9375 495.5156,468.8125 Q495.5156,465.6875 496.8281,464.0313 Q498.1563,462.375 500.6563,462.375 Q501.3594,462.375 502,462.5313 Q502.6563,462.6875 503.2188,462.9844 L503.2188,465.7031 Q502.5938,465.125 502,464.8594 Q501.4063,464.5781 500.7813,464.5781 Q499.4375,464.5781 498.75,465.6563 Q498.0625,466.7188 498.0625,468.8125 Q498.0625,470.9063 498.75,471.9844 Q499.4375,473.0469 500.7813,473.0469 Q501.4063,473.0469 502,472.7813 Q502.5938,472.5 503.2188,471.9219 L503.2188,474.6406 Z " fill="#000000"/><text fill="#000000" font-family="sans-serif" font-size="14" lengthAdjust="spacing" textLength="67" x="520.75" y="473.8467">Resource</text><line style="stroke:#181818;stroke-width:0.5;" x1="397" x2="679" y1="485" y2="485"/><text fill="#000000" font-family="sans-serif" font-size="14" lengthAdjust="spacing" textLength="71" x="402" y="501.9951">path: Path</text><text fill="#000000" font-family="sans-serif" font-size="14" lengthAdjust="spacing" textLength="53" x="402" y="518.292">url: URL</text><text fill="#000000" font-family="sans-serif" font-size="14" lengthAdjust="spacing" textLength="272" x="402" y="534.5889">foundOn: Collection&lt;HTMLDocument&gt;</text><text fill="#000000" font-family="sans-serif" font-size="14" lengthAdjust="spacing" textLength="113" x="402" y="550.8857">location: Locality</text><text fill="#000000" font-family="sans-serif" font-size="14" lengthAdjust="spacing" textLength="218" x="402" y="567.1826">typeOfResource: ResourceKind</text><text fill="#000000" font-family="sans-serif" font-size="14" lengthAdjust="spacing" textLength="105" x="402" y="583.4795">sizeOfFile: long</text></g><!--class Anchor--><g id="elem_Anchor"><rect codeLine="933" fill="#F1F1F1" height="32" id="Anchor" rx="2.5" ry="2.5" style="stroke:#181818;stroke-width:0.5;" width="81" x="330.5" y="652"/><ellipse cx="345.5" cy="668" fill="#ADD1B2" rx="11" ry="11" style="stroke:#181818;stroke-width:1.0;"/><path d="M348.4688,673.6406 Q347.8906,673.9375 347.25,674.0781 Q346.6094,674.2344 345.9063,674.2344 Q343.4063,674.2344 342.0781,672.5938 Q340.7656,670.9375 340.7656,667.8125 Q340.7656,664.6875 342.0781,663.0313 Q343.4063,661.375 345.9063,661.375 Q346.6094,661.375 347.25,661.5313 Q347.9063,661.6875 348.4688,661.9844 L348.4688,664.7031 Q347.8438,664.125 347.25,663.8594 Q346.6563,663.5781 346.0313,663.5781 Q344.6875,663.5781 344,664.6563 Q343.3125,665.7188 343.3125,667.8125 Q343.3125,669.9063 344,670.9844 Q344.6875,672.0469 346.0313,672.0469 Q346.6563,672.0469 347.25,671.7813 Q347.8438,671.5 348.4688,670.9219 L348.4688,673.6406 Z " fill="#000000"/><text fill="#000000" font-family="sans-serif" font-size="14" lengthAdjust="spacing" textLength="49" x="359.5" y="672.8467">Anchor</text></g><!--class Image--><g id="elem_Image"><rect codeLine="937" fill="#F1F1F1" height="32" id="Image" rx="2.5" ry="2.5" style="stroke:#181818;stroke-width:0.5;" width="74" x="447" y="652"/><ellipse cx="462" cy="668" fill="#ADD1B2" rx="11" ry="11" style="stroke:#181818;stroke-width:1.0;"/><path d="M464.9688,673.6406 Q464.3906,673.9375 463.75,674.0781 Q463.1094,674.2344 462.4063,674.2344 Q459.9063,674.2344 458.5781,672.5938 Q457.2656,670.9375 457.2656,667.8125 Q457.2656,664.6875 458.5781,663.0313 Q459.9063,661.375 462.4063,661.375 Q463.1094,661.375 463.75,661.5313 Q464.4063,661.6875 464.9688,661.9844 L464.9688,664.7031 Q464.3438,664.125 463.75,663.8594 Q463.1563,663.5781 462.5313,663.5781 Q461.1875,663.5781 460.5,664.6563 Q459.8125,665.7188 459.8125,667.8125 Q459.8125,669.9063 460.5,670.9844 Q461.1875,672.0469 462.5313,672.0469 Q463.1563,672.0469 463.75,671.7813 Q464.3438,671.5 464.9688,670.9219 L464.9688,673.6406 Z " fill="#000000"/><text fill="#000000" font-family="sans-serif" font-size="14" lengthAdjust="spacing" textLength="42" x="476" y="672.8467">Image</text></g><!--class Script--><g id="elem_Script"><rect codeLine="940" fill="#F1F1F1" height="32" id="Script" rx="2.5" ry="2.5" style="stroke:#181818;stroke-width:0.5;" width="71" x="556.5" y="652"/><ellipse cx="571.5" cy="668" fill="#ADD1B2" rx="11" ry="11" style="stroke:#181818;stroke-width:1.0;"/><path d="M574.4688,673.6406 Q573.8906,673.9375 573.25,674.0781 Q572.6094,674.2344 571.9063,674.2344 Q569.4063,674.2344 568.0781,672.5938 Q566.7656,670.9375 566.7656,667.8125 Q566.7656,664.6875 568.0781,663.0313 Q569.4063,661.375 571.9063,661.375 Q572.6094,661.375 573.25,661.5313 Q573.9063,661.6875 574.4688,661.9844 L574.4688,664.7031 Q573.8438,664.125 573.25,663.8594 Q572.6563,663.5781 572.0313,663.5781 Q570.6875,663.5781 570,664.6563 Q569.3125,665.7188 569.3125,667.8125 Q569.3125,669.9063 570,670.9844 Q570.6875,672.0469 572.0313,672.0469 Q572.6563,672.0469 573.25,671.7813 Q573.8438,671.5 574.4688,670.9219 L574.4688,673.6406 Z " fill="#000000"/><text fill="#000000" font-family="sans-serif" font-size="14" lengthAdjust="spacing" textLength="39" x="585.5" y="672.8467">Script</text></g><!--class StyleSheet--><g id="elem_StyleSheet"><rect codeLine="943" fill="#F1F1F1" height="32" id="StyleSheet" rx="2.5" ry="2.5" style="stroke:#181818;stroke-width:0.5;" width="106" x="663" y="652"/><ellipse cx="678" cy="668" fill="#ADD1B2" rx="11" ry="11" style="stroke:#181818;stroke-width:1.0;"/><path d="M680.9688,673.6406 Q680.3906,673.9375 679.75,674.0781 Q679.1094,674.2344 678.4063,674.2344 Q675.9063,674.2344 674.5781,672.5938 Q673.2656,670.9375 673.2656,667.8125 Q673.2656,664.6875 674.5781,663.0313 Q675.9063,661.375 678.4063,661.375 Q679.1094,661.375 679.75,661.5313 Q680.4063,661.6875 680.9688,661.9844 L680.9688,664.7031 Q680.3438,664.125 679.75,663.8594 Q679.1563,663.5781 678.5313,663.5781 Q677.1875,663.5781 676.5,664.6563 Q675.8125,665.7188 675.8125,667.8125 Q675.8125,669.9063 676.5,670.9844 Q677.1875,672.0469 678.5313,672.0469 Q679.1563,672.0469 679.75,671.7813 Q680.3438,671.5 680.9688,670.9219 L680.9688,673.6406 Z " fill="#000000"/><text fill="#000000" font-family="sans-serif" font-size="14" lengthAdjust="spacing" textLength="74" x="692" y="672.8467">StyleSheet</text></g><!--class Locality--><g id="elem_Locality"><rect codeLine="946" fill="#F1F1F1" height="97.1563" id="Locality" rx="2.5" ry="2.5" style="stroke:#181818;stroke-width:0.5;" width="91" x="29.5" y="48"/><ellipse cx="48.55" cy="68.1328" fill="#EB937F" rx="11" ry="11" style="stroke:#181818;stroke-width:1.0;"/><path d="M52.6594,74.1328 L44.9406,74.1328 L44.9406,61.7422 L52.6594,61.7422 L52.6594,63.8984 L47.3938,63.8984 L47.3938,66.5703 L52.1594,66.5703 L52.1594,68.7266 L47.3938,68.7266 L47.3938,71.9766 L52.6594,71.9766 L52.6594,74.1328 Z " fill="#000000"/><text fill="#000000" font-family="sans-serif" font-size="12" font-style="italic" lengthAdjust="spacing" textLength="49" x="63.95" y="64.1387">&#171;Enum&#187;</text><text fill="#000000" font-family="sans-serif" font-size="14" lengthAdjust="spacing" textLength="50" x="63.45" y="79.9639">Locality</text><line style="stroke:#181818;stroke-width:0.5;" x1="30.5" x2="119.5" y1="88.2656" y2="88.2656"/><text fill="#000000" font-family="sans-serif" font-size="14" lengthAdjust="spacing" textLength="67" x="35.5" y="105.2607">INTERNAL</text><text fill="#000000" font-family="sans-serif" font-size="14" lengthAdjust="spacing" textLength="79" x="35.5" y="121.5576">INTRAPAGE</text><text fill="#000000" font-family="sans-serif" font-size="14" lengthAdjust="spacing" textLength="72" x="35.5" y="137.8545">EXTERNAL</text></g><!--class ResourceKind--><g id="elem_ResourceKind"><rect codeLine="952" fill="#F1F1F1" height="178.6406" id="ResourceKind" rx="2.5" ry="2.5" style="stroke:#181818;stroke-width:0.5;" width="129" x="155.5" y="7"/><ellipse cx="170.5" cy="27.1328" fill="#EB937F" rx="11" ry="11" style="stroke:#181818;stroke-width:1.0;"/><path d="M174.6094,33.1328 L166.8906,33.1328 L166.8906,20.7422 L174.6094,20.7422 L174.6094,22.8984 L169.3438,22.8984 L169.3438,25.5703 L174.1094,25.5703 L174.1094,27.7266 L169.3438,27.7266 L169.3438,30.9766 L174.6094,30.9766 L174.6094,33.1328 Z " fill="#000000"/><text fill="#000000" font-family="sans-serif" font-size="12" font-style="italic" lengthAdjust="spacing" textLength="49" x="208.5" y="23.1387">&#171;Enum&#187;</text><text fill="#000000" font-family="sans-serif" font-size="14" lengthAdjust="spacing" textLength="97" x="184.5" y="38.9639">ResourceKind</text><line style="stroke:#181818;stroke-width:0.5;" x1="156.5" x2="283.5" y1="47.2656" y2="47.2656"/><text fill="#000000" font-family="sans-serif" font-size="14" lengthAdjust="spacing" textLength="44" x="161.5" y="64.2607">IMAGE</text><text fill="#000000" font-family="sans-serif" font-size="14" lengthAdjust="spacing" textLength="89" x="161.5" y="80.5576">STYLESHEET</text><text fill="#000000" font-family="sans-serif" font-size="14" lengthAdjust="spacing" textLength="50" x="161.5" y="96.8545">SCRIPT</text><text fill="#000000" font-family="sans-serif" font-size="14" lengthAdjust="spacing" textLength="60" x="161.5" y="113.1514">ANCHOR</text><text fill="#000000" font-family="sans-serif" font-size="14" lengthAdjust="spacing" textLength="43" x="161.5" y="129.4482">VIDEO</text><text fill="#000000" font-family="sans-serif" font-size="14" lengthAdjust="spacing" textLength="44" x="161.5" y="145.7451">AUDIO</text><text fill="#000000" font-family="sans-serif" font-size="14" lengthAdjust="spacing" textLength="60" x="161.5" y="162.042">ARCHIVE</text><text fill="#000000" font-family="sans-serif" font-size="14" lengthAdjust="spacing" textLength="49" x="161.5" y="178.3389">OTHER</text></g><!--class ReportManager--><g id="elem_ReportManager"><rect codeLine="963" fill="#F1F1F1" height="121.4844" id="ReportManager" rx="2.5" ry="2.5" style="stroke:#181818;stroke-width:0.5;" width="289" x="831.5" y="36"/><ellipse cx="918.25" cy="52" fill="#ADD1B2" rx="11" ry="11" style="stroke:#181818;stroke-width:1.0;"/><path d="M921.2188,57.6406 Q920.6406,57.9375 920,58.0781 Q919.3594,58.2344 918.6563,58.2344 Q916.1563,58.2344 914.8281,56.5938 Q913.5156,54.9375 913.5156,51.8125 Q913.5156,48.6875 914.8281,47.0313 Q916.1563,45.375 918.6563,45.375 Q919.3594,45.375 920,45.5313 Q920.6563,45.6875 921.2188,45.9844 L921.2188,48.7031 Q920.5938,48.125 920,47.8594 Q919.4063,47.5781 918.7813,47.5781 Q917.4375,47.5781 916.75,48.6563 Q916.0625,49.7188 916.0625,51.8125 Q916.0625,53.9063 916.75,54.9844 Q917.4375,56.0469 918.7813,56.0469 Q919.4063,56.0469 920,55.7813 Q920.5938,55.5 921.2188,54.9219 L921.2188,57.6406 Z " fill="#000000"/><text fill="#000000" font-family="sans-serif" font-size="14" lengthAdjust="spacing" textLength="107" x="938.75" y="56.8467">ReportManager</text><line style="stroke:#181818;stroke-width:0.5;" x1="832.5" x2="1119.5" y1="68" y2="68"/><text fill="#000000" font-family="sans-serif" font-size="14" lengthAdjust="spacing" textLength="203" x="837.5" y="84.9951">setSourceData(site: Website)</text><text fill="#000000" font-family="sans-serif" font-size="14" lengthAdjust="spacing" textLength="178" x="837.5" y="101.292">determineBaseFilename()</text><text fill="#000000" font-family="sans-serif" font-size="14" lengthAdjust="spacing" textLength="277" x="837.5" y="117.5889">writeReportNames(outs: BufferedWriter)</text><text fill="#000000" font-family="sans-serif" font-size="14" lengthAdjust="spacing" textLength="4" x="837.5" y="133.8857">&#160;</text><text fill="#000000" font-family="sans-serif" font-size="14" lengthAdjust="spacing" textLength="58" x="837.5" y="150.1826">writeAll()</text></g><!--class ReportWriter--><g id="elem_ReportWriter"><rect codeLine="971" fill="#F1F1F1" height="129.4844" id="ReportWriter" rx="2.5" ry="2.5" style="stroke:#181818;stroke-width:0.5;" width="265" x="843.5" y="263"/><ellipse cx="928.25" cy="279" fill="#ADD1B2" rx="11" ry="11" style="stroke:#181818;stroke-width:1.0;"/><path d="M931.2188,284.6406 Q930.6406,284.9375 930,285.0781 Q929.3594,285.2344 928.6563,285.2344 Q926.1563,285.2344 924.8281,283.5938 Q923.5156,281.9375 923.5156,278.8125 Q923.5156,275.6875 924.8281,274.0313 Q926.1563,272.375 928.6563,272.375 Q929.3594,272.375 930,272.5313 Q930.6563,272.6875 931.2188,272.9844 L931.2188,275.7031 Q930.5938,275.125 930,274.8594 Q929.4063,274.5781 928.7813,274.5781 Q927.4375,274.5781 926.75,275.6563 Q926.0625,276.7188 926.0625,278.8125 Q926.0625,280.9063 926.75,281.9844 Q927.4375,283.0469 928.7813,283.0469 Q929.4063,283.0469 930,282.7813 Q930.5938,282.5 931.2188,281.9219 L931.2188,284.6406 Z " fill="#000000"/><text fill="#000000" font-family="sans-serif" font-size="14" lengthAdjust="spacing" textLength="87" x="948.75" y="283.8467">ReportWriter</text><line style="stroke:#181818;stroke-width:0.5;" x1="844.5" x2="1107.5" y1="295" y2="295"/><text fill="#000000" font-family="sans-serif" font-size="14" lengthAdjust="spacing" textLength="119" x="849.5" y="311.9951">website: Website</text><line style="stroke:#181818;stroke-width:0.5;" x1="844.5" x2="1107.5" y1="319.2969" y2="319.2969"/><text fill="#000000" font-family="sans-serif" font-size="14" lengthAdjust="spacing" textLength="203" x="849.5" y="336.292">setSourceData(site: Website)</text><text fill="#000000" font-family="sans-serif" font-size="14" lengthAdjust="spacing" textLength="253" x="849.5" y="352.5889">setBaseName(baseFileName: String)</text><text fill="#000000" font-family="sans-serif" font-size="14" lengthAdjust="spacing" textLength="4" x="849.5" y="368.8857">&#160;</text><text fill="#000000" font-family="sans-serif" font-size="14" lengthAdjust="spacing" textLength="43" x="849.5" y="385.1826">write()</text></g><!--class TextReportWriter--><g id="elem_TextReportWriter"><rect codeLine="980" fill="#F1F1F1" height="32" id="TextReportWriter" rx="2.5" ry="2.5" style="stroke:#181818;stroke-width:0.5;" width="149" x="715.5" y="506"/><ellipse cx="730.5" cy="522" fill="#ADD1B2" rx="11" ry="11" style="stroke:#181818;stroke-width:1.0;"/><path d="M733.4688,527.6406 Q732.8906,527.9375 732.25,528.0781 Q731.6094,528.2344 730.9063,528.2344 Q728.4063,528.2344 727.0781,526.5938 Q725.7656,524.9375 725.7656,521.8125 Q725.7656,518.6875 727.0781,517.0313 Q728.4063,515.375 730.9063,515.375 Q731.6094,515.375 732.25,515.5313 Q732.9063,515.6875 733.4688,515.9844 L733.4688,518.7031 Q732.8438,518.125 732.25,517.8594 Q731.6563,517.5781 731.0313,517.5781 Q729.6875,517.5781 729,518.6563 Q728.3125,519.7188 728.3125,521.8125 Q728.3125,523.9063 729,524.9844 Q729.6875,526.0469 731.0313,526.0469 Q731.6563,526.0469 732.25,525.7813 Q732.8438,525.5 733.4688,524.9219 L733.4688,527.6406 Z " fill="#000000"/><text fill="#000000" font-family="sans-serif" font-size="14" lengthAdjust="spacing" textLength="117" x="744.5" y="526.8467">TextReportWriter</text></g><!--class JSONReportWriter--><g id="elem_JSONReportWriter"><rect codeLine="984" fill="#F1F1F1" height="32" id="JSONReportWriter" rx="2.5" ry="2.5" style="stroke:#181818;stroke-width:0.5;" width="152" x="900" y="506"/><ellipse cx="915" cy="522" fill="#ADD1B2" rx="11" ry="11" style="stroke:#181818;stroke-width:1.0;"/><path d="M917.9688,527.6406 Q917.3906,527.9375 916.75,528.0781 Q916.1094,528.2344 915.4063,528.2344 Q912.9063,528.2344 911.5781,526.5938 Q910.2656,524.9375 910.2656,521.8125 Q910.2656,518.6875 911.5781,517.0313 Q912.9063,515.375 915.4063,515.375 Q916.1094,515.375 916.75,515.5313 Q917.4063,515.6875 917.9688,515.9844 L917.9688,518.7031 Q917.3438,518.125 916.75,517.8594 Q916.1563,517.5781 915.5313,517.5781 Q914.1875,517.5781 913.5,518.6563 Q912.8125,519.7188 912.8125,521.8125 Q912.8125,523.9063 913.5,524.9844 Q914.1875,526.0469 915.5313,526.0469 Q916.1563,526.0469 916.75,525.7813 Q917.3438,525.5 917.9688,524.9219 L917.9688,527.6406 Z " fill="#000000"/><text fill="#000000" font-family="sans-serif" font-size="14" lengthAdjust="spacing" textLength="120" x="929" y="526.8467">JSONReportWriter</text></g><!--class ExcelReportWriter--><g id="elem_ExcelReportWriter"><rect codeLine="988" fill="#F1F1F1" height="32" id="ExcelReportWriter" rx="2.5" ry="2.5" style="stroke:#181818;stroke-width:0.5;" width="155" x="1087.5" y="506"/><ellipse cx="1102.5" cy="522" fill="#ADD1B2" rx="11" ry="11" style="stroke:#181818;stroke-width:1.0;"/><path d="M1105.4688,527.6406 Q1104.8906,527.9375 1104.25,528.0781 Q1103.6094,528.2344 1102.9063,528.2344 Q1100.4063,528.2344 1099.0781,526.5938 Q1097.7656,524.9375 1097.7656,521.8125 Q1097.7656,518.6875 1099.0781,517.0313 Q1100.4063,515.375 1102.9063,515.375 Q1103.6094,515.375 1104.25,515.5313 Q1104.9063,515.6875 1105.4688,515.9844 L1105.4688,518.7031 Q1104.8438,518.125 1104.25,517.8594 Q1103.6563,517.5781 1103.0313,517.5781 Q1101.6875,517.5781 1101,518.6563 Q1100.3125,519.7188 1100.3125,521.8125 Q1100.3125,523.9063 1101,524.9844 Q1101.6875,526.0469 1103.0313,526.0469 Q1103.6563,526.0469 1104.25,525.7813 Q1104.8438,525.5 1105.4688,524.9219 L1105.4688,527.6406 Z " fill="#000000"/><text fill="#000000" font-family="sans-serif" font-size="14" lengthAdjust="spacing" textLength="123" x="1116.5" y="526.8467">ExcelReportWriter</text></g><!--class WebsiteBuilder--><g id="elem_WebsiteBuilder"><rect codeLine="992" fill="#F1F1F1" height="32" id="WebsiteBuilder" rx="2.5" ry="2.5" style="stroke:#181818;stroke-width:0.5;" width="136" x="7" y="311.5"/><ellipse cx="22" cy="327.5" fill="#ADD1B2" rx="11" ry="11" style="stroke:#181818;stroke-width:1.0;"/><path d="M24.9688,333.1406 Q24.3906,333.4375 23.75,333.5781 Q23.1094,333.7344 22.4063,333.7344 Q19.9063,333.7344 18.5781,332.0938 Q17.2656,330.4375 17.2656,327.3125 Q17.2656,324.1875 18.5781,322.5313 Q19.9063,320.875 22.4063,320.875 Q23.1094,320.875 23.75,321.0313 Q24.4063,321.1875 24.9688,321.4844 L24.9688,324.2031 Q24.3438,323.625 23.75,323.3594 Q23.1563,323.0781 22.5313,323.0781 Q21.1875,323.0781 20.5,324.1563 Q19.8125,325.2188 19.8125,327.3125 Q19.8125,329.4063 20.5,330.4844 Q21.1875,331.5469 22.5313,331.5469 Q23.1563,331.5469 23.75,331.2813 Q24.3438,331 24.9688,330.4219 L24.9688,333.1406 Z " fill="#000000"/><text fill="#000000" font-family="sans-serif" font-size="14" lengthAdjust="spacing" textLength="104" x="36" y="332.3467">WebsiteBuilder</text></g><!--class HTMLDocumentBuilder--><g id="elem_HTMLDocumentBuilder"><rect codeLine="996" fill="#F1F1F1" height="32" id="HTMLDocumentBuilder" rx="2.5" ry="2.5" style="stroke:#181818;stroke-width:0.5;" width="191" x="178.5" y="311.5"/><ellipse cx="193.5" cy="327.5" fill="#ADD1B2" rx="11" ry="11" style="stroke:#181818;stroke-width:1.0;"/><path d="M196.4688,333.1406 Q195.8906,333.4375 195.25,333.5781 Q194.6094,333.7344 193.9063,333.7344 Q191.4063,333.7344 190.0781,332.0938 Q188.7656,330.4375 188.7656,327.3125 Q188.7656,324.1875 190.0781,322.5313 Q191.4063,320.875 193.9063,320.875 Q194.6094,320.875 195.25,321.0313 Q195.9063,321.1875 196.4688,321.4844 L196.4688,324.2031 Q195.8438,323.625 195.25,323.3594 Q194.6563,323.0781 194.0313,323.0781 Q192.6875,323.0781 192,324.1563 Q191.3125,325.2188 191.3125,327.3125 Q191.3125,329.4063 192,330.4844 Q192.6875,331.5469 194.0313,331.5469 Q194.6563,331.5469 195.25,331.2813 Q195.8438,331 196.4688,330.4219 L196.4688,333.1406 Z " fill="#000000"/><text fill="#000000" font-family="sans-serif" font-size="14" lengthAdjust="spacing" textLength="159" x="207.5" y="332.3467">HTMLDocumentBuilder</text></g><!--reverse link Resource to Image--><g id="link_Resource_Image"><path codeLine="1000" d="M506.1055,608.0561 C497.6055,630.7461 495.22,637.07 489.73,651.72 " fill="none" id="Resource-backto-Image" style="stroke:#181818;stroke-width:1.0;"/><polygon fill="none" points="512.42,591.2,500.4868,605.9512,511.7242,610.1609,512.42,591.2" style="stroke:#181818;stroke-width:1.0;"/></g><!--reverse link Resource to Script--><g id="link_Resource_Script"><path codeLine="1001" d="M569.8945,608.0561 C578.3945,630.7461 580.78,637.07 586.27,651.72 " fill="none" id="Resource-backto-Script" style="stroke:#181818;stroke-width:1.0;"/><polygon fill="none" points="563.58,591.2,564.2758,610.1609,575.5132,605.9512,563.58,591.2" style="stroke:#181818;stroke-width:1.0;"/></g><!--reverse link Resource to StyleSheet--><g id="link_Resource_StyleSheet"><path codeLine="1002" d="M636.3006,602.5253 C664.3306,625.2153 679,637.07 697.11,651.72 " fill="none" id="Resource-backto-StyleSheet" style="stroke:#181818;stroke-width:1.0;"/><polygon fill="none" points="622.31,591.2,632.5255,607.1888,640.0757,597.8617,622.31,591.2" style="stroke:#181818;stroke-width:1.0;"/></g><!--reverse link Resource to Anchor--><g id="link_Resource_Anchor"><path codeLine="1003" d="M445.2711,602.9581 C418.9711,625.6481 405.71,637.07 388.72,651.72 " fill="none" id="Resource-backto-Anchor" style="stroke:#181818;stroke-width:1.0;"/><polygon fill="none" points="458.9,591.2,441.3517,598.4152,449.1905,607.5011,458.9,591.2" style="stroke:#181818;stroke-width:1.0;"/></g><!--reverse link Website to HTMLDocument--><g id="link_Website_HTMLDocument"><path codeLine="1005" d="M538,145.28 C538,183.27 538,231.67 538,274.82 " fill="none" id="Website-backto-HTMLDocument" style="stroke:#181818;stroke-width:1.0;"/><polygon fill="none" points="538,133.28,534,139.28,538,145.28,542,139.28,538,133.28" style="stroke:#181818;stroke-width:1.0;"/></g><!--reverse link HTMLDocument to Resource--><g id="link_HTMLDocument_Resource"><path codeLine="1006" d="M538,392.09 C538,414.47 538,429 538,452.96 " fill="none" id="HTMLDocument-backto-Resource" style="stroke:#181818;stroke-width:1.0;"/><polygon fill="none" points="538,380.09,534,386.09,538,392.09,542,386.09,538,380.09" style="stroke:#181818;stroke-width:1.0;"/></g><!--reverse link ReportWriter to TextReportWriter--><g id="link_ReportWriter_TextReportWriter"><path codeLine="1008" d="M902.0724,405.0145 C863.1324,445.3145 828.32,481.34 804.78,505.7 " fill="none" id="ReportWriter-backto-TextReportWriter" style="stroke:#181818;stroke-width:1.0;"/><polygon fill="none" points="914.58,392.07,897.7575,400.8453,906.3872,409.1837,914.58,392.07" style="stroke:#181818;stroke-width:1.0;"/></g><!--reverse link ReportWriter to JSONReportWriter--><g id="link_ReportWriter_JSONReportWriter"><path codeLine="1009" d="M976,410.07 C976,450.37 976,481.34 976,505.7 " fill="none" id="ReportWriter-backto-JSONReportWriter" style="stroke:#181818;stroke-width:1.0;"/><polygon fill="none" points="976,392.07,970,410.07,982,410.07,976,392.07" style="stroke:#181818;stroke-width:1.0;"/></g><!--reverse link ReportWriter to ExcelReportWriter--><g id="link_ReportWriter_ExcelReportWriter"><path codeLine="1010" d="M1051.0211,404.9137 C1090.5911,445.2137 1126.06,481.34 1149.98,505.7 " fill="none" id="ReportWriter-backto-ExcelReportWriter" style="stroke:#181818;stroke-width:1.0;"/><polygon fill="none" points="1038.41,392.07,1046.7398,409.1174,1055.3023,400.71,1038.41,392.07" style="stroke:#181818;stroke-width:1.0;"/></g><!--link ReportManager to ReportWriter--><g id="link_ReportManager_ReportWriter"><path codeLine="1012" d="M976,157.07 C976,189.54 976,223.73 976,256.82 " fill="none" id="ReportManager-to-ReportWriter" style="stroke:#181818;stroke-width:1.0;"/><polygon fill="#181818" points="976,262.82,980,253.82,976,257.82,972,253.82,976,262.82" style="stroke:#181818;stroke-width:1.0;"/><text fill="#000000" font-family="sans-serif" font-size="13" lengthAdjust="spacing" textLength="140" x="977" y="229.0669">creates and manages</text><text fill="#000000" font-family="sans-serif" font-size="13" lengthAdjust="spacing" textLength="8" x="967.5625" y="251.973">3</text></g><!--SRC=[ZLJBZgCm4Bpp5LPEcKDEUqCH4adO3RiaHC0yzaYWarWoTcGRpMGV_xv-O0BCZBGvkQlAtTLDnnTS0uBcAc-eWUO8N7XUHKeXq3CS1PQ0Vdj8_GYhIhB172h9-Cr7Xr9U3D5o8doqPeGe2ZEwVCoImFlhicoBNR9XLTi0bLqgKN5ybUDBkS42oyiR0N41c6eqdclSwd1Jdc4iYJLasP9M5yR7T6YmWRiC16jvvPgyggR6hVb8jME24sjfdT9Hlc5pGJycJVaeqGF3ycPWURj2UdBL_Bxk3qnhspF-fGHVCL4aOVHyjsWzAuDto7Ifa1wmqniX_Qmi2hHjUajekOnK70HTs_6-YB9zcBWW2m_XjyX4qKj7kHn3v-_oxDorlFYPHFasYWeRhhFuO8_XVhrDCtDyYZTHQi77JToTilKsVh99qc8RPSDlTMLSxaggckTkbK3cniwcbELShwllzlR126gGm1jCOLKAqEEbPGDpoxro9RDPzmeLSzRgZLkrfnDmg9yrpH-ykpOaH5sT6BAopi-hhTsRyFxFfH9eVzh5_DWPrO6llYF7z3mqCNHGm9kSkBYJt_Dq_oaPlLL0FcKxSwiMatf23LT-pFV_fUMVnSBkw0IpQpe5-qsT47RnFS-zGqnXm-hUw6dHhBkllGmwCzcce_f0CXtO1v9tOtEbt5ek5W6QVPcDTiD7iuf3AK6eHwb6ZP6AcVSF]--></g></svg>