<?xml version="1.0" encoding="us-ascii" standalone="no"?><svg xmlns="http://www.w3.org/2000/svg" xmlns:xlink="http://www.w3.org/1999/xlink" contentStyleType="text/css" height="648px" preserveAspectRatio="none" style="width:1214px;height:648px;background:#FFFFFF;" version="1.1" viewBox="0 0 1214 648" width="1214px" zoomAndPan="magnify"><defs/><g><!--class Website--><g id="elem_Website"><rect codeLine="665" fill="#F1F1F1" height="72.5938" id="Website" rx="2.5" ry="2.5" style="stroke:#181818;stroke-width:0.5;" width="165" x="132" y="60"/><ellipse cx="182.25" cy="76" fill="#ADD1B2" rx="11" ry="11" style="stroke:#181818;stroke-width:1.0;"/><path d="M185.2188,81.6406 Q184.6406,81.9375 184,82.0781 Q183.3594,82.2344 182.6563,82.2344 Q180.1563,82.2344 178.8281,80.5938 Q177.5156,78.9375 177.5156,75.8125 Q177.5156,72.6875 178.8281,71.0313 Q180.1563,69.375 182.6563,69.375 Q183.3594,69.375 184,69.5313 Q184.6563,69.6875 185.2188,69.9844 L185.2188,72.7031 Q184.5938,72.125 184,71.8594 Q183.4063,71.5781 182.7813,71.5781 Q181.4375,71.5781 180.75,72.6563 Q180.0625,73.7188 180.0625,75.8125 Q180.0625,77.9063 180.75,78.9844 Q181.4375,80.0469 182.7813,80.0469 Q183.4063,80.0469 184,79.7813 Q184.5938,79.5 185.2188,78.9219 L185.2188,81.6406 Z " fill="#000000"/><text fill="#000000" font-family="sans-serif" font-size="14" lengthAdjust="spacing" textLength="56" x="202.75" y="80.8467">Website</text><line style="stroke:#181818;stroke-width:0.5;" x1="133" x2="296" y1="92" y2="92"/><text fill="#000000" font-family="sans-serif" font-size="14" lengthAdjust="spacing" textLength="133" x="138" y="108.9951">localDirectory: Path</text><text fill="#000000" font-family="sans-serif" font-size="14" lengthAdjust="spacing" textLength="153" x="138" y="125.292">urls: Collection&lt;URL&gt;</text></g><!--class HTMLDocument--><g id="elem_HTMLDocument"><rect codeLine="670" fill="#F1F1F1" height="105.1875" id="HTMLDocument" rx="2.5" ry="2.5" style="stroke:#181818;stroke-width:0.5;" width="267" x="81" y="246"/><ellipse cx="154.75" cy="262" fill="#ADD1B2" rx="11" ry="11" style="stroke:#181818;stroke-width:1.0;"/><path d="M157.7188,267.6406 Q157.1406,267.9375 156.5,268.0781 Q155.8594,268.2344 155.1563,268.2344 Q152.6563,268.2344 151.3281,266.5938 Q150.0156,264.9375 150.0156,261.8125 Q150.0156,258.6875 151.3281,257.0313 Q152.6563,255.375 155.1563,255.375 Q155.8594,255.375 156.5,255.5313 Q157.1563,255.6875 157.7188,255.9844 L157.7188,258.7031 Q157.0938,258.125 156.5,257.8594 Q155.9063,257.5781 155.2813,257.5781 Q153.9375,257.5781 153.25,258.6563 Q152.5625,259.7188 152.5625,261.8125 Q152.5625,263.9063 153.25,264.9844 Q153.9375,266.0469 155.2813,266.0469 Q155.9063,266.0469 156.5,265.7813 Q157.0938,265.5 157.7188,264.9219 L157.7188,267.6406 Z " fill="#000000"/><text fill="#000000" font-family="sans-serif" font-size="14" lengthAdjust="spacing" textLength="111" x="175.25" y="266.8467">HTMLDocument</text><line style="stroke:#181818;stroke-width:0.5;" x1="82" x2="347" y1="278" y2="278"/><text fill="#000000" font-family="sans-serif" font-size="14" lengthAdjust="spacing" textLength="186" x="87" y="294.9951">scripts: Collection&lt;Script&gt;</text><text fill="#000000" font-family="sans-serif" font-size="14" lengthAdjust="spacing" textLength="255" x="87" y="311.292">stylesheets: Collection&lt;StyleSheet&gt;</text><text fill="#000000" font-family="sans-serif" font-size="14" lengthAdjust="spacing" textLength="193" x="87" y="327.5889">images: Collection&lt;Image&gt;</text><text fill="#000000" font-family="sans-serif" font-size="14" lengthAdjust="spacing" textLength="206" x="87" y="343.8857">anchors: Collection&lt;Anchor&gt;</text></g><!--class Resource--><g id="elem_Resource"><rect codeLine="677" fill="#F1F1F1" height="137.7813" id="Resource" rx="2.5" ry="2.5" style="stroke:#181818;stroke-width:0.5;" width="284" x="72.5" y="411"/><ellipse cx="176.75" cy="427" fill="#ADD1B2" rx="11" ry="11" style="stroke:#181818;stroke-width:1.0;"/><path d="M179.7188,432.6406 Q179.1406,432.9375 178.5,433.0781 Q177.8594,433.2344 177.1563,433.2344 Q174.6563,433.2344 173.3281,431.5938 Q172.0156,429.9375 172.0156,426.8125 Q172.0156,423.6875 173.3281,422.0313 Q174.6563,420.375 177.1563,420.375 Q177.8594,420.375 178.5,420.5313 Q179.1563,420.6875 179.7188,420.9844 L179.7188,423.7031 Q179.0938,423.125 178.5,422.8594 Q177.9063,422.5781 177.2813,422.5781 Q175.9375,422.5781 175.25,423.6563 Q174.5625,424.7188 174.5625,426.8125 Q174.5625,428.9063 175.25,429.9844 Q175.9375,431.0469 177.2813,431.0469 Q177.9063,431.0469 178.5,430.7813 Q179.0938,430.5 179.7188,429.9219 L179.7188,432.6406 Z " fill="#000000"/><text fill="#000000" font-family="sans-serif" font-size="14" lengthAdjust="spacing" textLength="67" x="197.25" y="431.8467">Resource</text><line style="stroke:#181818;stroke-width:0.5;" x1="73.5" x2="355.5" y1="443" y2="443"/><text fill="#000000" font-family="sans-serif" font-size="14" lengthAdjust="spacing" textLength="71" x="78.5" y="459.9951">path: Path</text><text fill="#000000" font-family="sans-serif" font-size="14" lengthAdjust="spacing" textLength="53" x="78.5" y="476.292">url: URL</text><text fill="#000000" font-family="sans-serif" font-size="14" lengthAdjust="spacing" textLength="272" x="78.5" y="492.5889">foundOn: Collection&lt;HTMLDocument&gt;</text><text fill="#000000" font-family="sans-serif" font-size="14" lengthAdjust="spacing" textLength="113" x="78.5" y="508.8857">location: Locality</text><text fill="#000000" font-family="sans-serif" font-size="14" lengthAdjust="spacing" textLength="218" x="78.5" y="525.1826">typeOfResource: ResourceKind</text><text fill="#000000" font-family="sans-serif" font-size="14" lengthAdjust="spacing" textLength="105" x="78.5" y="541.4795">sizeOfFile: long</text></g><!--class Anchor--><g id="elem_Anchor"><rect codeLine="686" fill="#F1F1F1" height="32" id="Anchor" rx="2.5" ry="2.5" style="stroke:#181818;stroke-width:0.5;" width="81" x="7" y="609"/><ellipse cx="22" cy="625" fill="#ADD1B2" rx="11" ry="11" style="stroke:#181818;stroke-width:1.0;"/><path d="M24.9688,630.6406 Q24.3906,630.9375 23.75,631.0781 Q23.1094,631.2344 22.4063,631.2344 Q19.9063,631.2344 18.5781,629.5938 Q17.2656,627.9375 17.2656,624.8125 Q17.2656,621.6875 18.5781,620.0313 Q19.9063,618.375 22.4063,618.375 Q23.1094,618.375 23.75,618.5313 Q24.4063,618.6875 24.9688,618.9844 L24.9688,621.7031 Q24.3438,621.125 23.75,620.8594 Q23.1563,620.5781 22.5313,620.5781 Q21.1875,620.5781 20.5,621.6563 Q19.8125,622.7188 19.8125,624.8125 Q19.8125,626.9063 20.5,627.9844 Q21.1875,629.0469 22.5313,629.0469 Q23.1563,629.0469 23.75,628.7813 Q24.3438,628.5 24.9688,627.9219 L24.9688,630.6406 Z " fill="#000000"/><text fill="#000000" font-family="sans-serif" font-size="14" lengthAdjust="spacing" textLength="49" x="36" y="629.8467">Anchor</text></g><!--class Image--><g id="elem_Image"><rect codeLine="690" fill="#F1F1F1" height="32" id="Image" rx="2.5" ry="2.5" style="stroke:#181818;stroke-width:0.5;" width="74" x="123.5" y="609"/><ellipse cx="138.5" cy="625" fill="#ADD1B2" rx="11" ry="11" style="stroke:#181818;stroke-width:1.0;"/><path d="M141.4688,630.6406 Q140.8906,630.9375 140.25,631.0781 Q139.6094,631.2344 138.9063,631.2344 Q136.4063,631.2344 135.0781,629.5938 Q133.7656,627.9375 133.7656,624.8125 Q133.7656,621.6875 135.0781,620.0313 Q136.4063,618.375 138.9063,618.375 Q139.6094,618.375 140.25,618.5313 Q140.9063,618.6875 141.4688,618.9844 L141.4688,621.7031 Q140.8438,621.125 140.25,620.8594 Q139.6563,620.5781 139.0313,620.5781 Q137.6875,620.5781 137,621.6563 Q136.3125,622.7188 136.3125,624.8125 Q136.3125,626.9063 137,627.9844 Q137.6875,629.0469 139.0313,629.0469 Q139.6563,629.0469 140.25,628.7813 Q140.8438,628.5 141.4688,627.9219 L141.4688,630.6406 Z " fill="#000000"/><text fill="#000000" font-family="sans-serif" font-size="14" lengthAdjust="spacing" textLength="42" x="152.5" y="629.8467">Image</text></g><!--class Script--><g id="elem_Script"><rect codeLine="693" fill="#F1F1F1" height="32" id="Script" rx="2.5" ry="2.5" style="stroke:#181818;stroke-width:0.5;" width="71" x="233" y="609"/><ellipse cx="248" cy="625" fill="#ADD1B2" rx="11" ry="11" style="stroke:#181818;stroke-width:1.0;"/><path d="M250.9688,630.6406 Q250.3906,630.9375 249.75,631.0781 Q249.1094,631.2344 248.4063,631.2344 Q245.9063,631.2344 244.5781,629.5938 Q243.2656,627.9375 243.2656,624.8125 Q243.2656,621.6875 244.5781,620.0313 Q245.9063,618.375 248.4063,618.375 Q249.1094,618.375 249.75,618.5313 Q250.4063,618.6875 250.9688,618.9844 L250.9688,621.7031 Q250.3438,621.125 249.75,620.8594 Q249.1563,620.5781 248.5313,620.5781 Q247.1875,620.5781 246.5,621.6563 Q245.8125,622.7188 245.8125,624.8125 Q245.8125,626.9063 246.5,627.9844 Q247.1875,629.0469 248.5313,629.0469 Q249.1563,629.0469 249.75,628.7813 Q250.3438,628.5 250.9688,627.9219 L250.9688,630.6406 Z " fill="#000000"/><text fill="#000000" font-family="sans-serif" font-size="14" lengthAdjust="spacing" textLength="39" x="262" y="629.8467">Script</text></g><!--class StyleSheet--><g id="elem_StyleSheet"><rect codeLine="696" fill="#F1F1F1" height="32" id="StyleSheet" rx="2.5" ry="2.5" style="stroke:#181818;stroke-width:0.5;" width="106" x="339.5" y="609"/><ellipse cx="354.5" cy="625" fill="#ADD1B2" rx="11" ry="11" style="stroke:#181818;stroke-width:1.0;"/><path d="M357.4688,630.6406 Q356.8906,630.9375 356.25,631.0781 Q355.6094,631.2344 354.9063,631.2344 Q352.4063,631.2344 351.0781,629.5938 Q349.7656,627.9375 349.7656,624.8125 Q349.7656,621.6875 351.0781,620.0313 Q352.4063,618.375 354.9063,618.375 Q355.6094,618.375 356.25,618.5313 Q356.9063,618.6875 357.4688,618.9844 L357.4688,621.7031 Q356.8438,621.125 356.25,620.8594 Q355.6563,620.5781 355.0313,620.5781 Q353.6875,620.5781 353,621.6563 Q352.3125,622.7188 352.3125,624.8125 Q352.3125,626.9063 353,627.9844 Q353.6875,629.0469 355.0313,629.0469 Q355.6563,629.0469 356.25,628.7813 Q356.8438,628.5 357.4688,627.9219 L357.4688,630.6406 Z " fill="#000000"/><text fill="#000000" font-family="sans-serif" font-size="14" lengthAdjust="spacing" textLength="74" x="368.5" y="629.8467">StyleSheet</text></g><!--class Locality--><g id="elem_Locality"><rect codeLine="699" fill="#F1F1F1" height="97.1563" id="Locality" rx="2.5" ry="2.5" style="stroke:#181818;stroke-width:0.5;" width="91" x="382" y="48"/><ellipse cx="401.05" cy="68.1328" fill="#EB937F" rx="11" ry="11" style="stroke:#181818;stroke-width:1.0;"/><path d="M405.1594,74.1328 L397.4406,74.1328 L397.4406,61.7422 L405.1594,61.7422 L405.1594,63.8984 L399.8938,63.8984 L399.8938,66.5703 L404.6594,66.5703 L404.6594,68.7266 L399.8938,68.7266 L399.8938,71.9766 L405.1594,71.9766 L405.1594,74.1328 Z " fill="#000000"/><text fill="#000000" font-family="sans-serif" font-size="12" font-style="italic" lengthAdjust="spacing" textLength="49" x="416.45" y="64.1387">&#171;Enum&#187;</text><text fill="#000000" font-family="sans-serif" font-size="14" lengthAdjust="spacing" textLength="50" x="415.95" y="79.9639">Locality</text><line style="stroke:#181818;stroke-width:0.5;" x1="383" x2="472" y1="88.2656" y2="88.2656"/><text fill="#000000" font-family="sans-serif" font-size="14" lengthAdjust="spacing" textLength="67" x="388" y="105.2607">INTERNAL</text><text fill="#000000" font-family="sans-serif" font-size="14" lengthAdjust="spacing" textLength="79" x="388" y="121.5576">INTRAPAGE</text><text fill="#000000" font-family="sans-serif" font-size="14" lengthAdjust="spacing" textLength="72" x="388" y="137.8545">EXTERNAL</text></g><!--class ResourceKind--><g id="elem_ResourceKind"><rect codeLine="705" fill="#F1F1F1" height="178.6406" id="ResourceKind" rx="2.5" ry="2.5" style="stroke:#181818;stroke-width:0.5;" width="129" x="533" y="7"/><ellipse cx="548" cy="27.1328" fill="#EB937F" rx="11" ry="11" style="stroke:#181818;stroke-width:1.0;"/><path d="M552.1094,33.1328 L544.3906,33.1328 L544.3906,20.7422 L552.1094,20.7422 L552.1094,22.8984 L546.8438,22.8984 L546.8438,25.5703 L551.6094,25.5703 L551.6094,27.7266 L546.8438,27.7266 L546.8438,30.9766 L552.1094,30.9766 L552.1094,33.1328 Z " fill="#000000"/><text fill="#000000" font-family="sans-serif" font-size="12" font-style="italic" lengthAdjust="spacing" textLength="49" x="586" y="23.1387">&#171;Enum&#187;</text><text fill="#000000" font-family="sans-serif" font-size="14" lengthAdjust="spacing" textLength="97" x="562" y="38.9639">ResourceKind</text><line style="stroke:#181818;stroke-width:0.5;" x1="534" x2="661" y1="47.2656" y2="47.2656"/><text fill="#000000" font-family="sans-serif" font-size="14" lengthAdjust="spacing" textLength="44" x="539" y="64.2607">IMAGE</text><text fill="#000000" font-family="sans-serif" font-size="14" lengthAdjust="spacing" textLength="89" x="539" y="80.5576">STYLESHEET</text><text fill="#000000" font-family="sans-serif" font-size="14" lengthAdjust="spacing" textLength="50" x="539" y="96.8545">SCRIPT</text><text fill="#000000" font-family="sans-serif" font-size="14" lengthAdjust="spacing" textLength="60" x="539" y="113.1514">ANCHOR</text><text fill="#000000" font-family="sans-serif" font-size="14" lengthAdjust="spacing" textLength="43" x="539" y="129.4482">VIDEO</text><text fill="#000000" font-family="sans-serif" font-size="14" lengthAdjust="spacing" textLength="44" x="539" y="145.7451">AUDIO</text><text fill="#000000" font-family="sans-serif" font-size="14" lengthAdjust="spacing" textLength="60" x="539" y="162.042">ARCHIVE</text><text fill="#000000" font-family="sans-serif" font-size="14" lengthAdjust="spacing" textLength="49" x="539" y="178.3389">OTHER</text></g><!--class ReportWriter--><g id="elem_ReportWriter"><rect codeLine="716" fill="#F1F1F1" height="129.4844" id="ReportWriter" rx="2.5" ry="2.5" style="stroke:#181818;stroke-width:0.5;" width="265" x="709" y="32"/><ellipse cx="793.75" cy="48" fill="#ADD1B2" rx="11" ry="11" style="stroke:#181818;stroke-width:1.0;"/><path d="M796.7188,53.6406 Q796.1406,53.9375 795.5,54.0781 Q794.8594,54.2344 794.1563,54.2344 Q791.6563,54.2344 790.3281,52.5938 Q789.0156,50.9375 789.0156,47.8125 Q789.0156,44.6875 790.3281,43.0313 Q791.6563,41.375 794.1563,41.375 Q794.8594,41.375 795.5,41.5313 Q796.1563,41.6875 796.7188,41.9844 L796.7188,44.7031 Q796.0938,44.125 795.5,43.8594 Q794.9063,43.5781 794.2813,43.5781 Q792.9375,43.5781 792.25,44.6563 Q791.5625,45.7188 791.5625,47.8125 Q791.5625,49.9063 792.25,50.9844 Q792.9375,52.0469 794.2813,52.0469 Q794.9063,52.0469 795.5,51.7813 Q796.0938,51.5 796.7188,50.9219 L796.7188,53.6406 Z " fill="#000000"/><text fill="#000000" font-family="sans-serif" font-size="14" lengthAdjust="spacing" textLength="87" x="814.25" y="52.8467">ReportWriter</text><line style="stroke:#181818;stroke-width:0.5;" x1="710" x2="973" y1="64" y2="64"/><text fill="#000000" font-family="sans-serif" font-size="14" lengthAdjust="spacing" textLength="119" x="715" y="80.9951">website: Website</text><line style="stroke:#181818;stroke-width:0.5;" x1="710" x2="973" y1="88.2969" y2="88.2969"/><text fill="#000000" font-family="sans-serif" font-size="14" lengthAdjust="spacing" textLength="203" x="715" y="105.292">setSourceData(site: Website)</text><text fill="#000000" font-family="sans-serif" font-size="14" lengthAdjust="spacing" textLength="253" x="715" y="121.5889">setBaseName(baseFileName: String)</text><text fill="#000000" font-family="sans-serif" font-size="14" lengthAdjust="spacing" textLength="4" x="715" y="137.8857">&#160;</text><text fill="#000000" font-family="sans-serif" font-size="14" lengthAdjust="spacing" textLength="43" x="715" y="154.1826">write()</text></g><!--class ConsoleReportWriter--><g id="elem_ConsoleReportWriter"><rect codeLine="725" fill="#F1F1F1" height="32" id="ConsoleReportWriter" rx="2.5" ry="2.5" style="stroke:#181818;stroke-width:0.5;" width="176" x="469.5" y="282.5"/><ellipse cx="484.5" cy="298.5" fill="#ADD1B2" rx="11" ry="11" style="stroke:#181818;stroke-width:1.0;"/><path d="M487.4688,304.1406 Q486.8906,304.4375 486.25,304.5781 Q485.6094,304.7344 484.9063,304.7344 Q482.4063,304.7344 481.0781,303.0938 Q479.7656,301.4375 479.7656,298.3125 Q479.7656,295.1875 481.0781,293.5313 Q482.4063,291.875 484.9063,291.875 Q485.6094,291.875 486.25,292.0313 Q486.9063,292.1875 487.4688,292.4844 L487.4688,295.2031 Q486.8438,294.625 486.25,294.3594 Q485.6563,294.0781 485.0313,294.0781 Q483.6875,294.0781 483,295.1563 Q482.3125,296.2188 482.3125,298.3125 Q482.3125,300.4063 483,301.4844 Q483.6875,302.5469 485.0313,302.5469 Q485.6563,302.5469 486.25,302.2813 Q486.8438,302 487.4688,301.4219 L487.4688,304.1406 Z " fill="#000000"/><text fill="#000000" font-family="sans-serif" font-size="14" lengthAdjust="spacing" textLength="144" x="498.5" y="303.3467">ConsoleReportWriter</text></g><!--class TextReportWriter--><g id="elem_TextReportWriter"><rect codeLine="729" fill="#F1F1F1" height="32" id="TextReportWriter" rx="2.5" ry="2.5" style="stroke:#181818;stroke-width:0.5;" width="149" x="680" y="282.5"/><ellipse cx="695" cy="298.5" fill="#ADD1B2" rx="11" ry="11" style="stroke:#181818;stroke-width:1.0;"/><path d="M697.9688,304.1406 Q697.3906,304.4375 696.75,304.5781 Q696.1094,304.7344 695.4063,304.7344 Q692.9063,304.7344 691.5781,303.0938 Q690.2656,301.4375 690.2656,298.3125 Q690.2656,295.1875 691.5781,293.5313 Q692.9063,291.875 695.4063,291.875 Q696.1094,291.875 696.75,292.0313 Q697.4063,292.1875 697.9688,292.4844 L697.9688,295.2031 Q697.3438,294.625 696.75,294.3594 Q696.1563,294.0781 695.5313,294.0781 Q694.1875,294.0781 693.5,295.1563 Q692.8125,296.2188 692.8125,298.3125 Q692.8125,300.4063 693.5,301.4844 Q694.1875,302.5469 695.5313,302.5469 Q696.1563,302.5469 696.75,302.2813 Q697.3438,302 697.9688,301.4219 L697.9688,304.1406 Z " fill="#000000"/><text fill="#000000" font-family="sans-serif" font-size="14" lengthAdjust="spacing" textLength="117" x="709" y="303.3467">TextReportWriter</text></g><!--class JSONReportWriter--><g id="elem_JSONReportWriter"><rect codeLine="733" fill="#F1F1F1" height="32" id="JSONReportWriter" rx="2.5" ry="2.5" style="stroke:#181818;stroke-width:0.5;" width="152" x="864.5" y="282.5"/><ellipse cx="879.5" cy="298.5" fill="#ADD1B2" rx="11" ry="11" style="stroke:#181818;stroke-width:1.0;"/><path d="M882.4688,304.1406 Q881.8906,304.4375 881.25,304.5781 Q880.6094,304.7344 879.9063,304.7344 Q877.4063,304.7344 876.0781,303.0938 Q874.7656,301.4375 874.7656,298.3125 Q874.7656,295.1875 876.0781,293.5313 Q877.4063,291.875 879.9063,291.875 Q880.6094,291.875 881.25,292.0313 Q881.9063,292.1875 882.4688,292.4844 L882.4688,295.2031 Q881.8438,294.625 881.25,294.3594 Q880.6563,294.0781 880.0313,294.0781 Q878.6875,294.0781 878,295.1563 Q877.3125,296.2188 877.3125,298.3125 Q877.3125,300.4063 878,301.4844 Q878.6875,302.5469 880.0313,302.5469 Q880.6563,302.5469 881.25,302.2813 Q881.8438,302 882.4688,301.4219 L882.4688,304.1406 Z " fill="#000000"/><text fill="#000000" font-family="sans-serif" font-size="14" lengthAdjust="spacing" textLength="120" x="893.5" y="303.3467">JSONReportWriter</text></g><!--class ExcelReportWriter--><g id="elem_ExcelReportWriter"><rect codeLine="737" fill="#F1F1F1" height="32" id="ExcelReportWriter" rx="2.5" ry="2.5" style="stroke:#181818;stroke-width:0.5;" width="155" x="1052" y="282.5"/><ellipse cx="1067" cy="298.5" fill="#ADD1B2" rx="11" ry="11" style="stroke:#181818;stroke-width:1.0;"/><path d="M1069.9688,304.1406 Q1069.3906,304.4375 1068.75,304.5781 Q1068.1094,304.7344 1067.4063,304.7344 Q1064.9063,304.7344 1063.5781,303.0938 Q1062.2656,301.4375 1062.2656,298.3125 Q1062.2656,295.1875 1063.5781,293.5313 Q1064.9063,291.875 1067.4063,291.875 Q1068.1094,291.875 1068.75,292.0313 Q1069.4063,292.1875 1069.9688,292.4844 L1069.9688,295.2031 Q1069.3438,294.625 1068.75,294.3594 Q1068.1563,294.0781 1067.5313,294.0781 Q1066.1875,294.0781 1065.5,295.1563 Q1064.8125,296.2188 1064.8125,298.3125 Q1064.8125,300.4063 1065.5,301.4844 Q1066.1875,302.5469 1067.5313,302.5469 Q1068.1563,302.5469 1068.75,302.2813 Q1069.3438,302 1069.9688,301.4219 L1069.9688,304.1406 Z " fill="#000000"/><text fill="#000000" font-family="sans-serif" font-size="14" lengthAdjust="spacing" textLength="123" x="1081" y="303.3467">ExcelReportWriter</text></g><!--reverse link Resource to Image--><g id="link_Resource_Image"><path codeLine="741" d="M182.407,565.9878 C173.927,588.4278 171.65,594.48 166.19,608.93 " fill="none" id="Resource-backto-Image" style="stroke:#181818;stroke-width:1.0;"/><polygon fill="none" points="188.77,549.15,176.7944,563.8668,188.0197,568.1088,188.77,549.15" style="stroke:#181818;stroke-width:1.0;"/></g><!--reverse link Resource to Script--><g id="link_Resource_Script"><path codeLine="742" d="M246.593,565.9878 C255.073,588.4278 257.35,594.48 262.81,608.93 " fill="none" id="Resource-backto-Script" style="stroke:#181818;stroke-width:1.0;"/><polygon fill="none" points="240.23,549.15,240.9803,568.1088,252.2056,563.8668,240.23,549.15" style="stroke:#181818;stroke-width:1.0;"/></g><!--reverse link Resource to StyleSheet--><g id="link_Resource_StyleSheet"><path codeLine="743" d="M313.3641,560.4214 C341.3041,582.8614 355.75,594.48 373.75,608.93 " fill="none" id="Resource-backto-StyleSheet" style="stroke:#181818;stroke-width:1.0;"/><polygon fill="none" points="299.33,549.15,309.6069,565.0995,317.1212,555.7434,299.33,549.15" style="stroke:#181818;stroke-width:1.0;"/></g><!--reverse link Resource to Anchor--><g id="link_Resource_Anchor"><path codeLine="744" d="M121.2368,560.8565 C95.0268,583.2965 81.98,594.48 65.1,608.93 " fill="none" id="Resource-backto-Anchor" style="stroke:#181818;stroke-width:1.0;"/><polygon fill="none" points="134.91,549.15,117.3346,556.2988,125.1389,565.4143,134.91,549.15" style="stroke:#181818;stroke-width:1.0;"/></g><!--reverse link Website to HTMLDocument--><g id="link_Website_HTMLDocument"><path codeLine="746" d="M214.5,145.26 C214.5,176.6 214.5,210.56 214.5,245.89 " fill="none" id="Website-backto-HTMLDocument" style="stroke:#181818;stroke-width:1.0;"/><polygon fill="none" points="214.5,133.26,210.5,139.26,214.5,145.26,218.5,139.26,214.5,133.26" style="stroke:#181818;stroke-width:1.0;"/></g><!--reverse link HTMLDocument to Resource--><g id="link_HTMLDocument_Resource"><path codeLine="747" d="M214.5,363.42 C214.5,381.95 214.5,391.12 214.5,410.82 " fill="none" id="HTMLDocument-backto-Resource" style="stroke:#181818;stroke-width:1.0;"/><polygon fill="none" points="214.5,351.42,210.5,357.42,214.5,363.42,218.5,357.42,214.5,351.42" style="stroke:#181818;stroke-width:1.0;"/></g><!--reverse link ReportWriter to ConsoleReportWriter--><g id="link_ReportWriter_ConsoleReportWriter"><path codeLine="749" d="M736.5326,171.4233 C675.7926,214.1933 615.12,256.92 578.9,282.43 " fill="none" id="ReportWriter-backto-ConsoleReportWriter" style="stroke:#181818;stroke-width:1.0;"/><polygon fill="none" points="751.25,161.06,733.0781,166.5175,739.987,176.3291,751.25,161.06" style="stroke:#181818;stroke-width:1.0;"/></g><!--reverse link ReportWriter to TextReportWriter--><g id="link_ReportWriter_TextReportWriter"><path codeLine="750" d="M806.6683,177.5652 C788.0583,220.3352 772.15,256.92 761.06,282.43 " fill="none" id="ReportWriter-backto-TextReportWriter" style="stroke:#181818;stroke-width:1.0;"/><polygon fill="none" points="813.85,161.06,801.1665,175.1713,812.17,179.9591,813.85,161.06" style="stroke:#181818;stroke-width:1.0;"/></g><!--reverse link ReportWriter to JSONReportWriter--><g id="link_ReportWriter_JSONReportWriter"><path codeLine="751" d="M880.9479,177.1905 C902.1279,219.9605 920.41,256.92 933.04,282.43 " fill="none" id="ReportWriter-backto-JSONReportWriter" style="stroke:#181818;stroke-width:1.0;"/><polygon fill="none" points="872.96,161.06,875.5711,179.8531,886.3248,174.5279,872.96,161.06" style="stroke:#181818;stroke-width:1.0;"/></g><!--reverse link ReportWriter to ExcelReportWriter--><g id="link_ReportWriter_ExcelReportWriter"><path codeLine="752" d="M947.8055,171.3259 C1009.4055,214.0959 1071.07,256.92 1107.8,282.43 " fill="none" id="ReportWriter-backto-ExcelReportWriter" style="stroke:#181818;stroke-width:1.0;"/><polygon fill="none" points="933.02,161.06,944.3836,176.2544,951.2275,166.3974,933.02,161.06" style="stroke:#181818;stroke-width:1.0;"/></g><!--SRC=[TLDDSvim4BtpAtIq3_a3Z8SP2hJG4l00ITeZnXjRCq9Y9369-_7VAo64WH1EslTMks-VbYi-0uAsapVKGdi2BXod8RKGw0LE0aj0VnoaFiAQceIOGoCPlxdeMClhGFIS21S5Z115OKOFJqNgEVzibRXwJ4FMz2rGEPOI3SUTN5ug1ymplBmH45U0TOx6IusRFDpM5rYc91eoR4sRA-DBsX-mcRe21EjvOuVir53BqLoanXc2LzRJSquNzUR3UPDDcd9HgWt3yZR0yjP1_cgxkLFV7vYUpSpujqhuYeaY2QENkqIZMGcyGyEK2fa0uzu2cRmoAD2-dIIXmo5IiUUDOoTP5HMPdzgWy8_-jsY8efyZPMlCbN-eysYlbTMlD2hZAAfC61J9qHpzB8ZpOZW-9s6K6_0fJCPJ4SJ9iocILt5KpD-gOro-SBMJV6puPbRKjRlg62z1beF6i9RrRf6mjmbVQW5PtSBkf0xQTXsuoZQEwMLlwhpfLhlzNK70g604LaBkV0NlybFoUvbddvBHUmDaWvtsy_3tuS6y-mepJxy6fzTV4MQP7CV-sqnXyoLs5h-hPkrzhMKcRwYsuST6rjgLZPIrDnif7nno_WC0]--></g></svg>