<?xml version="1.0" encoding="UTF-8" standalone="no"?><svg xmlns="http://www.w3.org/2000/svg" xmlns:xlink="http://www.w3.org/1999/xlink" contentScriptType="application/ecmascript" contentStyleType="text/css" height="587px" preserveAspectRatio="none" style="width:966px;height:587px;" version="1.1" viewBox="0 0 966 587" width="966px" zoomAndPan="magnify"><defs><filter height="300%" id="fsm098k3cfr7d" width="300%" x="-1" y="-1"><feGaussianBlur result="blurOut" stdDeviation="2.0"/><feColorMatrix in="blurOut" result="blurOut2" type="matrix" values="0 0 0 0 0 0 0 0 0 0 0 0 0 0 0 0 0 0 .4 0"/><feOffset dx="4.0" dy="4.0" in="blurOut2" result="blurOut3"/><feBlend in="SourceGraphic" in2="blurOut3" mode="normal"/></filter></defs><g><!--class Website--><rect fill="#FEFECE" filter="url(#fsm098k3cfr7d)" height="65.6094" id="Website" style="stroke: #A80036; stroke-width: 1.5;" width="136" x="136" y="49"/><ellipse cx="175.3" cy="65" fill="#ADD1B2" rx="11" ry="11" style="stroke: #A80036; stroke-width: 1.0;"/><path d="M178.2688,70.6406 Q177.6906,70.9375 177.05,71.0781 Q176.4094,71.2344 175.7063,71.2344 Q173.2063,71.2344 171.8781,69.5938 Q170.5656,67.9375 170.5656,64.8125 Q170.5656,61.6875 171.8781,60.0313 Q173.2063,58.375 175.7063,58.375 Q176.4094,58.375 177.05,58.5313 Q177.7063,58.6875 178.2688,58.9844 L178.2688,61.7031 Q177.6438,61.125 177.05,60.8594 Q176.4563,60.5781 175.8313,60.5781 Q174.4875,60.5781 173.8,61.6563 Q173.1125,62.7188 173.1125,64.8125 Q173.1125,66.9063 173.8,67.9844 Q174.4875,69.0469 175.8313,69.0469 Q176.4563,69.0469 177.05,68.7813 Q177.6438,68.5 178.2688,67.9219 L178.2688,70.6406 Z "/><text fill="#000000" font-family="sans-serif" font-size="12" lengthAdjust="spacingAndGlyphs" textLength="50" x="194.7" y="69.1543">Website</text><line style="stroke: #A80036; stroke-width: 1.5;" x1="137" x2="271" y1="81" y2="81"/><text fill="#000000" font-family="sans-serif" font-size="11" lengthAdjust="spacingAndGlyphs" textLength="110" x="142" y="95.2104">localDirectory: Path</text><text fill="#000000" font-family="sans-serif" font-size="11" lengthAdjust="spacingAndGlyphs" textLength="124" x="142" y="108.0151">urls: Collection&lt;URL&gt;</text><!--class HTMLDocument--><rect fill="#FEFECE" filter="url(#fsm098k3cfr7d)" height="91.2188" id="HTMLDocument" style="stroke: #A80036; stroke-width: 1.5;" width="220" x="94" y="216"/><ellipse cx="151.75" cy="232" fill="#ADD1B2" rx="11" ry="11" style="stroke: #A80036; stroke-width: 1.0;"/><path d="M154.7188,237.6406 Q154.1406,237.9375 153.5,238.0781 Q152.8594,238.2344 152.1563,238.2344 Q149.6563,238.2344 148.3281,236.5938 Q147.0156,234.9375 147.0156,231.8125 Q147.0156,228.6875 148.3281,227.0313 Q149.6563,225.375 152.1563,225.375 Q152.8594,225.375 153.5,225.5313 Q154.1563,225.6875 154.7188,225.9844 L154.7188,228.7031 Q154.0938,228.125 153.5,227.8594 Q152.9063,227.5781 152.2813,227.5781 Q150.9375,227.5781 150.25,228.6563 Q149.5625,229.7188 149.5625,231.8125 Q149.5625,233.9063 150.25,234.9844 Q150.9375,236.0469 152.2813,236.0469 Q152.9063,236.0469 153.5,235.7813 Q154.0938,235.5 154.7188,234.9219 L154.7188,237.6406 Z "/><text fill="#000000" font-family="sans-serif" font-size="12" lengthAdjust="spacingAndGlyphs" textLength="96" x="172.25" y="236.1543">HTMLDocument</text><line style="stroke: #A80036; stroke-width: 1.5;" x1="95" x2="313" y1="248" y2="248"/><text fill="#000000" font-family="sans-serif" font-size="11" lengthAdjust="spacingAndGlyphs" textLength="153" x="100" y="262.2104">scripts: Collection&lt;Script&gt;</text><text fill="#000000" font-family="sans-serif" font-size="11" lengthAdjust="spacingAndGlyphs" textLength="208" x="100" y="275.0151">stylesheets: Collection&lt;StyleSheet&gt;</text><text fill="#000000" font-family="sans-serif" font-size="11" lengthAdjust="spacingAndGlyphs" textLength="158" x="100" y="287.8198">images: Collection&lt;Image&gt;</text><text fill="#000000" font-family="sans-serif" font-size="11" lengthAdjust="spacingAndGlyphs" textLength="166" x="100" y="300.6245">anchors: Collection&lt;Anchor&gt;</text><!--class Resource--><rect fill="#FEFECE" filter="url(#fsm098k3cfr7d)" height="116.8281" id="Resource" style="stroke: #A80036; stroke-width: 1.5;" width="228" x="90" y="367"/><ellipse cx="170.25" cy="383" fill="#ADD1B2" rx="11" ry="11" style="stroke: #A80036; stroke-width: 1.0;"/><path d="M173.2188,388.6406 Q172.6406,388.9375 172,389.0781 Q171.3594,389.2344 170.6563,389.2344 Q168.1563,389.2344 166.8281,387.5938 Q165.5156,385.9375 165.5156,382.8125 Q165.5156,379.6875 166.8281,378.0313 Q168.1563,376.375 170.6563,376.375 Q171.3594,376.375 172,376.5313 Q172.6563,376.6875 173.2188,376.9844 L173.2188,379.7031 Q172.5938,379.125 172,378.8594 Q171.4063,378.5781 170.7813,378.5781 Q169.4375,378.5781 168.75,379.6563 Q168.0625,380.7188 168.0625,382.8125 Q168.0625,384.9063 168.75,385.9844 Q169.4375,387.0469 170.7813,387.0469 Q171.4063,387.0469 172,386.7813 Q172.5938,386.5 173.2188,385.9219 L173.2188,388.6406 Z "/><text fill="#000000" font-family="sans-serif" font-size="12" lengthAdjust="spacingAndGlyphs" textLength="59" x="190.75" y="387.1543">Resource</text><line style="stroke: #A80036; stroke-width: 1.5;" x1="91" x2="317" y1="399" y2="399"/><text fill="#000000" font-family="sans-serif" font-size="11" lengthAdjust="spacingAndGlyphs" textLength="58" x="96" y="413.2104">path: Path</text><text fill="#000000" font-family="sans-serif" font-size="11" lengthAdjust="spacingAndGlyphs" textLength="44" x="96" y="426.0151">url: URL</text><text fill="#000000" font-family="sans-serif" font-size="11" lengthAdjust="spacingAndGlyphs" textLength="216" x="96" y="438.8198">foundOn: Collection&lt;HTMLDocument&gt;</text><text fill="#000000" font-family="sans-serif" font-size="11" lengthAdjust="spacingAndGlyphs" textLength="94" x="96" y="451.6245">location: Locality</text><text fill="#000000" font-family="sans-serif" font-size="11" lengthAdjust="spacingAndGlyphs" textLength="175" x="96" y="464.4292">typeOfResource: ResourceKind</text><text fill="#000000" font-family="sans-serif" font-size="11" lengthAdjust="spacingAndGlyphs" textLength="86" x="96" y="477.2339">sizeOfFile: long</text><!--class Anchor--><rect fill="#FEFECE" filter="url(#fsm098k3cfr7d)" height="32" id="Anchor" style="stroke: #A80036; stroke-width: 1.5;" width="76" x="6" y="544"/><ellipse cx="21" cy="560" fill="#ADD1B2" rx="11" ry="11" style="stroke: #A80036; stroke-width: 1.0;"/><path d="M23.9688,565.6406 Q23.3906,565.9375 22.75,566.0781 Q22.1094,566.2344 21.4063,566.2344 Q18.9063,566.2344 17.5781,564.5938 Q16.2656,562.9375 16.2656,559.8125 Q16.2656,556.6875 17.5781,555.0313 Q18.9063,553.375 21.4063,553.375 Q22.1094,553.375 22.75,553.5313 Q23.4063,553.6875 23.9688,553.9844 L23.9688,556.7031 Q23.3438,556.125 22.75,555.8594 Q22.1563,555.5781 21.5313,555.5781 Q20.1875,555.5781 19.5,556.6563 Q18.8125,557.7188 18.8125,559.8125 Q18.8125,561.9063 19.5,562.9844 Q20.1875,564.0469 21.5313,564.0469 Q22.1563,564.0469 22.75,563.7813 Q23.3438,563.5 23.9688,562.9219 L23.9688,565.6406 Z "/><text fill="#000000" font-family="sans-serif" font-size="12" lengthAdjust="spacingAndGlyphs" textLength="44" x="35" y="564.1543">Anchor</text><!--class Image--><rect fill="#FEFECE" filter="url(#fsm098k3cfr7d)" height="32" id="Image" style="stroke: #A80036; stroke-width: 1.5;" width="70" x="117" y="544"/><ellipse cx="132" cy="560" fill="#ADD1B2" rx="11" ry="11" style="stroke: #A80036; stroke-width: 1.0;"/><path d="M134.9688,565.6406 Q134.3906,565.9375 133.75,566.0781 Q133.1094,566.2344 132.4063,566.2344 Q129.9063,566.2344 128.5781,564.5938 Q127.2656,562.9375 127.2656,559.8125 Q127.2656,556.6875 128.5781,555.0313 Q129.9063,553.375 132.4063,553.375 Q133.1094,553.375 133.75,553.5313 Q134.4063,553.6875 134.9688,553.9844 L134.9688,556.7031 Q134.3438,556.125 133.75,555.8594 Q133.1563,555.5781 132.5313,555.5781 Q131.1875,555.5781 130.5,556.6563 Q129.8125,557.7188 129.8125,559.8125 Q129.8125,561.9063 130.5,562.9844 Q131.1875,564.0469 132.5313,564.0469 Q133.1563,564.0469 133.75,563.7813 Q134.3438,563.5 134.9688,562.9219 L134.9688,565.6406 Z "/><text fill="#000000" font-family="sans-serif" font-size="12" lengthAdjust="spacingAndGlyphs" textLength="38" x="146" y="564.1543">Image</text><!--class Script--><rect fill="#FEFECE" filter="url(#fsm098k3cfr7d)" height="32" id="Script" style="stroke: #A80036; stroke-width: 1.5;" width="68" x="222" y="544"/><ellipse cx="237" cy="560" fill="#ADD1B2" rx="11" ry="11" style="stroke: #A80036; stroke-width: 1.0;"/><path d="M239.9688,565.6406 Q239.3906,565.9375 238.75,566.0781 Q238.1094,566.2344 237.4063,566.2344 Q234.9063,566.2344 233.5781,564.5938 Q232.2656,562.9375 232.2656,559.8125 Q232.2656,556.6875 233.5781,555.0313 Q234.9063,553.375 237.4063,553.375 Q238.1094,553.375 238.75,553.5313 Q239.4063,553.6875 239.9688,553.9844 L239.9688,556.7031 Q239.3438,556.125 238.75,555.8594 Q238.1563,555.5781 237.5313,555.5781 Q236.1875,555.5781 235.5,556.6563 Q234.8125,557.7188 234.8125,559.8125 Q234.8125,561.9063 235.5,562.9844 Q236.1875,564.0469 237.5313,564.0469 Q238.1563,564.0469 238.75,563.7813 Q239.3438,563.5 239.9688,562.9219 L239.9688,565.6406 Z "/><text fill="#000000" font-family="sans-serif" font-size="12" lengthAdjust="spacingAndGlyphs" textLength="36" x="251" y="564.1543">Script</text><!--class StyleSheet--><rect fill="#FEFECE" filter="url(#fsm098k3cfr7d)" height="32" id="StyleSheet" style="stroke: #A80036; stroke-width: 1.5;" width="99" x="325.5" y="544"/><ellipse cx="340.5" cy="560" fill="#ADD1B2" rx="11" ry="11" style="stroke: #A80036; stroke-width: 1.0;"/><path d="M343.4688,565.6406 Q342.8906,565.9375 342.25,566.0781 Q341.6094,566.2344 340.9063,566.2344 Q338.4063,566.2344 337.0781,564.5938 Q335.7656,562.9375 335.7656,559.8125 Q335.7656,556.6875 337.0781,555.0313 Q338.4063,553.375 340.9063,553.375 Q341.6094,553.375 342.25,553.5313 Q342.9063,553.6875 343.4688,553.9844 L343.4688,556.7031 Q342.8438,556.125 342.25,555.8594 Q341.6563,555.5781 341.0313,555.5781 Q339.6875,555.5781 339,556.6563 Q338.3125,557.7188 338.3125,559.8125 Q338.3125,561.9063 339,562.9844 Q339.6875,564.0469 341.0313,564.0469 Q341.6563,564.0469 342.25,563.7813 Q342.8438,563.5 343.4688,562.9219 L343.4688,565.6406 Z "/><text fill="#000000" font-family="sans-serif" font-size="12" lengthAdjust="spacingAndGlyphs" textLength="67" x="354.5" y="564.1543">StyleSheet</text><!--class Locality--><rect fill="#FEFECE" filter="url(#fsm098k3cfr7d)" height="84.3516" id="Locality" style="stroke: #A80036; stroke-width: 1.5;" width="78" x="308" y="40"/><ellipse cx="323" cy="58.9688" fill="#EB937F" rx="11" ry="11" style="stroke: #A80036; stroke-width: 1.0;"/><path d="M327.1094,64.9688 L319.3906,64.9688 L319.3906,52.5781 L327.1094,52.5781 L327.1094,54.7344 L321.8438,54.7344 L321.8438,57.4063 L326.6094,57.4063 L326.6094,59.5625 L321.8438,59.5625 L321.8438,62.8125 L327.1094,62.8125 L327.1094,64.9688 Z "/><text fill="#000000" font-family="sans-serif" font-size="12" font-style="italic" lengthAdjust="spacingAndGlyphs" textLength="49" x="335.5" y="56.1387">«Enum»</text><text fill="#000000" font-family="sans-serif" font-size="12" lengthAdjust="spacingAndGlyphs" textLength="46" x="337" y="70.1074">Locality</text><line style="stroke: #A80036; stroke-width: 1.5;" x1="309" x2="385" y1="77.9375" y2="77.9375"/><text fill="#000000" font-family="sans-serif" font-size="11" lengthAdjust="spacingAndGlyphs" textLength="53" x="314" y="92.1479">INTERNAL</text><text fill="#000000" font-family="sans-serif" font-size="11" lengthAdjust="spacingAndGlyphs" textLength="62" x="314" y="104.9526">INTRAPAGE</text><text fill="#000000" font-family="sans-serif" font-size="11" lengthAdjust="spacingAndGlyphs" textLength="56" x="314" y="117.7573">EXTERNAL</text><!--class ResourceKind--><rect fill="#FEFECE" filter="url(#fsm098k3cfr7d)" height="148.375" id="ResourceKind" style="stroke: #A80036; stroke-width: 1.5;" width="117" x="424.5" y="8"/><ellipse cx="439.5" cy="26.9688" fill="#EB937F" rx="11" ry="11" style="stroke: #A80036; stroke-width: 1.0;"/><path d="M443.6094,32.9688 L435.8906,32.9688 L435.8906,20.5781 L443.6094,20.5781 L443.6094,22.7344 L438.3438,22.7344 L438.3438,25.4063 L443.1094,25.4063 L443.1094,27.5625 L438.3438,27.5625 L438.3438,30.8125 L443.6094,30.8125 L443.6094,32.9688 Z "/><text fill="#000000" font-family="sans-serif" font-size="12" font-style="italic" lengthAdjust="spacingAndGlyphs" textLength="49" x="471.5" y="24.1387">«Enum»</text><text fill="#000000" font-family="sans-serif" font-size="12" lengthAdjust="spacingAndGlyphs" textLength="85" x="453.5" y="38.1074">ResourceKind</text><line style="stroke: #A80036; stroke-width: 1.5;" x1="425.5" x2="540.5" y1="45.9375" y2="45.9375"/><text fill="#000000" font-family="sans-serif" font-size="11" lengthAdjust="spacingAndGlyphs" textLength="35" x="430.5" y="60.1479">IMAGE</text><text fill="#000000" font-family="sans-serif" font-size="11" lengthAdjust="spacingAndGlyphs" textLength="72" x="430.5" y="72.9526">STYLESHEET</text><text fill="#000000" font-family="sans-serif" font-size="11" lengthAdjust="spacingAndGlyphs" textLength="40" x="430.5" y="85.7573">SCRIPT</text><text fill="#000000" font-family="sans-serif" font-size="11" lengthAdjust="spacingAndGlyphs" textLength="47" x="430.5" y="98.562">ANCHOR</text><text fill="#000000" font-family="sans-serif" font-size="11" lengthAdjust="spacingAndGlyphs" textLength="34" x="430.5" y="111.3667">VIDEO</text><text fill="#000000" font-family="sans-serif" font-size="11" lengthAdjust="spacingAndGlyphs" textLength="35" x="430.5" y="124.1714">AUDIO</text><text fill="#000000" font-family="sans-serif" font-size="11" lengthAdjust="spacingAndGlyphs" textLength="47" x="430.5" y="136.9761">ARCHIVE</text><text fill="#000000" font-family="sans-serif" font-size="11" lengthAdjust="spacingAndGlyphs" textLength="38" x="430.5" y="149.7808">OTHER</text><!--class Report--><rect fill="#FEFECE" filter="url(#fsm098k3cfr7d)" height="112.0234" id="Report" style="stroke: #A80036; stroke-width: 1.5;" width="222" x="582" y="26"/><ellipse cx="667.75" cy="42" fill="#ADD1B2" rx="11" ry="11" style="stroke: #A80036; stroke-width: 1.0;"/><path d="M670.7188,47.6406 Q670.1406,47.9375 669.5,48.0781 Q668.8594,48.2344 668.1563,48.2344 Q665.6563,48.2344 664.3281,46.5938 Q663.0156,44.9375 663.0156,41.8125 Q663.0156,38.6875 664.3281,37.0313 Q665.6563,35.375 668.1563,35.375 Q668.8594,35.375 669.5,35.5313 Q670.1563,35.6875 670.7188,35.9844 L670.7188,38.7031 Q670.0938,38.125 669.5,37.8594 Q668.9063,37.5781 668.2813,37.5781 Q666.9375,37.5781 666.25,38.6563 Q665.5625,39.7188 665.5625,41.8125 Q665.5625,43.9063 666.25,44.9844 Q666.9375,46.0469 668.2813,46.0469 Q668.9063,46.0469 669.5,45.7813 Q670.0938,45.5 670.7188,44.9219 L670.7188,47.6406 Z "/><text fill="#000000" font-family="sans-serif" font-size="12" lengthAdjust="spacingAndGlyphs" textLength="42" x="688.25" y="46.1543">Report</text><line style="stroke: #A80036; stroke-width: 1.5;" x1="583" x2="803" y1="58" y2="58"/><text fill="#000000" font-family="sans-serif" font-size="11" lengthAdjust="spacingAndGlyphs" textLength="96" x="588" y="72.2104">website: Website</text><line style="stroke: #A80036; stroke-width: 1.5;" x1="583" x2="803" y1="78.8047" y2="78.8047"/><text fill="#000000" font-family="sans-serif" font-size="11" lengthAdjust="spacingAndGlyphs" textLength="165" x="588" y="93.0151">setSourceData(site: Website)</text><text fill="#000000" font-family="sans-serif" font-size="11" lengthAdjust="spacingAndGlyphs" textLength="210" x="588" y="105.8198">setBaseName(baseFileName: String)</text><text fill="#000000" font-family="sans-serif" font-size="11" lengthAdjust="spacingAndGlyphs" textLength="0" x="592" y="118.6245"/><text fill="#000000" font-family="sans-serif" font-size="11" lengthAdjust="spacingAndGlyphs" textLength="36" x="588" y="131.4292">write()</text><!--class ReportConsole--><rect fill="#FEFECE" filter="url(#fsm098k3cfr7d)" height="32" id="ReportConsole" style="stroke: #A80036; stroke-width: 1.5;" width="124" x="416" y="245.5"/><ellipse cx="431" cy="261.5" fill="#ADD1B2" rx="11" ry="11" style="stroke: #A80036; stroke-width: 1.0;"/><path d="M433.9688,267.1406 Q433.3906,267.4375 432.75,267.5781 Q432.1094,267.7344 431.4063,267.7344 Q428.9063,267.7344 427.5781,266.0938 Q426.2656,264.4375 426.2656,261.3125 Q426.2656,258.1875 427.5781,256.5313 Q428.9063,254.875 431.4063,254.875 Q432.1094,254.875 432.75,255.0313 Q433.4063,255.1875 433.9688,255.4844 L433.9688,258.2031 Q433.3438,257.625 432.75,257.3594 Q432.1563,257.0781 431.5313,257.0781 Q430.1875,257.0781 429.5,258.1563 Q428.8125,259.2188 428.8125,261.3125 Q428.8125,263.4063 429.5,264.4844 Q430.1875,265.5469 431.5313,265.5469 Q432.1563,265.5469 432.75,265.2813 Q433.3438,265 433.9688,264.4219 L433.9688,267.1406 Z "/><text fill="#000000" font-family="sans-serif" font-size="12" lengthAdjust="spacingAndGlyphs" textLength="92" x="445" y="265.6543">ReportConsole</text><!--class ReportText--><rect fill="#FEFECE" filter="url(#fsm098k3cfr7d)" height="32" id="ReportText" style="stroke: #A80036; stroke-width: 1.5;" width="100" x="575" y="245.5"/><ellipse cx="590" cy="261.5" fill="#ADD1B2" rx="11" ry="11" style="stroke: #A80036; stroke-width: 1.0;"/><path d="M592.9688,267.1406 Q592.3906,267.4375 591.75,267.5781 Q591.1094,267.7344 590.4063,267.7344 Q587.9063,267.7344 586.5781,266.0938 Q585.2656,264.4375 585.2656,261.3125 Q585.2656,258.1875 586.5781,256.5313 Q587.9063,254.875 590.4063,254.875 Q591.1094,254.875 591.75,255.0313 Q592.4063,255.1875 592.9688,255.4844 L592.9688,258.2031 Q592.3438,257.625 591.75,257.3594 Q591.1563,257.0781 590.5313,257.0781 Q589.1875,257.0781 588.5,258.1563 Q587.8125,259.2188 587.8125,261.3125 Q587.8125,263.4063 588.5,264.4844 Q589.1875,265.5469 590.5313,265.5469 Q591.1563,265.5469 591.75,265.2813 Q592.3438,265 592.9688,264.4219 L592.9688,267.1406 Z "/><text fill="#000000" font-family="sans-serif" font-size="12" lengthAdjust="spacingAndGlyphs" textLength="68" x="604" y="265.6543">ReportText</text><!--class ReportJSON--><rect fill="#FEFECE" filter="url(#fsm098k3cfr7d)" height="32" id="ReportJSON" style="stroke: #A80036; stroke-width: 1.5;" width="103" x="710.5" y="245.5"/><ellipse cx="725.5" cy="261.5" fill="#ADD1B2" rx="11" ry="11" style="stroke: #A80036; stroke-width: 1.0;"/><path d="M728.4688,267.1406 Q727.8906,267.4375 727.25,267.5781 Q726.6094,267.7344 725.9063,267.7344 Q723.4063,267.7344 722.0781,266.0938 Q720.7656,264.4375 720.7656,261.3125 Q720.7656,258.1875 722.0781,256.5313 Q723.4063,254.875 725.9063,254.875 Q726.6094,254.875 727.25,255.0313 Q727.9063,255.1875 728.4688,255.4844 L728.4688,258.2031 Q727.8438,257.625 727.25,257.3594 Q726.6563,257.0781 726.0313,257.0781 Q724.6875,257.0781 724,258.1563 Q723.3125,259.2188 723.3125,261.3125 Q723.3125,263.4063 724,264.4844 Q724.6875,265.5469 726.0313,265.5469 Q726.6563,265.5469 727.25,265.2813 Q727.8438,265 728.4688,264.4219 L728.4688,267.1406 Z "/><text fill="#000000" font-family="sans-serif" font-size="12" lengthAdjust="spacingAndGlyphs" textLength="71" x="739.5" y="265.6543">ReportJSON</text><!--class ReportExcel--><rect fill="#FEFECE" filter="url(#fsm098k3cfr7d)" height="32" id="ReportExcel" style="stroke: #A80036; stroke-width: 1.5;" width="106" x="849" y="245.5"/><ellipse cx="864" cy="261.5" fill="#ADD1B2" rx="11" ry="11" style="stroke: #A80036; stroke-width: 1.0;"/><path d="M866.9688,267.1406 Q866.3906,267.4375 865.75,267.5781 Q865.1094,267.7344 864.4063,267.7344 Q861.9063,267.7344 860.5781,266.0938 Q859.2656,264.4375 859.2656,261.3125 Q859.2656,258.1875 860.5781,256.5313 Q861.9063,254.875 864.4063,254.875 Q865.1094,254.875 865.75,255.0313 Q866.4063,255.1875 866.9688,255.4844 L866.9688,258.2031 Q866.3438,257.625 865.75,257.3594 Q865.1563,257.0781 864.5313,257.0781 Q863.1875,257.0781 862.5,258.1563 Q861.8125,259.2188 861.8125,261.3125 Q861.8125,263.4063 862.5,264.4844 Q863.1875,265.5469 864.5313,265.5469 Q865.1563,265.5469 865.75,265.2813 Q866.3438,265 866.9688,264.4219 L866.9688,267.1406 Z "/><text fill="#000000" font-family="sans-serif" font-size="12" lengthAdjust="spacingAndGlyphs" textLength="74" x="878" y="265.6543">ReportExcel</text><!--reverse link Resource to Image--><path d="M173.96,503.045 C167.838,518.6445 162.022,533.4635 157.915,543.9276 " fill="none" id="Resource&lt;-Image" style="stroke: #A80036; stroke-width: 1.0;"/><polygon fill="none" points="167.521,500.2913,181.343,484.231,180.553,505.4059,167.521,500.2913" style="stroke: #A80036; stroke-width: 1.0;"/><!--reverse link Resource to Script--><path d="M234.04,503.045 C240.162,518.6445 245.978,533.4635 250.085,543.9276 " fill="none" id="Resource&lt;-Script" style="stroke: #A80036; stroke-width: 1.0;"/><polygon fill="none" points="227.447,505.4059,226.657,484.231,240.479,500.2913,227.447,505.4059" style="stroke: #A80036; stroke-width: 1.0;"/><!--reverse link Resource to StyleSheet--><path d="M294.491,496.6172 C317.588,514.5144 340.199,532.0339 355.548,543.9276 " fill="none" id="Resource&lt;-StyleSheet" style="stroke: #A80036; stroke-width: 1.0;"/><polygon fill="none" points="290.028,502.0143,278.506,484.231,298.603,490.9477,290.028,502.0143" style="stroke: #A80036; stroke-width: 1.0;"/><!--reverse link Resource to Anchor--><path d="M118.707,497.1333 C97.3123,514.8508 76.4247,532.1483 62.2007,543.9276 " fill="none" id="Resource&lt;-Anchor" style="stroke: #A80036; stroke-width: 1.0;"/><polygon fill="none" points="114.419,491.596,134.287,484.231,123.348,502.3786,114.419,491.596" style="stroke: #A80036; stroke-width: 1.0;"/><!--reverse link Website to HTMLDocument--><path d="M204,128.478 C204,155.34 204,189.206 204,215.912 " fill="none" id="Website&lt;-HTMLDocument" style="stroke: #A80036; stroke-width: 1.0;"/><polygon fill="#FFFFFF" points="204,115.144,200,121.144,204,127.144,208,121.144,204,115.144" style="stroke: #A80036; stroke-width: 1.0;"/><!--reverse link HTMLDocument to Resource--><path d="M204,320.624 C204,335.67 204,351.862 204,366.881 " fill="none" id="HTMLDocument&lt;-Resource" style="stroke: #A80036; stroke-width: 1.0;"/><polygon fill="#FFFFFF" points="204,307.196,200,313.196,204,319.196,208,313.196,204,307.196" style="stroke: #A80036; stroke-width: 1.0;"/><!--reverse link Report to ReportConsole--><path d="M610.72,150.929 C568.84,185.504 521.548,224.548 496.264,245.422 " fill="none" id="Report&lt;-ReportConsole" style="stroke: #A80036; stroke-width: 1.0;"/><polygon fill="none" points="606.272,145.524,626.151,138.189,615.185,156.32,606.272,145.524" style="stroke: #A80036; stroke-width: 1.0;"/><!--reverse link Report to ReportText--><path d="M664.602,157.126 C651.98,190.074 638.299,225.786 630.777,245.422 " fill="none" id="Report&lt;-ReportText" style="stroke: #A80036; stroke-width: 1.0;"/><polygon fill="none" points="658.165,154.361,671.857,138.189,671.239,159.37,658.165,154.361" style="stroke: #A80036; stroke-width: 1.0;"/><!--reverse link Report to ReportJSON--><path d="M721.815,157.126 C734.623,190.074 748.506,225.786 756.138,245.422 " fill="none" id="Report&lt;-ReportJSON" style="stroke: #A80036; stroke-width: 1.0;"/><polygon fill="none" points="715.176,159.366,714.454,138.189,728.225,154.294,715.176,159.366" style="stroke: #A80036; stroke-width: 1.0;"/><!--reverse link Report to ReportExcel--><path d="M773.252,151.157 C813.897,185.676 859.721,224.594 884.246,245.422 " fill="none" id="Report&lt;-ReportExcel" style="stroke: #A80036; stroke-width: 1.0;"/><polygon fill="none" points="768.696,156.471,757.983,138.189,777.759,145.8,768.696,156.471" style="stroke: #A80036; stroke-width: 1.0;"/><!--
@startuml diagrams_uml_class/analysis_02.svg
hide empty members

class Website {
    localDirectory: Path
    urls: Collection<URL>
}

class HTMLDocument {
    scripts: Collection<Script>
    stylesheets: Collection<StyleSheet>
    images: Collection<Image>
    anchors: Collection<Anchor>
}

class Resource {
    path: Path
    url: URL
    foundOn: Collection<HTMLDocument>
    location: Locality
    typeOfResource: ResourceKind
    sizeOfFile: long
}

class Anchor {

}

class Image {
}

class Script {
}

class StyleSheet {
}

enum Locality <<Enum>> {
    INTERNAL
    INTRAPAGE
    EXTERNAL
}

enum ResourceKind <<Enum>> {
    IMAGE
    STYLESHEET
    SCRIPT
    ANCHOR
    VIDEO
    AUDIO
    ARCHIVE
    OTHER
}

class Report {
    website: Website

    setSourceData(site: Website)
    setBaseName(baseFileName: String)

    write()
}

class ReportConsole {

}

class ReportText {

}

class ReportJSON {

}

class ReportExcel {

}

Resource <|- - Image
Resource <|- - Script
Resource <|- - StyleSheet
Resource <|- - Anchor

Website o- - HTMLDocument
HTMLDocument o- - Resource

Report <|- - ReportConsole
Report <|- - ReportText
Report <|- - ReportJSON
Report <|- - ReportExcel

@enduml

PlantUML version 1.2019.09(Mon Aug 26 12:19:51 EDT 2019)
(GPL source distribution)
Java Runtime: OpenJDK Runtime Environment
JVM: OpenJDK 64-Bit Server VM
Java Version: 11.0.14+9-Ubuntu-0ubuntu2.16.04
Operating System: Linux
OS Version: 4.4.0-241-generic
Default Encoding: UTF-8
Language: en
Country: US
--></g></svg>