<?xml version="1.0" encoding="us-ascii" standalone="no"?><svg xmlns="http://www.w3.org/2000/svg" xmlns:xlink="http://www.w3.org/1999/xlink" contentStyleType="text/css" height="648px" preserveAspectRatio="none" style="width:1037px;height:648px;background:#FFFFFF;" version="1.1" viewBox="0 0 1037 648" width="1037px" zoomAndPan="magnify"><defs/><g><!--class Website--><g id="elem_Website"><rect codeLine="432" fill="#F1F1F1" height="72.5938" id="Website" rx="2.5" ry="2.5" style="stroke:#181818;stroke-width:0.5;" width="165" x="132" y="60"/><ellipse cx="182.25" cy="76" fill="#ADD1B2" rx="11" ry="11" style="stroke:#181818;stroke-width:1.0;"/><path d="M185.2188,81.6406 Q184.6406,81.9375 184,82.0781 Q183.3594,82.2344 182.6563,82.2344 Q180.1563,82.2344 178.8281,80.5938 Q177.5156,78.9375 177.5156,75.8125 Q177.5156,72.6875 178.8281,71.0313 Q180.1563,69.375 182.6563,69.375 Q183.3594,69.375 184,69.5313 Q184.6563,69.6875 185.2188,69.9844 L185.2188,72.7031 Q184.5938,72.125 184,71.8594 Q183.4063,71.5781 182.7813,71.5781 Q181.4375,71.5781 180.75,72.6563 Q180.0625,73.7188 180.0625,75.8125 Q180.0625,77.9063 180.75,78.9844 Q181.4375,80.0469 182.7813,80.0469 Q183.4063,80.0469 184,79.7813 Q184.5938,79.5 185.2188,78.9219 L185.2188,81.6406 Z " fill="#000000"/><text fill="#000000" font-family="sans-serif" font-size="14" lengthAdjust="spacing" textLength="56" x="202.75" y="80.8467">Website</text><line style="stroke:#181818;stroke-width:0.5;" x1="133" x2="296" y1="92" y2="92"/><text fill="#000000" font-family="sans-serif" font-size="14" lengthAdjust="spacing" textLength="133" x="138" y="108.9951">localDirectory: Path</text><text fill="#000000" font-family="sans-serif" font-size="14" lengthAdjust="spacing" textLength="153" x="138" y="125.292">urls: Collection&lt;URL&gt;</text></g><!--class HTMLDocument--><g id="elem_HTMLDocument"><rect codeLine="437" fill="#F1F1F1" height="105.1875" id="HTMLDocument" rx="2.5" ry="2.5" style="stroke:#181818;stroke-width:0.5;" width="267" x="81" y="246"/><ellipse cx="154.75" cy="262" fill="#ADD1B2" rx="11" ry="11" style="stroke:#181818;stroke-width:1.0;"/><path d="M157.7188,267.6406 Q157.1406,267.9375 156.5,268.0781 Q155.8594,268.2344 155.1563,268.2344 Q152.6563,268.2344 151.3281,266.5938 Q150.0156,264.9375 150.0156,261.8125 Q150.0156,258.6875 151.3281,257.0313 Q152.6563,255.375 155.1563,255.375 Q155.8594,255.375 156.5,255.5313 Q157.1563,255.6875 157.7188,255.9844 L157.7188,258.7031 Q157.0938,258.125 156.5,257.8594 Q155.9063,257.5781 155.2813,257.5781 Q153.9375,257.5781 153.25,258.6563 Q152.5625,259.7188 152.5625,261.8125 Q152.5625,263.9063 153.25,264.9844 Q153.9375,266.0469 155.2813,266.0469 Q155.9063,266.0469 156.5,265.7813 Q157.0938,265.5 157.7188,264.9219 L157.7188,267.6406 Z " fill="#000000"/><text fill="#000000" font-family="sans-serif" font-size="14" lengthAdjust="spacing" textLength="111" x="175.25" y="266.8467">HTMLDocument</text><line style="stroke:#181818;stroke-width:0.5;" x1="82" x2="347" y1="278" y2="278"/><text fill="#000000" font-family="sans-serif" font-size="14" lengthAdjust="spacing" textLength="186" x="87" y="294.9951">scripts: Collection&lt;Script&gt;</text><text fill="#000000" font-family="sans-serif" font-size="14" lengthAdjust="spacing" textLength="255" x="87" y="311.292">stylesheets: Collection&lt;StyleSheet&gt;</text><text fill="#000000" font-family="sans-serif" font-size="14" lengthAdjust="spacing" textLength="193" x="87" y="327.5889">images: Collection&lt;Image&gt;</text><text fill="#000000" font-family="sans-serif" font-size="14" lengthAdjust="spacing" textLength="206" x="87" y="343.8857">anchors: Collection&lt;Anchor&gt;</text></g><!--class Resource--><g id="elem_Resource"><rect codeLine="444" fill="#F1F1F1" height="137.7813" id="Resource" rx="2.5" ry="2.5" style="stroke:#181818;stroke-width:0.5;" width="284" x="72.5" y="411"/><ellipse cx="176.75" cy="427" fill="#ADD1B2" rx="11" ry="11" style="stroke:#181818;stroke-width:1.0;"/><path d="M179.7188,432.6406 Q179.1406,432.9375 178.5,433.0781 Q177.8594,433.2344 177.1563,433.2344 Q174.6563,433.2344 173.3281,431.5938 Q172.0156,429.9375 172.0156,426.8125 Q172.0156,423.6875 173.3281,422.0313 Q174.6563,420.375 177.1563,420.375 Q177.8594,420.375 178.5,420.5313 Q179.1563,420.6875 179.7188,420.9844 L179.7188,423.7031 Q179.0938,423.125 178.5,422.8594 Q177.9063,422.5781 177.2813,422.5781 Q175.9375,422.5781 175.25,423.6563 Q174.5625,424.7188 174.5625,426.8125 Q174.5625,428.9063 175.25,429.9844 Q175.9375,431.0469 177.2813,431.0469 Q177.9063,431.0469 178.5,430.7813 Q179.0938,430.5 179.7188,429.9219 L179.7188,432.6406 Z " fill="#000000"/><text fill="#000000" font-family="sans-serif" font-size="14" lengthAdjust="spacing" textLength="67" x="197.25" y="431.8467">Resource</text><line style="stroke:#181818;stroke-width:0.5;" x1="73.5" x2="355.5" y1="443" y2="443"/><text fill="#000000" font-family="sans-serif" font-size="14" lengthAdjust="spacing" textLength="71" x="78.5" y="459.9951">path: Path</text><text fill="#000000" font-family="sans-serif" font-size="14" lengthAdjust="spacing" textLength="53" x="78.5" y="476.292">url: URL</text><text fill="#000000" font-family="sans-serif" font-size="14" lengthAdjust="spacing" textLength="272" x="78.5" y="492.5889">foundOn: Collection&lt;HTMLDocument&gt;</text><text fill="#000000" font-family="sans-serif" font-size="14" lengthAdjust="spacing" textLength="113" x="78.5" y="508.8857">location: Locality</text><text fill="#000000" font-family="sans-serif" font-size="14" lengthAdjust="spacing" textLength="218" x="78.5" y="525.1826">typeOfResource: ResourceKind</text><text fill="#000000" font-family="sans-serif" font-size="14" lengthAdjust="spacing" textLength="105" x="78.5" y="541.4795">sizeOfFile: long</text></g><!--class Anchor--><g id="elem_Anchor"><rect codeLine="453" fill="#F1F1F1" height="32" id="Anchor" rx="2.5" ry="2.5" style="stroke:#181818;stroke-width:0.5;" width="81" x="7" y="609"/><ellipse cx="22" cy="625" fill="#ADD1B2" rx="11" ry="11" style="stroke:#181818;stroke-width:1.0;"/><path d="M24.9688,630.6406 Q24.3906,630.9375 23.75,631.0781 Q23.1094,631.2344 22.4063,631.2344 Q19.9063,631.2344 18.5781,629.5938 Q17.2656,627.9375 17.2656,624.8125 Q17.2656,621.6875 18.5781,620.0313 Q19.9063,618.375 22.4063,618.375 Q23.1094,618.375 23.75,618.5313 Q24.4063,618.6875 24.9688,618.9844 L24.9688,621.7031 Q24.3438,621.125 23.75,620.8594 Q23.1563,620.5781 22.5313,620.5781 Q21.1875,620.5781 20.5,621.6563 Q19.8125,622.7188 19.8125,624.8125 Q19.8125,626.9063 20.5,627.9844 Q21.1875,629.0469 22.5313,629.0469 Q23.1563,629.0469 23.75,628.7813 Q24.3438,628.5 24.9688,627.9219 L24.9688,630.6406 Z " fill="#000000"/><text fill="#000000" font-family="sans-serif" font-size="14" lengthAdjust="spacing" textLength="49" x="36" y="629.8467">Anchor</text></g><!--class Image--><g id="elem_Image"><rect codeLine="457" fill="#F1F1F1" height="32" id="Image" rx="2.5" ry="2.5" style="stroke:#181818;stroke-width:0.5;" width="74" x="123.5" y="609"/><ellipse cx="138.5" cy="625" fill="#ADD1B2" rx="11" ry="11" style="stroke:#181818;stroke-width:1.0;"/><path d="M141.4688,630.6406 Q140.8906,630.9375 140.25,631.0781 Q139.6094,631.2344 138.9063,631.2344 Q136.4063,631.2344 135.0781,629.5938 Q133.7656,627.9375 133.7656,624.8125 Q133.7656,621.6875 135.0781,620.0313 Q136.4063,618.375 138.9063,618.375 Q139.6094,618.375 140.25,618.5313 Q140.9063,618.6875 141.4688,618.9844 L141.4688,621.7031 Q140.8438,621.125 140.25,620.8594 Q139.6563,620.5781 139.0313,620.5781 Q137.6875,620.5781 137,621.6563 Q136.3125,622.7188 136.3125,624.8125 Q136.3125,626.9063 137,627.9844 Q137.6875,629.0469 139.0313,629.0469 Q139.6563,629.0469 140.25,628.7813 Q140.8438,628.5 141.4688,627.9219 L141.4688,630.6406 Z " fill="#000000"/><text fill="#000000" font-family="sans-serif" font-size="14" lengthAdjust="spacing" textLength="42" x="152.5" y="629.8467">Image</text></g><!--class Script--><g id="elem_Script"><rect codeLine="460" fill="#F1F1F1" height="32" id="Script" rx="2.5" ry="2.5" style="stroke:#181818;stroke-width:0.5;" width="71" x="233" y="609"/><ellipse cx="248" cy="625" fill="#ADD1B2" rx="11" ry="11" style="stroke:#181818;stroke-width:1.0;"/><path d="M250.9688,630.6406 Q250.3906,630.9375 249.75,631.0781 Q249.1094,631.2344 248.4063,631.2344 Q245.9063,631.2344 244.5781,629.5938 Q243.2656,627.9375 243.2656,624.8125 Q243.2656,621.6875 244.5781,620.0313 Q245.9063,618.375 248.4063,618.375 Q249.1094,618.375 249.75,618.5313 Q250.4063,618.6875 250.9688,618.9844 L250.9688,621.7031 Q250.3438,621.125 249.75,620.8594 Q249.1563,620.5781 248.5313,620.5781 Q247.1875,620.5781 246.5,621.6563 Q245.8125,622.7188 245.8125,624.8125 Q245.8125,626.9063 246.5,627.9844 Q247.1875,629.0469 248.5313,629.0469 Q249.1563,629.0469 249.75,628.7813 Q250.3438,628.5 250.9688,627.9219 L250.9688,630.6406 Z " fill="#000000"/><text fill="#000000" font-family="sans-serif" font-size="14" lengthAdjust="spacing" textLength="39" x="262" y="629.8467">Script</text></g><!--class StyleSheet--><g id="elem_StyleSheet"><rect codeLine="463" fill="#F1F1F1" height="32" id="StyleSheet" rx="2.5" ry="2.5" style="stroke:#181818;stroke-width:0.5;" width="106" x="339.5" y="609"/><ellipse cx="354.5" cy="625" fill="#ADD1B2" rx="11" ry="11" style="stroke:#181818;stroke-width:1.0;"/><path d="M357.4688,630.6406 Q356.8906,630.9375 356.25,631.0781 Q355.6094,631.2344 354.9063,631.2344 Q352.4063,631.2344 351.0781,629.5938 Q349.7656,627.9375 349.7656,624.8125 Q349.7656,621.6875 351.0781,620.0313 Q352.4063,618.375 354.9063,618.375 Q355.6094,618.375 356.25,618.5313 Q356.9063,618.6875 357.4688,618.9844 L357.4688,621.7031 Q356.8438,621.125 356.25,620.8594 Q355.6563,620.5781 355.0313,620.5781 Q353.6875,620.5781 353,621.6563 Q352.3125,622.7188 352.3125,624.8125 Q352.3125,626.9063 353,627.9844 Q353.6875,629.0469 355.0313,629.0469 Q355.6563,629.0469 356.25,628.7813 Q356.8438,628.5 357.4688,627.9219 L357.4688,630.6406 Z " fill="#000000"/><text fill="#000000" font-family="sans-serif" font-size="14" lengthAdjust="spacing" textLength="74" x="368.5" y="629.8467">StyleSheet</text></g><!--class Locality--><g id="elem_Locality"><rect codeLine="466" fill="#F1F1F1" height="97.1563" id="Locality" rx="2.5" ry="2.5" style="stroke:#181818;stroke-width:0.5;" width="91" x="365" y="48"/><ellipse cx="384.05" cy="68.1328" fill="#EB937F" rx="11" ry="11" style="stroke:#181818;stroke-width:1.0;"/><path d="M388.1594,74.1328 L380.4406,74.1328 L380.4406,61.7422 L388.1594,61.7422 L388.1594,63.8984 L382.8938,63.8984 L382.8938,66.5703 L387.6594,66.5703 L387.6594,68.7266 L382.8938,68.7266 L382.8938,71.9766 L388.1594,71.9766 L388.1594,74.1328 Z " fill="#000000"/><text fill="#000000" font-family="sans-serif" font-size="12" font-style="italic" lengthAdjust="spacing" textLength="49" x="399.45" y="64.1387">&#171;Enum&#187;</text><text fill="#000000" font-family="sans-serif" font-size="14" lengthAdjust="spacing" textLength="50" x="398.95" y="79.9639">Locality</text><line style="stroke:#181818;stroke-width:0.5;" x1="366" x2="455" y1="88.2656" y2="88.2656"/><text fill="#000000" font-family="sans-serif" font-size="14" lengthAdjust="spacing" textLength="67" x="371" y="105.2607">INTERNAL</text><text fill="#000000" font-family="sans-serif" font-size="14" lengthAdjust="spacing" textLength="79" x="371" y="121.5576">INTRAPAGE</text><text fill="#000000" font-family="sans-serif" font-size="14" lengthAdjust="spacing" textLength="72" x="371" y="137.8545">EXTERNAL</text></g><!--class ResourceKind--><g id="elem_ResourceKind"><rect codeLine="472" fill="#F1F1F1" height="178.6406" id="ResourceKind" rx="2.5" ry="2.5" style="stroke:#181818;stroke-width:0.5;" width="129" x="507" y="7"/><ellipse cx="522" cy="27.1328" fill="#EB937F" rx="11" ry="11" style="stroke:#181818;stroke-width:1.0;"/><path d="M526.1094,33.1328 L518.3906,33.1328 L518.3906,20.7422 L526.1094,20.7422 L526.1094,22.8984 L520.8438,22.8984 L520.8438,25.5703 L525.6094,25.5703 L525.6094,27.7266 L520.8438,27.7266 L520.8438,30.9766 L526.1094,30.9766 L526.1094,33.1328 Z " fill="#000000"/><text fill="#000000" font-family="sans-serif" font-size="12" font-style="italic" lengthAdjust="spacing" textLength="49" x="560" y="23.1387">&#171;Enum&#187;</text><text fill="#000000" font-family="sans-serif" font-size="14" lengthAdjust="spacing" textLength="97" x="536" y="38.9639">ResourceKind</text><line style="stroke:#181818;stroke-width:0.5;" x1="508" x2="635" y1="47.2656" y2="47.2656"/><text fill="#000000" font-family="sans-serif" font-size="14" lengthAdjust="spacing" textLength="44" x="513" y="64.2607">IMAGE</text><text fill="#000000" font-family="sans-serif" font-size="14" lengthAdjust="spacing" textLength="89" x="513" y="80.5576">STYLESHEET</text><text fill="#000000" font-family="sans-serif" font-size="14" lengthAdjust="spacing" textLength="50" x="513" y="96.8545">SCRIPT</text><text fill="#000000" font-family="sans-serif" font-size="14" lengthAdjust="spacing" textLength="60" x="513" y="113.1514">ANCHOR</text><text fill="#000000" font-family="sans-serif" font-size="14" lengthAdjust="spacing" textLength="43" x="513" y="129.4482">VIDEO</text><text fill="#000000" font-family="sans-serif" font-size="14" lengthAdjust="spacing" textLength="44" x="513" y="145.7451">AUDIO</text><text fill="#000000" font-family="sans-serif" font-size="14" lengthAdjust="spacing" textLength="60" x="513" y="162.042">ARCHIVE</text><text fill="#000000" font-family="sans-serif" font-size="14" lengthAdjust="spacing" textLength="49" x="513" y="178.3389">OTHER</text></g><!--class Report--><g id="elem_Report"><rect codeLine="483" fill="#F1F1F1" height="80.5938" id="Report" rx="2.5" ry="2.5" style="stroke:#181818;stroke-width:0.5;" width="134" x="679.5" y="56"/><ellipse cx="719.25" cy="72" fill="#ADD1B2" rx="11" ry="11" style="stroke:#181818;stroke-width:1.0;"/><path d="M722.2188,77.6406 Q721.6406,77.9375 721,78.0781 Q720.3594,78.2344 719.6563,78.2344 Q717.1563,78.2344 715.8281,76.5938 Q714.5156,74.9375 714.5156,71.8125 Q714.5156,68.6875 715.8281,67.0313 Q717.1563,65.375 719.6563,65.375 Q720.3594,65.375 721,65.5313 Q721.6563,65.6875 722.2188,65.9844 L722.2188,68.7031 Q721.5938,68.125 721,67.8594 Q720.4063,67.5781 719.7813,67.5781 Q718.4375,67.5781 717.75,68.6563 Q717.0625,69.7188 717.0625,71.8125 Q717.0625,73.9063 717.75,74.9844 Q718.4375,76.0469 719.7813,76.0469 Q720.4063,76.0469 721,75.7813 Q721.5938,75.5 722.2188,74.9219 L722.2188,77.6406 Z " fill="#000000"/><text fill="#000000" font-family="sans-serif" font-size="14" lengthAdjust="spacing" textLength="47" x="738.75" y="76.8467">Report</text><line style="stroke:#181818;stroke-width:0.5;" x1="680.5" x2="812.5" y1="88" y2="88"/><text fill="#000000" font-family="sans-serif" font-size="14" lengthAdjust="spacing" textLength="119" x="685.5" y="104.9951">website: Website</text><line style="stroke:#181818;stroke-width:0.5;" x1="680.5" x2="812.5" y1="112.2969" y2="112.2969"/><text fill="#000000" font-family="sans-serif" font-size="14" lengthAdjust="spacing" textLength="122" x="685.5" y="129.292">set(site: Website)</text></g><!--class ReportConsole--><g id="elem_ReportConsole"><rect codeLine="489" fill="#F1F1F1" height="32" id="ReportConsole" rx="2.5" ry="2.5" style="stroke:#181818;stroke-width:0.5;" width="136" x="451.5" y="282.5"/><ellipse cx="466.5" cy="298.5" fill="#ADD1B2" rx="11" ry="11" style="stroke:#181818;stroke-width:1.0;"/><path d="M469.4688,304.1406 Q468.8906,304.4375 468.25,304.5781 Q467.6094,304.7344 466.9063,304.7344 Q464.4063,304.7344 463.0781,303.0938 Q461.7656,301.4375 461.7656,298.3125 Q461.7656,295.1875 463.0781,293.5313 Q464.4063,291.875 466.9063,291.875 Q467.6094,291.875 468.25,292.0313 Q468.9063,292.1875 469.4688,292.4844 L469.4688,295.2031 Q468.8438,294.625 468.25,294.3594 Q467.6563,294.0781 467.0313,294.0781 Q465.6875,294.0781 465,295.1563 Q464.3125,296.2188 464.3125,298.3125 Q464.3125,300.4063 465,301.4844 Q465.6875,302.5469 467.0313,302.5469 Q467.6563,302.5469 468.25,302.2813 Q468.8438,302 469.4688,301.4219 L469.4688,304.1406 Z " fill="#000000"/><text fill="#000000" font-family="sans-serif" font-size="14" lengthAdjust="spacing" textLength="104" x="480.5" y="303.3467">ReportConsole</text></g><!--class ReportText--><g id="elem_ReportText"><rect codeLine="493" fill="#F1F1F1" height="32" id="ReportText" rx="2.5" ry="2.5" style="stroke:#181818;stroke-width:0.5;" width="109" x="623" y="282.5"/><ellipse cx="638" cy="298.5" fill="#ADD1B2" rx="11" ry="11" style="stroke:#181818;stroke-width:1.0;"/><path d="M640.9688,304.1406 Q640.3906,304.4375 639.75,304.5781 Q639.1094,304.7344 638.4063,304.7344 Q635.9063,304.7344 634.5781,303.0938 Q633.2656,301.4375 633.2656,298.3125 Q633.2656,295.1875 634.5781,293.5313 Q635.9063,291.875 638.4063,291.875 Q639.1094,291.875 639.75,292.0313 Q640.4063,292.1875 640.9688,292.4844 L640.9688,295.2031 Q640.3438,294.625 639.75,294.3594 Q639.1563,294.0781 638.5313,294.0781 Q637.1875,294.0781 636.5,295.1563 Q635.8125,296.2188 635.8125,298.3125 Q635.8125,300.4063 636.5,301.4844 Q637.1875,302.5469 638.5313,302.5469 Q639.1563,302.5469 639.75,302.2813 Q640.3438,302 640.9688,301.4219 L640.9688,304.1406 Z " fill="#000000"/><text fill="#000000" font-family="sans-serif" font-size="14" lengthAdjust="spacing" textLength="77" x="652" y="303.3467">ReportText</text></g><!--class ReportJSON--><g id="elem_ReportJSON"><rect codeLine="497" fill="#F1F1F1" height="32" id="ReportJSON" rx="2.5" ry="2.5" style="stroke:#181818;stroke-width:0.5;" width="112" x="767.5" y="282.5"/><ellipse cx="782.5" cy="298.5" fill="#ADD1B2" rx="11" ry="11" style="stroke:#181818;stroke-width:1.0;"/><path d="M785.4688,304.1406 Q784.8906,304.4375 784.25,304.5781 Q783.6094,304.7344 782.9063,304.7344 Q780.4063,304.7344 779.0781,303.0938 Q777.7656,301.4375 777.7656,298.3125 Q777.7656,295.1875 779.0781,293.5313 Q780.4063,291.875 782.9063,291.875 Q783.6094,291.875 784.25,292.0313 Q784.9063,292.1875 785.4688,292.4844 L785.4688,295.2031 Q784.8438,294.625 784.25,294.3594 Q783.6563,294.0781 783.0313,294.0781 Q781.6875,294.0781 781,295.1563 Q780.3125,296.2188 780.3125,298.3125 Q780.3125,300.4063 781,301.4844 Q781.6875,302.5469 783.0313,302.5469 Q783.6563,302.5469 784.25,302.2813 Q784.8438,302 785.4688,301.4219 L785.4688,304.1406 Z " fill="#000000"/><text fill="#000000" font-family="sans-serif" font-size="14" lengthAdjust="spacing" textLength="80" x="796.5" y="303.3467">ReportJSON</text></g><!--class ReportExcel--><g id="elem_ReportExcel"><rect codeLine="501" fill="#F1F1F1" height="32" id="ReportExcel" rx="2.5" ry="2.5" style="stroke:#181818;stroke-width:0.5;" width="115" x="915" y="282.5"/><ellipse cx="930" cy="298.5" fill="#ADD1B2" rx="11" ry="11" style="stroke:#181818;stroke-width:1.0;"/><path d="M932.9688,304.1406 Q932.3906,304.4375 931.75,304.5781 Q931.1094,304.7344 930.4063,304.7344 Q927.9063,304.7344 926.5781,303.0938 Q925.2656,301.4375 925.2656,298.3125 Q925.2656,295.1875 926.5781,293.5313 Q927.9063,291.875 930.4063,291.875 Q931.1094,291.875 931.75,292.0313 Q932.4063,292.1875 932.9688,292.4844 L932.9688,295.2031 Q932.3438,294.625 931.75,294.3594 Q931.1563,294.0781 930.5313,294.0781 Q929.1875,294.0781 928.5,295.1563 Q927.8125,296.2188 927.8125,298.3125 Q927.8125,300.4063 928.5,301.4844 Q929.1875,302.5469 930.5313,302.5469 Q931.1563,302.5469 931.75,302.2813 Q932.3438,302 932.9688,301.4219 L932.9688,304.1406 Z " fill="#000000"/><text fill="#000000" font-family="sans-serif" font-size="14" lengthAdjust="spacing" textLength="83" x="944" y="303.3467">ReportExcel</text></g><!--reverse link Resource to Image--><g id="link_Resource_Image"><path codeLine="505" d="M182.407,565.9878 C173.927,588.4278 171.65,594.48 166.19,608.93 " fill="none" id="Resource-backto-Image" style="stroke:#181818;stroke-width:1.0;"/><polygon fill="none" points="188.77,549.15,176.7944,563.8668,188.0197,568.1088,188.77,549.15" style="stroke:#181818;stroke-width:1.0;"/></g><!--reverse link Resource to Script--><g id="link_Resource_Script"><path codeLine="506" d="M246.593,565.9878 C255.073,588.4278 257.35,594.48 262.81,608.93 " fill="none" id="Resource-backto-Script" style="stroke:#181818;stroke-width:1.0;"/><polygon fill="none" points="240.23,549.15,240.9803,568.1088,252.2056,563.8668,240.23,549.15" style="stroke:#181818;stroke-width:1.0;"/></g><!--reverse link Resource to StyleSheet--><g id="link_Resource_StyleSheet"><path codeLine="507" d="M313.3641,560.4214 C341.3041,582.8614 355.75,594.48 373.75,608.93 " fill="none" id="Resource-backto-StyleSheet" style="stroke:#181818;stroke-width:1.0;"/><polygon fill="none" points="299.33,549.15,309.6069,565.0995,317.1212,555.7434,299.33,549.15" style="stroke:#181818;stroke-width:1.0;"/></g><!--reverse link Resource to Anchor--><g id="link_Resource_Anchor"><path codeLine="508" d="M121.2368,560.8565 C95.0268,583.2965 81.98,594.48 65.1,608.93 " fill="none" id="Resource-backto-Anchor" style="stroke:#181818;stroke-width:1.0;"/><polygon fill="none" points="134.91,549.15,117.3346,556.2988,125.1389,565.4143,134.91,549.15" style="stroke:#181818;stroke-width:1.0;"/></g><!--reverse link Website to HTMLDocument--><g id="link_Website_HTMLDocument"><path codeLine="510" d="M214.5,145.26 C214.5,176.6 214.5,210.56 214.5,245.89 " fill="none" id="Website-backto-HTMLDocument" style="stroke:#181818;stroke-width:1.0;"/><polygon fill="none" points="214.5,133.26,210.5,139.26,214.5,145.26,218.5,139.26,214.5,133.26" style="stroke:#181818;stroke-width:1.0;"/></g><!--reverse link HTMLDocument to Resource--><g id="link_HTMLDocument_Resource"><path codeLine="511" d="M214.5,363.42 C214.5,381.95 214.5,391.12 214.5,410.82 " fill="none" id="HTMLDocument-backto-Resource" style="stroke:#181818;stroke-width:1.0;"/><polygon fill="none" points="214.5,351.42,210.5,357.42,214.5,363.42,218.5,357.42,214.5,351.42" style="stroke:#181818;stroke-width:1.0;"/></g><!--reverse link Report to ReportConsole--><g id="link_Report_ReportConsole"><path codeLine="513" d="M692.8704,149.7811 C676.7904,165.2311 670.98,170.44 653.5,186 C613.49,221.62 564.75,261.28 538.48,282.37 " fill="none" id="Report-backto-ReportConsole" style="stroke:#181818;stroke-width:1.0;"/><polygon fill="none" points="705.85,137.31,688.7133,145.4546,697.0274,154.1077,705.85,137.31" style="stroke:#181818;stroke-width:1.0;"/></g><!--reverse link Report to ReportText--><g id="link_Report_ReportText"><path codeLine="514" d="M726.9989,154.0256 C711.6789,198.4256 693.44,251.29 682.82,282.07 " fill="none" id="Report-backto-ReportText" style="stroke:#181818;stroke-width:1.0;"/><polygon fill="none" points="732.87,137.01,721.327,152.0685,732.6707,155.9826,732.87,137.01" style="stroke:#181818;stroke-width:1.0;"/></g><!--reverse link Report to ReportJSON--><g id="link_Report_ReportJSON"><path codeLine="515" d="M768.1792,153.8073 C785.2792,198.2073 805.71,251.29 817.56,282.07 " fill="none" id="Report-backto-ReportJSON" style="stroke:#181818;stroke-width:1.0;"/><polygon fill="none" points="761.71,137.01,762.5801,155.9637,773.7783,151.6509,761.71,137.01" style="stroke:#181818;stroke-width:1.0;"/></g><!--reverse link Report to ReportExcel--><g id="link_Report_ReportExcel"><path codeLine="516" d="M804.6288,148.9399 C854.9288,193.4599 920.69,251.65 955.33,282.3 " fill="none" id="Report-backto-ReportExcel" style="stroke:#181818;stroke-width:1.0;"/><polygon fill="none" points="791.15,137.01,800.6521,153.4328,808.6054,144.447,791.15,137.01" style="stroke:#181818;stroke-width:1.0;"/></g><!--SRC=[RPFFRfmm4CRlF8MFpI4lW5P8Y7KB2LbMGDBsIDX9rfAn4JPAIDjth_zWWWcSxDzdZ-UR6Qxa0WYwNaweW-uP1X44BMs4G3_XMH09w4-0r4Tvsz0Z6Q2LV9X2T6xarGZZG4M84awfaWXdXySoZu9_BafQF-H7teuTC3c74kr0UkbVgWoBh2ud2k8Ai3sZUQMvFKUwvXNy8vb6LcrOU-M3ByU6hR8hGV1nQ9t9NfdohOL8sJ6R5pwoIy6yU6jpqL8cBOKermKZSZ9OJZqKB-wrS7dtdh2BzKm-r87lX2gHSlRwcQBDMINuYOnBHHPWg-UHfLQM0Xkx9ILqE62rZwBPTdQgSNcASxSfutFy0viT_ZLBBiOwyozn7jorglwTuoh5kBRRfCpETXcVahGepV8fE-B2miTZDg_A9CsUR92YJd6vxbNF1pT3RtOuGpUbWQqYo6yUljbUJpWJd89NJglKy2vty5rLd7OmVc-1pdmPeiFVsrlRd0sp_Td2fKKRmNOy2DmFo1LRJrhW_LDQTVTrBgP89exdU4VHZdUmTho3ZUFWFm00]--></g></svg>