<?xml version="1.0" encoding="us-ascii" standalone="no"?><svg xmlns="http://www.w3.org/2000/svg" xmlns:xlink="http://www.w3.org/1999/xlink" contentStyleType="text/css" height="963px" preserveAspectRatio="none" style="width:1031px;height:963px;background:#FFFFFF;" version="1.1" viewBox="0 0 1031 963" width="1031px" zoomAndPan="magnify"><defs/><g><!--class Website--><g id="elem_Website"><rect codeLine="1173" fill="#F1F1F1" height="72.5938" id="Website" rx="2.5" ry="2.5" style="stroke:#181818;stroke-width:0.5;" width="165" x="7" y="336"/><ellipse cx="57.25" cy="352" fill="#ADD1B2" rx="11" ry="11" style="stroke:#181818;stroke-width:1.0;"/><path d="M60.2188,357.6406 Q59.6406,357.9375 59,358.0781 Q58.3594,358.2344 57.6563,358.2344 Q55.1563,358.2344 53.8281,356.5938 Q52.5156,354.9375 52.5156,351.8125 Q52.5156,348.6875 53.8281,347.0313 Q55.1563,345.375 57.6563,345.375 Q58.3594,345.375 59,345.5313 Q59.6563,345.6875 60.2188,345.9844 L60.2188,348.7031 Q59.5938,348.125 59,347.8594 Q58.4063,347.5781 57.7813,347.5781 Q56.4375,347.5781 55.75,348.6563 Q55.0625,349.7188 55.0625,351.8125 Q55.0625,353.9063 55.75,354.9844 Q56.4375,356.0469 57.7813,356.0469 Q58.4063,356.0469 59,355.7813 Q59.5938,355.5 60.2188,354.9219 L60.2188,357.6406 Z " fill="#000000"/><text fill="#000000" font-family="sans-serif" font-size="14" lengthAdjust="spacing" textLength="56" x="77.75" y="356.8467">Website</text><line style="stroke:#181818;stroke-width:0.5;" x1="8" x2="171" y1="368" y2="368"/><text fill="#000000" font-family="sans-serif" font-size="14" lengthAdjust="spacing" textLength="133" x="13" y="384.9951">localDirectory: Path</text><text fill="#000000" font-family="sans-serif" font-size="14" lengthAdjust="spacing" textLength="153" x="13" y="401.292">urls: Collection&lt;URL&gt;</text></g><!--class HTMLDocument--><g id="elem_HTMLDocument"><rect codeLine="1178" fill="#F1F1F1" height="105.1875" id="HTMLDocument" rx="2.5" ry="2.5" style="stroke:#181818;stroke-width:0.5;" width="267" x="147" y="559"/><ellipse cx="220.75" cy="575" fill="#ADD1B2" rx="11" ry="11" style="stroke:#181818;stroke-width:1.0;"/><path d="M223.7188,580.6406 Q223.1406,580.9375 222.5,581.0781 Q221.8594,581.2344 221.1563,581.2344 Q218.6563,581.2344 217.3281,579.5938 Q216.0156,577.9375 216.0156,574.8125 Q216.0156,571.6875 217.3281,570.0313 Q218.6563,568.375 221.1563,568.375 Q221.8594,568.375 222.5,568.5313 Q223.1563,568.6875 223.7188,568.9844 L223.7188,571.7031 Q223.0938,571.125 222.5,570.8594 Q221.9063,570.5781 221.2813,570.5781 Q219.9375,570.5781 219.25,571.6563 Q218.5625,572.7188 218.5625,574.8125 Q218.5625,576.9063 219.25,577.9844 Q219.9375,579.0469 221.2813,579.0469 Q221.9063,579.0469 222.5,578.7813 Q223.0938,578.5 223.7188,577.9219 L223.7188,580.6406 Z " fill="#000000"/><text fill="#000000" font-family="sans-serif" font-size="14" lengthAdjust="spacing" textLength="111" x="241.25" y="579.8467">HTMLDocument</text><line style="stroke:#181818;stroke-width:0.5;" x1="148" x2="413" y1="591" y2="591"/><text fill="#000000" font-family="sans-serif" font-size="14" lengthAdjust="spacing" textLength="186" x="153" y="607.9951">scripts: Collection&lt;Script&gt;</text><text fill="#000000" font-family="sans-serif" font-size="14" lengthAdjust="spacing" textLength="255" x="153" y="624.292">stylesheets: Collection&lt;StyleSheet&gt;</text><text fill="#000000" font-family="sans-serif" font-size="14" lengthAdjust="spacing" textLength="193" x="153" y="640.5889">images: Collection&lt;Image&gt;</text><text fill="#000000" font-family="sans-serif" font-size="14" lengthAdjust="spacing" textLength="206" x="153" y="656.8857">anchors: Collection&lt;Anchor&gt;</text></g><!--class Resource--><g id="elem_Resource"><rect codeLine="1185" fill="#F1F1F1" height="137.7813" id="Resource" rx="2.5" ry="2.5" style="stroke:#181818;stroke-width:0.5;" width="284" x="138.5" y="725"/><ellipse cx="242.75" cy="741" fill="#ADD1B2" rx="11" ry="11" style="stroke:#181818;stroke-width:1.0;"/><path d="M245.7188,746.6406 Q245.1406,746.9375 244.5,747.0781 Q243.8594,747.2344 243.1563,747.2344 Q240.6563,747.2344 239.3281,745.5938 Q238.0156,743.9375 238.0156,740.8125 Q238.0156,737.6875 239.3281,736.0313 Q240.6563,734.375 243.1563,734.375 Q243.8594,734.375 244.5,734.5313 Q245.1563,734.6875 245.7188,734.9844 L245.7188,737.7031 Q245.0938,737.125 244.5,736.8594 Q243.9063,736.5781 243.2813,736.5781 Q241.9375,736.5781 241.25,737.6563 Q240.5625,738.7188 240.5625,740.8125 Q240.5625,742.9063 241.25,743.9844 Q241.9375,745.0469 243.2813,745.0469 Q243.9063,745.0469 244.5,744.7813 Q245.0938,744.5 245.7188,743.9219 L245.7188,746.6406 Z " fill="#000000"/><text fill="#000000" font-family="sans-serif" font-size="14" lengthAdjust="spacing" textLength="67" x="263.25" y="745.8467">Resource</text><line style="stroke:#181818;stroke-width:0.5;" x1="139.5" x2="421.5" y1="757" y2="757"/><text fill="#000000" font-family="sans-serif" font-size="14" lengthAdjust="spacing" textLength="71" x="144.5" y="773.9951">path: Path</text><text fill="#000000" font-family="sans-serif" font-size="14" lengthAdjust="spacing" textLength="53" x="144.5" y="790.292">url: URL</text><text fill="#000000" font-family="sans-serif" font-size="14" lengthAdjust="spacing" textLength="272" x="144.5" y="806.5889">foundOn: Collection&lt;HTMLDocument&gt;</text><text fill="#000000" font-family="sans-serif" font-size="14" lengthAdjust="spacing" textLength="113" x="144.5" y="822.8857">location: Locality</text><text fill="#000000" font-family="sans-serif" font-size="14" lengthAdjust="spacing" textLength="218" x="144.5" y="839.1826">typeOfResource: ResourceKind</text><text fill="#000000" font-family="sans-serif" font-size="14" lengthAdjust="spacing" textLength="105" x="144.5" y="855.4795">sizeOfFile: long</text></g><!--class Anchor--><g id="elem_Anchor"><rect codeLine="1194" fill="#F1F1F1" height="32" id="Anchor" rx="2.5" ry="2.5" style="stroke:#181818;stroke-width:0.5;" width="81" x="73" y="924"/><ellipse cx="88" cy="940" fill="#ADD1B2" rx="11" ry="11" style="stroke:#181818;stroke-width:1.0;"/><path d="M90.9688,945.6406 Q90.3906,945.9375 89.75,946.0781 Q89.1094,946.2344 88.4063,946.2344 Q85.9063,946.2344 84.5781,944.5938 Q83.2656,942.9375 83.2656,939.8125 Q83.2656,936.6875 84.5781,935.0313 Q85.9063,933.375 88.4063,933.375 Q89.1094,933.375 89.75,933.5313 Q90.4063,933.6875 90.9688,933.9844 L90.9688,936.7031 Q90.3438,936.125 89.75,935.8594 Q89.1563,935.5781 88.5313,935.5781 Q87.1875,935.5781 86.5,936.6563 Q85.8125,937.7188 85.8125,939.8125 Q85.8125,941.9063 86.5,942.9844 Q87.1875,944.0469 88.5313,944.0469 Q89.1563,944.0469 89.75,943.7813 Q90.3438,943.5 90.9688,942.9219 L90.9688,945.6406 Z " fill="#000000"/><text fill="#000000" font-family="sans-serif" font-size="14" lengthAdjust="spacing" textLength="49" x="102" y="944.8467">Anchor</text></g><!--class Image--><g id="elem_Image"><rect codeLine="1198" fill="#F1F1F1" height="32" id="Image" rx="2.5" ry="2.5" style="stroke:#181818;stroke-width:0.5;" width="74" x="189.5" y="924"/><ellipse cx="204.5" cy="940" fill="#ADD1B2" rx="11" ry="11" style="stroke:#181818;stroke-width:1.0;"/><path d="M207.4688,945.6406 Q206.8906,945.9375 206.25,946.0781 Q205.6094,946.2344 204.9063,946.2344 Q202.4063,946.2344 201.0781,944.5938 Q199.7656,942.9375 199.7656,939.8125 Q199.7656,936.6875 201.0781,935.0313 Q202.4063,933.375 204.9063,933.375 Q205.6094,933.375 206.25,933.5313 Q206.9063,933.6875 207.4688,933.9844 L207.4688,936.7031 Q206.8438,936.125 206.25,935.8594 Q205.6563,935.5781 205.0313,935.5781 Q203.6875,935.5781 203,936.6563 Q202.3125,937.7188 202.3125,939.8125 Q202.3125,941.9063 203,942.9844 Q203.6875,944.0469 205.0313,944.0469 Q205.6563,944.0469 206.25,943.7813 Q206.8438,943.5 207.4688,942.9219 L207.4688,945.6406 Z " fill="#000000"/><text fill="#000000" font-family="sans-serif" font-size="14" lengthAdjust="spacing" textLength="42" x="218.5" y="944.8467">Image</text></g><!--class Script--><g id="elem_Script"><rect codeLine="1201" fill="#F1F1F1" height="32" id="Script" rx="2.5" ry="2.5" style="stroke:#181818;stroke-width:0.5;" width="71" x="299" y="924"/><ellipse cx="314" cy="940" fill="#ADD1B2" rx="11" ry="11" style="stroke:#181818;stroke-width:1.0;"/><path d="M316.9688,945.6406 Q316.3906,945.9375 315.75,946.0781 Q315.1094,946.2344 314.4063,946.2344 Q311.9063,946.2344 310.5781,944.5938 Q309.2656,942.9375 309.2656,939.8125 Q309.2656,936.6875 310.5781,935.0313 Q311.9063,933.375 314.4063,933.375 Q315.1094,933.375 315.75,933.5313 Q316.4063,933.6875 316.9688,933.9844 L316.9688,936.7031 Q316.3438,936.125 315.75,935.8594 Q315.1563,935.5781 314.5313,935.5781 Q313.1875,935.5781 312.5,936.6563 Q311.8125,937.7188 311.8125,939.8125 Q311.8125,941.9063 312.5,942.9844 Q313.1875,944.0469 314.5313,944.0469 Q315.1563,944.0469 315.75,943.7813 Q316.3438,943.5 316.9688,942.9219 L316.9688,945.6406 Z " fill="#000000"/><text fill="#000000" font-family="sans-serif" font-size="14" lengthAdjust="spacing" textLength="39" x="328" y="944.8467">Script</text></g><!--class StyleSheet--><g id="elem_StyleSheet"><rect codeLine="1204" fill="#F1F1F1" height="32" id="StyleSheet" rx="2.5" ry="2.5" style="stroke:#181818;stroke-width:0.5;" width="106" x="405.5" y="924"/><ellipse cx="420.5" cy="940" fill="#ADD1B2" rx="11" ry="11" style="stroke:#181818;stroke-width:1.0;"/><path d="M423.4688,945.6406 Q422.8906,945.9375 422.25,946.0781 Q421.6094,946.2344 420.9063,946.2344 Q418.4063,946.2344 417.0781,944.5938 Q415.7656,942.9375 415.7656,939.8125 Q415.7656,936.6875 417.0781,935.0313 Q418.4063,933.375 420.9063,933.375 Q421.6094,933.375 422.25,933.5313 Q422.9063,933.6875 423.4688,933.9844 L423.4688,936.7031 Q422.8438,936.125 422.25,935.8594 Q421.6563,935.5781 421.0313,935.5781 Q419.6875,935.5781 419,936.6563 Q418.3125,937.7188 418.3125,939.8125 Q418.3125,941.9063 419,942.9844 Q419.6875,944.0469 421.0313,944.0469 Q421.6563,944.0469 422.25,943.7813 Q422.8438,943.5 423.4688,942.9219 L423.4688,945.6406 Z " fill="#000000"/><text fill="#000000" font-family="sans-serif" font-size="14" lengthAdjust="spacing" textLength="74" x="434.5" y="944.8467">StyleSheet</text></g><!--class Locality--><g id="elem_Locality"><rect codeLine="1207" fill="#F1F1F1" height="97.1563" id="Locality" rx="2.5" ry="2.5" style="stroke:#181818;stroke-width:0.5;" width="91" x="317" y="48"/><ellipse cx="336.05" cy="68.1328" fill="#EB937F" rx="11" ry="11" style="stroke:#181818;stroke-width:1.0;"/><path d="M340.1594,74.1328 L332.4406,74.1328 L332.4406,61.7422 L340.1594,61.7422 L340.1594,63.8984 L334.8938,63.8984 L334.8938,66.5703 L339.6594,66.5703 L339.6594,68.7266 L334.8938,68.7266 L334.8938,71.9766 L340.1594,71.9766 L340.1594,74.1328 Z " fill="#000000"/><text fill="#000000" font-family="sans-serif" font-size="12" font-style="italic" lengthAdjust="spacing" textLength="49" x="351.45" y="64.1387">&#171;Enum&#187;</text><text fill="#000000" font-family="sans-serif" font-size="14" lengthAdjust="spacing" textLength="50" x="350.95" y="79.9639">Locality</text><line style="stroke:#181818;stroke-width:0.5;" x1="318" x2="407" y1="88.2656" y2="88.2656"/><text fill="#000000" font-family="sans-serif" font-size="14" lengthAdjust="spacing" textLength="67" x="323" y="105.2607">INTERNAL</text><text fill="#000000" font-family="sans-serif" font-size="14" lengthAdjust="spacing" textLength="79" x="323" y="121.5576">INTRAPAGE</text><text fill="#000000" font-family="sans-serif" font-size="14" lengthAdjust="spacing" textLength="72" x="323" y="137.8545">EXTERNAL</text></g><!--class ResourceKind--><g id="elem_ResourceKind"><rect codeLine="1213" fill="#F1F1F1" height="178.6406" id="ResourceKind" rx="2.5" ry="2.5" style="stroke:#181818;stroke-width:0.5;" width="129" x="447" y="7"/><ellipse cx="462" cy="27.1328" fill="#EB937F" rx="11" ry="11" style="stroke:#181818;stroke-width:1.0;"/><path d="M466.1094,33.1328 L458.3906,33.1328 L458.3906,20.7422 L466.1094,20.7422 L466.1094,22.8984 L460.8438,22.8984 L460.8438,25.5703 L465.6094,25.5703 L465.6094,27.7266 L460.8438,27.7266 L460.8438,30.9766 L466.1094,30.9766 L466.1094,33.1328 Z " fill="#000000"/><text fill="#000000" font-family="sans-serif" font-size="12" font-style="italic" lengthAdjust="spacing" textLength="49" x="500" y="23.1387">&#171;Enum&#187;</text><text fill="#000000" font-family="sans-serif" font-size="14" lengthAdjust="spacing" textLength="97" x="476" y="38.9639">ResourceKind</text><line style="stroke:#181818;stroke-width:0.5;" x1="448" x2="575" y1="47.2656" y2="47.2656"/><text fill="#000000" font-family="sans-serif" font-size="14" lengthAdjust="spacing" textLength="44" x="453" y="64.2607">IMAGE</text><text fill="#000000" font-family="sans-serif" font-size="14" lengthAdjust="spacing" textLength="89" x="453" y="80.5576">STYLESHEET</text><text fill="#000000" font-family="sans-serif" font-size="14" lengthAdjust="spacing" textLength="50" x="453" y="96.8545">SCRIPT</text><text fill="#000000" font-family="sans-serif" font-size="14" lengthAdjust="spacing" textLength="60" x="453" y="113.1514">ANCHOR</text><text fill="#000000" font-family="sans-serif" font-size="14" lengthAdjust="spacing" textLength="43" x="453" y="129.4482">VIDEO</text><text fill="#000000" font-family="sans-serif" font-size="14" lengthAdjust="spacing" textLength="44" x="453" y="145.7451">AUDIO</text><text fill="#000000" font-family="sans-serif" font-size="14" lengthAdjust="spacing" textLength="60" x="453" y="162.042">ARCHIVE</text><text fill="#000000" font-family="sans-serif" font-size="14" lengthAdjust="spacing" textLength="49" x="453" y="178.3389">OTHER</text></g><!--class ReportManager--><g id="elem_ReportManager"><rect codeLine="1224" fill="#F1F1F1" height="121.4844" id="ReportManager" rx="2.5" ry="2.5" style="stroke:#181818;stroke-width:0.5;" width="289" x="613" y="36"/><ellipse cx="699.75" cy="52" fill="#ADD1B2" rx="11" ry="11" style="stroke:#181818;stroke-width:1.0;"/><path d="M702.7188,57.6406 Q702.1406,57.9375 701.5,58.0781 Q700.8594,58.2344 700.1563,58.2344 Q697.6563,58.2344 696.3281,56.5938 Q695.0156,54.9375 695.0156,51.8125 Q695.0156,48.6875 696.3281,47.0313 Q697.6563,45.375 700.1563,45.375 Q700.8594,45.375 701.5,45.5313 Q702.1563,45.6875 702.7188,45.9844 L702.7188,48.7031 Q702.0938,48.125 701.5,47.8594 Q700.9063,47.5781 700.2813,47.5781 Q698.9375,47.5781 698.25,48.6563 Q697.5625,49.7188 697.5625,51.8125 Q697.5625,53.9063 698.25,54.9844 Q698.9375,56.0469 700.2813,56.0469 Q700.9063,56.0469 701.5,55.7813 Q702.0938,55.5 702.7188,54.9219 L702.7188,57.6406 Z " fill="#000000"/><text fill="#000000" font-family="sans-serif" font-size="14" lengthAdjust="spacing" textLength="107" x="720.25" y="56.8467">ReportManager</text><line style="stroke:#181818;stroke-width:0.5;" x1="614" x2="901" y1="68" y2="68"/><text fill="#000000" font-family="sans-serif" font-size="14" lengthAdjust="spacing" textLength="203" x="619" y="84.9951">setSourceData(site: Website)</text><text fill="#000000" font-family="sans-serif" font-size="14" lengthAdjust="spacing" textLength="178" x="619" y="101.292">determineBaseFilename()</text><text fill="#000000" font-family="sans-serif" font-size="14" lengthAdjust="spacing" textLength="277" x="619" y="117.5889">writeReportNames(outs: BufferedWriter)</text><text fill="#000000" font-family="sans-serif" font-size="14" lengthAdjust="spacing" textLength="4" x="619" y="133.8857">&#160;</text><text fill="#000000" font-family="sans-serif" font-size="14" lengthAdjust="spacing" textLength="58" x="619" y="150.1826">writeAll()</text></g><!--class ReportWriter--><g id="elem_ReportWriter"><rect codeLine="1232" fill="#F1F1F1" height="129.4844" id="ReportWriter" rx="2.5" ry="2.5" style="stroke:#181818;stroke-width:0.5;" width="265" x="625" y="308"/><ellipse cx="709.75" cy="324" fill="#ADD1B2" rx="11" ry="11" style="stroke:#181818;stroke-width:1.0;"/><path d="M712.7188,329.6406 Q712.1406,329.9375 711.5,330.0781 Q710.8594,330.2344 710.1563,330.2344 Q707.6563,330.2344 706.3281,328.5938 Q705.0156,326.9375 705.0156,323.8125 Q705.0156,320.6875 706.3281,319.0313 Q707.6563,317.375 710.1563,317.375 Q710.8594,317.375 711.5,317.5313 Q712.1563,317.6875 712.7188,317.9844 L712.7188,320.7031 Q712.0938,320.125 711.5,319.8594 Q710.9063,319.5781 710.2813,319.5781 Q708.9375,319.5781 708.25,320.6563 Q707.5625,321.7188 707.5625,323.8125 Q707.5625,325.9063 708.25,326.9844 Q708.9375,328.0469 710.2813,328.0469 Q710.9063,328.0469 711.5,327.7813 Q712.0938,327.5 712.7188,326.9219 L712.7188,329.6406 Z " fill="#000000"/><text fill="#000000" font-family="sans-serif" font-size="14" lengthAdjust="spacing" textLength="87" x="730.25" y="328.8467">ReportWriter</text><line style="stroke:#181818;stroke-width:0.5;" x1="626" x2="889" y1="340" y2="340"/><text fill="#000000" font-family="sans-serif" font-size="14" lengthAdjust="spacing" textLength="119" x="631" y="356.9951">website: Website</text><line style="stroke:#181818;stroke-width:0.5;" x1="626" x2="889" y1="364.2969" y2="364.2969"/><text fill="#000000" font-family="sans-serif" font-size="14" lengthAdjust="spacing" textLength="203" x="631" y="381.292">setSourceData(site: Website)</text><text fill="#000000" font-family="sans-serif" font-size="14" lengthAdjust="spacing" textLength="253" x="631" y="397.5889">setBaseName(baseFileName: String)</text><text fill="#000000" font-family="sans-serif" font-size="14" lengthAdjust="spacing" textLength="4" x="631" y="413.8857">&#160;</text><text fill="#000000" font-family="sans-serif" font-size="14" lengthAdjust="spacing" textLength="43" x="631" y="430.1826">write()</text></g><!--class TextReportWriter--><g id="elem_TextReportWriter"><rect codeLine="1241" fill="#F1F1F1" height="32" id="TextReportWriter" rx="2.5" ry="2.5" style="stroke:#181818;stroke-width:0.5;" width="149" x="497" y="595.5"/><ellipse cx="512" cy="611.5" fill="#ADD1B2" rx="11" ry="11" style="stroke:#181818;stroke-width:1.0;"/><path d="M514.9688,617.1406 Q514.3906,617.4375 513.75,617.5781 Q513.1094,617.7344 512.4063,617.7344 Q509.9063,617.7344 508.5781,616.0938 Q507.2656,614.4375 507.2656,611.3125 Q507.2656,608.1875 508.5781,606.5313 Q509.9063,604.875 512.4063,604.875 Q513.1094,604.875 513.75,605.0313 Q514.4063,605.1875 514.9688,605.4844 L514.9688,608.2031 Q514.3438,607.625 513.75,607.3594 Q513.1563,607.0781 512.5313,607.0781 Q511.1875,607.0781 510.5,608.1563 Q509.8125,609.2188 509.8125,611.3125 Q509.8125,613.4063 510.5,614.4844 Q511.1875,615.5469 512.5313,615.5469 Q513.1563,615.5469 513.75,615.2813 Q514.3438,615 514.9688,614.4219 L514.9688,617.1406 Z " fill="#000000"/><text fill="#000000" font-family="sans-serif" font-size="14" lengthAdjust="spacing" textLength="117" x="526" y="616.3467">TextReportWriter</text></g><!--class JSONReportWriter--><g id="elem_JSONReportWriter"><rect codeLine="1245" fill="#F1F1F1" height="32" id="JSONReportWriter" rx="2.5" ry="2.5" style="stroke:#181818;stroke-width:0.5;" width="152" x="681.5" y="595.5"/><ellipse cx="696.5" cy="611.5" fill="#ADD1B2" rx="11" ry="11" style="stroke:#181818;stroke-width:1.0;"/><path d="M699.4688,617.1406 Q698.8906,617.4375 698.25,617.5781 Q697.6094,617.7344 696.9063,617.7344 Q694.4063,617.7344 693.0781,616.0938 Q691.7656,614.4375 691.7656,611.3125 Q691.7656,608.1875 693.0781,606.5313 Q694.4063,604.875 696.9063,604.875 Q697.6094,604.875 698.25,605.0313 Q698.9063,605.1875 699.4688,605.4844 L699.4688,608.2031 Q698.8438,607.625 698.25,607.3594 Q697.6563,607.0781 697.0313,607.0781 Q695.6875,607.0781 695,608.1563 Q694.3125,609.2188 694.3125,611.3125 Q694.3125,613.4063 695,614.4844 Q695.6875,615.5469 697.0313,615.5469 Q697.6563,615.5469 698.25,615.2813 Q698.8438,615 699.4688,614.4219 L699.4688,617.1406 Z " fill="#000000"/><text fill="#000000" font-family="sans-serif" font-size="14" lengthAdjust="spacing" textLength="120" x="710.5" y="616.3467">JSONReportWriter</text></g><!--class ExcelReportWriter--><g id="elem_ExcelReportWriter"><rect codeLine="1249" fill="#F1F1F1" height="32" id="ExcelReportWriter" rx="2.5" ry="2.5" style="stroke:#181818;stroke-width:0.5;" width="155" x="869" y="595.5"/><ellipse cx="884" cy="611.5" fill="#ADD1B2" rx="11" ry="11" style="stroke:#181818;stroke-width:1.0;"/><path d="M886.9688,617.1406 Q886.3906,617.4375 885.75,617.5781 Q885.1094,617.7344 884.4063,617.7344 Q881.9063,617.7344 880.5781,616.0938 Q879.2656,614.4375 879.2656,611.3125 Q879.2656,608.1875 880.5781,606.5313 Q881.9063,604.875 884.4063,604.875 Q885.1094,604.875 885.75,605.0313 Q886.4063,605.1875 886.9688,605.4844 L886.9688,608.2031 Q886.3438,607.625 885.75,607.3594 Q885.1563,607.0781 884.5313,607.0781 Q883.1875,607.0781 882.5,608.1563 Q881.8125,609.2188 881.8125,611.3125 Q881.8125,613.4063 882.5,614.4844 Q883.1875,615.5469 884.5313,615.5469 Q885.1563,615.5469 885.75,615.2813 Q886.3438,615 886.9688,614.4219 L886.9688,617.1406 Z " fill="#000000"/><text fill="#000000" font-family="sans-serif" font-size="14" lengthAdjust="spacing" textLength="123" x="898" y="616.3467">ExcelReportWriter</text></g><!--class WebsiteBuilder--><g id="elem_WebsiteBuilder"><rect codeLine="1253" fill="#F1F1F1" height="121.4844" id="WebsiteBuilder" rx="2.5" ry="2.5" style="stroke:#181818;stroke-width:0.5;" width="238" x="35.5" y="36"/><ellipse cx="98.25" cy="52" fill="#ADD1B2" rx="11" ry="11" style="stroke:#181818;stroke-width:1.0;"/><path d="M101.2188,57.6406 Q100.6406,57.9375 100,58.0781 Q99.3594,58.2344 98.6563,58.2344 Q96.1563,58.2344 94.8281,56.5938 Q93.5156,54.9375 93.5156,51.8125 Q93.5156,48.6875 94.8281,47.0313 Q96.1563,45.375 98.6563,45.375 Q99.3594,45.375 100,45.5313 Q100.6563,45.6875 101.2188,45.9844 L101.2188,48.7031 Q100.5938,48.125 100,47.8594 Q99.4063,47.5781 98.7813,47.5781 Q97.4375,47.5781 96.75,48.6563 Q96.0625,49.7188 96.0625,51.8125 Q96.0625,53.9063 96.75,54.9844 Q97.4375,56.0469 98.7813,56.0469 Q99.4063,56.0469 100,55.7813 Q100.5938,55.5 101.2188,54.9219 L101.2188,57.6406 Z " fill="#000000"/><text fill="#000000" font-family="sans-serif" font-size="14" lengthAdjust="spacing" textLength="104" x="118.75" y="56.8467">WebsiteBuilder</text><line style="stroke:#181818;stroke-width:0.5;" x1="36.5" x2="272.5" y1="68" y2="68"/><text fill="#000000" font-family="sans-serif" font-size="14" lengthAdjust="spacing" textLength="140" x="41.5" y="84.9951">withPath(path: Path)</text><text fill="#000000" font-family="sans-serif" font-size="14" lengthAdjust="spacing" textLength="118" x="41.5" y="101.292">withURL(url: URL)</text><text fill="#000000" font-family="sans-serif" font-size="14" lengthAdjust="spacing" textLength="226" x="41.5" y="117.5889">withURLs(urls: Collection&lt;URL&gt;)</text><text fill="#000000" font-family="sans-serif" font-size="14" lengthAdjust="spacing" textLength="4" x="41.5" y="133.8857">&#160;</text><text fill="#000000" font-family="sans-serif" font-size="14" lengthAdjust="spacing" textLength="124" x="41.5" y="150.1826">build() -&gt; Website</text></g><!--class HTMLDocumentBuilder--><g id="elem_HTMLDocumentBuilder"><rect codeLine="1261" fill="#F1F1F1" height="219.2656" id="HTMLDocumentBuilder" rx="2.5" ry="2.5" style="stroke:#181818;stroke-width:0.5;" width="335" x="207" y="263"/><ellipse cx="290.75" cy="279" fill="#ADD1B2" rx="11" ry="11" style="stroke:#181818;stroke-width:1.0;"/><path d="M293.7188,284.6406 Q293.1406,284.9375 292.5,285.0781 Q291.8594,285.2344 291.1563,285.2344 Q288.6563,285.2344 287.3281,283.5938 Q286.0156,281.9375 286.0156,278.8125 Q286.0156,275.6875 287.3281,274.0313 Q288.6563,272.375 291.1563,272.375 Q291.8594,272.375 292.5,272.5313 Q293.1563,272.6875 293.7188,272.9844 L293.7188,275.7031 Q293.0938,275.125 292.5,274.8594 Q291.9063,274.5781 291.2813,274.5781 Q289.9375,274.5781 289.25,275.6563 Q288.5625,276.7188 288.5625,278.8125 Q288.5625,280.9063 289.25,281.9844 Q289.9375,283.0469 291.2813,283.0469 Q291.9063,283.0469 292.5,282.7813 Q293.0938,282.5 293.7188,281.9219 L293.7188,284.6406 Z " fill="#000000"/><text fill="#000000" font-family="sans-serif" font-size="14" lengthAdjust="spacing" textLength="159" x="311.25" y="283.8467">HTMLDocumentBuilder</text><line style="stroke:#181818;stroke-width:0.5;" x1="208" x2="541" y1="295" y2="295"/><text fill="#000000" font-family="sans-serif" font-size="14" lengthAdjust="spacing" textLength="292" x="213" y="311.9951">withContentFrom(reader: BufferedReader)</text><text fill="#000000" font-family="sans-serif" font-size="14" lengthAdjust="spacing" textLength="180" x="213" y="328.292">withContentFrom(file: File)</text><text fill="#000000" font-family="sans-serif" font-size="14" lengthAdjust="spacing" textLength="233" x="213" y="344.5889">withBaseDirectory(siteRoot: Path)</text><text fill="#000000" font-family="sans-serif" font-size="14" lengthAdjust="spacing" textLength="261" x="213" y="360.8857">withBaseURLs(urls: Collection&lt;URL&gt;)</text><text fill="#000000" font-family="sans-serif" font-size="14" lengthAdjust="spacing" textLength="4" x="213" y="377.1826">&#160;</text><text fill="#000000" font-family="sans-serif" font-size="14" lengthAdjust="spacing" textLength="298" x="213" y="393.4795">extractAnchors() -&gt; Collection&lt;Resource&gt;</text><text fill="#000000" font-family="sans-serif" font-size="14" lengthAdjust="spacing" textLength="291" x="213" y="409.7764">extractImages() -&gt; Collection&lt;Resource&gt;</text><text fill="#000000" font-family="sans-serif" font-size="14" lengthAdjust="spacing" textLength="288" x="213" y="426.0732">extractScripts() -&gt; Collection&lt;Resource&gt;</text><text fill="#000000" font-family="sans-serif" font-size="14" lengthAdjust="spacing" textLength="323" x="213" y="442.3701">extractStyleSheets() -&gt; Collection&lt;Resource&gt;</text><text fill="#000000" font-family="sans-serif" font-size="14" lengthAdjust="spacing" textLength="4" x="213" y="458.667">&#160;</text><text fill="#000000" font-family="sans-serif" font-size="14" lengthAdjust="spacing" textLength="179" x="213" y="474.9639">build() -&gt; HTMLDocument</text></g><!--reverse link Resource to Image--><g id="link_Resource_Image"><path codeLine="1275" d="M248.6055,880.0561 C240.1055,902.7461 237.72,909.07 232.23,923.72 " fill="none" id="Resource-backto-Image" style="stroke:#181818;stroke-width:1.0;"/><polygon fill="none" points="254.92,863.2,242.9868,877.9512,254.2242,882.1609,254.92,863.2" style="stroke:#181818;stroke-width:1.0;"/></g><!--reverse link Resource to Script--><g id="link_Resource_Script"><path codeLine="1276" d="M312.3945,880.0561 C320.8945,902.7461 323.28,909.07 328.77,923.72 " fill="none" id="Resource-backto-Script" style="stroke:#181818;stroke-width:1.0;"/><polygon fill="none" points="306.08,863.2,306.7758,882.1609,318.0132,877.9512,306.08,863.2" style="stroke:#181818;stroke-width:1.0;"/></g><!--reverse link Resource to StyleSheet--><g id="link_Resource_StyleSheet"><path codeLine="1277" d="M378.8006,874.5253 C406.8306,897.2153 421.5,909.07 439.61,923.72 " fill="none" id="Resource-backto-StyleSheet" style="stroke:#181818;stroke-width:1.0;"/><polygon fill="none" points="364.81,863.2,375.0255,879.1888,382.5757,869.8617,364.81,863.2" style="stroke:#181818;stroke-width:1.0;"/></g><!--reverse link Resource to Anchor--><g id="link_Resource_Anchor"><path codeLine="1278" d="M187.7711,874.9581 C161.4711,897.6481 148.21,909.07 131.22,923.72 " fill="none" id="Resource-backto-Anchor" style="stroke:#181818;stroke-width:1.0;"/><polygon fill="none" points="201.4,863.2,183.8517,870.4152,191.6905,879.5011,201.4,863.2" style="stroke:#181818;stroke-width:1.0;"/></g><!--reverse link Website to HTMLDocument--><g id="link_Website_HTMLDocument"><path codeLine="1280" d="M125.8307,418.5828 C157.8307,458.2828 202.24,513.39 238.7,558.64 " fill="none" id="Website-backto-HTMLDocument" style="stroke:#181818;stroke-width:1.0;"/><polygon fill="none" points="118.3,409.24,118.9511,416.4216,125.8307,418.5828,125.1796,411.4012,118.3,409.24" style="stroke:#181818;stroke-width:1.0;"/></g><!--reverse link HTMLDocument to Resource--><g id="link_HTMLDocument_Resource"><path codeLine="1281" d="M280.5,676.22 C280.5,695.08 280.5,704.7 280.5,724.77 " fill="none" id="HTMLDocument-backto-Resource" style="stroke:#181818;stroke-width:1.0;"/><polygon fill="none" points="280.5,664.22,276.5,670.22,280.5,676.22,284.5,670.22,280.5,664.22" style="stroke:#181818;stroke-width:1.0;"/></g><!--reverse link ReportWriter to TextReportWriter--><g id="link_ReportWriter_TextReportWriter"><path codeLine="1283" d="M696.5461,451.1691 C654.3561,504.9191 608.07,563.9 583.48,595.23 " fill="none" id="ReportWriter-backto-TextReportWriter" style="stroke:#181818;stroke-width:1.0;"/><polygon fill="none" points="707.66,437.01,691.8264,447.4645,701.2658,454.8738,707.66,437.01" style="stroke:#181818;stroke-width:1.0;"/></g><!--reverse link ReportWriter to JSONReportWriter--><g id="link_ReportWriter_JSONReportWriter"><path codeLine="1284" d="M757.5,455.01 C757.5,508.76 757.5,563.9 757.5,595.23 " fill="none" id="ReportWriter-backto-JSONReportWriter" style="stroke:#181818;stroke-width:1.0;"/><polygon fill="none" points="757.5,437.01,751.5,455.01,763.5,455.01,757.5,437.01" style="stroke:#181818;stroke-width:1.0;"/></g><!--reverse link ReportWriter to ExcelReportWriter--><g id="link_ReportWriter_ExcelReportWriter"><path codeLine="1285" d="M819.3721,451.0835 C862.2321,504.8335 909.34,563.9 934.33,595.23 " fill="none" id="ReportWriter-backto-ExcelReportWriter" style="stroke:#181818;stroke-width:1.0;"/><polygon fill="none" points="808.15,437.01,814.681,454.8242,824.0633,447.3428,808.15,437.01" style="stroke:#181818;stroke-width:1.0;"/></g><!--link ReportManager to ReportWriter--><g id="link_ReportManager_ReportWriter"><path codeLine="1287" d="M757.5,157.29 C757.5,201.7 757.5,256.17 757.5,301.54 " fill="none" id="ReportManager-to-ReportWriter" style="stroke:#181818;stroke-width:1.0;"/><polygon fill="#181818" points="757.5,307.54,761.5,298.54,757.5,302.54,753.5,298.54,757.5,307.54" style="stroke:#181818;stroke-width:1.0;"/><text fill="#000000" font-family="sans-serif" font-size="13" lengthAdjust="spacing" textLength="140" x="758.5" y="229.0669">creates and manages</text><text fill="#000000" font-family="sans-serif" font-size="13" lengthAdjust="spacing" textLength="8" x="749.0875" y="297.1163">3</text></g><!--link WebsiteBuilder to Website--><g id="link_WebsiteBuilder_Website"><path codeLine="1289" d="M140.32,157.29 C127.39,211.77 110.1147,284.612 99.3747,329.892 " fill="none" id="WebsiteBuilder-to-Website" style="stroke:#181818;stroke-width:1.0;"/><polygon fill="#181818" points="97.99,335.73,103.9591,327.8961,99.1439,330.865,96.1751,326.0498,97.99,335.73" style="stroke:#181818;stroke-width:1.0;"/><text fill="#000000" font-family="sans-serif" font-size="13" lengthAdjust="spacing" textLength="67" x="127.5" y="229.0669">constructs</text></g><!--link WebsiteBuilder to HTMLDocumentBuilder--><g id="link_WebsiteBuilder_HTMLDocumentBuilder"><path codeLine="1290" d="M202.51,157.29 C227.35,188.23 254.7039,222.3011 283.6039,258.3011 " fill="none" id="WebsiteBuilder-to-HTMLDocumentBuilder" style="stroke:#181818;stroke-width:1.0;stroke-dasharray:7.0,7.0;"/><polygon fill="#181818" points="287.36,262.98,284.8451,253.4576,284.2299,259.0809,278.6066,258.4658,287.36,262.98" style="stroke:#181818;stroke-width:1.0;"/></g><!--link HTMLDocumentBuilder to HTMLDocument--><g id="link_HTMLDocumentBuilder_HTMLDocument"><path codeLine="1291" d="M331.35,482.29 C320.78,508.94 312.1608,530.6722 303.2308,553.2022 " fill="none" id="HTMLDocumentBuilder-to-HTMLDocument" style="stroke:#181818;stroke-width:1.0;"/><polygon fill="#181818" points="301.02,558.78,308.0548,551.8871,302.8624,554.1318,300.6177,548.9394,301.02,558.78" style="stroke:#181818;stroke-width:1.0;"/><text fill="#000000" font-family="sans-serif" font-size="13" lengthAdjust="spacing" textLength="67" x="320.5" y="525.0669">constructs</text></g><!--SRC=[ZLNBRk8m5DtdAonMOK4tiujG90hfm0o5Aj37B4DoAPOS6zcEMkRnx-D7x3n8gtPHuNEEhy-zljSvuG8Gb6TvGIMK1-0Y27AI2O6UuI2m1FGdGEgFi3mZ2ymXbunV8lIGoPCXAav4XEQC44LXHgUFwJeE_haeo_tzUi7ogWGgwr0Yv_Wikvjs1eijBoy4n0cWhz7uJkDMXyli5RgIbOOicz7yn7YNdXcivIu5mIgUkoJFAgbkQX5IwPZ5aLMqsD9El7PoiI-JfYAqrWN3yc9WUJd3zkXEY_ovFp4jRCxujnBSOQ98mkXhOz5wLWORo6If40_OwdKGNokB0grARmbDfubQnt6TzcgpJzBDREqMwUnXzZqng-IbfboCjlEhEFTkssx_QvtibacojyjvkdgmFsUR-NARcfzFgqMojU3ZObN_IkVBrPCDijqlaxHzLsV6vNr6LVBSjHB8dR6po6GMwdQDND-EZQ002Rp456up0RgyD2iXjDmRLp8RTQDG4R9ATznjTJm2X-9PqtmSDDeP8Mfhpv2LrNxUxDdUHF0rbqgW_MaNuQ4sgXUHkaUEwMlRHDl17jvbpqL3_jXjDn-IoNiEv4EsDdTROL8qkM5vqgCHDbCozeIQaj2DImSLuU03OJNctq6V4exH9FPL6tmzhjtC6PMAkEEi33baYcnkBpNhyQ3sQCPC5xdXTVtzysRkA6LCzjFKgi-ICa9rAJpBfHrSOJDhATq4nMsn6UalQksqVrNi7uBFDlGlebrtVHl-dPp-dKpi-zF3hAa-w0_l4ROsGU2-CKnXdJCxdmtDkltQIwjhJRJ-60n8-iCm8BaQ2NUKUt8cgZ2ZRwFEt4TebAlMao3K1wT0fP6AaS_CDUsawMwzXL4XUPLBfUm9RsxYeQuFXYPXqhkfNkJ_]--></g></svg>