<?xml version="1.0" encoding="UTF-8" standalone="no"?><svg xmlns="http://www.w3.org/2000/svg" xmlns:xlink="http://www.w3.org/1999/xlink" contentScriptType="application/ecmascript" contentStyleType="text/css" height="627px" preserveAspectRatio="none" style="width:952px;height:627px;" version="1.1" viewBox="0 0 952 627" width="952px" zoomAndPan="magnify"><defs><filter height="300%" id="f1uwl4xfb3icts" width="300%" x="-1" y="-1"><feGaussianBlur result="blurOut" stdDeviation="2.0"/><feColorMatrix in="blurOut" result="blurOut2" type="matrix" values="0 0 0 0 0 0 0 0 0 0 0 0 0 0 0 0 0 0 .4 0"/><feOffset dx="4.0" dy="4.0" in="blurOut2" result="blurOut3"/><feBlend in="SourceGraphic" in2="blurOut3" mode="normal"/></filter></defs><g><!--class Website--><rect fill="#FEFECE" filter="url(#f1uwl4xfb3icts)" height="65.6094" id="Website" style="stroke: #A80036; stroke-width: 1.5;" width="136" x="136" y="49"/><ellipse cx="175.3" cy="65" fill="#ADD1B2" rx="11" ry="11" style="stroke: #A80036; stroke-width: 1.0;"/><path d="M178.2688,70.6406 Q177.6906,70.9375 177.05,71.0781 Q176.4094,71.2344 175.7063,71.2344 Q173.2063,71.2344 171.8781,69.5938 Q170.5656,67.9375 170.5656,64.8125 Q170.5656,61.6875 171.8781,60.0313 Q173.2063,58.375 175.7063,58.375 Q176.4094,58.375 177.05,58.5313 Q177.7063,58.6875 178.2688,58.9844 L178.2688,61.7031 Q177.6438,61.125 177.05,60.8594 Q176.4563,60.5781 175.8313,60.5781 Q174.4875,60.5781 173.8,61.6563 Q173.1125,62.7188 173.1125,64.8125 Q173.1125,66.9063 173.8,67.9844 Q174.4875,69.0469 175.8313,69.0469 Q176.4563,69.0469 177.05,68.7813 Q177.6438,68.5 178.2688,67.9219 L178.2688,70.6406 Z "/><text fill="#000000" font-family="sans-serif" font-size="12" lengthAdjust="spacingAndGlyphs" textLength="50" x="194.7" y="69.1543">Website</text><line style="stroke: #A80036; stroke-width: 1.5;" x1="137" x2="271" y1="81" y2="81"/><text fill="#000000" font-family="sans-serif" font-size="11" lengthAdjust="spacingAndGlyphs" textLength="110" x="142" y="95.2104">localDirectory: Path</text><text fill="#000000" font-family="sans-serif" font-size="11" lengthAdjust="spacingAndGlyphs" textLength="124" x="142" y="108.0151">urls: Collection&lt;URL&gt;</text><!--class HTMLDocument--><rect fill="#FEFECE" filter="url(#f1uwl4xfb3icts)" height="91.2188" id="HTMLDocument" style="stroke: #A80036; stroke-width: 1.5;" width="220" x="94" y="243.5"/><ellipse cx="151.75" cy="259.5" fill="#ADD1B2" rx="11" ry="11" style="stroke: #A80036; stroke-width: 1.0;"/><path d="M154.7188,265.1406 Q154.1406,265.4375 153.5,265.5781 Q152.8594,265.7344 152.1563,265.7344 Q149.6563,265.7344 148.3281,264.0938 Q147.0156,262.4375 147.0156,259.3125 Q147.0156,256.1875 148.3281,254.5313 Q149.6563,252.875 152.1563,252.875 Q152.8594,252.875 153.5,253.0313 Q154.1563,253.1875 154.7188,253.4844 L154.7188,256.2031 Q154.0938,255.625 153.5,255.3594 Q152.9063,255.0781 152.2813,255.0781 Q150.9375,255.0781 150.25,256.1563 Q149.5625,257.2188 149.5625,259.3125 Q149.5625,261.4063 150.25,262.4844 Q150.9375,263.5469 152.2813,263.5469 Q152.9063,263.5469 153.5,263.2813 Q154.0938,263 154.7188,262.4219 L154.7188,265.1406 Z "/><text fill="#000000" font-family="sans-serif" font-size="12" lengthAdjust="spacingAndGlyphs" textLength="96" x="172.25" y="263.6543">HTMLDocument</text><line style="stroke: #A80036; stroke-width: 1.5;" x1="95" x2="313" y1="275.5" y2="275.5"/><text fill="#000000" font-family="sans-serif" font-size="11" lengthAdjust="spacingAndGlyphs" textLength="153" x="100" y="289.7104">scripts: Collection&lt;Script&gt;</text><text fill="#000000" font-family="sans-serif" font-size="11" lengthAdjust="spacingAndGlyphs" textLength="208" x="100" y="302.5151">stylesheets: Collection&lt;StyleSheet&gt;</text><text fill="#000000" font-family="sans-serif" font-size="11" lengthAdjust="spacingAndGlyphs" textLength="158" x="100" y="315.3198">images: Collection&lt;Image&gt;</text><text fill="#000000" font-family="sans-serif" font-size="11" lengthAdjust="spacingAndGlyphs" textLength="166" x="100" y="328.1245">anchors: Collection&lt;Anchor&gt;</text><!--class Resource--><rect fill="#FEFECE" filter="url(#f1uwl4xfb3icts)" height="116.8281" id="Resource" style="stroke: #A80036; stroke-width: 1.5;" width="228" x="90" y="406"/><ellipse cx="170.25" cy="422" fill="#ADD1B2" rx="11" ry="11" style="stroke: #A80036; stroke-width: 1.0;"/><path d="M173.2188,427.6406 Q172.6406,427.9375 172,428.0781 Q171.3594,428.2344 170.6563,428.2344 Q168.1563,428.2344 166.8281,426.5938 Q165.5156,424.9375 165.5156,421.8125 Q165.5156,418.6875 166.8281,417.0313 Q168.1563,415.375 170.6563,415.375 Q171.3594,415.375 172,415.5313 Q172.6563,415.6875 173.2188,415.9844 L173.2188,418.7031 Q172.5938,418.125 172,417.8594 Q171.4063,417.5781 170.7813,417.5781 Q169.4375,417.5781 168.75,418.6563 Q168.0625,419.7188 168.0625,421.8125 Q168.0625,423.9063 168.75,424.9844 Q169.4375,426.0469 170.7813,426.0469 Q171.4063,426.0469 172,425.7813 Q172.5938,425.5 173.2188,424.9219 L173.2188,427.6406 Z "/><text fill="#000000" font-family="sans-serif" font-size="12" lengthAdjust="spacingAndGlyphs" textLength="59" x="190.75" y="426.1543">Resource</text><line style="stroke: #A80036; stroke-width: 1.5;" x1="91" x2="317" y1="438" y2="438"/><text fill="#000000" font-family="sans-serif" font-size="11" lengthAdjust="spacingAndGlyphs" textLength="58" x="96" y="452.2104">path: Path</text><text fill="#000000" font-family="sans-serif" font-size="11" lengthAdjust="spacingAndGlyphs" textLength="44" x="96" y="465.0151">url: URL</text><text fill="#000000" font-family="sans-serif" font-size="11" lengthAdjust="spacingAndGlyphs" textLength="216" x="96" y="477.8198">foundOn: Collection&lt;HTMLDocument&gt;</text><text fill="#000000" font-family="sans-serif" font-size="11" lengthAdjust="spacingAndGlyphs" textLength="94" x="96" y="490.6245">location: Locality</text><text fill="#000000" font-family="sans-serif" font-size="11" lengthAdjust="spacingAndGlyphs" textLength="175" x="96" y="503.4292">typeOfResource: ResourceKind</text><text fill="#000000" font-family="sans-serif" font-size="11" lengthAdjust="spacingAndGlyphs" textLength="86" x="96" y="516.2339">sizeOfFile: long</text><!--class Anchor--><rect fill="#FEFECE" filter="url(#f1uwl4xfb3icts)" height="32" id="Anchor" style="stroke: #A80036; stroke-width: 1.5;" width="76" x="6" y="584"/><ellipse cx="21" cy="600" fill="#ADD1B2" rx="11" ry="11" style="stroke: #A80036; stroke-width: 1.0;"/><path d="M23.9688,605.6406 Q23.3906,605.9375 22.75,606.0781 Q22.1094,606.2344 21.4063,606.2344 Q18.9063,606.2344 17.5781,604.5938 Q16.2656,602.9375 16.2656,599.8125 Q16.2656,596.6875 17.5781,595.0313 Q18.9063,593.375 21.4063,593.375 Q22.1094,593.375 22.75,593.5313 Q23.4063,593.6875 23.9688,593.9844 L23.9688,596.7031 Q23.3438,596.125 22.75,595.8594 Q22.1563,595.5781 21.5313,595.5781 Q20.1875,595.5781 19.5,596.6563 Q18.8125,597.7188 18.8125,599.8125 Q18.8125,601.9063 19.5,602.9844 Q20.1875,604.0469 21.5313,604.0469 Q22.1563,604.0469 22.75,603.7813 Q23.3438,603.5 23.9688,602.9219 L23.9688,605.6406 Z "/><text fill="#000000" font-family="sans-serif" font-size="12" lengthAdjust="spacingAndGlyphs" textLength="44" x="35" y="604.1543">Anchor</text><!--class Image--><rect fill="#FEFECE" filter="url(#f1uwl4xfb3icts)" height="32" id="Image" style="stroke: #A80036; stroke-width: 1.5;" width="70" x="117" y="584"/><ellipse cx="132" cy="600" fill="#ADD1B2" rx="11" ry="11" style="stroke: #A80036; stroke-width: 1.0;"/><path d="M134.9688,605.6406 Q134.3906,605.9375 133.75,606.0781 Q133.1094,606.2344 132.4063,606.2344 Q129.9063,606.2344 128.5781,604.5938 Q127.2656,602.9375 127.2656,599.8125 Q127.2656,596.6875 128.5781,595.0313 Q129.9063,593.375 132.4063,593.375 Q133.1094,593.375 133.75,593.5313 Q134.4063,593.6875 134.9688,593.9844 L134.9688,596.7031 Q134.3438,596.125 133.75,595.8594 Q133.1563,595.5781 132.5313,595.5781 Q131.1875,595.5781 130.5,596.6563 Q129.8125,597.7188 129.8125,599.8125 Q129.8125,601.9063 130.5,602.9844 Q131.1875,604.0469 132.5313,604.0469 Q133.1563,604.0469 133.75,603.7813 Q134.3438,603.5 134.9688,602.9219 L134.9688,605.6406 Z "/><text fill="#000000" font-family="sans-serif" font-size="12" lengthAdjust="spacingAndGlyphs" textLength="38" x="146" y="604.1543">Image</text><!--class Script--><rect fill="#FEFECE" filter="url(#f1uwl4xfb3icts)" height="32" id="Script" style="stroke: #A80036; stroke-width: 1.5;" width="68" x="222" y="584"/><ellipse cx="237" cy="600" fill="#ADD1B2" rx="11" ry="11" style="stroke: #A80036; stroke-width: 1.0;"/><path d="M239.9688,605.6406 Q239.3906,605.9375 238.75,606.0781 Q238.1094,606.2344 237.4063,606.2344 Q234.9063,606.2344 233.5781,604.5938 Q232.2656,602.9375 232.2656,599.8125 Q232.2656,596.6875 233.5781,595.0313 Q234.9063,593.375 237.4063,593.375 Q238.1094,593.375 238.75,593.5313 Q239.4063,593.6875 239.9688,593.9844 L239.9688,596.7031 Q239.3438,596.125 238.75,595.8594 Q238.1563,595.5781 237.5313,595.5781 Q236.1875,595.5781 235.5,596.6563 Q234.8125,597.7188 234.8125,599.8125 Q234.8125,601.9063 235.5,602.9844 Q236.1875,604.0469 237.5313,604.0469 Q238.1563,604.0469 238.75,603.7813 Q239.3438,603.5 239.9688,602.9219 L239.9688,605.6406 Z "/><text fill="#000000" font-family="sans-serif" font-size="12" lengthAdjust="spacingAndGlyphs" textLength="36" x="251" y="604.1543">Script</text><!--class StyleSheet--><rect fill="#FEFECE" filter="url(#f1uwl4xfb3icts)" height="32" id="StyleSheet" style="stroke: #A80036; stroke-width: 1.5;" width="99" x="325.5" y="584"/><ellipse cx="340.5" cy="600" fill="#ADD1B2" rx="11" ry="11" style="stroke: #A80036; stroke-width: 1.0;"/><path d="M343.4688,605.6406 Q342.8906,605.9375 342.25,606.0781 Q341.6094,606.2344 340.9063,606.2344 Q338.4063,606.2344 337.0781,604.5938 Q335.7656,602.9375 335.7656,599.8125 Q335.7656,596.6875 337.0781,595.0313 Q338.4063,593.375 340.9063,593.375 Q341.6094,593.375 342.25,593.5313 Q342.9063,593.6875 343.4688,593.9844 L343.4688,596.7031 Q342.8438,596.125 342.25,595.8594 Q341.6563,595.5781 341.0313,595.5781 Q339.6875,595.5781 339,596.6563 Q338.3125,597.7188 338.3125,599.8125 Q338.3125,601.9063 339,602.9844 Q339.6875,604.0469 341.0313,604.0469 Q341.6563,604.0469 342.25,603.7813 Q342.8438,603.5 343.4688,602.9219 L343.4688,605.6406 Z "/><text fill="#000000" font-family="sans-serif" font-size="12" lengthAdjust="spacingAndGlyphs" textLength="67" x="354.5" y="604.1543">StyleSheet</text><!--class Locality--><rect fill="#FEFECE" filter="url(#f1uwl4xfb3icts)" height="84.3516" id="Locality" style="stroke: #A80036; stroke-width: 1.5;" width="78" x="307" y="40"/><ellipse cx="322" cy="58.9688" fill="#EB937F" rx="11" ry="11" style="stroke: #A80036; stroke-width: 1.0;"/><path d="M326.1094,64.9688 L318.3906,64.9688 L318.3906,52.5781 L326.1094,52.5781 L326.1094,54.7344 L320.8438,54.7344 L320.8438,57.4063 L325.6094,57.4063 L325.6094,59.5625 L320.8438,59.5625 L320.8438,62.8125 L326.1094,62.8125 L326.1094,64.9688 Z "/><text fill="#000000" font-family="sans-serif" font-size="12" font-style="italic" lengthAdjust="spacingAndGlyphs" textLength="49" x="334.5" y="56.1387">«Enum»</text><text fill="#000000" font-family="sans-serif" font-size="12" lengthAdjust="spacingAndGlyphs" textLength="46" x="336" y="70.1074">Locality</text><line style="stroke: #A80036; stroke-width: 1.5;" x1="308" x2="384" y1="77.9375" y2="77.9375"/><text fill="#000000" font-family="sans-serif" font-size="11" lengthAdjust="spacingAndGlyphs" textLength="53" x="313" y="92.1479">INTERNAL</text><text fill="#000000" font-family="sans-serif" font-size="11" lengthAdjust="spacingAndGlyphs" textLength="62" x="313" y="104.9526">INTRAPAGE</text><text fill="#000000" font-family="sans-serif" font-size="11" lengthAdjust="spacingAndGlyphs" textLength="56" x="313" y="117.7573">EXTERNAL</text><!--class ResourceKind--><rect fill="#FEFECE" filter="url(#f1uwl4xfb3icts)" height="148.375" id="ResourceKind" style="stroke: #A80036; stroke-width: 1.5;" width="117" x="420.5" y="8"/><ellipse cx="435.5" cy="26.9688" fill="#EB937F" rx="11" ry="11" style="stroke: #A80036; stroke-width: 1.0;"/><path d="M439.6094,32.9688 L431.8906,32.9688 L431.8906,20.5781 L439.6094,20.5781 L439.6094,22.7344 L434.3438,22.7344 L434.3438,25.4063 L439.1094,25.4063 L439.1094,27.5625 L434.3438,27.5625 L434.3438,30.8125 L439.6094,30.8125 L439.6094,32.9688 Z "/><text fill="#000000" font-family="sans-serif" font-size="12" font-style="italic" lengthAdjust="spacingAndGlyphs" textLength="49" x="467.5" y="24.1387">«Enum»</text><text fill="#000000" font-family="sans-serif" font-size="12" lengthAdjust="spacingAndGlyphs" textLength="85" x="449.5" y="38.1074">ResourceKind</text><line style="stroke: #A80036; stroke-width: 1.5;" x1="421.5" x2="536.5" y1="45.9375" y2="45.9375"/><text fill="#000000" font-family="sans-serif" font-size="11" lengthAdjust="spacingAndGlyphs" textLength="35" x="426.5" y="60.1479">IMAGE</text><text fill="#000000" font-family="sans-serif" font-size="11" lengthAdjust="spacingAndGlyphs" textLength="72" x="426.5" y="72.9526">STYLESHEET</text><text fill="#000000" font-family="sans-serif" font-size="11" lengthAdjust="spacingAndGlyphs" textLength="40" x="426.5" y="85.7573">SCRIPT</text><text fill="#000000" font-family="sans-serif" font-size="11" lengthAdjust="spacingAndGlyphs" textLength="47" x="426.5" y="98.562">ANCHOR</text><text fill="#000000" font-family="sans-serif" font-size="11" lengthAdjust="spacingAndGlyphs" textLength="34" x="426.5" y="111.3667">VIDEO</text><text fill="#000000" font-family="sans-serif" font-size="11" lengthAdjust="spacingAndGlyphs" textLength="35" x="426.5" y="124.1714">AUDIO</text><text fill="#000000" font-family="sans-serif" font-size="11" lengthAdjust="spacingAndGlyphs" textLength="47" x="426.5" y="136.9761">ARCHIVE</text><text fill="#000000" font-family="sans-serif" font-size="11" lengthAdjust="spacingAndGlyphs" textLength="38" x="426.5" y="149.7808">OTHER</text><!--class ReportManager--><rect fill="#FEFECE" filter="url(#f1uwl4xfb3icts)" height="104.0234" id="ReportManager" style="stroke: #A80036; stroke-width: 1.5;" width="240" x="573" y="30"/><ellipse cx="640.25" cy="46" fill="#ADD1B2" rx="11" ry="11" style="stroke: #A80036; stroke-width: 1.0;"/><path d="M643.2188,51.6406 Q642.6406,51.9375 642,52.0781 Q641.3594,52.2344 640.6563,52.2344 Q638.1563,52.2344 636.8281,50.5938 Q635.5156,48.9375 635.5156,45.8125 Q635.5156,42.6875 636.8281,41.0313 Q638.1563,39.375 640.6563,39.375 Q641.3594,39.375 642,39.5313 Q642.6563,39.6875 643.2188,39.9844 L643.2188,42.7031 Q642.5938,42.125 642,41.8594 Q641.4063,41.5781 640.7813,41.5781 Q639.4375,41.5781 638.75,42.6563 Q638.0625,43.7188 638.0625,45.8125 Q638.0625,47.9063 638.75,48.9844 Q639.4375,50.0469 640.7813,50.0469 Q641.4063,50.0469 642,49.7813 Q642.5938,49.5 643.2188,48.9219 L643.2188,51.6406 Z "/><text fill="#000000" font-family="sans-serif" font-size="12" lengthAdjust="spacingAndGlyphs" textLength="97" x="660.75" y="50.1543">ReportManager</text><line style="stroke: #A80036; stroke-width: 1.5;" x1="574" x2="812" y1="62" y2="62"/><text fill="#000000" font-family="sans-serif" font-size="11" lengthAdjust="spacingAndGlyphs" textLength="165" x="579" y="76.2104">setSourceData(site: Website)</text><text fill="#000000" font-family="sans-serif" font-size="11" lengthAdjust="spacingAndGlyphs" textLength="146" x="579" y="89.0151">determineBaseFilename()</text><text fill="#000000" font-family="sans-serif" font-size="11" lengthAdjust="spacingAndGlyphs" textLength="228" x="579" y="101.8198">writeReportNames(outs: BufferedWriter)</text><text fill="#000000" font-family="sans-serif" font-size="11" lengthAdjust="spacingAndGlyphs" textLength="0" x="583" y="114.6245"/><text fill="#000000" font-family="sans-serif" font-size="11" lengthAdjust="spacingAndGlyphs" textLength="49" x="579" y="127.4292">writeAll()</text><!--class ReportWriter--><rect fill="#FEFECE" filter="url(#f1uwl4xfb3icts)" height="112.0234" id="ReportWriter" style="stroke: #A80036; stroke-width: 1.5;" width="222" x="582" y="233"/><ellipse cx="649.25" cy="249" fill="#ADD1B2" rx="11" ry="11" style="stroke: #A80036; stroke-width: 1.0;"/><path d="M652.2188,254.6406 Q651.6406,254.9375 651,255.0781 Q650.3594,255.2344 649.6563,255.2344 Q647.1563,255.2344 645.8281,253.5938 Q644.5156,251.9375 644.5156,248.8125 Q644.5156,245.6875 645.8281,244.0313 Q647.1563,242.375 649.6563,242.375 Q650.3594,242.375 651,242.5313 Q651.6563,242.6875 652.2188,242.9844 L652.2188,245.7031 Q651.5938,245.125 651,244.8594 Q650.4063,244.5781 649.7813,244.5781 Q648.4375,244.5781 647.75,245.6563 Q647.0625,246.7188 647.0625,248.8125 Q647.0625,250.9063 647.75,251.9844 Q648.4375,253.0469 649.7813,253.0469 Q650.4063,253.0469 651,252.7813 Q651.5938,252.5 652.2188,251.9219 L652.2188,254.6406 Z "/><text fill="#000000" font-family="sans-serif" font-size="12" lengthAdjust="spacingAndGlyphs" textLength="79" x="669.75" y="253.1543">ReportWriter</text><line style="stroke: #A80036; stroke-width: 1.5;" x1="583" x2="803" y1="265" y2="265"/><text fill="#000000" font-family="sans-serif" font-size="11" lengthAdjust="spacingAndGlyphs" textLength="96" x="588" y="279.2104">website: Website</text><line style="stroke: #A80036; stroke-width: 1.5;" x1="583" x2="803" y1="285.8047" y2="285.8047"/><text fill="#000000" font-family="sans-serif" font-size="11" lengthAdjust="spacingAndGlyphs" textLength="165" x="588" y="300.0151">setSourceData(site: Website)</text><text fill="#000000" font-family="sans-serif" font-size="11" lengthAdjust="spacingAndGlyphs" textLength="210" x="588" y="312.8198">setBaseName(baseFileName: String)</text><text fill="#000000" font-family="sans-serif" font-size="11" lengthAdjust="spacingAndGlyphs" textLength="0" x="592" y="325.6245"/><text fill="#000000" font-family="sans-serif" font-size="11" lengthAdjust="spacingAndGlyphs" textLength="36" x="588" y="338.4292">write()</text><!--class TextReportWriter--><rect fill="#FEFECE" filter="url(#f1uwl4xfb3icts)" height="32" id="TextReportWriter" style="stroke: #A80036; stroke-width: 1.5;" width="137" x="450.5" y="448.5"/><ellipse cx="465.5" cy="464.5" fill="#ADD1B2" rx="11" ry="11" style="stroke: #A80036; stroke-width: 1.0;"/><path d="M468.4688,470.1406 Q467.8906,470.4375 467.25,470.5781 Q466.6094,470.7344 465.9063,470.7344 Q463.4063,470.7344 462.0781,469.0938 Q460.7656,467.4375 460.7656,464.3125 Q460.7656,461.1875 462.0781,459.5313 Q463.4063,457.875 465.9063,457.875 Q466.6094,457.875 467.25,458.0313 Q467.9063,458.1875 468.4688,458.4844 L468.4688,461.2031 Q467.8438,460.625 467.25,460.3594 Q466.6563,460.0781 466.0313,460.0781 Q464.6875,460.0781 464,461.1563 Q463.3125,462.2188 463.3125,464.3125 Q463.3125,466.4063 464,467.4844 Q464.6875,468.5469 466.0313,468.5469 Q466.6563,468.5469 467.25,468.2813 Q467.8438,468 468.4688,467.4219 L468.4688,470.1406 Z "/><text fill="#000000" font-family="sans-serif" font-size="12" lengthAdjust="spacingAndGlyphs" textLength="105" x="479.5" y="468.6543">TextReportWriter</text><!--class JSONReportWriter--><rect fill="#FEFECE" filter="url(#f1uwl4xfb3icts)" height="32" id="JSONReportWriter" style="stroke: #A80036; stroke-width: 1.5;" width="140" x="623" y="448.5"/><ellipse cx="638" cy="464.5" fill="#ADD1B2" rx="11" ry="11" style="stroke: #A80036; stroke-width: 1.0;"/><path d="M640.9688,470.1406 Q640.3906,470.4375 639.75,470.5781 Q639.1094,470.7344 638.4063,470.7344 Q635.9063,470.7344 634.5781,469.0938 Q633.2656,467.4375 633.2656,464.3125 Q633.2656,461.1875 634.5781,459.5313 Q635.9063,457.875 638.4063,457.875 Q639.1094,457.875 639.75,458.0313 Q640.4063,458.1875 640.9688,458.4844 L640.9688,461.2031 Q640.3438,460.625 639.75,460.3594 Q639.1563,460.0781 638.5313,460.0781 Q637.1875,460.0781 636.5,461.1563 Q635.8125,462.2188 635.8125,464.3125 Q635.8125,466.4063 636.5,467.4844 Q637.1875,468.5469 638.5313,468.5469 Q639.1563,468.5469 639.75,468.2813 Q640.3438,468 640.9688,467.4219 L640.9688,470.1406 Z "/><text fill="#000000" font-family="sans-serif" font-size="12" lengthAdjust="spacingAndGlyphs" textLength="108" x="652" y="468.6543">JSONReportWriter</text><!--class ExcelReportWriter--><rect fill="#FEFECE" filter="url(#f1uwl4xfb3icts)" height="32" id="ExcelReportWriter" style="stroke: #A80036; stroke-width: 1.5;" width="143" x="798.5" y="448.5"/><ellipse cx="813.5" cy="464.5" fill="#ADD1B2" rx="11" ry="11" style="stroke: #A80036; stroke-width: 1.0;"/><path d="M816.4688,470.1406 Q815.8906,470.4375 815.25,470.5781 Q814.6094,470.7344 813.9063,470.7344 Q811.4063,470.7344 810.0781,469.0938 Q808.7656,467.4375 808.7656,464.3125 Q808.7656,461.1875 810.0781,459.5313 Q811.4063,457.875 813.9063,457.875 Q814.6094,457.875 815.25,458.0313 Q815.9063,458.1875 816.4688,458.4844 L816.4688,461.2031 Q815.8438,460.625 815.25,460.3594 Q814.6563,460.0781 814.0313,460.0781 Q812.6875,460.0781 812,461.1563 Q811.3125,462.2188 811.3125,464.3125 Q811.3125,466.4063 812,467.4844 Q812.6875,468.5469 814.0313,468.5469 Q814.6563,468.5469 815.25,468.2813 Q815.8438,468 816.4688,467.4219 L816.4688,470.1406 Z "/><text fill="#000000" font-family="sans-serif" font-size="12" lengthAdjust="spacingAndGlyphs" textLength="111" x="827.5" y="468.6543">ExcelReportWriter</text><!--reverse link Resource to Image--><path d="M174.139,542.1633 C167.916,558.1395 161.995,573.3408 157.844,583.9958 " fill="none" id="Resource&lt;-Image" style="stroke: #A80036; stroke-width: 1.0;"/><polygon fill="none" points="167.713,539.3741,181.494,523.2786,180.758,544.4554,167.713,539.3741" style="stroke: #A80036; stroke-width: 1.0;"/><!--reverse link Resource to Script--><path d="M233.861,542.1633 C240.084,558.1395 246.005,573.3408 250.156,583.9958 " fill="none" id="Resource&lt;-Script" style="stroke: #A80036; stroke-width: 1.0;"/><polygon fill="none" points="227.242,544.4554,226.506,523.2786,240.287,539.3741,227.242,544.4554" style="stroke: #A80036; stroke-width: 1.0;"/><!--reverse link Resource to StyleSheet--><path d="M293.814,535.6178 C317.263,553.9248 340.279,571.8931 355.781,583.9958 " fill="none" id="Resource&lt;-StyleSheet" style="stroke: #A80036; stroke-width: 1.0;"/><polygon fill="none" points="289.466,541.1038,278.009,523.2786,298.081,530.0685,289.466,541.1038" style="stroke: #A80036; stroke-width: 1.0;"/><!--reverse link Resource to Anchor--><path d="M119.334,536.1432 C97.6112,554.2681 76.3489,572.0089 61.9825,583.9958 " fill="none" id="Resource&lt;-Anchor" style="stroke: #A80036; stroke-width: 1.0;"/><polygon fill="none" points="114.911,530.717,134.752,523.2786,123.88,541.4666,114.911,530.717" style="stroke: #A80036; stroke-width: 1.0;"/><!--reverse link Website to HTMLDocument--><path d="M204,128.39 C204,162.584 204,209.232 204,243.265 " fill="none" id="Website&lt;-HTMLDocument" style="stroke: #A80036; stroke-width: 1.0;"/><polygon fill="#FFFFFF" points="204,115.031,200,121.031,204,127.031,208,121.031,204,115.031" style="stroke: #A80036; stroke-width: 1.0;"/><!--reverse link HTMLDocument to Resource--><path d="M204,347.86 C204,366.528 204,387.211 204,405.863 " fill="none" id="HTMLDocument&lt;-Resource" style="stroke: #A80036; stroke-width: 1.0;"/><polygon fill="#FFFFFF" points="204,334.681,200,340.681,204,346.681,208,340.681,204,334.681" style="stroke: #A80036; stroke-width: 1.0;"/><!--reverse link ReportWriter to TextReportWriter--><path d="M623.193,359.606 C590.395,392.31 554.202,428.4 534.276,448.268 " fill="none" id="ReportWriter&lt;-TextReportWriter" style="stroke: #A80036; stroke-width: 1.0;"/><polygon fill="none" points="618.362,354.538,637.467,345.374,628.247,364.452,618.362,354.538" style="stroke: #A80036; stroke-width: 1.0;"/><!--reverse link ReportWriter to JSONReportWriter--><path d="M693,365.801 C693,396.778 693,429.647 693,448.268 " fill="none" id="ReportWriter&lt;-JSONReportWriter" style="stroke: #A80036; stroke-width: 1.0;"/><polygon fill="none" points="686,365.374,693,345.374,700,365.373,686,365.374" style="stroke: #A80036; stroke-width: 1.0;"/><!--reverse link ReportWriter to ExcelReportWriter--><path d="M764.01,359.606 C797.374,392.31 834.192,428.4 854.461,448.268 " fill="none" id="ReportWriter&lt;-ExcelReportWriter" style="stroke: #A80036; stroke-width: 1.0;"/><polygon fill="none" points="758.873,364.373,749.491,345.374,768.673,354.375,758.873,364.373" style="stroke: #A80036; stroke-width: 1.0;"/><!--link ReportManager to ReportWriter--><path d="M693,134.201 C693,162.565 693,197.988 693,227.688 " fill="none" id="ReportManager-&gt;ReportWriter" style="stroke: #A80036; stroke-width: 1.0;"/><polygon fill="#A80036" points="693,232.782,697,223.782,693,227.782,689,223.782,693,232.782" style="stroke: #A80036; stroke-width: 1.0;"/><text fill="#000000" font-family="sans-serif" font-size="13" lengthAdjust="spacingAndGlyphs" textLength="140" x="694" y="199.0669">creates and manages</text><text fill="#000000" font-family="sans-serif" font-size="13" lengthAdjust="spacingAndGlyphs" textLength="8" x="684.5125" y="222.0899">3</text><!--
@startuml diagrams_uml_class/analysis_04.svg
hide empty members

class Website {
    localDirectory: Path
    urls: Collection<URL>
}

class HTMLDocument {
    scripts: Collection<Script>
    stylesheets: Collection<StyleSheet>
    images: Collection<Image>
    anchors: Collection<Anchor>
}

class Resource {
    path: Path
    url: URL
    foundOn: Collection<HTMLDocument>
    location: Locality
    typeOfResource: ResourceKind
    sizeOfFile: long
}

class Anchor {

}

class Image {
}

class Script {
}

class StyleSheet {
}

enum Locality <<Enum>> {
    INTERNAL
    INTRAPAGE
    EXTERNAL
}

enum ResourceKind <<Enum>> {
    IMAGE
    STYLESHEET
    SCRIPT
    ANCHOR
    VIDEO
    AUDIO
    ARCHIVE
    OTHER
}

class ReportManager {
    setSourceData(site: Website)
    determineBaseFilename()
    writeReportNames(outs: BufferedWriter)

    writeAll()
}

class ReportWriter {
    website: Website

    setSourceData(site: Website)
    setBaseName(baseFileName: String)

    write()
}

class TextReportWriter {

}

class JSONReportWriter {

}

class ExcelReportWriter {

}

Resource <|- - Image
Resource <|- - Script
Resource <|- - StyleSheet
Resource <|- - Anchor

Website o- - HTMLDocument
HTMLDocument o- - Resource

ReportWriter <|- - TextReportWriter
ReportWriter <|- - JSONReportWriter
ReportWriter <|- - ExcelReportWriter

ReportManager - -> "3" ReportWriter: "creates and manages"

@enduml

PlantUML version 1.2019.09(Mon Aug 26 12:19:51 EDT 2019)
(GPL source distribution)
Java Runtime: OpenJDK Runtime Environment
JVM: OpenJDK 64-Bit Server VM
Java Version: 11.0.14+9-Ubuntu-0ubuntu2.16.04
Operating System: Linux
OS Version: 4.4.0-241-generic
Default Encoding: UTF-8
Language: en
Country: US
--></g></svg>