<?xml version="1.0" encoding="us-ascii" standalone="no"?><svg xmlns="http://www.w3.org/2000/svg" xmlns:xlink="http://www.w3.org/1999/xlink" contentStyleType="text/css" height="873px" preserveAspectRatio="none" style="width:997px;height:873px;background:#FFFFFF;" version="1.1" viewBox="0 0 997 873" width="997px" zoomAndPan="magnify"><defs/><g><!--class Website--><g id="elem_Website"><rect codeLine="1035" fill="#F1F1F1" height="72.5938" id="Website" rx="2.5" ry="2.5" style="stroke:#181818;stroke-width:0.5;" width="165" x="7" y="291"/><ellipse cx="57.25" cy="307" fill="#ADD1B2" rx="11" ry="11" style="stroke:#181818;stroke-width:1.0;"/><path d="M60.2188,312.6406 Q59.6406,312.9375 59,313.0781 Q58.3594,313.2344 57.6563,313.2344 Q55.1563,313.2344 53.8281,311.5938 Q52.5156,309.9375 52.5156,306.8125 Q52.5156,303.6875 53.8281,302.0313 Q55.1563,300.375 57.6563,300.375 Q58.3594,300.375 59,300.5313 Q59.6563,300.6875 60.2188,300.9844 L60.2188,303.7031 Q59.5938,303.125 59,302.8594 Q58.4063,302.5781 57.7813,302.5781 Q56.4375,302.5781 55.75,303.6563 Q55.0625,304.7188 55.0625,306.8125 Q55.0625,308.9063 55.75,309.9844 Q56.4375,311.0469 57.7813,311.0469 Q58.4063,311.0469 59,310.7813 Q59.5938,310.5 60.2188,309.9219 L60.2188,312.6406 Z " fill="#000000"/><text fill="#000000" font-family="sans-serif" font-size="14" lengthAdjust="spacing" textLength="56" x="77.75" y="311.8467">Website</text><line style="stroke:#181818;stroke-width:0.5;" x1="8" x2="171" y1="323" y2="323"/><text fill="#000000" font-family="sans-serif" font-size="14" lengthAdjust="spacing" textLength="133" x="13" y="339.9951">localDirectory: Path</text><text fill="#000000" font-family="sans-serif" font-size="14" lengthAdjust="spacing" textLength="153" x="13" y="356.292">urls: Collection&lt;URL&gt;</text></g><!--class HTMLDocument--><g id="elem_HTMLDocument"><rect codeLine="1040" fill="#F1F1F1" height="105.1875" id="HTMLDocument" rx="2.5" ry="2.5" style="stroke:#181818;stroke-width:0.5;" width="267" x="121" y="469"/><ellipse cx="194.75" cy="485" fill="#ADD1B2" rx="11" ry="11" style="stroke:#181818;stroke-width:1.0;"/><path d="M197.7188,490.6406 Q197.1406,490.9375 196.5,491.0781 Q195.8594,491.2344 195.1563,491.2344 Q192.6563,491.2344 191.3281,489.5938 Q190.0156,487.9375 190.0156,484.8125 Q190.0156,481.6875 191.3281,480.0313 Q192.6563,478.375 195.1563,478.375 Q195.8594,478.375 196.5,478.5313 Q197.1563,478.6875 197.7188,478.9844 L197.7188,481.7031 Q197.0938,481.125 196.5,480.8594 Q195.9063,480.5781 195.2813,480.5781 Q193.9375,480.5781 193.25,481.6563 Q192.5625,482.7188 192.5625,484.8125 Q192.5625,486.9063 193.25,487.9844 Q193.9375,489.0469 195.2813,489.0469 Q195.9063,489.0469 196.5,488.7813 Q197.0938,488.5 197.7188,487.9219 L197.7188,490.6406 Z " fill="#000000"/><text fill="#000000" font-family="sans-serif" font-size="14" lengthAdjust="spacing" textLength="111" x="215.25" y="489.8467">HTMLDocument</text><line style="stroke:#181818;stroke-width:0.5;" x1="122" x2="387" y1="501" y2="501"/><text fill="#000000" font-family="sans-serif" font-size="14" lengthAdjust="spacing" textLength="186" x="127" y="517.9951">scripts: Collection&lt;Script&gt;</text><text fill="#000000" font-family="sans-serif" font-size="14" lengthAdjust="spacing" textLength="255" x="127" y="534.292">stylesheets: Collection&lt;StyleSheet&gt;</text><text fill="#000000" font-family="sans-serif" font-size="14" lengthAdjust="spacing" textLength="193" x="127" y="550.5889">images: Collection&lt;Image&gt;</text><text fill="#000000" font-family="sans-serif" font-size="14" lengthAdjust="spacing" textLength="206" x="127" y="566.8857">anchors: Collection&lt;Anchor&gt;</text></g><!--class Resource--><g id="elem_Resource"><rect codeLine="1047" fill="#F1F1F1" height="137.7813" id="Resource" rx="2.5" ry="2.5" style="stroke:#181818;stroke-width:0.5;" width="284" x="112.5" y="635"/><ellipse cx="216.75" cy="651" fill="#ADD1B2" rx="11" ry="11" style="stroke:#181818;stroke-width:1.0;"/><path d="M219.7188,656.6406 Q219.1406,656.9375 218.5,657.0781 Q217.8594,657.2344 217.1563,657.2344 Q214.6563,657.2344 213.3281,655.5938 Q212.0156,653.9375 212.0156,650.8125 Q212.0156,647.6875 213.3281,646.0313 Q214.6563,644.375 217.1563,644.375 Q217.8594,644.375 218.5,644.5313 Q219.1563,644.6875 219.7188,644.9844 L219.7188,647.7031 Q219.0938,647.125 218.5,646.8594 Q217.9063,646.5781 217.2813,646.5781 Q215.9375,646.5781 215.25,647.6563 Q214.5625,648.7188 214.5625,650.8125 Q214.5625,652.9063 215.25,653.9844 Q215.9375,655.0469 217.2813,655.0469 Q217.9063,655.0469 218.5,654.7813 Q219.0938,654.5 219.7188,653.9219 L219.7188,656.6406 Z " fill="#000000"/><text fill="#000000" font-family="sans-serif" font-size="14" lengthAdjust="spacing" textLength="67" x="237.25" y="655.8467">Resource</text><line style="stroke:#181818;stroke-width:0.5;" x1="113.5" x2="395.5" y1="667" y2="667"/><text fill="#000000" font-family="sans-serif" font-size="14" lengthAdjust="spacing" textLength="71" x="118.5" y="683.9951">path: Path</text><text fill="#000000" font-family="sans-serif" font-size="14" lengthAdjust="spacing" textLength="53" x="118.5" y="700.292">url: URL</text><text fill="#000000" font-family="sans-serif" font-size="14" lengthAdjust="spacing" textLength="272" x="118.5" y="716.5889">foundOn: Collection&lt;HTMLDocument&gt;</text><text fill="#000000" font-family="sans-serif" font-size="14" lengthAdjust="spacing" textLength="113" x="118.5" y="732.8857">location: Locality</text><text fill="#000000" font-family="sans-serif" font-size="14" lengthAdjust="spacing" textLength="218" x="118.5" y="749.1826">typeOfResource: ResourceKind</text><text fill="#000000" font-family="sans-serif" font-size="14" lengthAdjust="spacing" textLength="105" x="118.5" y="765.4795">sizeOfFile: long</text></g><!--class Anchor--><g id="elem_Anchor"><rect codeLine="1056" fill="#F1F1F1" height="32" id="Anchor" rx="2.5" ry="2.5" style="stroke:#181818;stroke-width:0.5;" width="81" x="47" y="834"/><ellipse cx="62" cy="850" fill="#ADD1B2" rx="11" ry="11" style="stroke:#181818;stroke-width:1.0;"/><path d="M64.9688,855.6406 Q64.3906,855.9375 63.75,856.0781 Q63.1094,856.2344 62.4063,856.2344 Q59.9063,856.2344 58.5781,854.5938 Q57.2656,852.9375 57.2656,849.8125 Q57.2656,846.6875 58.5781,845.0313 Q59.9063,843.375 62.4063,843.375 Q63.1094,843.375 63.75,843.5313 Q64.4063,843.6875 64.9688,843.9844 L64.9688,846.7031 Q64.3438,846.125 63.75,845.8594 Q63.1563,845.5781 62.5313,845.5781 Q61.1875,845.5781 60.5,846.6563 Q59.8125,847.7188 59.8125,849.8125 Q59.8125,851.9063 60.5,852.9844 Q61.1875,854.0469 62.5313,854.0469 Q63.1563,854.0469 63.75,853.7813 Q64.3438,853.5 64.9688,852.9219 L64.9688,855.6406 Z " fill="#000000"/><text fill="#000000" font-family="sans-serif" font-size="14" lengthAdjust="spacing" textLength="49" x="76" y="854.8467">Anchor</text></g><!--class Image--><g id="elem_Image"><rect codeLine="1060" fill="#F1F1F1" height="32" id="Image" rx="2.5" ry="2.5" style="stroke:#181818;stroke-width:0.5;" width="74" x="163.5" y="834"/><ellipse cx="178.5" cy="850" fill="#ADD1B2" rx="11" ry="11" style="stroke:#181818;stroke-width:1.0;"/><path d="M181.4688,855.6406 Q180.8906,855.9375 180.25,856.0781 Q179.6094,856.2344 178.9063,856.2344 Q176.4063,856.2344 175.0781,854.5938 Q173.7656,852.9375 173.7656,849.8125 Q173.7656,846.6875 175.0781,845.0313 Q176.4063,843.375 178.9063,843.375 Q179.6094,843.375 180.25,843.5313 Q180.9063,843.6875 181.4688,843.9844 L181.4688,846.7031 Q180.8438,846.125 180.25,845.8594 Q179.6563,845.5781 179.0313,845.5781 Q177.6875,845.5781 177,846.6563 Q176.3125,847.7188 176.3125,849.8125 Q176.3125,851.9063 177,852.9844 Q177.6875,854.0469 179.0313,854.0469 Q179.6563,854.0469 180.25,853.7813 Q180.8438,853.5 181.4688,852.9219 L181.4688,855.6406 Z " fill="#000000"/><text fill="#000000" font-family="sans-serif" font-size="14" lengthAdjust="spacing" textLength="42" x="192.5" y="854.8467">Image</text></g><!--class Script--><g id="elem_Script"><rect codeLine="1063" fill="#F1F1F1" height="32" id="Script" rx="2.5" ry="2.5" style="stroke:#181818;stroke-width:0.5;" width="71" x="273" y="834"/><ellipse cx="288" cy="850" fill="#ADD1B2" rx="11" ry="11" style="stroke:#181818;stroke-width:1.0;"/><path d="M290.9688,855.6406 Q290.3906,855.9375 289.75,856.0781 Q289.1094,856.2344 288.4063,856.2344 Q285.9063,856.2344 284.5781,854.5938 Q283.2656,852.9375 283.2656,849.8125 Q283.2656,846.6875 284.5781,845.0313 Q285.9063,843.375 288.4063,843.375 Q289.1094,843.375 289.75,843.5313 Q290.4063,843.6875 290.9688,843.9844 L290.9688,846.7031 Q290.3438,846.125 289.75,845.8594 Q289.1563,845.5781 288.5313,845.5781 Q287.1875,845.5781 286.5,846.6563 Q285.8125,847.7188 285.8125,849.8125 Q285.8125,851.9063 286.5,852.9844 Q287.1875,854.0469 288.5313,854.0469 Q289.1563,854.0469 289.75,853.7813 Q290.3438,853.5 290.9688,852.9219 L290.9688,855.6406 Z " fill="#000000"/><text fill="#000000" font-family="sans-serif" font-size="14" lengthAdjust="spacing" textLength="39" x="302" y="854.8467">Script</text></g><!--class StyleSheet--><g id="elem_StyleSheet"><rect codeLine="1066" fill="#F1F1F1" height="32" id="StyleSheet" rx="2.5" ry="2.5" style="stroke:#181818;stroke-width:0.5;" width="106" x="379.5" y="834"/><ellipse cx="394.5" cy="850" fill="#ADD1B2" rx="11" ry="11" style="stroke:#181818;stroke-width:1.0;"/><path d="M397.4688,855.6406 Q396.8906,855.9375 396.25,856.0781 Q395.6094,856.2344 394.9063,856.2344 Q392.4063,856.2344 391.0781,854.5938 Q389.7656,852.9375 389.7656,849.8125 Q389.7656,846.6875 391.0781,845.0313 Q392.4063,843.375 394.9063,843.375 Q395.6094,843.375 396.25,843.5313 Q396.9063,843.6875 397.4688,843.9844 L397.4688,846.7031 Q396.8438,846.125 396.25,845.8594 Q395.6563,845.5781 395.0313,845.5781 Q393.6875,845.5781 393,846.6563 Q392.3125,847.7188 392.3125,849.8125 Q392.3125,851.9063 393,852.9844 Q393.6875,854.0469 395.0313,854.0469 Q395.6563,854.0469 396.25,853.7813 Q396.8438,853.5 397.4688,852.9219 L397.4688,855.6406 Z " fill="#000000"/><text fill="#000000" font-family="sans-serif" font-size="14" lengthAdjust="spacing" textLength="74" x="408.5" y="854.8467">StyleSheet</text></g><!--class Locality--><g id="elem_Locality"><rect codeLine="1069" fill="#F1F1F1" height="97.1563" id="Locality" rx="2.5" ry="2.5" style="stroke:#181818;stroke-width:0.5;" width="91" x="289" y="48"/><ellipse cx="308.05" cy="68.1328" fill="#EB937F" rx="11" ry="11" style="stroke:#181818;stroke-width:1.0;"/><path d="M312.1594,74.1328 L304.4406,74.1328 L304.4406,61.7422 L312.1594,61.7422 L312.1594,63.8984 L306.8938,63.8984 L306.8938,66.5703 L311.6594,66.5703 L311.6594,68.7266 L306.8938,68.7266 L306.8938,71.9766 L312.1594,71.9766 L312.1594,74.1328 Z " fill="#000000"/><text fill="#000000" font-family="sans-serif" font-size="12" font-style="italic" lengthAdjust="spacing" textLength="49" x="323.45" y="64.1387">&#171;Enum&#187;</text><text fill="#000000" font-family="sans-serif" font-size="14" lengthAdjust="spacing" textLength="50" x="322.95" y="79.9639">Locality</text><line style="stroke:#181818;stroke-width:0.5;" x1="290" x2="379" y1="88.2656" y2="88.2656"/><text fill="#000000" font-family="sans-serif" font-size="14" lengthAdjust="spacing" textLength="67" x="295" y="105.2607">INTERNAL</text><text fill="#000000" font-family="sans-serif" font-size="14" lengthAdjust="spacing" textLength="79" x="295" y="121.5576">INTRAPAGE</text><text fill="#000000" font-family="sans-serif" font-size="14" lengthAdjust="spacing" textLength="72" x="295" y="137.8545">EXTERNAL</text></g><!--class ResourceKind--><g id="elem_ResourceKind"><rect codeLine="1075" fill="#F1F1F1" height="178.6406" id="ResourceKind" rx="2.5" ry="2.5" style="stroke:#181818;stroke-width:0.5;" width="129" x="415" y="7"/><ellipse cx="430" cy="27.1328" fill="#EB937F" rx="11" ry="11" style="stroke:#181818;stroke-width:1.0;"/><path d="M434.1094,33.1328 L426.3906,33.1328 L426.3906,20.7422 L434.1094,20.7422 L434.1094,22.8984 L428.8438,22.8984 L428.8438,25.5703 L433.6094,25.5703 L433.6094,27.7266 L428.8438,27.7266 L428.8438,30.9766 L434.1094,30.9766 L434.1094,33.1328 Z " fill="#000000"/><text fill="#000000" font-family="sans-serif" font-size="12" font-style="italic" lengthAdjust="spacing" textLength="49" x="468" y="23.1387">&#171;Enum&#187;</text><text fill="#000000" font-family="sans-serif" font-size="14" lengthAdjust="spacing" textLength="97" x="444" y="38.9639">ResourceKind</text><line style="stroke:#181818;stroke-width:0.5;" x1="416" x2="543" y1="47.2656" y2="47.2656"/><text fill="#000000" font-family="sans-serif" font-size="14" lengthAdjust="spacing" textLength="44" x="421" y="64.2607">IMAGE</text><text fill="#000000" font-family="sans-serif" font-size="14" lengthAdjust="spacing" textLength="89" x="421" y="80.5576">STYLESHEET</text><text fill="#000000" font-family="sans-serif" font-size="14" lengthAdjust="spacing" textLength="50" x="421" y="96.8545">SCRIPT</text><text fill="#000000" font-family="sans-serif" font-size="14" lengthAdjust="spacing" textLength="60" x="421" y="113.1514">ANCHOR</text><text fill="#000000" font-family="sans-serif" font-size="14" lengthAdjust="spacing" textLength="43" x="421" y="129.4482">VIDEO</text><text fill="#000000" font-family="sans-serif" font-size="14" lengthAdjust="spacing" textLength="44" x="421" y="145.7451">AUDIO</text><text fill="#000000" font-family="sans-serif" font-size="14" lengthAdjust="spacing" textLength="60" x="421" y="162.042">ARCHIVE</text><text fill="#000000" font-family="sans-serif" font-size="14" lengthAdjust="spacing" textLength="49" x="421" y="178.3389">OTHER</text></g><!--class ReportManager--><g id="elem_ReportManager"><rect codeLine="1086" fill="#F1F1F1" height="121.4844" id="ReportManager" rx="2.5" ry="2.5" style="stroke:#181818;stroke-width:0.5;" width="289" x="579" y="36"/><ellipse cx="665.75" cy="52" fill="#ADD1B2" rx="11" ry="11" style="stroke:#181818;stroke-width:1.0;"/><path d="M668.7188,57.6406 Q668.1406,57.9375 667.5,58.0781 Q666.8594,58.2344 666.1563,58.2344 Q663.6563,58.2344 662.3281,56.5938 Q661.0156,54.9375 661.0156,51.8125 Q661.0156,48.6875 662.3281,47.0313 Q663.6563,45.375 666.1563,45.375 Q666.8594,45.375 667.5,45.5313 Q668.1563,45.6875 668.7188,45.9844 L668.7188,48.7031 Q668.0938,48.125 667.5,47.8594 Q666.9063,47.5781 666.2813,47.5781 Q664.9375,47.5781 664.25,48.6563 Q663.5625,49.7188 663.5625,51.8125 Q663.5625,53.9063 664.25,54.9844 Q664.9375,56.0469 666.2813,56.0469 Q666.9063,56.0469 667.5,55.7813 Q668.0938,55.5 668.7188,54.9219 L668.7188,57.6406 Z " fill="#000000"/><text fill="#000000" font-family="sans-serif" font-size="14" lengthAdjust="spacing" textLength="107" x="686.25" y="56.8467">ReportManager</text><line style="stroke:#181818;stroke-width:0.5;" x1="580" x2="867" y1="68" y2="68"/><text fill="#000000" font-family="sans-serif" font-size="14" lengthAdjust="spacing" textLength="203" x="585" y="84.9951">setSourceData(site: Website)</text><text fill="#000000" font-family="sans-serif" font-size="14" lengthAdjust="spacing" textLength="178" x="585" y="101.292">determineBaseFilename()</text><text fill="#000000" font-family="sans-serif" font-size="14" lengthAdjust="spacing" textLength="277" x="585" y="117.5889">writeReportNames(outs: BufferedWriter)</text><text fill="#000000" font-family="sans-serif" font-size="14" lengthAdjust="spacing" textLength="4" x="585" y="133.8857">&#160;</text><text fill="#000000" font-family="sans-serif" font-size="14" lengthAdjust="spacing" textLength="58" x="585" y="150.1826">writeAll()</text></g><!--class ReportWriter--><g id="elem_ReportWriter"><rect codeLine="1094" fill="#F1F1F1" height="129.4844" id="ReportWriter" rx="2.5" ry="2.5" style="stroke:#181818;stroke-width:0.5;" width="265" x="591" y="263"/><ellipse cx="675.75" cy="279" fill="#ADD1B2" rx="11" ry="11" style="stroke:#181818;stroke-width:1.0;"/><path d="M678.7188,284.6406 Q678.1406,284.9375 677.5,285.0781 Q676.8594,285.2344 676.1563,285.2344 Q673.6563,285.2344 672.3281,283.5938 Q671.0156,281.9375 671.0156,278.8125 Q671.0156,275.6875 672.3281,274.0313 Q673.6563,272.375 676.1563,272.375 Q676.8594,272.375 677.5,272.5313 Q678.1563,272.6875 678.7188,272.9844 L678.7188,275.7031 Q678.0938,275.125 677.5,274.8594 Q676.9063,274.5781 676.2813,274.5781 Q674.9375,274.5781 674.25,275.6563 Q673.5625,276.7188 673.5625,278.8125 Q673.5625,280.9063 674.25,281.9844 Q674.9375,283.0469 676.2813,283.0469 Q676.9063,283.0469 677.5,282.7813 Q678.0938,282.5 678.7188,281.9219 L678.7188,284.6406 Z " fill="#000000"/><text fill="#000000" font-family="sans-serif" font-size="14" lengthAdjust="spacing" textLength="87" x="696.25" y="283.8467">ReportWriter</text><line style="stroke:#181818;stroke-width:0.5;" x1="592" x2="855" y1="295" y2="295"/><text fill="#000000" font-family="sans-serif" font-size="14" lengthAdjust="spacing" textLength="119" x="597" y="311.9951">website: Website</text><line style="stroke:#181818;stroke-width:0.5;" x1="592" x2="855" y1="319.2969" y2="319.2969"/><text fill="#000000" font-family="sans-serif" font-size="14" lengthAdjust="spacing" textLength="203" x="597" y="336.292">setSourceData(site: Website)</text><text fill="#000000" font-family="sans-serif" font-size="14" lengthAdjust="spacing" textLength="253" x="597" y="352.5889">setBaseName(baseFileName: String)</text><text fill="#000000" font-family="sans-serif" font-size="14" lengthAdjust="spacing" textLength="4" x="597" y="368.8857">&#160;</text><text fill="#000000" font-family="sans-serif" font-size="14" lengthAdjust="spacing" textLength="43" x="597" y="385.1826">write()</text></g><!--class TextReportWriter--><g id="elem_TextReportWriter"><rect codeLine="1103" fill="#F1F1F1" height="32" id="TextReportWriter" rx="2.5" ry="2.5" style="stroke:#181818;stroke-width:0.5;" width="149" x="463" y="505.5"/><ellipse cx="478" cy="521.5" fill="#ADD1B2" rx="11" ry="11" style="stroke:#181818;stroke-width:1.0;"/><path d="M480.9688,527.1406 Q480.3906,527.4375 479.75,527.5781 Q479.1094,527.7344 478.4063,527.7344 Q475.9063,527.7344 474.5781,526.0938 Q473.2656,524.4375 473.2656,521.3125 Q473.2656,518.1875 474.5781,516.5313 Q475.9063,514.875 478.4063,514.875 Q479.1094,514.875 479.75,515.0313 Q480.4063,515.1875 480.9688,515.4844 L480.9688,518.2031 Q480.3438,517.625 479.75,517.3594 Q479.1563,517.0781 478.5313,517.0781 Q477.1875,517.0781 476.5,518.1563 Q475.8125,519.2188 475.8125,521.3125 Q475.8125,523.4063 476.5,524.4844 Q477.1875,525.5469 478.5313,525.5469 Q479.1563,525.5469 479.75,525.2813 Q480.3438,525 480.9688,524.4219 L480.9688,527.1406 Z " fill="#000000"/><text fill="#000000" font-family="sans-serif" font-size="14" lengthAdjust="spacing" textLength="117" x="492" y="526.3467">TextReportWriter</text></g><!--class JSONReportWriter--><g id="elem_JSONReportWriter"><rect codeLine="1107" fill="#F1F1F1" height="32" id="JSONReportWriter" rx="2.5" ry="2.5" style="stroke:#181818;stroke-width:0.5;" width="152" x="647.5" y="505.5"/><ellipse cx="662.5" cy="521.5" fill="#ADD1B2" rx="11" ry="11" style="stroke:#181818;stroke-width:1.0;"/><path d="M665.4688,527.1406 Q664.8906,527.4375 664.25,527.5781 Q663.6094,527.7344 662.9063,527.7344 Q660.4063,527.7344 659.0781,526.0938 Q657.7656,524.4375 657.7656,521.3125 Q657.7656,518.1875 659.0781,516.5313 Q660.4063,514.875 662.9063,514.875 Q663.6094,514.875 664.25,515.0313 Q664.9063,515.1875 665.4688,515.4844 L665.4688,518.2031 Q664.8438,517.625 664.25,517.3594 Q663.6563,517.0781 663.0313,517.0781 Q661.6875,517.0781 661,518.1563 Q660.3125,519.2188 660.3125,521.3125 Q660.3125,523.4063 661,524.4844 Q661.6875,525.5469 663.0313,525.5469 Q663.6563,525.5469 664.25,525.2813 Q664.8438,525 665.4688,524.4219 L665.4688,527.1406 Z " fill="#000000"/><text fill="#000000" font-family="sans-serif" font-size="14" lengthAdjust="spacing" textLength="120" x="676.5" y="526.3467">JSONReportWriter</text></g><!--class ExcelReportWriter--><g id="elem_ExcelReportWriter"><rect codeLine="1111" fill="#F1F1F1" height="32" id="ExcelReportWriter" rx="2.5" ry="2.5" style="stroke:#181818;stroke-width:0.5;" width="155" x="835" y="505.5"/><ellipse cx="850" cy="521.5" fill="#ADD1B2" rx="11" ry="11" style="stroke:#181818;stroke-width:1.0;"/><path d="M852.9688,527.1406 Q852.3906,527.4375 851.75,527.5781 Q851.1094,527.7344 850.4063,527.7344 Q847.9063,527.7344 846.5781,526.0938 Q845.2656,524.4375 845.2656,521.3125 Q845.2656,518.1875 846.5781,516.5313 Q847.9063,514.875 850.4063,514.875 Q851.1094,514.875 851.75,515.0313 Q852.4063,515.1875 852.9688,515.4844 L852.9688,518.2031 Q852.3438,517.625 851.75,517.3594 Q851.1563,517.0781 850.5313,517.0781 Q849.1875,517.0781 848.5,518.1563 Q847.8125,519.2188 847.8125,521.3125 Q847.8125,523.4063 848.5,524.4844 Q849.1875,525.5469 850.5313,525.5469 Q851.1563,525.5469 851.75,525.2813 Q852.3438,525 852.9688,524.4219 L852.9688,527.1406 Z " fill="#000000"/><text fill="#000000" font-family="sans-serif" font-size="14" lengthAdjust="spacing" textLength="123" x="864" y="526.3467">ExcelReportWriter</text></g><!--class WebsiteBuilder--><g id="elem_WebsiteBuilder"><rect codeLine="1115" fill="#F1F1F1" height="121.4844" id="WebsiteBuilder" rx="2.5" ry="2.5" style="stroke:#181818;stroke-width:0.5;" width="238" x="15.5" y="36"/><ellipse cx="78.25" cy="52" fill="#ADD1B2" rx="11" ry="11" style="stroke:#181818;stroke-width:1.0;"/><path d="M81.2188,57.6406 Q80.6406,57.9375 80,58.0781 Q79.3594,58.2344 78.6563,58.2344 Q76.1563,58.2344 74.8281,56.5938 Q73.5156,54.9375 73.5156,51.8125 Q73.5156,48.6875 74.8281,47.0313 Q76.1563,45.375 78.6563,45.375 Q79.3594,45.375 80,45.5313 Q80.6563,45.6875 81.2188,45.9844 L81.2188,48.7031 Q80.5938,48.125 80,47.8594 Q79.4063,47.5781 78.7813,47.5781 Q77.4375,47.5781 76.75,48.6563 Q76.0625,49.7188 76.0625,51.8125 Q76.0625,53.9063 76.75,54.9844 Q77.4375,56.0469 78.7813,56.0469 Q79.4063,56.0469 80,55.7813 Q80.5938,55.5 81.2188,54.9219 L81.2188,57.6406 Z " fill="#000000"/><text fill="#000000" font-family="sans-serif" font-size="14" lengthAdjust="spacing" textLength="104" x="98.75" y="56.8467">WebsiteBuilder</text><line style="stroke:#181818;stroke-width:0.5;" x1="16.5" x2="252.5" y1="68" y2="68"/><text fill="#000000" font-family="sans-serif" font-size="14" lengthAdjust="spacing" textLength="140" x="21.5" y="84.9951">withPath(path: Path)</text><text fill="#000000" font-family="sans-serif" font-size="14" lengthAdjust="spacing" textLength="118" x="21.5" y="101.292">withURL(url: URL)</text><text fill="#000000" font-family="sans-serif" font-size="14" lengthAdjust="spacing" textLength="226" x="21.5" y="117.5889">withURLs(urls: Collection&lt;URL&gt;)</text><text fill="#000000" font-family="sans-serif" font-size="14" lengthAdjust="spacing" textLength="4" x="21.5" y="133.8857">&#160;</text><text fill="#000000" font-family="sans-serif" font-size="14" lengthAdjust="spacing" textLength="124" x="21.5" y="150.1826">build() -&gt; Website</text></g><!--class HTMLDocumentBuilder--><g id="elem_HTMLDocumentBuilder"><rect codeLine="1123" fill="#F1F1F1" height="105.1875" id="HTMLDocumentBuilder" rx="2.5" ry="2.5" style="stroke:#181818;stroke-width:0.5;" width="304" x="207.5" y="275"/><ellipse cx="275.75" cy="291" fill="#ADD1B2" rx="11" ry="11" style="stroke:#181818;stroke-width:1.0;"/><path d="M278.7188,296.6406 Q278.1406,296.9375 277.5,297.0781 Q276.8594,297.2344 276.1563,297.2344 Q273.6563,297.2344 272.3281,295.5938 Q271.0156,293.9375 271.0156,290.8125 Q271.0156,287.6875 272.3281,286.0313 Q273.6563,284.375 276.1563,284.375 Q276.8594,284.375 277.5,284.5313 Q278.1563,284.6875 278.7188,284.9844 L278.7188,287.7031 Q278.0938,287.125 277.5,286.8594 Q276.9063,286.5781 276.2813,286.5781 Q274.9375,286.5781 274.25,287.6563 Q273.5625,288.7188 273.5625,290.8125 Q273.5625,292.9063 274.25,293.9844 Q274.9375,295.0469 276.2813,295.0469 Q276.9063,295.0469 277.5,294.7813 Q278.0938,294.5 278.7188,293.9219 L278.7188,296.6406 Z " fill="#000000"/><text fill="#000000" font-family="sans-serif" font-size="14" lengthAdjust="spacing" textLength="159" x="296.25" y="295.8467">HTMLDocumentBuilder</text><line style="stroke:#181818;stroke-width:0.5;" x1="208.5" x2="510.5" y1="307" y2="307"/><text fill="#000000" font-family="sans-serif" font-size="14" lengthAdjust="spacing" textLength="292" x="213.5" y="323.9951">withContentFrom(reader: BufferedReader)</text><text fill="#000000" font-family="sans-serif" font-size="14" lengthAdjust="spacing" textLength="180" x="213.5" y="340.292">withContentFrom(file: File)</text><text fill="#000000" font-family="sans-serif" font-size="14" lengthAdjust="spacing" textLength="4" x="213.5" y="356.5889">&#160;</text><text fill="#000000" font-family="sans-serif" font-size="14" lengthAdjust="spacing" textLength="179" x="213.5" y="372.8857">build() -&gt; HTMLDocument</text></g><!--reverse link Resource to Image--><g id="link_Resource_Image"><path codeLine="1130" d="M222.6055,790.0561 C214.1055,812.7461 211.72,819.07 206.23,833.72 " fill="none" id="Resource-backto-Image" style="stroke:#181818;stroke-width:1.0;"/><polygon fill="none" points="228.92,773.2,216.9868,787.9512,228.2242,792.1609,228.92,773.2" style="stroke:#181818;stroke-width:1.0;"/></g><!--reverse link Resource to Script--><g id="link_Resource_Script"><path codeLine="1131" d="M286.3945,790.0561 C294.8945,812.7461 297.28,819.07 302.77,833.72 " fill="none" id="Resource-backto-Script" style="stroke:#181818;stroke-width:1.0;"/><polygon fill="none" points="280.08,773.2,280.7758,792.1609,292.0132,787.9512,280.08,773.2" style="stroke:#181818;stroke-width:1.0;"/></g><!--reverse link Resource to StyleSheet--><g id="link_Resource_StyleSheet"><path codeLine="1132" d="M352.8006,784.5253 C380.8306,807.2153 395.5,819.07 413.61,833.72 " fill="none" id="Resource-backto-StyleSheet" style="stroke:#181818;stroke-width:1.0;"/><polygon fill="none" points="338.81,773.2,349.0255,789.1888,356.5757,779.8617,338.81,773.2" style="stroke:#181818;stroke-width:1.0;"/></g><!--reverse link Resource to Anchor--><g id="link_Resource_Anchor"><path codeLine="1133" d="M161.7711,784.9581 C135.4711,807.6481 122.21,819.07 105.22,833.72 " fill="none" id="Resource-backto-Anchor" style="stroke:#181818;stroke-width:1.0;"/><polygon fill="none" points="175.4,773.2,157.8517,780.4152,165.6905,789.5011,175.4,773.2" style="stroke:#181818;stroke-width:1.0;"/></g><!--reverse link Website to HTMLDocument--><g id="link_Website_HTMLDocument"><path codeLine="1135" d="M127.9699,373.2621 C153.2199,402.6521 181.56,435.63 210.01,468.73 " fill="none" id="Website-backto-HTMLDocument" style="stroke:#181818;stroke-width:1.0;"/><polygon fill="none" points="120.15,364.16,121.0259,371.3177,127.9699,373.2621,127.094,366.1044,120.15,364.16" style="stroke:#181818;stroke-width:1.0;"/></g><!--reverse link HTMLDocument to Resource--><g id="link_HTMLDocument_Resource"><path codeLine="1136" d="M254.5,586.22 C254.5,605.08 254.5,614.7 254.5,634.77 " fill="none" id="HTMLDocument-backto-Resource" style="stroke:#181818;stroke-width:1.0;"/><polygon fill="none" points="254.5,574.22,250.5,580.22,254.5,586.22,258.5,580.22,254.5,574.22" style="stroke:#181818;stroke-width:1.0;"/></g><!--reverse link ReportWriter to TextReportWriter--><g id="link_ReportWriter_TextReportWriter"><path codeLine="1138" d="M649.2965,405.0991 C610.3865,445.2691 575.71,481.06 552.24,505.29 " fill="none" id="ReportWriter-backto-TextReportWriter" style="stroke:#181818;stroke-width:1.0;"/><polygon fill="none" points="661.82,392.17,644.9868,400.9246,653.6062,409.2736,661.82,392.17" style="stroke:#181818;stroke-width:1.0;"/></g><!--reverse link ReportWriter to JSONReportWriter--><g id="link_ReportWriter_JSONReportWriter"><path codeLine="1139" d="M723.5,410.17 C723.5,450.34 723.5,481.06 723.5,505.29 " fill="none" id="ReportWriter-backto-JSONReportWriter" style="stroke:#181818;stroke-width:1.0;"/><polygon fill="none" points="723.5,392.17,717.5,410.17,729.5,410.17,723.5,392.17" style="stroke:#181818;stroke-width:1.0;"/></g><!--reverse link ReportWriter to ExcelReportWriter--><g id="link_ReportWriter_ExcelReportWriter"><path codeLine="1140" d="M798.7969,404.9981 C838.3369,445.1681 873.68,481.06 897.53,505.29 " fill="none" id="ReportWriter-backto-ExcelReportWriter" style="stroke:#181818;stroke-width:1.0;"/><polygon fill="none" points="786.17,392.17,794.5209,409.2071,803.073,400.7891,786.17,392.17" style="stroke:#181818;stroke-width:1.0;"/></g><!--link ReportManager to ReportWriter--><g id="link_ReportManager_ReportWriter"><path codeLine="1142" d="M723.5,157.07 C723.5,189.54 723.5,223.73 723.5,256.82 " fill="none" id="ReportManager-to-ReportWriter" style="stroke:#181818;stroke-width:1.0;"/><polygon fill="#181818" points="723.5,262.82,727.5,253.82,723.5,257.82,719.5,253.82,723.5,262.82" style="stroke:#181818;stroke-width:1.0;"/><text fill="#000000" font-family="sans-serif" font-size="13" lengthAdjust="spacing" textLength="140" x="724.5" y="229.0669">creates and manages</text><text fill="#000000" font-family="sans-serif" font-size="13" lengthAdjust="spacing" textLength="8" x="715.0625" y="251.973">3</text></g><!--link WebsiteBuilder to Website--><g id="link_WebsiteBuilder_Website"><path codeLine="1144" d="M122.79,157.07 C114.46,199.48 104.697,249.1726 97.677,284.8926 " fill="none" id="WebsiteBuilder-to-Website" style="stroke:#181818;stroke-width:1.0;"/><polygon fill="#181818" points="96.52,290.78,102.1805,282.7203,97.4842,285.8738,94.3306,281.1776,96.52,290.78" style="stroke:#181818;stroke-width:1.0;"/><text fill="#000000" font-family="sans-serif" font-size="13" lengthAdjust="spacing" textLength="67" x="112.5" y="229.0669">constructs</text></g><!--link WebsiteBuilder to HTMLDocumentBuilder--><g id="link_WebsiteBuilder_HTMLDocumentBuilder"><path codeLine="1145" d="M193.03,157.07 C228.84,193.51 269.9943,235.4108 304.3243,270.3408 " fill="none" id="WebsiteBuilder-to-HTMLDocumentBuilder" style="stroke:#181818;stroke-width:1.0;stroke-dasharray:7.0,7.0;"/><polygon fill="#181818" points="308.53,274.62,305.0742,265.3973,305.0252,271.054,299.3686,271.005,308.53,274.62" style="stroke:#181818;stroke-width:1.0;"/></g><!--link HTMLDocumentBuilder to HTMLDocument--><g id="link_HTMLDocumentBuilder_HTMLDocument"><path codeLine="1146" d="M331.22,380.21 C316.22,407.64 300.7186,435.9856 285.7086,463.4356 " fill="none" id="HTMLDocumentBuilder-to-HTMLDocument" style="stroke:#181818;stroke-width:1.0;"/><polygon fill="#181818" points="282.83,468.7,290.6575,462.7225,285.2289,464.313,283.6384,458.8844,282.83,468.7" style="stroke:#181818;stroke-width:1.0;"/><text fill="#000000" font-family="sans-serif" font-size="13" lengthAdjust="spacing" textLength="67" x="308.5" y="435.0669">constructs</text></g><!--SRC=[ZLJ9Zk8m4BtdAonEuK1VvXQXI2pf8JDi2dJtp34a1LXoR6GxwcQMVnylSJRIqd10yNlFvLVbAbzn3WYAcxoZ0eeJSE5v6Kc5G6zm4bW2-kqXzICiIyaISyWau_S0xLDvDKJ9YGZGWX6YACpez2LPXzvV5sLrtAoNB2iBeB8A9JAERxAxwM2mqFBoJa1S0VeQZHyqRdMuI2_GbSGQicnAiolZNNfci9Qx10GhUUQIlAcakga5IALZ5cTMqdn7E_7QoOLrcJGLeBKk69Pt0ylx3NPdTrfGd_iTqzpcZ7yfmJCcYYICNXgBrhCos40cIuNKWArU1wbhPL6WPL5RGjDffDPXMAKTRuzHifsjtIAPxMTV8xEAVbIKYz5s_X1duxOTZZ_NqM4LHKUxN2JntdxEjelLBZ6Vh_4osbdmPHbNNybY5R_Q8BlZAahQTtLZN6vIgfBdhfL07eoTPIfJNxThuFfsR0GvIE05fZ1F1UZoqhG0ttBlNCbirAr2XSzAtN7pydm63lcRfldOQxGpGjJMdY4hg_oysxDh4zx_kLG2xK-xy4-LKRq8r3roJ2zj4sq7H_YGFHSD-UsmstvAHXyPa4_Pojoyn2HlSiFogaV3RwPaN1DgIdmtBXrK-8CFXDMOlvC-nH-ZILXNRV3rU7IpO5GgufcpmkUGAhAvlSIinuFQinapNUIgi2qBxHErZ_g5cFwPJEpazJ0xV7smdhyUOSVPyzphoXJMERFpO6hMxTTUMlTbelKRO43IRuC1oKCpkAFSi4rKOKPVHfsE3z0eKqMN8DHJcwF2ICMepinTrwIvLxs5KI5vcKcbx0cVdiAX-_Q6Uc3IkwbUv7y0]--></g></svg>