<?xml version="1.0" encoding="us-ascii" standalone="no"?><svg xmlns="http://www.w3.org/2000/svg" xmlns:xlink="http://www.w3.org/1999/xlink" contentStyleType="text/css" height="344px" preserveAspectRatio="none" style="width:452px;height:344px;background:#FFFFFF;" version="1.1" viewBox="0 0 452 344" width="452px" zoomAndPan="magnify"><defs/><g><!--class Website--><g id="elem_Website"><rect codeLine="58" fill="#F1F1F1" height="72.5938" id="Website" rx="2.5" ry="2.5" style="stroke:#181818;stroke-width:0.5;" width="165" x="132" y="7"/><ellipse cx="182.25" cy="23" fill="#ADD1B2" rx="11" ry="11" style="stroke:#181818;stroke-width:1.0;"/><path d="M185.2188,28.6406 Q184.6406,28.9375 184,29.0781 Q183.3594,29.2344 182.6563,29.2344 Q180.1563,29.2344 178.8281,27.5938 Q177.5156,25.9375 177.5156,22.8125 Q177.5156,19.6875 178.8281,18.0313 Q180.1563,16.375 182.6563,16.375 Q183.3594,16.375 184,16.5313 Q184.6563,16.6875 185.2188,16.9844 L185.2188,19.7031 Q184.5938,19.125 184,18.8594 Q183.4063,18.5781 182.7813,18.5781 Q181.4375,18.5781 180.75,19.6563 Q180.0625,20.7188 180.0625,22.8125 Q180.0625,24.9063 180.75,25.9844 Q181.4375,27.0469 182.7813,27.0469 Q183.4063,27.0469 184,26.7813 Q184.5938,26.5 185.2188,25.9219 L185.2188,28.6406 Z " fill="#000000"/><text fill="#000000" font-family="sans-serif" font-size="14" lengthAdjust="spacing" textLength="56" x="202.75" y="27.8467">Website</text><line style="stroke:#181818;stroke-width:0.5;" x1="133" x2="296" y1="39" y2="39"/><text fill="#000000" font-family="sans-serif" font-size="14" lengthAdjust="spacing" textLength="133" x="138" y="55.9951">localDirectory: Path</text><text fill="#000000" font-family="sans-serif" font-size="14" lengthAdjust="spacing" textLength="153" x="138" y="72.292">urls: Collection&lt;URL&gt;</text></g><!--class HTMLDocument--><g id="elem_HTMLDocument"><rect codeLine="63" fill="#F1F1F1" height="105.1875" id="HTMLDocument" rx="2.5" ry="2.5" style="stroke:#181818;stroke-width:0.5;" width="267" x="81" y="140"/><ellipse cx="154.75" cy="156" fill="#ADD1B2" rx="11" ry="11" style="stroke:#181818;stroke-width:1.0;"/><path d="M157.7188,161.6406 Q157.1406,161.9375 156.5,162.0781 Q155.8594,162.2344 155.1563,162.2344 Q152.6563,162.2344 151.3281,160.5938 Q150.0156,158.9375 150.0156,155.8125 Q150.0156,152.6875 151.3281,151.0313 Q152.6563,149.375 155.1563,149.375 Q155.8594,149.375 156.5,149.5313 Q157.1563,149.6875 157.7188,149.9844 L157.7188,152.7031 Q157.0938,152.125 156.5,151.8594 Q155.9063,151.5781 155.2813,151.5781 Q153.9375,151.5781 153.25,152.6563 Q152.5625,153.7188 152.5625,155.8125 Q152.5625,157.9063 153.25,158.9844 Q153.9375,160.0469 155.2813,160.0469 Q155.9063,160.0469 156.5,159.7813 Q157.0938,159.5 157.7188,158.9219 L157.7188,161.6406 Z " fill="#000000"/><text fill="#000000" font-family="sans-serif" font-size="14" lengthAdjust="spacing" textLength="111" x="175.25" y="160.8467">HTMLDocument</text><line style="stroke:#181818;stroke-width:0.5;" x1="82" x2="347" y1="172" y2="172"/><text fill="#000000" font-family="sans-serif" font-size="14" lengthAdjust="spacing" textLength="186" x="87" y="188.9951">scripts: Collection&lt;Script&gt;</text><text fill="#000000" font-family="sans-serif" font-size="14" lengthAdjust="spacing" textLength="255" x="87" y="205.292">stylesheets: Collection&lt;StyleSheet&gt;</text><text fill="#000000" font-family="sans-serif" font-size="14" lengthAdjust="spacing" textLength="193" x="87" y="221.5889">images: Collection&lt;Image&gt;</text><text fill="#000000" font-family="sans-serif" font-size="14" lengthAdjust="spacing" textLength="206" x="87" y="237.8857">anchors: Collection&lt;Anchor&gt;</text></g><!--class Anchor--><g id="elem_Anchor"><rect codeLine="70" fill="#F1F1F1" height="32" id="Anchor" rx="2.5" ry="2.5" style="stroke:#181818;stroke-width:0.5;" width="81" x="7" y="305"/><ellipse cx="22" cy="321" fill="#ADD1B2" rx="11" ry="11" style="stroke:#181818;stroke-width:1.0;"/><path d="M24.9688,326.6406 Q24.3906,326.9375 23.75,327.0781 Q23.1094,327.2344 22.4063,327.2344 Q19.9063,327.2344 18.5781,325.5938 Q17.2656,323.9375 17.2656,320.8125 Q17.2656,317.6875 18.5781,316.0313 Q19.9063,314.375 22.4063,314.375 Q23.1094,314.375 23.75,314.5313 Q24.4063,314.6875 24.9688,314.9844 L24.9688,317.7031 Q24.3438,317.125 23.75,316.8594 Q23.1563,316.5781 22.5313,316.5781 Q21.1875,316.5781 20.5,317.6563 Q19.8125,318.7188 19.8125,320.8125 Q19.8125,322.9063 20.5,323.9844 Q21.1875,325.0469 22.5313,325.0469 Q23.1563,325.0469 23.75,324.7813 Q24.3438,324.5 24.9688,323.9219 L24.9688,326.6406 Z " fill="#000000"/><text fill="#000000" font-family="sans-serif" font-size="14" lengthAdjust="spacing" textLength="49" x="36" y="325.8467">Anchor</text></g><!--class Image--><g id="elem_Image"><rect codeLine="73" fill="#F1F1F1" height="32" id="Image" rx="2.5" ry="2.5" style="stroke:#181818;stroke-width:0.5;" width="74" x="123.5" y="305"/><ellipse cx="138.5" cy="321" fill="#ADD1B2" rx="11" ry="11" style="stroke:#181818;stroke-width:1.0;"/><path d="M141.4688,326.6406 Q140.8906,326.9375 140.25,327.0781 Q139.6094,327.2344 138.9063,327.2344 Q136.4063,327.2344 135.0781,325.5938 Q133.7656,323.9375 133.7656,320.8125 Q133.7656,317.6875 135.0781,316.0313 Q136.4063,314.375 138.9063,314.375 Q139.6094,314.375 140.25,314.5313 Q140.9063,314.6875 141.4688,314.9844 L141.4688,317.7031 Q140.8438,317.125 140.25,316.8594 Q139.6563,316.5781 139.0313,316.5781 Q137.6875,316.5781 137,317.6563 Q136.3125,318.7188 136.3125,320.8125 Q136.3125,322.9063 137,323.9844 Q137.6875,325.0469 139.0313,325.0469 Q139.6563,325.0469 140.25,324.7813 Q140.8438,324.5 141.4688,323.9219 L141.4688,326.6406 Z " fill="#000000"/><text fill="#000000" font-family="sans-serif" font-size="14" lengthAdjust="spacing" textLength="42" x="152.5" y="325.8467">Image</text></g><!--class Script--><g id="elem_Script"><rect codeLine="76" fill="#F1F1F1" height="32" id="Script" rx="2.5" ry="2.5" style="stroke:#181818;stroke-width:0.5;" width="71" x="233" y="305"/><ellipse cx="248" cy="321" fill="#ADD1B2" rx="11" ry="11" style="stroke:#181818;stroke-width:1.0;"/><path d="M250.9688,326.6406 Q250.3906,326.9375 249.75,327.0781 Q249.1094,327.2344 248.4063,327.2344 Q245.9063,327.2344 244.5781,325.5938 Q243.2656,323.9375 243.2656,320.8125 Q243.2656,317.6875 244.5781,316.0313 Q245.9063,314.375 248.4063,314.375 Q249.1094,314.375 249.75,314.5313 Q250.4063,314.6875 250.9688,314.9844 L250.9688,317.7031 Q250.3438,317.125 249.75,316.8594 Q249.1563,316.5781 248.5313,316.5781 Q247.1875,316.5781 246.5,317.6563 Q245.8125,318.7188 245.8125,320.8125 Q245.8125,322.9063 246.5,323.9844 Q247.1875,325.0469 248.5313,325.0469 Q249.1563,325.0469 249.75,324.7813 Q250.3438,324.5 250.9688,323.9219 L250.9688,326.6406 Z " fill="#000000"/><text fill="#000000" font-family="sans-serif" font-size="14" lengthAdjust="spacing" textLength="39" x="262" y="325.8467">Script</text></g><!--class StyleSheet--><g id="elem_StyleSheet"><rect codeLine="79" fill="#F1F1F1" height="32" id="StyleSheet" rx="2.5" ry="2.5" style="stroke:#181818;stroke-width:0.5;" width="106" x="339.5" y="305"/><ellipse cx="354.5" cy="321" fill="#ADD1B2" rx="11" ry="11" style="stroke:#181818;stroke-width:1.0;"/><path d="M357.4688,326.6406 Q356.8906,326.9375 356.25,327.0781 Q355.6094,327.2344 354.9063,327.2344 Q352.4063,327.2344 351.0781,325.5938 Q349.7656,323.9375 349.7656,320.8125 Q349.7656,317.6875 351.0781,316.0313 Q352.4063,314.375 354.9063,314.375 Q355.6094,314.375 356.25,314.5313 Q356.9063,314.6875 357.4688,314.9844 L357.4688,317.7031 Q356.8438,317.125 356.25,316.8594 Q355.6563,316.5781 355.0313,316.5781 Q353.6875,316.5781 353,317.6563 Q352.3125,318.7188 352.3125,320.8125 Q352.3125,322.9063 353,323.9844 Q353.6875,325.0469 355.0313,325.0469 Q355.6563,325.0469 356.25,324.7813 Q356.8438,324.5 357.4688,323.9219 L357.4688,326.6406 Z " fill="#000000"/><text fill="#000000" font-family="sans-serif" font-size="14" lengthAdjust="spacing" textLength="74" x="368.5" y="325.8467">StyleSheet</text></g><!--reverse link Website to HTMLDocument--><g id="link_Website_HTMLDocument"><path codeLine="82" d="M214.5,92.08 C214.5,110.01 214.5,120.09 214.5,139.84 " fill="none" id="Website-backto-HTMLDocument" style="stroke:#181818;stroke-width:1.0;"/><polygon fill="none" points="214.5,80.08,210.5,86.08,214.5,92.08,218.5,86.08,214.5,80.08" style="stroke:#181818;stroke-width:1.0;"/></g><!--reverse link HTMLDocument to Image--><g id="link_HTMLDocument_Image"><path codeLine="83" d="M187.666,256.3553 C178.516,277.7753 173.32,289.98 167.01,304.74 " fill="none" id="HTMLDocument-backto-Image" style="stroke:#181818;stroke-width:1.0;"/><polygon fill="none" points="192.38,245.32,186.3446,249.2663,187.666,256.3553,193.7015,252.409,192.38,245.32" style="stroke:#181818;stroke-width:1.0;"/></g><!--reverse link HTMLDocument to Script--><g id="link_HTMLDocument_Script"><path codeLine="84" d="M241.334,256.3553 C250.484,277.7753 255.68,289.98 261.99,304.74 " fill="none" id="HTMLDocument-backto-Script" style="stroke:#181818;stroke-width:1.0;"/><polygon fill="none" points="236.62,245.32,235.2985,252.409,241.334,256.3553,242.6554,249.2663,236.62,245.32" style="stroke:#181818;stroke-width:1.0;"/></g><!--reverse link HTMLDocument to StyleSheet--><g id="link_HTMLDocument_StyleSheet"><path codeLine="85" d="M296.9404,252.0829 C327.3104,273.6729 350.54,290.18 371.36,304.98 " fill="none" id="HTMLDocument-backto-StyleSheet" style="stroke:#181818;stroke-width:1.0;"/><polygon fill="none" points="287.16,245.13,289.7326,251.8666,296.9404,252.0829,294.3679,245.3463,287.16,245.13" style="stroke:#181818;stroke-width:1.0;"/></g><!--reverse link HTMLDocument to Anchor--><g id="link_HTMLDocument_Anchor"><path codeLine="86" d="M136.5242,252.5654 C108.2442,273.9854 87.13,289.98 67.64,304.74 " fill="none" id="HTMLDocument-backto-Anchor" style="stroke:#181818;stroke-width:1.0;"/><polygon fill="none" points="146.09,245.32,138.892,245.7541,136.5242,252.5654,143.7222,252.1313,146.09,245.32" style="stroke:#181818;stroke-width:1.0;"/></g><!--SRC=[RP3H2i8W58RlVGfVO2ymOX3jec11j4NNpWufw1pgBaRqxarF6xFbvVSTV_-Za0-We7i_KWsw1Ui8uOevH-_GEkc1lWYTZZASgL9QuDxOCQSNvaKKWrKkfmUZrAIawNQtQrMGzvnoRCvLQVYWeVFVACUjx7rwgOwiGEz71Ku0_Cu4NWUESrAp9wGZfu3GieuBOrEzZspL3i7KQo4nOGsmMKAM7aZdZp9PbgnBajs3ZU5RZ4_yuSj3MuVDoGS0]--></g></svg>