<?xml version="1.0" encoding="us-ascii" standalone="no"?><svg xmlns="http://www.w3.org/2000/svg" xmlns:xlink="http://www.w3.org/1999/xlink" contentStyleType="text/css" height="400px" preserveAspectRatio="none" style="width:1255px;height:400px;background:#FFFFFF;" version="1.1" viewBox="0 0 1255 400" width="1255px" zoomAndPan="magnify"><defs/><g><!--class Website--><g id="elem_Website"><rect codeLine="119" fill="#F1F1F1" height="72.5938" id="Website" rx="2.5" ry="2.5" style="stroke:#181818;stroke-width:0.5;" width="165" x="544.5" y="7"/><ellipse cx="594.75" cy="23" fill="#ADD1B2" rx="11" ry="11" style="stroke:#181818;stroke-width:1.0;"/><path d="M597.7188,28.6406 Q597.1406,28.9375 596.5,29.0781 Q595.8594,29.2344 595.1563,29.2344 Q592.6563,29.2344 591.3281,27.5938 Q590.0156,25.9375 590.0156,22.8125 Q590.0156,19.6875 591.3281,18.0313 Q592.6563,16.375 595.1563,16.375 Q595.8594,16.375 596.5,16.5313 Q597.1563,16.6875 597.7188,16.9844 L597.7188,19.7031 Q597.0938,19.125 596.5,18.8594 Q595.9063,18.5781 595.2813,18.5781 Q593.9375,18.5781 593.25,19.6563 Q592.5625,20.7188 592.5625,22.8125 Q592.5625,24.9063 593.25,25.9844 Q593.9375,27.0469 595.2813,27.0469 Q595.9063,27.0469 596.5,26.7813 Q597.0938,26.5 597.7188,25.9219 L597.7188,28.6406 Z " fill="#000000"/><text fill="#000000" font-family="sans-serif" font-size="14" lengthAdjust="spacing" textLength="56" x="615.25" y="27.8467">Website</text><line style="stroke:#181818;stroke-width:0.5;" x1="545.5" x2="708.5" y1="39" y2="39"/><text fill="#000000" font-family="sans-serif" font-size="14" lengthAdjust="spacing" textLength="133" x="550.5" y="55.9951">localDirectory: Path</text><text fill="#000000" font-family="sans-serif" font-size="14" lengthAdjust="spacing" textLength="153" x="550.5" y="72.292">urls: Collection&lt;URL&gt;</text></g><!--class HTMLDocument--><g id="elem_HTMLDocument"><rect codeLine="124" fill="#F1F1F1" height="105.1875" id="HTMLDocument" rx="2.5" ry="2.5" style="stroke:#181818;stroke-width:0.5;" width="267" x="493.5" y="140"/><ellipse cx="567.25" cy="156" fill="#ADD1B2" rx="11" ry="11" style="stroke:#181818;stroke-width:1.0;"/><path d="M570.2188,161.6406 Q569.6406,161.9375 569,162.0781 Q568.3594,162.2344 567.6563,162.2344 Q565.1563,162.2344 563.8281,160.5938 Q562.5156,158.9375 562.5156,155.8125 Q562.5156,152.6875 563.8281,151.0313 Q565.1563,149.375 567.6563,149.375 Q568.3594,149.375 569,149.5313 Q569.6563,149.6875 570.2188,149.9844 L570.2188,152.7031 Q569.5938,152.125 569,151.8594 Q568.4063,151.5781 567.7813,151.5781 Q566.4375,151.5781 565.75,152.6563 Q565.0625,153.7188 565.0625,155.8125 Q565.0625,157.9063 565.75,158.9844 Q566.4375,160.0469 567.7813,160.0469 Q568.4063,160.0469 569,159.7813 Q569.5938,159.5 570.2188,158.9219 L570.2188,161.6406 Z " fill="#000000"/><text fill="#000000" font-family="sans-serif" font-size="14" lengthAdjust="spacing" textLength="111" x="587.75" y="160.8467">HTMLDocument</text><line style="stroke:#181818;stroke-width:0.5;" x1="494.5" x2="759.5" y1="172" y2="172"/><text fill="#000000" font-family="sans-serif" font-size="14" lengthAdjust="spacing" textLength="186" x="499.5" y="188.9951">scripts: Collection&lt;Script&gt;</text><text fill="#000000" font-family="sans-serif" font-size="14" lengthAdjust="spacing" textLength="255" x="499.5" y="205.292">stylesheets: Collection&lt;StyleSheet&gt;</text><text fill="#000000" font-family="sans-serif" font-size="14" lengthAdjust="spacing" textLength="193" x="499.5" y="221.5889">images: Collection&lt;Image&gt;</text><text fill="#000000" font-family="sans-serif" font-size="14" lengthAdjust="spacing" textLength="206" x="499.5" y="237.8857">anchors: Collection&lt;Anchor&gt;</text></g><!--class Anchor--><g id="elem_Anchor"><rect codeLine="131" fill="#F1F1F1" height="88.8906" id="Anchor" rx="2.5" ry="2.5" style="stroke:#181818;stroke-width:0.5;" width="284" x="7" y="305"/><ellipse cx="120.25" cy="321" fill="#ADD1B2" rx="11" ry="11" style="stroke:#181818;stroke-width:1.0;"/><path d="M123.2188,326.6406 Q122.6406,326.9375 122,327.0781 Q121.3594,327.2344 120.6563,327.2344 Q118.1563,327.2344 116.8281,325.5938 Q115.5156,323.9375 115.5156,320.8125 Q115.5156,317.6875 116.8281,316.0313 Q118.1563,314.375 120.6563,314.375 Q121.3594,314.375 122,314.5313 Q122.6563,314.6875 123.2188,314.9844 L123.2188,317.7031 Q122.5938,317.125 122,316.8594 Q121.4063,316.5781 120.7813,316.5781 Q119.4375,316.5781 118.75,317.6563 Q118.0625,318.7188 118.0625,320.8125 Q118.0625,322.9063 118.75,323.9844 Q119.4375,325.0469 120.7813,325.0469 Q121.4063,325.0469 122,324.7813 Q122.5938,324.5 123.2188,323.9219 L123.2188,326.6406 Z " fill="#000000"/><text fill="#000000" font-family="sans-serif" font-size="14" lengthAdjust="spacing" textLength="49" x="140.75" y="325.8467">Anchor</text><line style="stroke:#181818;stroke-width:0.5;" x1="8" x2="290" y1="337" y2="337"/><text fill="#000000" font-family="sans-serif" font-size="14" lengthAdjust="spacing" textLength="71" x="13" y="353.9951">path: Path</text><text fill="#000000" font-family="sans-serif" font-size="14" lengthAdjust="spacing" textLength="53" x="13" y="370.292">url: URL</text><text fill="#000000" font-family="sans-serif" font-size="14" lengthAdjust="spacing" textLength="272" x="13" y="386.5889">foundOn: Collection&lt;HTMLDocument&gt;</text></g><!--class Image--><g id="elem_Image"><rect codeLine="137" fill="#F1F1F1" height="88.8906" id="Image" rx="2.5" ry="2.5" style="stroke:#181818;stroke-width:0.5;" width="284" x="326" y="305"/><ellipse cx="442.75" cy="321" fill="#ADD1B2" rx="11" ry="11" style="stroke:#181818;stroke-width:1.0;"/><path d="M445.7188,326.6406 Q445.1406,326.9375 444.5,327.0781 Q443.8594,327.2344 443.1563,327.2344 Q440.6563,327.2344 439.3281,325.5938 Q438.0156,323.9375 438.0156,320.8125 Q438.0156,317.6875 439.3281,316.0313 Q440.6563,314.375 443.1563,314.375 Q443.8594,314.375 444.5,314.5313 Q445.1563,314.6875 445.7188,314.9844 L445.7188,317.7031 Q445.0938,317.125 444.5,316.8594 Q443.9063,316.5781 443.2813,316.5781 Q441.9375,316.5781 441.25,317.6563 Q440.5625,318.7188 440.5625,320.8125 Q440.5625,322.9063 441.25,323.9844 Q441.9375,325.0469 443.2813,325.0469 Q443.9063,325.0469 444.5,324.7813 Q445.0938,324.5 445.7188,323.9219 L445.7188,326.6406 Z " fill="#000000"/><text fill="#000000" font-family="sans-serif" font-size="14" lengthAdjust="spacing" textLength="42" x="463.25" y="325.8467">Image</text><line style="stroke:#181818;stroke-width:0.5;" x1="327" x2="609" y1="337" y2="337"/><text fill="#000000" font-family="sans-serif" font-size="14" lengthAdjust="spacing" textLength="71" x="332" y="353.9951">path: Path</text><text fill="#000000" font-family="sans-serif" font-size="14" lengthAdjust="spacing" textLength="53" x="332" y="370.292">url: URL</text><text fill="#000000" font-family="sans-serif" font-size="14" lengthAdjust="spacing" textLength="272" x="332" y="386.5889">foundOn: Collection&lt;HTMLDocument&gt;</text></g><!--class Script--><g id="elem_Script"><rect codeLine="143" fill="#F1F1F1" height="88.8906" id="Script" rx="2.5" ry="2.5" style="stroke:#181818;stroke-width:0.5;" width="284" x="645" y="305"/><ellipse cx="763.25" cy="321" fill="#ADD1B2" rx="11" ry="11" style="stroke:#181818;stroke-width:1.0;"/><path d="M766.2188,326.6406 Q765.6406,326.9375 765,327.0781 Q764.3594,327.2344 763.6563,327.2344 Q761.1563,327.2344 759.8281,325.5938 Q758.5156,323.9375 758.5156,320.8125 Q758.5156,317.6875 759.8281,316.0313 Q761.1563,314.375 763.6563,314.375 Q764.3594,314.375 765,314.5313 Q765.6563,314.6875 766.2188,314.9844 L766.2188,317.7031 Q765.5938,317.125 765,316.8594 Q764.4063,316.5781 763.7813,316.5781 Q762.4375,316.5781 761.75,317.6563 Q761.0625,318.7188 761.0625,320.8125 Q761.0625,322.9063 761.75,323.9844 Q762.4375,325.0469 763.7813,325.0469 Q764.4063,325.0469 765,324.7813 Q765.5938,324.5 766.2188,323.9219 L766.2188,326.6406 Z " fill="#000000"/><text fill="#000000" font-family="sans-serif" font-size="14" lengthAdjust="spacing" textLength="39" x="783.75" y="325.8467">Script</text><line style="stroke:#181818;stroke-width:0.5;" x1="646" x2="928" y1="337" y2="337"/><text fill="#000000" font-family="sans-serif" font-size="14" lengthAdjust="spacing" textLength="71" x="651" y="353.9951">path: Path</text><text fill="#000000" font-family="sans-serif" font-size="14" lengthAdjust="spacing" textLength="53" x="651" y="370.292">url: URL</text><text fill="#000000" font-family="sans-serif" font-size="14" lengthAdjust="spacing" textLength="272" x="651" y="386.5889">foundOn: Collection&lt;HTMLDocument&gt;</text></g><!--class StyleSheet--><g id="elem_StyleSheet"><rect codeLine="149" fill="#F1F1F1" height="88.8906" id="StyleSheet" rx="2.5" ry="2.5" style="stroke:#181818;stroke-width:0.5;" width="284" x="964" y="305"/><ellipse cx="1064.75" cy="321" fill="#ADD1B2" rx="11" ry="11" style="stroke:#181818;stroke-width:1.0;"/><path d="M1067.7188,326.6406 Q1067.1406,326.9375 1066.5,327.0781 Q1065.8594,327.2344 1065.1563,327.2344 Q1062.6563,327.2344 1061.3281,325.5938 Q1060.0156,323.9375 1060.0156,320.8125 Q1060.0156,317.6875 1061.3281,316.0313 Q1062.6563,314.375 1065.1563,314.375 Q1065.8594,314.375 1066.5,314.5313 Q1067.1563,314.6875 1067.7188,314.9844 L1067.7188,317.7031 Q1067.0938,317.125 1066.5,316.8594 Q1065.9063,316.5781 1065.2813,316.5781 Q1063.9375,316.5781 1063.25,317.6563 Q1062.5625,318.7188 1062.5625,320.8125 Q1062.5625,322.9063 1063.25,323.9844 Q1063.9375,325.0469 1065.2813,325.0469 Q1065.9063,325.0469 1066.5,324.7813 Q1067.0938,324.5 1067.7188,323.9219 L1067.7188,326.6406 Z " fill="#000000"/><text fill="#000000" font-family="sans-serif" font-size="14" lengthAdjust="spacing" textLength="74" x="1085.25" y="325.8467">StyleSheet</text><line style="stroke:#181818;stroke-width:0.5;" x1="965" x2="1247" y1="337" y2="337"/><text fill="#000000" font-family="sans-serif" font-size="14" lengthAdjust="spacing" textLength="71" x="970" y="353.9951">path: Path</text><text fill="#000000" font-family="sans-serif" font-size="14" lengthAdjust="spacing" textLength="53" x="970" y="370.292">url: URL</text><text fill="#000000" font-family="sans-serif" font-size="14" lengthAdjust="spacing" textLength="272" x="970" y="386.5889">foundOn: Collection&lt;HTMLDocument&gt;</text></g><!--reverse link Website to HTMLDocument--><g id="link_Website_HTMLDocument"><path codeLine="155" d="M627,92.08 C627,110.01 627,120.09 627,139.84 " fill="none" id="Website-backto-HTMLDocument" style="stroke:#181818;stroke-width:1.0;"/><polygon fill="none" points="627,80.08,623,86.08,627,92.08,631,86.08,627,80.08" style="stroke:#181818;stroke-width:1.0;"/></g><!--reverse link HTMLDocument to Image--><g id="link_HTMLDocument_Image"><path codeLine="156" d="M565.4674,253.4865 C545.5874,272.8665 531.8,286.3 512.75,304.88 " fill="none" id="HTMLDocument-backto-Image" style="stroke:#181818;stroke-width:1.0;"/><polygon fill="none" points="574.06,245.11,566.9715,246.4341,565.4674,253.4865,572.5559,252.1625,574.06,245.11" style="stroke:#181818;stroke-width:1.0;"/></g><!--reverse link HTMLDocument to Script--><g id="link_HTMLDocument_Script"><path codeLine="157" d="M688.8978,253.4607 C708.8978,272.8407 722.79,286.3 741.97,304.88 " fill="none" id="HTMLDocument-backto-Script" style="stroke:#181818;stroke-width:1.0;"/><polygon fill="none" points="680.28,245.11,681.8054,252.1579,688.8978,253.4607,687.3725,246.4127,680.28,245.11" style="stroke:#181818;stroke-width:1.0;"/></g><!--reverse link HTMLDocument to StyleSheet--><g id="link_HTMLDocument_StyleSheet"><path codeLine="158" d="M772.1673,240.474 C837.9073,261.744 905.53,283.63 971.38,304.94 " fill="none" id="HTMLDocument-backto-StyleSheet" style="stroke:#181818;stroke-width:1.0;"/><polygon fill="none" points="760.75,236.78,765.2273,242.4328,772.1673,240.474,767.69,234.8213,760.75,236.78" style="stroke:#181818;stroke-width:1.0;"/></g><!--reverse link HTMLDocument to Anchor--><g id="link_HTMLDocument_Anchor"><path codeLine="159" d="M481.7952,240.5817 C416.2052,261.8517 348.81,283.71 283.17,304.99 " fill="none" id="HTMLDocument-backto-Anchor" style="stroke:#181818;stroke-width:1.0;"/><polygon fill="none" points="493.21,236.88,486.2687,234.9259,481.7952,240.5817,488.7365,242.5358,493.21,236.88" style="stroke:#181818;stroke-width:1.0;"/></g><!--SRC=[hP9D3e8m48NtFKKlu0M88J6oq0IZ4OthKaPfqX_IbWKntjtI0g7YakxwlUdBl9dMh08Ceh4T5Y1Aq0OXoean-06bOHRm6s5tkAA4Pqm3jKft2RuGMtkXrTmaUAyuTn9JSdk_vYdwZ2w7sodF56q5I3jO6QfPO-D7XMTfq6t7mTG0lpKzBteUwfWWBuXBZZqAAf6qLZgMTvxDkWjWwAjnaU9W2NPX_EMfMbcTPUGsZpRpz3siQnccixBdDCsrVCSFepQRQEqe-WEzwaUqn27c7pwrkjJ21j4N]--></g></svg>